M48
INCH,TZ
T1C0.031
T2C0.039
T3C0.040
T4C0.043
T5C0.051
T6C0.126
T7C0.138
%
G90
G05
T1
X68500Y-49500
X68500Y-52500
X69500Y-49500
X69500Y-52500
X70500Y-49500
X70500Y-52500
X71500Y-49500
X71500Y-52500
T2
X67969Y-36500
X71969Y-36500
T3
X64500Y-48000
X68500Y-48000
X70000Y-43000
X70000Y-47000
X71500Y-48000
X75500Y-48000
T4
X64500Y-45000
X65500Y-45000
X66500Y-45000
X73500Y-45000
X74500Y-45000
X75500Y-45000
T5
X67000Y-33000
X69000Y-33000
X71000Y-33000
X73000Y-33000
T6
X65500Y-39500
X74500Y-39500
T7
X64000Y-32500
X64000Y-52500
X76000Y-33000
X76000Y-52500
T0
M30
