G04 #@! TF.FileFunction,Copper,L2,Bot,Signal*
%FSLAX46Y46*%
G04 Gerber Fmt 4.6, Leading zero omitted, Abs format (unit mm)*
G04 Created by KiCad (PCBNEW 4.0.5+dfsg1-4) date Mon Apr 17 09:53:21 2017*
%MOMM*%
%LPD*%
G01*
G04 APERTURE LIST*
%ADD10C,0.100000*%
%ADD11O,1.600000X2.300000*%
%ADD12C,1.778000*%
%ADD13R,1.778000X1.778000*%
%ADD14R,1.800000X3.600000*%
%ADD15O,1.800000X3.600000*%
%ADD16R,1.600000X2.000000*%
%ADD17R,1.700000X2.000000*%
%ADD18R,2.000000X1.700000*%
%ADD19R,1.600000X2.600000*%
%ADD20R,1.699260X3.299460*%
%ADD21C,5.500000*%
%ADD22O,1.699260X3.500120*%
%ADD23C,6.000000*%
%ADD24C,1.500000*%
%ADD25C,0.500000*%
%ADD26C,1.000000*%
%ADD27C,0.254000*%
G04 APERTURE END LIST*
D10*
D11*
X180340000Y-137160000D03*
X182880000Y-137160000D03*
X182880000Y-129540000D03*
X180340000Y-129540000D03*
D12*
X168910000Y-128270000D03*
D13*
X158750000Y-128270000D03*
D12*
X196850000Y-128270000D03*
D13*
X186690000Y-128270000D03*
D12*
X177800000Y-111760000D03*
D13*
X177800000Y-121920000D03*
D14*
X182880000Y-78740000D03*
D15*
X187960000Y-78740000D03*
D14*
X167640000Y-78740000D03*
D15*
X172720000Y-78740000D03*
X177800000Y-78740000D03*
D16*
X162560000Y-132810000D03*
X162560000Y-128810000D03*
X162560000Y-135160000D03*
X162560000Y-139160000D03*
X190500000Y-135160000D03*
X190500000Y-139160000D03*
X190500000Y-132599200D03*
X190500000Y-128599200D03*
D17*
X165100000Y-135160000D03*
X165100000Y-139160000D03*
D18*
X179610000Y-124460000D03*
X183610000Y-124460000D03*
X175990000Y-124460000D03*
X171990000Y-124460000D03*
D17*
X193040000Y-135160000D03*
X193040000Y-139160000D03*
X181610000Y-111030000D03*
X181610000Y-115030000D03*
D19*
X173990000Y-114830000D03*
X173990000Y-111230000D03*
D11*
X172720000Y-137160000D03*
X175260000Y-137160000D03*
X175260000Y-129540000D03*
X172720000Y-129540000D03*
D20*
X165100000Y-128059180D03*
X165100000Y-133560820D03*
X193040000Y-128059180D03*
X193040000Y-133560820D03*
D21*
X155575000Y-139065000D03*
X200025000Y-139065000D03*
D22*
X161290000Y-114300000D03*
X158750000Y-114300000D03*
X163830000Y-114300000D03*
D23*
X161290000Y-97536000D03*
D22*
X194310000Y-114300000D03*
X191770000Y-114300000D03*
X196850000Y-114300000D03*
D23*
X194310000Y-97536000D03*
D21*
X200025000Y-74295000D03*
X155575000Y-74295000D03*
D24*
X155575000Y-139065000D02*
X155575000Y-135175913D01*
X155575000Y-135175913D02*
X153180949Y-132781862D01*
X153180949Y-89389051D02*
X153670000Y-88900000D01*
X153180949Y-132781862D02*
X153180949Y-89389051D01*
X201850913Y-90249087D02*
X202400022Y-90798196D01*
X202400022Y-90798196D02*
X202400022Y-132800891D01*
X202400022Y-132800891D02*
X200025000Y-135175913D01*
X200025000Y-135175913D02*
X200025000Y-139065000D01*
D25*
X182880000Y-137160000D02*
X182880000Y-134620000D01*
X181610000Y-133350000D02*
X162770820Y-133350000D01*
X182880000Y-134620000D02*
X181610000Y-133350000D01*
X165310820Y-133350000D02*
X165100000Y-133560820D01*
X165100000Y-133560820D02*
X165100000Y-134360920D01*
X165100000Y-133560820D02*
X163310820Y-133560820D01*
X163310820Y-133560820D02*
X162560000Y-132810000D01*
X162560000Y-132810000D02*
X162560000Y-135160000D01*
D26*
X162580500Y-133560800D02*
X162560000Y-133540300D01*
D24*
X162560000Y-121920000D02*
X162560000Y-128059180D01*
X161290000Y-120650000D02*
X162560000Y-121920000D01*
X161290000Y-97536000D02*
X161290000Y-114300000D01*
X161958122Y-78740000D02*
X161290000Y-79408122D01*
X161290000Y-79408122D02*
X161290000Y-97536000D01*
X161290000Y-120650000D02*
X161290000Y-114300000D01*
X167640000Y-78740000D02*
X161958122Y-78740000D01*
D26*
X165100000Y-128059180D02*
X163310820Y-128059180D01*
X163310820Y-128059180D02*
X162560000Y-128810000D01*
X164879500Y-128059200D02*
X165100000Y-128059200D01*
X164360300Y-127540000D02*
X164879500Y-128059200D01*
D25*
X193040000Y-135160000D02*
X187718094Y-135160000D01*
X187718094Y-135160000D02*
X185876185Y-137001909D01*
X175260000Y-137160000D02*
X175260000Y-139700000D01*
X175260000Y-139700000D02*
X176530000Y-140970000D01*
X176530000Y-140970000D02*
X185876185Y-140970000D01*
X185876185Y-140970000D02*
X185876185Y-137001909D01*
X190332000Y-132767200D02*
X190500000Y-132599200D01*
X190500000Y-132599200D02*
X192078380Y-132599200D01*
X192078380Y-132599200D02*
X193040000Y-133560820D01*
X190500000Y-132599200D02*
X190500000Y-135160000D01*
X193040000Y-132599200D02*
X193040000Y-133350000D01*
X193040000Y-133350000D02*
X193040000Y-135160000D01*
X192829180Y-133560820D02*
X193040000Y-133350000D01*
D24*
X194310000Y-114300000D02*
X194310000Y-119380000D01*
X194310000Y-119380000D02*
X193040000Y-120650000D01*
X193040000Y-120650000D02*
X193040000Y-128059180D01*
X194310000Y-97536000D02*
X194310000Y-114300000D01*
X194310000Y-74930000D02*
X194310000Y-97536000D01*
X193040000Y-73660000D02*
X194310000Y-74930000D01*
X192790028Y-128599200D02*
X193040000Y-128599200D01*
X190500000Y-128599200D02*
X192499980Y-128599200D01*
X192499980Y-128599200D02*
X193040000Y-128059180D01*
X177800000Y-78740000D02*
X177800000Y-76200000D01*
X177800000Y-76200000D02*
X180340000Y-73660000D01*
X180340000Y-73660000D02*
X193040000Y-73660000D01*
D26*
X191040020Y-128599200D02*
X190500000Y-128059180D01*
D25*
X177800000Y-121920000D02*
X177800000Y-124460000D01*
X173990000Y-114830000D02*
X177800000Y-114830000D01*
X177800000Y-114830000D02*
X181410000Y-114830000D01*
X177800000Y-121920000D02*
X177800000Y-114830000D01*
X181410000Y-114830000D02*
X181610000Y-115030000D01*
X177800000Y-124460000D02*
X177800000Y-130810000D01*
X177800000Y-130810000D02*
X179070000Y-132080000D01*
X179070000Y-132080000D02*
X182640138Y-132080000D01*
X183707897Y-139700000D02*
X181230000Y-139700000D01*
X182640138Y-132080000D02*
X184575521Y-134015383D01*
X184575521Y-138832376D02*
X183707897Y-139700000D01*
X181230000Y-139700000D02*
X180340000Y-138810000D01*
X184575521Y-134015383D02*
X184575521Y-138832376D01*
X180340000Y-138810000D02*
X180340000Y-137160000D01*
X177800000Y-124460000D02*
X179610000Y-124460000D01*
X177800000Y-124460000D02*
X175990000Y-124460000D01*
X180340000Y-135890000D02*
X180340000Y-137160000D01*
X179070000Y-134620000D02*
X180340000Y-135890000D01*
X173610000Y-134620000D02*
X179070000Y-134620000D01*
X172720000Y-137160000D02*
X172720000Y-135510000D01*
X172720000Y-135510000D02*
X173610000Y-134620000D01*
D24*
X181610000Y-111030000D02*
X181610000Y-86360000D01*
X182880000Y-78740000D02*
X182880000Y-86360000D01*
X175260000Y-86360000D02*
X181610000Y-86360000D01*
X181610000Y-86360000D02*
X182880000Y-86360000D01*
X172720000Y-83820000D02*
X175260000Y-86360000D01*
X172720000Y-78740000D02*
X172720000Y-83820000D01*
D25*
X158750000Y-128270000D02*
X158750000Y-129822613D01*
X158750000Y-114300000D02*
X158750000Y-116550060D01*
X158750000Y-116550060D02*
X158750000Y-128270000D01*
X158750000Y-129822613D02*
X159737387Y-130810000D01*
X170724032Y-125526746D02*
X171790778Y-124460000D01*
X159737387Y-130810000D02*
X170724032Y-130810000D01*
X170724032Y-130810000D02*
X170724032Y-125526746D01*
X171790778Y-124460000D02*
X171990000Y-124460000D01*
X175260000Y-129540000D02*
X175260000Y-128905000D01*
X175260000Y-128905000D02*
X171990000Y-125635000D01*
X171990000Y-125635000D02*
X171990000Y-124460000D01*
X172720000Y-123920000D02*
X172180000Y-124460000D01*
X172720000Y-125000000D02*
X172180000Y-124460000D01*
X183610000Y-124460000D02*
X187960000Y-124460000D01*
X186690000Y-124460000D02*
X187960000Y-124460000D01*
X186690000Y-128270000D02*
X186690000Y-122775869D01*
X186690000Y-122775869D02*
X191759498Y-117706371D01*
X191759498Y-117706371D02*
X191759498Y-116560562D01*
X191759498Y-116560562D02*
X191770000Y-116550060D01*
X191770000Y-116550060D02*
X191770000Y-114300000D01*
X186690000Y-128270000D02*
X182880000Y-128270000D01*
X182880000Y-129540000D02*
X182880000Y-128270000D01*
X182880000Y-128270000D02*
X182880000Y-124460000D01*
D27*
G36*
X167513000Y-111633000D02*
X155067000Y-111633000D01*
X155067000Y-100132630D01*
X158872975Y-100132630D01*
X159215566Y-100607277D01*
X160548800Y-101167342D01*
X161994875Y-101174568D01*
X163333639Y-100627854D01*
X163364434Y-100607277D01*
X163707025Y-100132630D01*
X161290000Y-97715605D01*
X158872975Y-100132630D01*
X155067000Y-100132630D01*
X155067000Y-98240875D01*
X157651432Y-98240875D01*
X158198146Y-99579639D01*
X158218723Y-99610434D01*
X158693370Y-99953025D01*
X161110395Y-97536000D01*
X161469605Y-97536000D01*
X163886630Y-99953025D01*
X164361277Y-99610434D01*
X164921342Y-98277200D01*
X164928568Y-96831125D01*
X164381854Y-95492361D01*
X164361277Y-95461566D01*
X163886630Y-95118975D01*
X161469605Y-97536000D01*
X161110395Y-97536000D01*
X158693370Y-95118975D01*
X158218723Y-95461566D01*
X157658658Y-96794800D01*
X157651432Y-98240875D01*
X155067000Y-98240875D01*
X155067000Y-94939370D01*
X158872975Y-94939370D01*
X161290000Y-97356395D01*
X163707025Y-94939370D01*
X163364434Y-94464723D01*
X162031200Y-93904658D01*
X160585125Y-93897432D01*
X159246361Y-94444146D01*
X159215566Y-94464723D01*
X158872975Y-94939370D01*
X155067000Y-94939370D01*
X155067000Y-92837000D01*
X167513000Y-92837000D01*
X167513000Y-111633000D01*
X167513000Y-111633000D01*
G37*
X167513000Y-111633000D02*
X155067000Y-111633000D01*
X155067000Y-100132630D01*
X158872975Y-100132630D01*
X159215566Y-100607277D01*
X160548800Y-101167342D01*
X161994875Y-101174568D01*
X163333639Y-100627854D01*
X163364434Y-100607277D01*
X163707025Y-100132630D01*
X161290000Y-97715605D01*
X158872975Y-100132630D01*
X155067000Y-100132630D01*
X155067000Y-98240875D01*
X157651432Y-98240875D01*
X158198146Y-99579639D01*
X158218723Y-99610434D01*
X158693370Y-99953025D01*
X161110395Y-97536000D01*
X161469605Y-97536000D01*
X163886630Y-99953025D01*
X164361277Y-99610434D01*
X164921342Y-98277200D01*
X164928568Y-96831125D01*
X164381854Y-95492361D01*
X164361277Y-95461566D01*
X163886630Y-95118975D01*
X161469605Y-97536000D01*
X161110395Y-97536000D01*
X158693370Y-95118975D01*
X158218723Y-95461566D01*
X157658658Y-96794800D01*
X157651432Y-98240875D01*
X155067000Y-98240875D01*
X155067000Y-94939370D01*
X158872975Y-94939370D01*
X161290000Y-97356395D01*
X163707025Y-94939370D01*
X163364434Y-94464723D01*
X162031200Y-93904658D01*
X160585125Y-93897432D01*
X159246361Y-94444146D01*
X159215566Y-94464723D01*
X158872975Y-94939370D01*
X155067000Y-94939370D01*
X155067000Y-92837000D01*
X167513000Y-92837000D01*
X167513000Y-111633000D01*
G36*
X200533000Y-111633000D02*
X188087000Y-111633000D01*
X188087000Y-100132630D01*
X191892975Y-100132630D01*
X192235566Y-100607277D01*
X193568800Y-101167342D01*
X195014875Y-101174568D01*
X196353639Y-100627854D01*
X196384434Y-100607277D01*
X196727025Y-100132630D01*
X194310000Y-97715605D01*
X191892975Y-100132630D01*
X188087000Y-100132630D01*
X188087000Y-98240875D01*
X190671432Y-98240875D01*
X191218146Y-99579639D01*
X191238723Y-99610434D01*
X191713370Y-99953025D01*
X194130395Y-97536000D01*
X194489605Y-97536000D01*
X196906630Y-99953025D01*
X197381277Y-99610434D01*
X197941342Y-98277200D01*
X197948568Y-96831125D01*
X197401854Y-95492361D01*
X197381277Y-95461566D01*
X196906630Y-95118975D01*
X194489605Y-97536000D01*
X194130395Y-97536000D01*
X191713370Y-95118975D01*
X191238723Y-95461566D01*
X190678658Y-96794800D01*
X190671432Y-98240875D01*
X188087000Y-98240875D01*
X188087000Y-94939370D01*
X191892975Y-94939370D01*
X194310000Y-97356395D01*
X196727025Y-94939370D01*
X196384434Y-94464723D01*
X195051200Y-93904658D01*
X193605125Y-93897432D01*
X192266361Y-94444146D01*
X192235566Y-94464723D01*
X191892975Y-94939370D01*
X188087000Y-94939370D01*
X188087000Y-92837000D01*
X200533000Y-92837000D01*
X200533000Y-111633000D01*
X200533000Y-111633000D01*
G37*
X200533000Y-111633000D02*
X188087000Y-111633000D01*
X188087000Y-100132630D01*
X191892975Y-100132630D01*
X192235566Y-100607277D01*
X193568800Y-101167342D01*
X195014875Y-101174568D01*
X196353639Y-100627854D01*
X196384434Y-100607277D01*
X196727025Y-100132630D01*
X194310000Y-97715605D01*
X191892975Y-100132630D01*
X188087000Y-100132630D01*
X188087000Y-98240875D01*
X190671432Y-98240875D01*
X191218146Y-99579639D01*
X191238723Y-99610434D01*
X191713370Y-99953025D01*
X194130395Y-97536000D01*
X194489605Y-97536000D01*
X196906630Y-99953025D01*
X197381277Y-99610434D01*
X197941342Y-98277200D01*
X197948568Y-96831125D01*
X197401854Y-95492361D01*
X197381277Y-95461566D01*
X196906630Y-95118975D01*
X194489605Y-97536000D01*
X194130395Y-97536000D01*
X191713370Y-95118975D01*
X191238723Y-95461566D01*
X190678658Y-96794800D01*
X190671432Y-98240875D01*
X188087000Y-98240875D01*
X188087000Y-94939370D01*
X191892975Y-94939370D01*
X194310000Y-97356395D01*
X196727025Y-94939370D01*
X196384434Y-94464723D01*
X195051200Y-93904658D01*
X193605125Y-93897432D01*
X192266361Y-94444146D01*
X192235566Y-94464723D01*
X191892975Y-94939370D01*
X188087000Y-94939370D01*
X188087000Y-92837000D01*
X200533000Y-92837000D01*
X200533000Y-111633000D01*
G36*
X157073370Y-113349082D02*
X157073370Y-115250918D01*
X157200996Y-115892537D01*
X157564444Y-116436474D01*
X157673000Y-116509009D01*
X157673000Y-126573174D01*
X157554532Y-126595465D01*
X157273061Y-126776587D01*
X157084231Y-127052948D01*
X157017799Y-127381000D01*
X157017799Y-129159000D01*
X157075465Y-129465468D01*
X157256587Y-129746939D01*
X157532948Y-129935769D01*
X157702331Y-129970070D01*
X157754982Y-130234763D01*
X157988446Y-130584167D01*
X158975833Y-131571554D01*
X159325237Y-131805018D01*
X159737387Y-131887000D01*
X160916799Y-131887000D01*
X160916799Y-133810000D01*
X160950936Y-133991424D01*
X160916799Y-134160000D01*
X160916799Y-136160000D01*
X160974465Y-136466468D01*
X161155587Y-136747939D01*
X161431948Y-136936769D01*
X161760000Y-137003201D01*
X163360000Y-137003201D01*
X163666468Y-136945535D01*
X163804646Y-136856620D01*
X163921948Y-136936769D01*
X164250000Y-137003201D01*
X165950000Y-137003201D01*
X166256468Y-136945535D01*
X166537939Y-136764413D01*
X166726769Y-136488052D01*
X166793201Y-136160000D01*
X166793201Y-134427000D01*
X172279892Y-134427000D01*
X171958446Y-134748446D01*
X171724982Y-135097850D01*
X171643000Y-135510000D01*
X171643000Y-135571719D01*
X171569537Y-135620805D01*
X171216848Y-136148642D01*
X171093000Y-136771268D01*
X171093000Y-137548732D01*
X171216848Y-138171358D01*
X171569537Y-138699195D01*
X172097374Y-139051884D01*
X172720000Y-139175732D01*
X173342626Y-139051884D01*
X173870463Y-138699195D01*
X173990000Y-138520295D01*
X174109537Y-138699195D01*
X174183000Y-138748281D01*
X174183000Y-139700000D01*
X174264982Y-140112150D01*
X174498446Y-140461554D01*
X175768446Y-141731554D01*
X176117850Y-141965018D01*
X176530000Y-142047000D01*
X185876185Y-142047000D01*
X186288335Y-141965018D01*
X186637739Y-141731554D01*
X186871203Y-141382150D01*
X186953185Y-140970000D01*
X186953185Y-139445750D01*
X189065000Y-139445750D01*
X189065000Y-140286309D01*
X189161673Y-140519698D01*
X189340301Y-140698327D01*
X189573690Y-140795000D01*
X190214250Y-140795000D01*
X190373000Y-140636250D01*
X190373000Y-139287000D01*
X190627000Y-139287000D01*
X190627000Y-140636250D01*
X190785750Y-140795000D01*
X191426310Y-140795000D01*
X191659699Y-140698327D01*
X191745000Y-140613026D01*
X191830301Y-140698327D01*
X192063690Y-140795000D01*
X192754250Y-140795000D01*
X192913000Y-140636250D01*
X192913000Y-139287000D01*
X193167000Y-139287000D01*
X193167000Y-140636250D01*
X193325750Y-140795000D01*
X194016310Y-140795000D01*
X194249699Y-140698327D01*
X194428327Y-140519698D01*
X194525000Y-140286309D01*
X194525000Y-139729976D01*
X196638352Y-139729976D01*
X197150620Y-140975371D01*
X197160068Y-140989513D01*
X197608734Y-141301661D01*
X199845395Y-139065000D01*
X197608734Y-136828339D01*
X197160068Y-137140487D01*
X196641669Y-138383343D01*
X196638352Y-139729976D01*
X194525000Y-139729976D01*
X194525000Y-139445750D01*
X194366250Y-139287000D01*
X193167000Y-139287000D01*
X192913000Y-139287000D01*
X190627000Y-139287000D01*
X190373000Y-139287000D01*
X189223750Y-139287000D01*
X189065000Y-139445750D01*
X186953185Y-139445750D01*
X186953185Y-138033691D01*
X189065000Y-138033691D01*
X189065000Y-138874250D01*
X189223750Y-139033000D01*
X190373000Y-139033000D01*
X190373000Y-137683750D01*
X190627000Y-137683750D01*
X190627000Y-139033000D01*
X192913000Y-139033000D01*
X192913000Y-137683750D01*
X193167000Y-137683750D01*
X193167000Y-139033000D01*
X194366250Y-139033000D01*
X194525000Y-138874250D01*
X194525000Y-138033691D01*
X194428327Y-137800302D01*
X194249699Y-137621673D01*
X194016310Y-137525000D01*
X193325750Y-137525000D01*
X193167000Y-137683750D01*
X192913000Y-137683750D01*
X192754250Y-137525000D01*
X192063690Y-137525000D01*
X191830301Y-137621673D01*
X191745000Y-137706974D01*
X191659699Y-137621673D01*
X191426310Y-137525000D01*
X190785750Y-137525000D01*
X190627000Y-137683750D01*
X190373000Y-137683750D01*
X190214250Y-137525000D01*
X189573690Y-137525000D01*
X189340301Y-137621673D01*
X189161673Y-137800302D01*
X189065000Y-138033691D01*
X186953185Y-138033691D01*
X186953185Y-137448017D01*
X188164202Y-136237000D01*
X188871288Y-136237000D01*
X188914465Y-136466468D01*
X189095587Y-136747939D01*
X189371948Y-136936769D01*
X189700000Y-137003201D01*
X191300000Y-137003201D01*
X191606468Y-136945535D01*
X191744646Y-136856620D01*
X191861948Y-136936769D01*
X192190000Y-137003201D01*
X193890000Y-137003201D01*
X194196468Y-136945535D01*
X194477939Y-136764413D01*
X194556979Y-136648734D01*
X197788339Y-136648734D01*
X200025000Y-138885395D01*
X202261661Y-136648734D01*
X201949513Y-136200068D01*
X200706657Y-135681669D01*
X199360024Y-135678352D01*
X198114629Y-136190620D01*
X198100487Y-136200068D01*
X197788339Y-136648734D01*
X194556979Y-136648734D01*
X194666769Y-136488052D01*
X194733201Y-136160000D01*
X194733201Y-134160000D01*
X194732831Y-134158034D01*
X194732831Y-131911090D01*
X194675165Y-131604622D01*
X194494043Y-131323151D01*
X194217682Y-131134321D01*
X193889630Y-131067889D01*
X192190370Y-131067889D01*
X191967801Y-131109768D01*
X191904413Y-131011261D01*
X191628052Y-130822431D01*
X191300000Y-130755999D01*
X189700000Y-130755999D01*
X189393532Y-130813665D01*
X189112061Y-130994787D01*
X188923231Y-131271148D01*
X188856799Y-131599200D01*
X188856799Y-133599200D01*
X188911497Y-133889893D01*
X188872392Y-134083000D01*
X187718094Y-134083000D01*
X187305944Y-134164982D01*
X186956540Y-134398446D01*
X185652521Y-135702465D01*
X185652521Y-134015383D01*
X185570539Y-133603233D01*
X185337075Y-133253829D01*
X183510122Y-131426876D01*
X184030463Y-131079195D01*
X184383152Y-130551358D01*
X184507000Y-129928732D01*
X184507000Y-129347000D01*
X184993174Y-129347000D01*
X185015465Y-129465468D01*
X185196587Y-129746939D01*
X185472948Y-129935769D01*
X185801000Y-130002201D01*
X187579000Y-130002201D01*
X187885468Y-129944535D01*
X188166939Y-129763413D01*
X188355769Y-129487052D01*
X188422201Y-129159000D01*
X188422201Y-127381000D01*
X188364535Y-127074532D01*
X188183413Y-126793061D01*
X187907052Y-126604231D01*
X187767000Y-126575870D01*
X187767000Y-125537000D01*
X187960000Y-125537000D01*
X188372150Y-125455018D01*
X188721554Y-125221554D01*
X188955018Y-124872150D01*
X189037000Y-124460000D01*
X188955018Y-124047850D01*
X188721554Y-123698446D01*
X188372150Y-123464982D01*
X187960000Y-123383000D01*
X187767000Y-123383000D01*
X187767000Y-123221977D01*
X192521052Y-118467925D01*
X192733000Y-118150722D01*
X192733000Y-118726785D01*
X191924893Y-119534893D01*
X191583042Y-120046508D01*
X191463000Y-120650000D01*
X191463000Y-126009100D01*
X191413601Y-126081398D01*
X191347169Y-126409450D01*
X191347169Y-126765551D01*
X191300000Y-126755999D01*
X190619746Y-126755999D01*
X190500000Y-126732180D01*
X190380254Y-126755999D01*
X189700000Y-126755999D01*
X189393532Y-126813665D01*
X189112061Y-126994787D01*
X188923231Y-127271148D01*
X188856799Y-127599200D01*
X188856799Y-129599200D01*
X188914465Y-129905668D01*
X189095587Y-130187139D01*
X189371948Y-130375969D01*
X189700000Y-130442401D01*
X191300000Y-130442401D01*
X191606468Y-130384735D01*
X191662146Y-130348907D01*
X191862318Y-130485679D01*
X192190370Y-130552111D01*
X193889630Y-130552111D01*
X194196098Y-130494445D01*
X194477569Y-130313323D01*
X194666399Y-130036962D01*
X194732831Y-129708910D01*
X194732831Y-129342196D01*
X195957409Y-129342196D01*
X196042467Y-129597539D01*
X196611965Y-129805516D01*
X197217700Y-129779723D01*
X197657533Y-129597539D01*
X197742591Y-129342196D01*
X196850000Y-128449605D01*
X195957409Y-129342196D01*
X194732831Y-129342196D01*
X194732831Y-128031965D01*
X195314484Y-128031965D01*
X195340277Y-128637700D01*
X195522461Y-129077533D01*
X195777804Y-129162591D01*
X196670395Y-128270000D01*
X197029605Y-128270000D01*
X197922196Y-129162591D01*
X198177539Y-129077533D01*
X198385516Y-128508035D01*
X198359723Y-127902300D01*
X198177539Y-127462467D01*
X197922196Y-127377409D01*
X197029605Y-128270000D01*
X196670395Y-128270000D01*
X195777804Y-127377409D01*
X195522461Y-127462467D01*
X195314484Y-128031965D01*
X194732831Y-128031965D01*
X194732831Y-127197804D01*
X195957409Y-127197804D01*
X196850000Y-128090395D01*
X197742591Y-127197804D01*
X197657533Y-126942461D01*
X197088035Y-126734484D01*
X196482300Y-126760277D01*
X196042467Y-126942461D01*
X195957409Y-127197804D01*
X194732831Y-127197804D01*
X194732831Y-126409450D01*
X194675165Y-126102982D01*
X194617000Y-126012591D01*
X194617000Y-121303214D01*
X195425107Y-120495108D01*
X195766958Y-119983492D01*
X195887000Y-119380000D01*
X195887000Y-116336257D01*
X195890011Y-116340024D01*
X196399190Y-116620649D01*
X196493168Y-116641540D01*
X196723000Y-116520214D01*
X196723000Y-114427000D01*
X196977000Y-114427000D01*
X196977000Y-116520214D01*
X197206832Y-116641540D01*
X197300810Y-116620649D01*
X197809989Y-116340024D01*
X198173018Y-115885906D01*
X198334630Y-115327430D01*
X198334630Y-114427000D01*
X196977000Y-114427000D01*
X196723000Y-114427000D01*
X196703000Y-114427000D01*
X196703000Y-114173000D01*
X196723000Y-114173000D01*
X196723000Y-114153000D01*
X196977000Y-114153000D01*
X196977000Y-114173000D01*
X198334630Y-114173000D01*
X198334630Y-113272570D01*
X198301186Y-113157000D01*
X203073000Y-113157000D01*
X203073000Y-137576723D01*
X202899380Y-137154629D01*
X202889932Y-137140487D01*
X202441266Y-136828339D01*
X200204605Y-139065000D01*
X202441266Y-141301661D01*
X202889932Y-140989513D01*
X203073000Y-140550609D01*
X203073000Y-142113000D01*
X201513277Y-142113000D01*
X201935371Y-141939380D01*
X201949513Y-141929932D01*
X202261661Y-141481266D01*
X200025000Y-139244605D01*
X197788339Y-141481266D01*
X198100487Y-141929932D01*
X198539391Y-142113000D01*
X157063277Y-142113000D01*
X157485371Y-141939380D01*
X157499513Y-141929932D01*
X157811661Y-141481266D01*
X155575000Y-139244605D01*
X153338339Y-141481266D01*
X153650487Y-141929932D01*
X154089391Y-142113000D01*
X152527000Y-142113000D01*
X152527000Y-140553277D01*
X152700620Y-140975371D01*
X152710068Y-140989513D01*
X153158734Y-141301661D01*
X155395395Y-139065000D01*
X155754605Y-139065000D01*
X157991266Y-141301661D01*
X158439932Y-140989513D01*
X158958331Y-139746657D01*
X158959072Y-139445750D01*
X161125000Y-139445750D01*
X161125000Y-140286309D01*
X161221673Y-140519698D01*
X161400301Y-140698327D01*
X161633690Y-140795000D01*
X162274250Y-140795000D01*
X162433000Y-140636250D01*
X162433000Y-139287000D01*
X162687000Y-139287000D01*
X162687000Y-140636250D01*
X162845750Y-140795000D01*
X163486310Y-140795000D01*
X163719699Y-140698327D01*
X163805000Y-140613026D01*
X163890301Y-140698327D01*
X164123690Y-140795000D01*
X164814250Y-140795000D01*
X164973000Y-140636250D01*
X164973000Y-139287000D01*
X165227000Y-139287000D01*
X165227000Y-140636250D01*
X165385750Y-140795000D01*
X166076310Y-140795000D01*
X166309699Y-140698327D01*
X166488327Y-140519698D01*
X166585000Y-140286309D01*
X166585000Y-139445750D01*
X166426250Y-139287000D01*
X165227000Y-139287000D01*
X164973000Y-139287000D01*
X162687000Y-139287000D01*
X162433000Y-139287000D01*
X161283750Y-139287000D01*
X161125000Y-139445750D01*
X158959072Y-139445750D01*
X158961648Y-138400024D01*
X158810965Y-138033691D01*
X161125000Y-138033691D01*
X161125000Y-138874250D01*
X161283750Y-139033000D01*
X162433000Y-139033000D01*
X162433000Y-137683750D01*
X162687000Y-137683750D01*
X162687000Y-139033000D01*
X164973000Y-139033000D01*
X164973000Y-137683750D01*
X165227000Y-137683750D01*
X165227000Y-139033000D01*
X166426250Y-139033000D01*
X166585000Y-138874250D01*
X166585000Y-138033691D01*
X166488327Y-137800302D01*
X166309699Y-137621673D01*
X166076310Y-137525000D01*
X165385750Y-137525000D01*
X165227000Y-137683750D01*
X164973000Y-137683750D01*
X164814250Y-137525000D01*
X164123690Y-137525000D01*
X163890301Y-137621673D01*
X163805000Y-137706974D01*
X163719699Y-137621673D01*
X163486310Y-137525000D01*
X162845750Y-137525000D01*
X162687000Y-137683750D01*
X162433000Y-137683750D01*
X162274250Y-137525000D01*
X161633690Y-137525000D01*
X161400301Y-137621673D01*
X161221673Y-137800302D01*
X161125000Y-138033691D01*
X158810965Y-138033691D01*
X158449380Y-137154629D01*
X158439932Y-137140487D01*
X157991266Y-136828339D01*
X155754605Y-139065000D01*
X155395395Y-139065000D01*
X153158734Y-136828339D01*
X152710068Y-137140487D01*
X152527000Y-137579391D01*
X152527000Y-136648734D01*
X153338339Y-136648734D01*
X155575000Y-138885395D01*
X157811661Y-136648734D01*
X157499513Y-136200068D01*
X156256657Y-135681669D01*
X154910024Y-135678352D01*
X153664629Y-136190620D01*
X153650487Y-136200068D01*
X153338339Y-136648734D01*
X152527000Y-136648734D01*
X152527000Y-113157000D01*
X157111577Y-113157000D01*
X157073370Y-113349082D01*
X157073370Y-113349082D01*
G37*
X157073370Y-113349082D02*
X157073370Y-115250918D01*
X157200996Y-115892537D01*
X157564444Y-116436474D01*
X157673000Y-116509009D01*
X157673000Y-126573174D01*
X157554532Y-126595465D01*
X157273061Y-126776587D01*
X157084231Y-127052948D01*
X157017799Y-127381000D01*
X157017799Y-129159000D01*
X157075465Y-129465468D01*
X157256587Y-129746939D01*
X157532948Y-129935769D01*
X157702331Y-129970070D01*
X157754982Y-130234763D01*
X157988446Y-130584167D01*
X158975833Y-131571554D01*
X159325237Y-131805018D01*
X159737387Y-131887000D01*
X160916799Y-131887000D01*
X160916799Y-133810000D01*
X160950936Y-133991424D01*
X160916799Y-134160000D01*
X160916799Y-136160000D01*
X160974465Y-136466468D01*
X161155587Y-136747939D01*
X161431948Y-136936769D01*
X161760000Y-137003201D01*
X163360000Y-137003201D01*
X163666468Y-136945535D01*
X163804646Y-136856620D01*
X163921948Y-136936769D01*
X164250000Y-137003201D01*
X165950000Y-137003201D01*
X166256468Y-136945535D01*
X166537939Y-136764413D01*
X166726769Y-136488052D01*
X166793201Y-136160000D01*
X166793201Y-134427000D01*
X172279892Y-134427000D01*
X171958446Y-134748446D01*
X171724982Y-135097850D01*
X171643000Y-135510000D01*
X171643000Y-135571719D01*
X171569537Y-135620805D01*
X171216848Y-136148642D01*
X171093000Y-136771268D01*
X171093000Y-137548732D01*
X171216848Y-138171358D01*
X171569537Y-138699195D01*
X172097374Y-139051884D01*
X172720000Y-139175732D01*
X173342626Y-139051884D01*
X173870463Y-138699195D01*
X173990000Y-138520295D01*
X174109537Y-138699195D01*
X174183000Y-138748281D01*
X174183000Y-139700000D01*
X174264982Y-140112150D01*
X174498446Y-140461554D01*
X175768446Y-141731554D01*
X176117850Y-141965018D01*
X176530000Y-142047000D01*
X185876185Y-142047000D01*
X186288335Y-141965018D01*
X186637739Y-141731554D01*
X186871203Y-141382150D01*
X186953185Y-140970000D01*
X186953185Y-139445750D01*
X189065000Y-139445750D01*
X189065000Y-140286309D01*
X189161673Y-140519698D01*
X189340301Y-140698327D01*
X189573690Y-140795000D01*
X190214250Y-140795000D01*
X190373000Y-140636250D01*
X190373000Y-139287000D01*
X190627000Y-139287000D01*
X190627000Y-140636250D01*
X190785750Y-140795000D01*
X191426310Y-140795000D01*
X191659699Y-140698327D01*
X191745000Y-140613026D01*
X191830301Y-140698327D01*
X192063690Y-140795000D01*
X192754250Y-140795000D01*
X192913000Y-140636250D01*
X192913000Y-139287000D01*
X193167000Y-139287000D01*
X193167000Y-140636250D01*
X193325750Y-140795000D01*
X194016310Y-140795000D01*
X194249699Y-140698327D01*
X194428327Y-140519698D01*
X194525000Y-140286309D01*
X194525000Y-139729976D01*
X196638352Y-139729976D01*
X197150620Y-140975371D01*
X197160068Y-140989513D01*
X197608734Y-141301661D01*
X199845395Y-139065000D01*
X197608734Y-136828339D01*
X197160068Y-137140487D01*
X196641669Y-138383343D01*
X196638352Y-139729976D01*
X194525000Y-139729976D01*
X194525000Y-139445750D01*
X194366250Y-139287000D01*
X193167000Y-139287000D01*
X192913000Y-139287000D01*
X190627000Y-139287000D01*
X190373000Y-139287000D01*
X189223750Y-139287000D01*
X189065000Y-139445750D01*
X186953185Y-139445750D01*
X186953185Y-138033691D01*
X189065000Y-138033691D01*
X189065000Y-138874250D01*
X189223750Y-139033000D01*
X190373000Y-139033000D01*
X190373000Y-137683750D01*
X190627000Y-137683750D01*
X190627000Y-139033000D01*
X192913000Y-139033000D01*
X192913000Y-137683750D01*
X193167000Y-137683750D01*
X193167000Y-139033000D01*
X194366250Y-139033000D01*
X194525000Y-138874250D01*
X194525000Y-138033691D01*
X194428327Y-137800302D01*
X194249699Y-137621673D01*
X194016310Y-137525000D01*
X193325750Y-137525000D01*
X193167000Y-137683750D01*
X192913000Y-137683750D01*
X192754250Y-137525000D01*
X192063690Y-137525000D01*
X191830301Y-137621673D01*
X191745000Y-137706974D01*
X191659699Y-137621673D01*
X191426310Y-137525000D01*
X190785750Y-137525000D01*
X190627000Y-137683750D01*
X190373000Y-137683750D01*
X190214250Y-137525000D01*
X189573690Y-137525000D01*
X189340301Y-137621673D01*
X189161673Y-137800302D01*
X189065000Y-138033691D01*
X186953185Y-138033691D01*
X186953185Y-137448017D01*
X188164202Y-136237000D01*
X188871288Y-136237000D01*
X188914465Y-136466468D01*
X189095587Y-136747939D01*
X189371948Y-136936769D01*
X189700000Y-137003201D01*
X191300000Y-137003201D01*
X191606468Y-136945535D01*
X191744646Y-136856620D01*
X191861948Y-136936769D01*
X192190000Y-137003201D01*
X193890000Y-137003201D01*
X194196468Y-136945535D01*
X194477939Y-136764413D01*
X194556979Y-136648734D01*
X197788339Y-136648734D01*
X200025000Y-138885395D01*
X202261661Y-136648734D01*
X201949513Y-136200068D01*
X200706657Y-135681669D01*
X199360024Y-135678352D01*
X198114629Y-136190620D01*
X198100487Y-136200068D01*
X197788339Y-136648734D01*
X194556979Y-136648734D01*
X194666769Y-136488052D01*
X194733201Y-136160000D01*
X194733201Y-134160000D01*
X194732831Y-134158034D01*
X194732831Y-131911090D01*
X194675165Y-131604622D01*
X194494043Y-131323151D01*
X194217682Y-131134321D01*
X193889630Y-131067889D01*
X192190370Y-131067889D01*
X191967801Y-131109768D01*
X191904413Y-131011261D01*
X191628052Y-130822431D01*
X191300000Y-130755999D01*
X189700000Y-130755999D01*
X189393532Y-130813665D01*
X189112061Y-130994787D01*
X188923231Y-131271148D01*
X188856799Y-131599200D01*
X188856799Y-133599200D01*
X188911497Y-133889893D01*
X188872392Y-134083000D01*
X187718094Y-134083000D01*
X187305944Y-134164982D01*
X186956540Y-134398446D01*
X185652521Y-135702465D01*
X185652521Y-134015383D01*
X185570539Y-133603233D01*
X185337075Y-133253829D01*
X183510122Y-131426876D01*
X184030463Y-131079195D01*
X184383152Y-130551358D01*
X184507000Y-129928732D01*
X184507000Y-129347000D01*
X184993174Y-129347000D01*
X185015465Y-129465468D01*
X185196587Y-129746939D01*
X185472948Y-129935769D01*
X185801000Y-130002201D01*
X187579000Y-130002201D01*
X187885468Y-129944535D01*
X188166939Y-129763413D01*
X188355769Y-129487052D01*
X188422201Y-129159000D01*
X188422201Y-127381000D01*
X188364535Y-127074532D01*
X188183413Y-126793061D01*
X187907052Y-126604231D01*
X187767000Y-126575870D01*
X187767000Y-125537000D01*
X187960000Y-125537000D01*
X188372150Y-125455018D01*
X188721554Y-125221554D01*
X188955018Y-124872150D01*
X189037000Y-124460000D01*
X188955018Y-124047850D01*
X188721554Y-123698446D01*
X188372150Y-123464982D01*
X187960000Y-123383000D01*
X187767000Y-123383000D01*
X187767000Y-123221977D01*
X192521052Y-118467925D01*
X192733000Y-118150722D01*
X192733000Y-118726785D01*
X191924893Y-119534893D01*
X191583042Y-120046508D01*
X191463000Y-120650000D01*
X191463000Y-126009100D01*
X191413601Y-126081398D01*
X191347169Y-126409450D01*
X191347169Y-126765551D01*
X191300000Y-126755999D01*
X190619746Y-126755999D01*
X190500000Y-126732180D01*
X190380254Y-126755999D01*
X189700000Y-126755999D01*
X189393532Y-126813665D01*
X189112061Y-126994787D01*
X188923231Y-127271148D01*
X188856799Y-127599200D01*
X188856799Y-129599200D01*
X188914465Y-129905668D01*
X189095587Y-130187139D01*
X189371948Y-130375969D01*
X189700000Y-130442401D01*
X191300000Y-130442401D01*
X191606468Y-130384735D01*
X191662146Y-130348907D01*
X191862318Y-130485679D01*
X192190370Y-130552111D01*
X193889630Y-130552111D01*
X194196098Y-130494445D01*
X194477569Y-130313323D01*
X194666399Y-130036962D01*
X194732831Y-129708910D01*
X194732831Y-129342196D01*
X195957409Y-129342196D01*
X196042467Y-129597539D01*
X196611965Y-129805516D01*
X197217700Y-129779723D01*
X197657533Y-129597539D01*
X197742591Y-129342196D01*
X196850000Y-128449605D01*
X195957409Y-129342196D01*
X194732831Y-129342196D01*
X194732831Y-128031965D01*
X195314484Y-128031965D01*
X195340277Y-128637700D01*
X195522461Y-129077533D01*
X195777804Y-129162591D01*
X196670395Y-128270000D01*
X197029605Y-128270000D01*
X197922196Y-129162591D01*
X198177539Y-129077533D01*
X198385516Y-128508035D01*
X198359723Y-127902300D01*
X198177539Y-127462467D01*
X197922196Y-127377409D01*
X197029605Y-128270000D01*
X196670395Y-128270000D01*
X195777804Y-127377409D01*
X195522461Y-127462467D01*
X195314484Y-128031965D01*
X194732831Y-128031965D01*
X194732831Y-127197804D01*
X195957409Y-127197804D01*
X196850000Y-128090395D01*
X197742591Y-127197804D01*
X197657533Y-126942461D01*
X197088035Y-126734484D01*
X196482300Y-126760277D01*
X196042467Y-126942461D01*
X195957409Y-127197804D01*
X194732831Y-127197804D01*
X194732831Y-126409450D01*
X194675165Y-126102982D01*
X194617000Y-126012591D01*
X194617000Y-121303214D01*
X195425107Y-120495108D01*
X195766958Y-119983492D01*
X195887000Y-119380000D01*
X195887000Y-116336257D01*
X195890011Y-116340024D01*
X196399190Y-116620649D01*
X196493168Y-116641540D01*
X196723000Y-116520214D01*
X196723000Y-114427000D01*
X196977000Y-114427000D01*
X196977000Y-116520214D01*
X197206832Y-116641540D01*
X197300810Y-116620649D01*
X197809989Y-116340024D01*
X198173018Y-115885906D01*
X198334630Y-115327430D01*
X198334630Y-114427000D01*
X196977000Y-114427000D01*
X196723000Y-114427000D01*
X196703000Y-114427000D01*
X196703000Y-114173000D01*
X196723000Y-114173000D01*
X196723000Y-114153000D01*
X196977000Y-114153000D01*
X196977000Y-114173000D01*
X198334630Y-114173000D01*
X198334630Y-113272570D01*
X198301186Y-113157000D01*
X203073000Y-113157000D01*
X203073000Y-137576723D01*
X202899380Y-137154629D01*
X202889932Y-137140487D01*
X202441266Y-136828339D01*
X200204605Y-139065000D01*
X202441266Y-141301661D01*
X202889932Y-140989513D01*
X203073000Y-140550609D01*
X203073000Y-142113000D01*
X201513277Y-142113000D01*
X201935371Y-141939380D01*
X201949513Y-141929932D01*
X202261661Y-141481266D01*
X200025000Y-139244605D01*
X197788339Y-141481266D01*
X198100487Y-141929932D01*
X198539391Y-142113000D01*
X157063277Y-142113000D01*
X157485371Y-141939380D01*
X157499513Y-141929932D01*
X157811661Y-141481266D01*
X155575000Y-139244605D01*
X153338339Y-141481266D01*
X153650487Y-141929932D01*
X154089391Y-142113000D01*
X152527000Y-142113000D01*
X152527000Y-140553277D01*
X152700620Y-140975371D01*
X152710068Y-140989513D01*
X153158734Y-141301661D01*
X155395395Y-139065000D01*
X155754605Y-139065000D01*
X157991266Y-141301661D01*
X158439932Y-140989513D01*
X158958331Y-139746657D01*
X158959072Y-139445750D01*
X161125000Y-139445750D01*
X161125000Y-140286309D01*
X161221673Y-140519698D01*
X161400301Y-140698327D01*
X161633690Y-140795000D01*
X162274250Y-140795000D01*
X162433000Y-140636250D01*
X162433000Y-139287000D01*
X162687000Y-139287000D01*
X162687000Y-140636250D01*
X162845750Y-140795000D01*
X163486310Y-140795000D01*
X163719699Y-140698327D01*
X163805000Y-140613026D01*
X163890301Y-140698327D01*
X164123690Y-140795000D01*
X164814250Y-140795000D01*
X164973000Y-140636250D01*
X164973000Y-139287000D01*
X165227000Y-139287000D01*
X165227000Y-140636250D01*
X165385750Y-140795000D01*
X166076310Y-140795000D01*
X166309699Y-140698327D01*
X166488327Y-140519698D01*
X166585000Y-140286309D01*
X166585000Y-139445750D01*
X166426250Y-139287000D01*
X165227000Y-139287000D01*
X164973000Y-139287000D01*
X162687000Y-139287000D01*
X162433000Y-139287000D01*
X161283750Y-139287000D01*
X161125000Y-139445750D01*
X158959072Y-139445750D01*
X158961648Y-138400024D01*
X158810965Y-138033691D01*
X161125000Y-138033691D01*
X161125000Y-138874250D01*
X161283750Y-139033000D01*
X162433000Y-139033000D01*
X162433000Y-137683750D01*
X162687000Y-137683750D01*
X162687000Y-139033000D01*
X164973000Y-139033000D01*
X164973000Y-137683750D01*
X165227000Y-137683750D01*
X165227000Y-139033000D01*
X166426250Y-139033000D01*
X166585000Y-138874250D01*
X166585000Y-138033691D01*
X166488327Y-137800302D01*
X166309699Y-137621673D01*
X166076310Y-137525000D01*
X165385750Y-137525000D01*
X165227000Y-137683750D01*
X164973000Y-137683750D01*
X164814250Y-137525000D01*
X164123690Y-137525000D01*
X163890301Y-137621673D01*
X163805000Y-137706974D01*
X163719699Y-137621673D01*
X163486310Y-137525000D01*
X162845750Y-137525000D01*
X162687000Y-137683750D01*
X162433000Y-137683750D01*
X162274250Y-137525000D01*
X161633690Y-137525000D01*
X161400301Y-137621673D01*
X161221673Y-137800302D01*
X161125000Y-138033691D01*
X158810965Y-138033691D01*
X158449380Y-137154629D01*
X158439932Y-137140487D01*
X157991266Y-136828339D01*
X155754605Y-139065000D01*
X155395395Y-139065000D01*
X153158734Y-136828339D01*
X152710068Y-137140487D01*
X152527000Y-137579391D01*
X152527000Y-136648734D01*
X153338339Y-136648734D01*
X155575000Y-138885395D01*
X157811661Y-136648734D01*
X157499513Y-136200068D01*
X156256657Y-135681669D01*
X154910024Y-135678352D01*
X153664629Y-136190620D01*
X153650487Y-136200068D01*
X153338339Y-136648734D01*
X152527000Y-136648734D01*
X152527000Y-113157000D01*
X157111577Y-113157000D01*
X157073370Y-113349082D01*
G36*
X153664629Y-71420620D02*
X153650487Y-71430068D01*
X153338339Y-71878734D01*
X155575000Y-74115395D01*
X157811661Y-71878734D01*
X157499513Y-71430068D01*
X157060609Y-71247000D01*
X198536723Y-71247000D01*
X198114629Y-71420620D01*
X198100487Y-71430068D01*
X197788339Y-71878734D01*
X200025000Y-74115395D01*
X202261661Y-71878734D01*
X201949513Y-71430068D01*
X201510609Y-71247000D01*
X203073000Y-71247000D01*
X203073000Y-72806723D01*
X202899380Y-72384629D01*
X202889932Y-72370487D01*
X202441266Y-72058339D01*
X200204605Y-74295000D01*
X202441266Y-76531661D01*
X202889932Y-76219513D01*
X203073000Y-75780609D01*
X203073000Y-91313000D01*
X195887000Y-91313000D01*
X195887000Y-76711266D01*
X197788339Y-76711266D01*
X198100487Y-77159932D01*
X199343343Y-77678331D01*
X200689976Y-77681648D01*
X201935371Y-77169380D01*
X201949513Y-77159932D01*
X202261661Y-76711266D01*
X200025000Y-74474605D01*
X197788339Y-76711266D01*
X195887000Y-76711266D01*
X195887000Y-74959976D01*
X196638352Y-74959976D01*
X197150620Y-76205371D01*
X197160068Y-76219513D01*
X197608734Y-76531661D01*
X199845395Y-74295000D01*
X197608734Y-72058339D01*
X197160068Y-72370487D01*
X196641669Y-73613343D01*
X196638352Y-74959976D01*
X195887000Y-74959976D01*
X195887000Y-74930000D01*
X195766958Y-74326508D01*
X195724852Y-74263492D01*
X195425107Y-73814892D01*
X194155107Y-72544893D01*
X193643492Y-72203042D01*
X193040000Y-72083000D01*
X180340000Y-72083000D01*
X179736508Y-72203042D01*
X179224892Y-72544893D01*
X176684893Y-75084893D01*
X176343042Y-75596508D01*
X176223000Y-76200000D01*
X176223000Y-77099893D01*
X176204460Y-77127640D01*
X176073000Y-77788534D01*
X176073000Y-79691466D01*
X176204460Y-80352360D01*
X176578827Y-80912639D01*
X177139106Y-81287006D01*
X177800000Y-81418466D01*
X178460894Y-81287006D01*
X179021173Y-80912639D01*
X179395540Y-80352360D01*
X179527000Y-79691466D01*
X179527000Y-77788534D01*
X179395540Y-77127640D01*
X179377000Y-77099893D01*
X179377000Y-76853214D01*
X180993215Y-75237000D01*
X192386786Y-75237000D01*
X192733000Y-75583215D01*
X192733000Y-91313000D01*
X186690000Y-91313000D01*
X186640590Y-91323006D01*
X186598965Y-91351447D01*
X186571685Y-91393841D01*
X186563000Y-91440000D01*
X186563000Y-113030000D01*
X186573006Y-113079410D01*
X186601447Y-113121035D01*
X186643841Y-113148315D01*
X186690000Y-113157000D01*
X190131577Y-113157000D01*
X190093370Y-113349082D01*
X190093370Y-115250918D01*
X190220996Y-115892537D01*
X190584444Y-116436474D01*
X190692782Y-116508863D01*
X190682498Y-116560562D01*
X190682498Y-117260263D01*
X185928446Y-122014315D01*
X185694982Y-122363719D01*
X185613000Y-122775869D01*
X185613000Y-123383000D01*
X185410488Y-123383000D01*
X185395535Y-123303532D01*
X185214413Y-123022061D01*
X184938052Y-122833231D01*
X184610000Y-122766799D01*
X182610000Y-122766799D01*
X182303532Y-122824465D01*
X182022061Y-123005587D01*
X181833231Y-123281948D01*
X181766799Y-123610000D01*
X181766799Y-125310000D01*
X181803000Y-125502391D01*
X181803000Y-127951719D01*
X181729537Y-128000805D01*
X181610000Y-128179705D01*
X181490463Y-128000805D01*
X180962626Y-127648116D01*
X180340000Y-127524268D01*
X179717374Y-127648116D01*
X179189537Y-128000805D01*
X178877000Y-128468550D01*
X178877000Y-126153201D01*
X180610000Y-126153201D01*
X180916468Y-126095535D01*
X181197939Y-125914413D01*
X181386769Y-125638052D01*
X181453201Y-125310000D01*
X181453201Y-123610000D01*
X181395535Y-123303532D01*
X181214413Y-123022061D01*
X180938052Y-122833231D01*
X180610000Y-122766799D01*
X179532201Y-122766799D01*
X179532201Y-121031000D01*
X179474535Y-120724532D01*
X179293413Y-120443061D01*
X179017052Y-120254231D01*
X178877000Y-120225870D01*
X178877000Y-115907000D01*
X179916799Y-115907000D01*
X179916799Y-116030000D01*
X179974465Y-116336468D01*
X180155587Y-116617939D01*
X180431948Y-116806769D01*
X180760000Y-116873201D01*
X182460000Y-116873201D01*
X182766468Y-116815535D01*
X183047939Y-116634413D01*
X183236769Y-116358052D01*
X183303201Y-116030000D01*
X183303201Y-114030000D01*
X183245535Y-113723532D01*
X183064413Y-113442061D01*
X182788052Y-113253231D01*
X182460000Y-113186799D01*
X180760000Y-113186799D01*
X180453532Y-113244465D01*
X180172061Y-113425587D01*
X179983231Y-113701948D01*
X179972893Y-113753000D01*
X175633201Y-113753000D01*
X175633201Y-113530000D01*
X175575535Y-113223532D01*
X175394413Y-112942061D01*
X175324045Y-112893980D01*
X175328327Y-112889698D01*
X175352145Y-112832196D01*
X176907409Y-112832196D01*
X176992467Y-113087539D01*
X177561965Y-113295516D01*
X178167700Y-113269723D01*
X178607533Y-113087539D01*
X178692591Y-112832196D01*
X177800000Y-111939605D01*
X176907409Y-112832196D01*
X175352145Y-112832196D01*
X175425000Y-112656309D01*
X175425000Y-111521965D01*
X176264484Y-111521965D01*
X176290277Y-112127700D01*
X176472461Y-112567533D01*
X176727804Y-112652591D01*
X177620395Y-111760000D01*
X177979605Y-111760000D01*
X178872196Y-112652591D01*
X179127539Y-112567533D01*
X179335516Y-111998035D01*
X179309723Y-111392300D01*
X179127539Y-110952467D01*
X178872196Y-110867409D01*
X177979605Y-111760000D01*
X177620395Y-111760000D01*
X176727804Y-110867409D01*
X176472461Y-110952467D01*
X176264484Y-111521965D01*
X175425000Y-111521965D01*
X175425000Y-111515750D01*
X175266250Y-111357000D01*
X174117000Y-111357000D01*
X174117000Y-111377000D01*
X173863000Y-111377000D01*
X173863000Y-111357000D01*
X172713750Y-111357000D01*
X172555000Y-111515750D01*
X172555000Y-112656309D01*
X172651673Y-112889698D01*
X172654085Y-112892110D01*
X172602061Y-112925587D01*
X172413231Y-113201948D01*
X172346799Y-113530000D01*
X172346799Y-116130000D01*
X172404465Y-116436468D01*
X172585587Y-116717939D01*
X172861948Y-116906769D01*
X173190000Y-116973201D01*
X174790000Y-116973201D01*
X175096468Y-116915535D01*
X175377939Y-116734413D01*
X175566769Y-116458052D01*
X175633201Y-116130000D01*
X175633201Y-115907000D01*
X176723000Y-115907000D01*
X176723000Y-120223174D01*
X176604532Y-120245465D01*
X176323061Y-120426587D01*
X176134231Y-120702948D01*
X176067799Y-121031000D01*
X176067799Y-122766799D01*
X174990000Y-122766799D01*
X174683532Y-122824465D01*
X174402061Y-123005587D01*
X174213231Y-123281948D01*
X174146799Y-123610000D01*
X174146799Y-125310000D01*
X174204465Y-125616468D01*
X174385587Y-125897939D01*
X174661948Y-126086769D01*
X174990000Y-126153201D01*
X176723000Y-126153201D01*
X176723000Y-128468550D01*
X176410463Y-128000805D01*
X175882626Y-127648116D01*
X175437728Y-127559620D01*
X173665042Y-125786934D01*
X173766769Y-125638052D01*
X173833201Y-125310000D01*
X173833201Y-123610000D01*
X173775535Y-123303532D01*
X173594413Y-123022061D01*
X173318052Y-122833231D01*
X172990000Y-122766799D01*
X170990000Y-122766799D01*
X170683532Y-122824465D01*
X170402061Y-123005587D01*
X170213231Y-123281948D01*
X170146799Y-123610000D01*
X170146799Y-124580871D01*
X169962478Y-124765192D01*
X169729014Y-125114596D01*
X169647032Y-125526746D01*
X169647032Y-126916714D01*
X169148035Y-126734484D01*
X168542300Y-126760277D01*
X168102467Y-126942461D01*
X168017409Y-127197804D01*
X168910000Y-128090395D01*
X168924143Y-128076253D01*
X169103748Y-128255858D01*
X169089605Y-128270000D01*
X169103748Y-128284143D01*
X168924143Y-128463748D01*
X168910000Y-128449605D01*
X168017409Y-129342196D01*
X168102467Y-129597539D01*
X168473396Y-129733000D01*
X166787953Y-129733000D01*
X166792831Y-129708910D01*
X166792831Y-128031965D01*
X167374484Y-128031965D01*
X167400277Y-128637700D01*
X167582461Y-129077533D01*
X167837804Y-129162591D01*
X168730395Y-128270000D01*
X167837804Y-127377409D01*
X167582461Y-127462467D01*
X167374484Y-128031965D01*
X166792831Y-128031965D01*
X166792831Y-126409450D01*
X166735165Y-126102982D01*
X166554043Y-125821511D01*
X166277682Y-125632681D01*
X165949630Y-125566249D01*
X164250370Y-125566249D01*
X164137000Y-125587581D01*
X164137000Y-121920000D01*
X164016958Y-121316508D01*
X163911344Y-121158446D01*
X163675107Y-120804892D01*
X162867000Y-119996786D01*
X162867000Y-116336257D01*
X162870011Y-116340024D01*
X163379190Y-116620649D01*
X163473168Y-116641540D01*
X163703000Y-116520214D01*
X163703000Y-114427000D01*
X163957000Y-114427000D01*
X163957000Y-116520214D01*
X164186832Y-116641540D01*
X164280810Y-116620649D01*
X164789989Y-116340024D01*
X165153018Y-115885906D01*
X165314630Y-115327430D01*
X165314630Y-114427000D01*
X163957000Y-114427000D01*
X163703000Y-114427000D01*
X163683000Y-114427000D01*
X163683000Y-114173000D01*
X163703000Y-114173000D01*
X163703000Y-114153000D01*
X163957000Y-114153000D01*
X163957000Y-114173000D01*
X165314630Y-114173000D01*
X165314630Y-113272570D01*
X165281186Y-113157000D01*
X168910000Y-113157000D01*
X168959410Y-113146994D01*
X169001035Y-113118553D01*
X169028315Y-113076159D01*
X169037000Y-113030000D01*
X169037000Y-109803691D01*
X172555000Y-109803691D01*
X172555000Y-110944250D01*
X172713750Y-111103000D01*
X173863000Y-111103000D01*
X173863000Y-109453750D01*
X174117000Y-109453750D01*
X174117000Y-111103000D01*
X175266250Y-111103000D01*
X175425000Y-110944250D01*
X175425000Y-110687804D01*
X176907409Y-110687804D01*
X177800000Y-111580395D01*
X178692591Y-110687804D01*
X178607533Y-110432461D01*
X178038035Y-110224484D01*
X177432300Y-110250277D01*
X176992467Y-110432461D01*
X176907409Y-110687804D01*
X175425000Y-110687804D01*
X175425000Y-109803691D01*
X175328327Y-109570302D01*
X175149699Y-109391673D01*
X174916310Y-109295000D01*
X174275750Y-109295000D01*
X174117000Y-109453750D01*
X173863000Y-109453750D01*
X173704250Y-109295000D01*
X173063690Y-109295000D01*
X172830301Y-109391673D01*
X172651673Y-109570302D01*
X172555000Y-109803691D01*
X169037000Y-109803691D01*
X169037000Y-91440000D01*
X169026994Y-91390590D01*
X168998553Y-91348965D01*
X168956159Y-91321685D01*
X168910000Y-91313000D01*
X162867000Y-91313000D01*
X162867000Y-80317000D01*
X165896799Y-80317000D01*
X165896799Y-80540000D01*
X165954465Y-80846468D01*
X166135587Y-81127939D01*
X166411948Y-81316769D01*
X166740000Y-81383201D01*
X168540000Y-81383201D01*
X168846468Y-81325535D01*
X169127939Y-81144413D01*
X169316769Y-80868052D01*
X169383201Y-80540000D01*
X169383201Y-77788534D01*
X170993000Y-77788534D01*
X170993000Y-79691466D01*
X171124460Y-80352360D01*
X171143000Y-80380107D01*
X171143000Y-83820000D01*
X171263042Y-84423492D01*
X171604893Y-84935107D01*
X174144892Y-87475107D01*
X174656508Y-87816958D01*
X175260000Y-87937000D01*
X180033000Y-87937000D01*
X180033000Y-109629109D01*
X179983231Y-109701948D01*
X179916799Y-110030000D01*
X179916799Y-112030000D01*
X179974465Y-112336468D01*
X180155587Y-112617939D01*
X180431948Y-112806769D01*
X180760000Y-112873201D01*
X182460000Y-112873201D01*
X182766468Y-112815535D01*
X183047939Y-112634413D01*
X183236769Y-112358052D01*
X183303201Y-112030000D01*
X183303201Y-110030000D01*
X183245535Y-109723532D01*
X183187000Y-109632566D01*
X183187000Y-87875934D01*
X183483492Y-87816958D01*
X183995107Y-87475107D01*
X184336958Y-86963492D01*
X184457000Y-86360000D01*
X184457000Y-81014068D01*
X184556769Y-80868052D01*
X184623201Y-80540000D01*
X184623201Y-78867000D01*
X186425000Y-78867000D01*
X186425000Y-79767000D01*
X186590446Y-80344752D01*
X186964394Y-80815212D01*
X187489914Y-81106756D01*
X187595260Y-81131036D01*
X187833000Y-81010378D01*
X187833000Y-78867000D01*
X188087000Y-78867000D01*
X188087000Y-81010378D01*
X188324740Y-81131036D01*
X188430086Y-81106756D01*
X188955606Y-80815212D01*
X189329554Y-80344752D01*
X189495000Y-79767000D01*
X189495000Y-78867000D01*
X188087000Y-78867000D01*
X187833000Y-78867000D01*
X186425000Y-78867000D01*
X184623201Y-78867000D01*
X184623201Y-77713000D01*
X186425000Y-77713000D01*
X186425000Y-78613000D01*
X187833000Y-78613000D01*
X187833000Y-76469622D01*
X188087000Y-76469622D01*
X188087000Y-78613000D01*
X189495000Y-78613000D01*
X189495000Y-77713000D01*
X189329554Y-77135248D01*
X188955606Y-76664788D01*
X188430086Y-76373244D01*
X188324740Y-76348964D01*
X188087000Y-76469622D01*
X187833000Y-76469622D01*
X187595260Y-76348964D01*
X187489914Y-76373244D01*
X186964394Y-76664788D01*
X186590446Y-77135248D01*
X186425000Y-77713000D01*
X184623201Y-77713000D01*
X184623201Y-76940000D01*
X184565535Y-76633532D01*
X184384413Y-76352061D01*
X184108052Y-76163231D01*
X183780000Y-76096799D01*
X181980000Y-76096799D01*
X181673532Y-76154465D01*
X181392061Y-76335587D01*
X181203231Y-76611948D01*
X181136799Y-76940000D01*
X181136799Y-80540000D01*
X181194465Y-80846468D01*
X181303000Y-81015136D01*
X181303000Y-84783000D01*
X175913215Y-84783000D01*
X174297000Y-83166786D01*
X174297000Y-80380107D01*
X174315540Y-80352360D01*
X174447000Y-79691466D01*
X174447000Y-77788534D01*
X174315540Y-77127640D01*
X173941173Y-76567361D01*
X173380894Y-76192994D01*
X172720000Y-76061534D01*
X172059106Y-76192994D01*
X171498827Y-76567361D01*
X171124460Y-77127640D01*
X170993000Y-77788534D01*
X169383201Y-77788534D01*
X169383201Y-76940000D01*
X169325535Y-76633532D01*
X169144413Y-76352061D01*
X168868052Y-76163231D01*
X168540000Y-76096799D01*
X166740000Y-76096799D01*
X166433532Y-76154465D01*
X166152061Y-76335587D01*
X165963231Y-76611948D01*
X165896799Y-76940000D01*
X165896799Y-77163000D01*
X161958122Y-77163000D01*
X161354630Y-77283042D01*
X160843014Y-77624893D01*
X160174893Y-78293015D01*
X159833042Y-78804630D01*
X159713000Y-79408122D01*
X159713000Y-91313000D01*
X152527000Y-91313000D01*
X152527000Y-76711266D01*
X153338339Y-76711266D01*
X153650487Y-77159932D01*
X154893343Y-77678331D01*
X156239976Y-77681648D01*
X157485371Y-77169380D01*
X157499513Y-77159932D01*
X157811661Y-76711266D01*
X155575000Y-74474605D01*
X153338339Y-76711266D01*
X152527000Y-76711266D01*
X152527000Y-75783277D01*
X152700620Y-76205371D01*
X152710068Y-76219513D01*
X153158734Y-76531661D01*
X155395395Y-74295000D01*
X155754605Y-74295000D01*
X157991266Y-76531661D01*
X158439932Y-76219513D01*
X158958331Y-74976657D01*
X158961648Y-73630024D01*
X158449380Y-72384629D01*
X158439932Y-72370487D01*
X157991266Y-72058339D01*
X155754605Y-74295000D01*
X155395395Y-74295000D01*
X153158734Y-72058339D01*
X152710068Y-72370487D01*
X152527000Y-72809391D01*
X152527000Y-71247000D01*
X154086723Y-71247000D01*
X153664629Y-71420620D01*
X153664629Y-71420620D01*
G37*
X153664629Y-71420620D02*
X153650487Y-71430068D01*
X153338339Y-71878734D01*
X155575000Y-74115395D01*
X157811661Y-71878734D01*
X157499513Y-71430068D01*
X157060609Y-71247000D01*
X198536723Y-71247000D01*
X198114629Y-71420620D01*
X198100487Y-71430068D01*
X197788339Y-71878734D01*
X200025000Y-74115395D01*
X202261661Y-71878734D01*
X201949513Y-71430068D01*
X201510609Y-71247000D01*
X203073000Y-71247000D01*
X203073000Y-72806723D01*
X202899380Y-72384629D01*
X202889932Y-72370487D01*
X202441266Y-72058339D01*
X200204605Y-74295000D01*
X202441266Y-76531661D01*
X202889932Y-76219513D01*
X203073000Y-75780609D01*
X203073000Y-91313000D01*
X195887000Y-91313000D01*
X195887000Y-76711266D01*
X197788339Y-76711266D01*
X198100487Y-77159932D01*
X199343343Y-77678331D01*
X200689976Y-77681648D01*
X201935371Y-77169380D01*
X201949513Y-77159932D01*
X202261661Y-76711266D01*
X200025000Y-74474605D01*
X197788339Y-76711266D01*
X195887000Y-76711266D01*
X195887000Y-74959976D01*
X196638352Y-74959976D01*
X197150620Y-76205371D01*
X197160068Y-76219513D01*
X197608734Y-76531661D01*
X199845395Y-74295000D01*
X197608734Y-72058339D01*
X197160068Y-72370487D01*
X196641669Y-73613343D01*
X196638352Y-74959976D01*
X195887000Y-74959976D01*
X195887000Y-74930000D01*
X195766958Y-74326508D01*
X195724852Y-74263492D01*
X195425107Y-73814892D01*
X194155107Y-72544893D01*
X193643492Y-72203042D01*
X193040000Y-72083000D01*
X180340000Y-72083000D01*
X179736508Y-72203042D01*
X179224892Y-72544893D01*
X176684893Y-75084893D01*
X176343042Y-75596508D01*
X176223000Y-76200000D01*
X176223000Y-77099893D01*
X176204460Y-77127640D01*
X176073000Y-77788534D01*
X176073000Y-79691466D01*
X176204460Y-80352360D01*
X176578827Y-80912639D01*
X177139106Y-81287006D01*
X177800000Y-81418466D01*
X178460894Y-81287006D01*
X179021173Y-80912639D01*
X179395540Y-80352360D01*
X179527000Y-79691466D01*
X179527000Y-77788534D01*
X179395540Y-77127640D01*
X179377000Y-77099893D01*
X179377000Y-76853214D01*
X180993215Y-75237000D01*
X192386786Y-75237000D01*
X192733000Y-75583215D01*
X192733000Y-91313000D01*
X186690000Y-91313000D01*
X186640590Y-91323006D01*
X186598965Y-91351447D01*
X186571685Y-91393841D01*
X186563000Y-91440000D01*
X186563000Y-113030000D01*
X186573006Y-113079410D01*
X186601447Y-113121035D01*
X186643841Y-113148315D01*
X186690000Y-113157000D01*
X190131577Y-113157000D01*
X190093370Y-113349082D01*
X190093370Y-115250918D01*
X190220996Y-115892537D01*
X190584444Y-116436474D01*
X190692782Y-116508863D01*
X190682498Y-116560562D01*
X190682498Y-117260263D01*
X185928446Y-122014315D01*
X185694982Y-122363719D01*
X185613000Y-122775869D01*
X185613000Y-123383000D01*
X185410488Y-123383000D01*
X185395535Y-123303532D01*
X185214413Y-123022061D01*
X184938052Y-122833231D01*
X184610000Y-122766799D01*
X182610000Y-122766799D01*
X182303532Y-122824465D01*
X182022061Y-123005587D01*
X181833231Y-123281948D01*
X181766799Y-123610000D01*
X181766799Y-125310000D01*
X181803000Y-125502391D01*
X181803000Y-127951719D01*
X181729537Y-128000805D01*
X181610000Y-128179705D01*
X181490463Y-128000805D01*
X180962626Y-127648116D01*
X180340000Y-127524268D01*
X179717374Y-127648116D01*
X179189537Y-128000805D01*
X178877000Y-128468550D01*
X178877000Y-126153201D01*
X180610000Y-126153201D01*
X180916468Y-126095535D01*
X181197939Y-125914413D01*
X181386769Y-125638052D01*
X181453201Y-125310000D01*
X181453201Y-123610000D01*
X181395535Y-123303532D01*
X181214413Y-123022061D01*
X180938052Y-122833231D01*
X180610000Y-122766799D01*
X179532201Y-122766799D01*
X179532201Y-121031000D01*
X179474535Y-120724532D01*
X179293413Y-120443061D01*
X179017052Y-120254231D01*
X178877000Y-120225870D01*
X178877000Y-115907000D01*
X179916799Y-115907000D01*
X179916799Y-116030000D01*
X179974465Y-116336468D01*
X180155587Y-116617939D01*
X180431948Y-116806769D01*
X180760000Y-116873201D01*
X182460000Y-116873201D01*
X182766468Y-116815535D01*
X183047939Y-116634413D01*
X183236769Y-116358052D01*
X183303201Y-116030000D01*
X183303201Y-114030000D01*
X183245535Y-113723532D01*
X183064413Y-113442061D01*
X182788052Y-113253231D01*
X182460000Y-113186799D01*
X180760000Y-113186799D01*
X180453532Y-113244465D01*
X180172061Y-113425587D01*
X179983231Y-113701948D01*
X179972893Y-113753000D01*
X175633201Y-113753000D01*
X175633201Y-113530000D01*
X175575535Y-113223532D01*
X175394413Y-112942061D01*
X175324045Y-112893980D01*
X175328327Y-112889698D01*
X175352145Y-112832196D01*
X176907409Y-112832196D01*
X176992467Y-113087539D01*
X177561965Y-113295516D01*
X178167700Y-113269723D01*
X178607533Y-113087539D01*
X178692591Y-112832196D01*
X177800000Y-111939605D01*
X176907409Y-112832196D01*
X175352145Y-112832196D01*
X175425000Y-112656309D01*
X175425000Y-111521965D01*
X176264484Y-111521965D01*
X176290277Y-112127700D01*
X176472461Y-112567533D01*
X176727804Y-112652591D01*
X177620395Y-111760000D01*
X177979605Y-111760000D01*
X178872196Y-112652591D01*
X179127539Y-112567533D01*
X179335516Y-111998035D01*
X179309723Y-111392300D01*
X179127539Y-110952467D01*
X178872196Y-110867409D01*
X177979605Y-111760000D01*
X177620395Y-111760000D01*
X176727804Y-110867409D01*
X176472461Y-110952467D01*
X176264484Y-111521965D01*
X175425000Y-111521965D01*
X175425000Y-111515750D01*
X175266250Y-111357000D01*
X174117000Y-111357000D01*
X174117000Y-111377000D01*
X173863000Y-111377000D01*
X173863000Y-111357000D01*
X172713750Y-111357000D01*
X172555000Y-111515750D01*
X172555000Y-112656309D01*
X172651673Y-112889698D01*
X172654085Y-112892110D01*
X172602061Y-112925587D01*
X172413231Y-113201948D01*
X172346799Y-113530000D01*
X172346799Y-116130000D01*
X172404465Y-116436468D01*
X172585587Y-116717939D01*
X172861948Y-116906769D01*
X173190000Y-116973201D01*
X174790000Y-116973201D01*
X175096468Y-116915535D01*
X175377939Y-116734413D01*
X175566769Y-116458052D01*
X175633201Y-116130000D01*
X175633201Y-115907000D01*
X176723000Y-115907000D01*
X176723000Y-120223174D01*
X176604532Y-120245465D01*
X176323061Y-120426587D01*
X176134231Y-120702948D01*
X176067799Y-121031000D01*
X176067799Y-122766799D01*
X174990000Y-122766799D01*
X174683532Y-122824465D01*
X174402061Y-123005587D01*
X174213231Y-123281948D01*
X174146799Y-123610000D01*
X174146799Y-125310000D01*
X174204465Y-125616468D01*
X174385587Y-125897939D01*
X174661948Y-126086769D01*
X174990000Y-126153201D01*
X176723000Y-126153201D01*
X176723000Y-128468550D01*
X176410463Y-128000805D01*
X175882626Y-127648116D01*
X175437728Y-127559620D01*
X173665042Y-125786934D01*
X173766769Y-125638052D01*
X173833201Y-125310000D01*
X173833201Y-123610000D01*
X173775535Y-123303532D01*
X173594413Y-123022061D01*
X173318052Y-122833231D01*
X172990000Y-122766799D01*
X170990000Y-122766799D01*
X170683532Y-122824465D01*
X170402061Y-123005587D01*
X170213231Y-123281948D01*
X170146799Y-123610000D01*
X170146799Y-124580871D01*
X169962478Y-124765192D01*
X169729014Y-125114596D01*
X169647032Y-125526746D01*
X169647032Y-126916714D01*
X169148035Y-126734484D01*
X168542300Y-126760277D01*
X168102467Y-126942461D01*
X168017409Y-127197804D01*
X168910000Y-128090395D01*
X168924143Y-128076253D01*
X169103748Y-128255858D01*
X169089605Y-128270000D01*
X169103748Y-128284143D01*
X168924143Y-128463748D01*
X168910000Y-128449605D01*
X168017409Y-129342196D01*
X168102467Y-129597539D01*
X168473396Y-129733000D01*
X166787953Y-129733000D01*
X166792831Y-129708910D01*
X166792831Y-128031965D01*
X167374484Y-128031965D01*
X167400277Y-128637700D01*
X167582461Y-129077533D01*
X167837804Y-129162591D01*
X168730395Y-128270000D01*
X167837804Y-127377409D01*
X167582461Y-127462467D01*
X167374484Y-128031965D01*
X166792831Y-128031965D01*
X166792831Y-126409450D01*
X166735165Y-126102982D01*
X166554043Y-125821511D01*
X166277682Y-125632681D01*
X165949630Y-125566249D01*
X164250370Y-125566249D01*
X164137000Y-125587581D01*
X164137000Y-121920000D01*
X164016958Y-121316508D01*
X163911344Y-121158446D01*
X163675107Y-120804892D01*
X162867000Y-119996786D01*
X162867000Y-116336257D01*
X162870011Y-116340024D01*
X163379190Y-116620649D01*
X163473168Y-116641540D01*
X163703000Y-116520214D01*
X163703000Y-114427000D01*
X163957000Y-114427000D01*
X163957000Y-116520214D01*
X164186832Y-116641540D01*
X164280810Y-116620649D01*
X164789989Y-116340024D01*
X165153018Y-115885906D01*
X165314630Y-115327430D01*
X165314630Y-114427000D01*
X163957000Y-114427000D01*
X163703000Y-114427000D01*
X163683000Y-114427000D01*
X163683000Y-114173000D01*
X163703000Y-114173000D01*
X163703000Y-114153000D01*
X163957000Y-114153000D01*
X163957000Y-114173000D01*
X165314630Y-114173000D01*
X165314630Y-113272570D01*
X165281186Y-113157000D01*
X168910000Y-113157000D01*
X168959410Y-113146994D01*
X169001035Y-113118553D01*
X169028315Y-113076159D01*
X169037000Y-113030000D01*
X169037000Y-109803691D01*
X172555000Y-109803691D01*
X172555000Y-110944250D01*
X172713750Y-111103000D01*
X173863000Y-111103000D01*
X173863000Y-109453750D01*
X174117000Y-109453750D01*
X174117000Y-111103000D01*
X175266250Y-111103000D01*
X175425000Y-110944250D01*
X175425000Y-110687804D01*
X176907409Y-110687804D01*
X177800000Y-111580395D01*
X178692591Y-110687804D01*
X178607533Y-110432461D01*
X178038035Y-110224484D01*
X177432300Y-110250277D01*
X176992467Y-110432461D01*
X176907409Y-110687804D01*
X175425000Y-110687804D01*
X175425000Y-109803691D01*
X175328327Y-109570302D01*
X175149699Y-109391673D01*
X174916310Y-109295000D01*
X174275750Y-109295000D01*
X174117000Y-109453750D01*
X173863000Y-109453750D01*
X173704250Y-109295000D01*
X173063690Y-109295000D01*
X172830301Y-109391673D01*
X172651673Y-109570302D01*
X172555000Y-109803691D01*
X169037000Y-109803691D01*
X169037000Y-91440000D01*
X169026994Y-91390590D01*
X168998553Y-91348965D01*
X168956159Y-91321685D01*
X168910000Y-91313000D01*
X162867000Y-91313000D01*
X162867000Y-80317000D01*
X165896799Y-80317000D01*
X165896799Y-80540000D01*
X165954465Y-80846468D01*
X166135587Y-81127939D01*
X166411948Y-81316769D01*
X166740000Y-81383201D01*
X168540000Y-81383201D01*
X168846468Y-81325535D01*
X169127939Y-81144413D01*
X169316769Y-80868052D01*
X169383201Y-80540000D01*
X169383201Y-77788534D01*
X170993000Y-77788534D01*
X170993000Y-79691466D01*
X171124460Y-80352360D01*
X171143000Y-80380107D01*
X171143000Y-83820000D01*
X171263042Y-84423492D01*
X171604893Y-84935107D01*
X174144892Y-87475107D01*
X174656508Y-87816958D01*
X175260000Y-87937000D01*
X180033000Y-87937000D01*
X180033000Y-109629109D01*
X179983231Y-109701948D01*
X179916799Y-110030000D01*
X179916799Y-112030000D01*
X179974465Y-112336468D01*
X180155587Y-112617939D01*
X180431948Y-112806769D01*
X180760000Y-112873201D01*
X182460000Y-112873201D01*
X182766468Y-112815535D01*
X183047939Y-112634413D01*
X183236769Y-112358052D01*
X183303201Y-112030000D01*
X183303201Y-110030000D01*
X183245535Y-109723532D01*
X183187000Y-109632566D01*
X183187000Y-87875934D01*
X183483492Y-87816958D01*
X183995107Y-87475107D01*
X184336958Y-86963492D01*
X184457000Y-86360000D01*
X184457000Y-81014068D01*
X184556769Y-80868052D01*
X184623201Y-80540000D01*
X184623201Y-78867000D01*
X186425000Y-78867000D01*
X186425000Y-79767000D01*
X186590446Y-80344752D01*
X186964394Y-80815212D01*
X187489914Y-81106756D01*
X187595260Y-81131036D01*
X187833000Y-81010378D01*
X187833000Y-78867000D01*
X188087000Y-78867000D01*
X188087000Y-81010378D01*
X188324740Y-81131036D01*
X188430086Y-81106756D01*
X188955606Y-80815212D01*
X189329554Y-80344752D01*
X189495000Y-79767000D01*
X189495000Y-78867000D01*
X188087000Y-78867000D01*
X187833000Y-78867000D01*
X186425000Y-78867000D01*
X184623201Y-78867000D01*
X184623201Y-77713000D01*
X186425000Y-77713000D01*
X186425000Y-78613000D01*
X187833000Y-78613000D01*
X187833000Y-76469622D01*
X188087000Y-76469622D01*
X188087000Y-78613000D01*
X189495000Y-78613000D01*
X189495000Y-77713000D01*
X189329554Y-77135248D01*
X188955606Y-76664788D01*
X188430086Y-76373244D01*
X188324740Y-76348964D01*
X188087000Y-76469622D01*
X187833000Y-76469622D01*
X187595260Y-76348964D01*
X187489914Y-76373244D01*
X186964394Y-76664788D01*
X186590446Y-77135248D01*
X186425000Y-77713000D01*
X184623201Y-77713000D01*
X184623201Y-76940000D01*
X184565535Y-76633532D01*
X184384413Y-76352061D01*
X184108052Y-76163231D01*
X183780000Y-76096799D01*
X181980000Y-76096799D01*
X181673532Y-76154465D01*
X181392061Y-76335587D01*
X181203231Y-76611948D01*
X181136799Y-76940000D01*
X181136799Y-80540000D01*
X181194465Y-80846468D01*
X181303000Y-81015136D01*
X181303000Y-84783000D01*
X175913215Y-84783000D01*
X174297000Y-83166786D01*
X174297000Y-80380107D01*
X174315540Y-80352360D01*
X174447000Y-79691466D01*
X174447000Y-77788534D01*
X174315540Y-77127640D01*
X173941173Y-76567361D01*
X173380894Y-76192994D01*
X172720000Y-76061534D01*
X172059106Y-76192994D01*
X171498827Y-76567361D01*
X171124460Y-77127640D01*
X170993000Y-77788534D01*
X169383201Y-77788534D01*
X169383201Y-76940000D01*
X169325535Y-76633532D01*
X169144413Y-76352061D01*
X168868052Y-76163231D01*
X168540000Y-76096799D01*
X166740000Y-76096799D01*
X166433532Y-76154465D01*
X166152061Y-76335587D01*
X165963231Y-76611948D01*
X165896799Y-76940000D01*
X165896799Y-77163000D01*
X161958122Y-77163000D01*
X161354630Y-77283042D01*
X160843014Y-77624893D01*
X160174893Y-78293015D01*
X159833042Y-78804630D01*
X159713000Y-79408122D01*
X159713000Y-91313000D01*
X152527000Y-91313000D01*
X152527000Y-76711266D01*
X153338339Y-76711266D01*
X153650487Y-77159932D01*
X154893343Y-77678331D01*
X156239976Y-77681648D01*
X157485371Y-77169380D01*
X157499513Y-77159932D01*
X157811661Y-76711266D01*
X155575000Y-74474605D01*
X153338339Y-76711266D01*
X152527000Y-76711266D01*
X152527000Y-75783277D01*
X152700620Y-76205371D01*
X152710068Y-76219513D01*
X153158734Y-76531661D01*
X155395395Y-74295000D01*
X155754605Y-74295000D01*
X157991266Y-76531661D01*
X158439932Y-76219513D01*
X158958331Y-74976657D01*
X158961648Y-73630024D01*
X158449380Y-72384629D01*
X158439932Y-72370487D01*
X157991266Y-72058339D01*
X155754605Y-74295000D01*
X155395395Y-74295000D01*
X153158734Y-72058339D01*
X152710068Y-72370487D01*
X152527000Y-72809391D01*
X152527000Y-71247000D01*
X154086723Y-71247000D01*
X153664629Y-71420620D01*
M02*
