G04 #@! TF.FileFunction,Other,Fab,Bot*
%FSLAX46Y46*%
G04 Gerber Fmt 4.6, Leading zero omitted, Abs format (unit mm)*
G04 Created by KiCad (PCBNEW 4.0.5+dfsg1-4) date Mon Apr 17 01:28:25 2017*
%MOMM*%
%LPD*%
G01*
G04 APERTURE LIST*
%ADD10C,0.100000*%
%ADD11C,0.150000*%
G04 APERTURE END LIST*
D10*
D11*
X159220000Y-132410000D02*
X160820000Y-132410000D01*
X159220000Y-129210000D02*
X159220000Y-132410000D01*
X160820000Y-129210000D02*
X159220000Y-129210000D01*
X160820000Y-132410000D02*
X160820000Y-129210000D01*
X160820000Y-135560000D02*
X159220000Y-135560000D01*
X160820000Y-138760000D02*
X160820000Y-135560000D01*
X159220000Y-138760000D02*
X160820000Y-138760000D01*
X159220000Y-135560000D02*
X159220000Y-138760000D01*
X196380000Y-135560000D02*
X194780000Y-135560000D01*
X196380000Y-138760000D02*
X196380000Y-135560000D01*
X194780000Y-138760000D02*
X196380000Y-138760000D01*
X194780000Y-135560000D02*
X194780000Y-138760000D01*
X192240000Y-132199200D02*
X193840000Y-132199200D01*
X192240000Y-128999200D02*
X192240000Y-132199200D01*
X193840000Y-128999200D02*
X192240000Y-128999200D01*
X193840000Y-132199200D02*
X193840000Y-128999200D01*
D10*
X163360000Y-135560000D02*
X161760000Y-135560000D01*
X163360000Y-138760000D02*
X163360000Y-135560000D01*
X161760000Y-138760000D02*
X163360000Y-138760000D01*
X161760000Y-135560000D02*
X161760000Y-138760000D01*
X180010000Y-123660000D02*
X180010000Y-125260000D01*
X183210000Y-123660000D02*
X180010000Y-123660000D01*
X183210000Y-125260000D02*
X183210000Y-123660000D01*
X180010000Y-125260000D02*
X183210000Y-125260000D01*
X175590000Y-125260000D02*
X175590000Y-123660000D01*
X172390000Y-125260000D02*
X175590000Y-125260000D01*
X172390000Y-123660000D02*
X172390000Y-125260000D01*
X175590000Y-123660000D02*
X172390000Y-123660000D01*
X193840000Y-135560000D02*
X192240000Y-135560000D01*
X193840000Y-138760000D02*
X193840000Y-135560000D01*
X192240000Y-138760000D02*
X193840000Y-138760000D01*
X192240000Y-135560000D02*
X192240000Y-138760000D01*
X182410000Y-111430000D02*
X180810000Y-111430000D01*
X182410000Y-114630000D02*
X182410000Y-111430000D01*
X180810000Y-114630000D02*
X182410000Y-114630000D01*
X180810000Y-111430000D02*
X180810000Y-114630000D01*
D11*
X171856400Y-110896400D02*
X176123600Y-110896400D01*
X171856400Y-114490500D02*
X171856400Y-110896400D01*
X172529500Y-115163600D02*
X171856400Y-114490500D01*
X175450500Y-115163600D02*
X172529500Y-115163600D01*
X176123600Y-114490500D02*
X175450500Y-115163600D01*
X176123600Y-110896400D02*
X176123600Y-114490500D01*
X157900714Y-129643334D02*
X158567381Y-129643334D01*
X157519762Y-129405238D02*
X158234048Y-129167143D01*
X158234048Y-129786191D01*
X157567381Y-130071905D02*
X157567381Y-130738572D01*
X158567381Y-130310000D01*
X157900714Y-131119524D02*
X158567381Y-131119524D01*
X157995952Y-131119524D02*
X157948333Y-131167143D01*
X157900714Y-131262381D01*
X157900714Y-131405239D01*
X157948333Y-131500477D01*
X158043571Y-131548096D01*
X158567381Y-131548096D01*
X158043571Y-132357620D02*
X158043571Y-132024286D01*
X158567381Y-132024286D02*
X157567381Y-132024286D01*
X157567381Y-132500477D01*
X161710714Y-135993334D02*
X162377381Y-135993334D01*
X161329762Y-135755238D02*
X162044048Y-135517143D01*
X162044048Y-136136191D01*
X161377381Y-136421905D02*
X161377381Y-137088572D01*
X162377381Y-136660000D01*
X161710714Y-137469524D02*
X162377381Y-137469524D01*
X161805952Y-137469524D02*
X161758333Y-137517143D01*
X161710714Y-137612381D01*
X161710714Y-137755239D01*
X161758333Y-137850477D01*
X161853571Y-137898096D01*
X162377381Y-137898096D01*
X161853571Y-138707620D02*
X161853571Y-138374286D01*
X162377381Y-138374286D02*
X161377381Y-138374286D01*
X161377381Y-138850477D01*
X193460714Y-135993334D02*
X194127381Y-135993334D01*
X193079762Y-135755238D02*
X193794048Y-135517143D01*
X193794048Y-136136191D01*
X193127381Y-136421905D02*
X193127381Y-137088572D01*
X194127381Y-136660000D01*
X193460714Y-137469524D02*
X194127381Y-137469524D01*
X193555952Y-137469524D02*
X193508333Y-137517143D01*
X193460714Y-137612381D01*
X193460714Y-137755239D01*
X193508333Y-137850477D01*
X193603571Y-137898096D01*
X194127381Y-137898096D01*
X193603571Y-138707620D02*
X193603571Y-138374286D01*
X194127381Y-138374286D02*
X193127381Y-138374286D01*
X193127381Y-138850477D01*
X194730714Y-129643334D02*
X195397381Y-129643334D01*
X194349762Y-129405238D02*
X195064048Y-129167143D01*
X195064048Y-129786191D01*
X194397381Y-130071905D02*
X194397381Y-130738572D01*
X195397381Y-130310000D01*
X194730714Y-131119524D02*
X195397381Y-131119524D01*
X194825952Y-131119524D02*
X194778333Y-131167143D01*
X194730714Y-131262381D01*
X194730714Y-131405239D01*
X194778333Y-131500477D01*
X194873571Y-131548096D01*
X195397381Y-131548096D01*
X194873571Y-132357620D02*
X194873571Y-132024286D01*
X195397381Y-132024286D02*
X194397381Y-132024286D01*
X194397381Y-132500477D01*
X163917381Y-135945714D02*
X163917381Y-136564762D01*
X164298333Y-136231428D01*
X164298333Y-136374286D01*
X164345952Y-136469524D01*
X164393571Y-136517143D01*
X164488810Y-136564762D01*
X164726905Y-136564762D01*
X164822143Y-136517143D01*
X164869762Y-136469524D01*
X164917381Y-136374286D01*
X164917381Y-136088571D01*
X164869762Y-135993333D01*
X164822143Y-135945714D01*
X163917381Y-136898095D02*
X163917381Y-137517143D01*
X164298333Y-137183809D01*
X164298333Y-137326667D01*
X164345952Y-137421905D01*
X164393571Y-137469524D01*
X164488810Y-137517143D01*
X164726905Y-137517143D01*
X164822143Y-137469524D01*
X164869762Y-137421905D01*
X164917381Y-137326667D01*
X164917381Y-137040952D01*
X164869762Y-136945714D01*
X164822143Y-136898095D01*
X164917381Y-137945714D02*
X163917381Y-137945714D01*
X164536429Y-138040952D02*
X164917381Y-138326667D01*
X164250714Y-138326667D02*
X164631667Y-137945714D01*
X182300476Y-122340714D02*
X182300476Y-123007381D01*
X182538572Y-121959762D02*
X182776667Y-122674048D01*
X182157619Y-122674048D01*
X181871905Y-122007381D02*
X181205238Y-122007381D01*
X181633810Y-123007381D01*
X180824286Y-123007381D02*
X180824286Y-122007381D01*
X180729048Y-122626429D02*
X180443333Y-123007381D01*
X180443333Y-122340714D02*
X180824286Y-122721667D01*
X174680476Y-122340714D02*
X174680476Y-123007381D01*
X174918572Y-121959762D02*
X175156667Y-122674048D01*
X174537619Y-122674048D01*
X174251905Y-122007381D02*
X173585238Y-122007381D01*
X174013810Y-123007381D01*
X173204286Y-123007381D02*
X173204286Y-122007381D01*
X173109048Y-122626429D02*
X172823333Y-123007381D01*
X172823333Y-122340714D02*
X173204286Y-122721667D01*
X194397381Y-135945714D02*
X194397381Y-136564762D01*
X194778333Y-136231428D01*
X194778333Y-136374286D01*
X194825952Y-136469524D01*
X194873571Y-136517143D01*
X194968810Y-136564762D01*
X195206905Y-136564762D01*
X195302143Y-136517143D01*
X195349762Y-136469524D01*
X195397381Y-136374286D01*
X195397381Y-136088571D01*
X195349762Y-135993333D01*
X195302143Y-135945714D01*
X194397381Y-136898095D02*
X194397381Y-137517143D01*
X194778333Y-137183809D01*
X194778333Y-137326667D01*
X194825952Y-137421905D01*
X194873571Y-137469524D01*
X194968810Y-137517143D01*
X195206905Y-137517143D01*
X195302143Y-137469524D01*
X195349762Y-137421905D01*
X195397381Y-137326667D01*
X195397381Y-137040952D01*
X195349762Y-136945714D01*
X195302143Y-136898095D01*
X195397381Y-137945714D02*
X194397381Y-137945714D01*
X195016429Y-138040952D02*
X195397381Y-138326667D01*
X194730714Y-138326667D02*
X195111667Y-137945714D01*
X180157381Y-112196667D02*
X180157381Y-111625238D01*
X180157381Y-111910952D02*
X179157381Y-111910952D01*
X179300238Y-111815714D01*
X179395476Y-111720476D01*
X179443095Y-111625238D01*
X180062143Y-112625238D02*
X180109762Y-112672857D01*
X180157381Y-112625238D01*
X180109762Y-112577619D01*
X180062143Y-112625238D01*
X180157381Y-112625238D01*
X179157381Y-113577619D02*
X179157381Y-113101428D01*
X179633571Y-113053809D01*
X179585952Y-113101428D01*
X179538333Y-113196666D01*
X179538333Y-113434762D01*
X179585952Y-113530000D01*
X179633571Y-113577619D01*
X179728810Y-113625238D01*
X179966905Y-113625238D01*
X180062143Y-113577619D01*
X180109762Y-113530000D01*
X180157381Y-113434762D01*
X180157381Y-113196666D01*
X180109762Y-113101428D01*
X180062143Y-113053809D01*
X180157381Y-114053809D02*
X179157381Y-114053809D01*
X179776429Y-114149047D02*
X180157381Y-114434762D01*
X179490714Y-114434762D02*
X179871667Y-114053809D01*
X171140381Y-113704762D02*
X171140381Y-113133333D01*
X171140381Y-113419047D02*
X170140381Y-113419047D01*
X170283238Y-113323809D01*
X170378476Y-113228571D01*
X170426095Y-113133333D01*
X170473714Y-114561905D02*
X171140381Y-114561905D01*
X170473714Y-114133333D02*
X170997524Y-114133333D01*
X171092762Y-114180952D01*
X171140381Y-114276190D01*
X171140381Y-114419048D01*
X171092762Y-114514286D01*
X171045143Y-114561905D01*
X170616571Y-115371429D02*
X170616571Y-115038095D01*
X171140381Y-115038095D02*
X170140381Y-115038095D01*
X170140381Y-115514286D01*
X174124929Y-113766648D02*
X174124929Y-114528553D01*
X174505881Y-114147601D02*
X173743976Y-114147601D01*
X166822381Y-128667143D02*
X166822381Y-128095714D01*
X166822381Y-128381428D02*
X165822381Y-128381428D01*
X165965238Y-128286190D01*
X166060476Y-128190952D01*
X166108095Y-128095714D01*
X166822381Y-129095714D02*
X165822381Y-129095714D01*
X166822381Y-129667143D01*
X165822381Y-129667143D01*
X166155714Y-130571905D02*
X166822381Y-130571905D01*
X165774762Y-130333809D02*
X166489048Y-130095714D01*
X166489048Y-130714762D01*
X166822381Y-131619524D02*
X166822381Y-131048095D01*
X166822381Y-131333809D02*
X165822381Y-131333809D01*
X165965238Y-131238571D01*
X166060476Y-131143333D01*
X166108095Y-131048095D01*
X166155714Y-132476667D02*
X166822381Y-132476667D01*
X165774762Y-132238571D02*
X166489048Y-132000476D01*
X166489048Y-132619524D01*
X166250952Y-133143333D02*
X166203333Y-133048095D01*
X166155714Y-133000476D01*
X166060476Y-132952857D01*
X166012857Y-132952857D01*
X165917619Y-133000476D01*
X165870000Y-133048095D01*
X165822381Y-133143333D01*
X165822381Y-133333810D01*
X165870000Y-133429048D01*
X165917619Y-133476667D01*
X166012857Y-133524286D01*
X166060476Y-133524286D01*
X166155714Y-133476667D01*
X166203333Y-133429048D01*
X166250952Y-133333810D01*
X166250952Y-133143333D01*
X166298571Y-133048095D01*
X166346190Y-133000476D01*
X166441429Y-132952857D01*
X166631905Y-132952857D01*
X166727143Y-133000476D01*
X166774762Y-133048095D01*
X166822381Y-133143333D01*
X166822381Y-133333810D01*
X166774762Y-133429048D01*
X166727143Y-133476667D01*
X166631905Y-133524286D01*
X166441429Y-133524286D01*
X166346190Y-133476667D01*
X166298571Y-133429048D01*
X166250952Y-133333810D01*
X194127381Y-129937143D02*
X194127381Y-129365714D01*
X194127381Y-129651428D02*
X193127381Y-129651428D01*
X193270238Y-129556190D01*
X193365476Y-129460952D01*
X193413095Y-129365714D01*
X194127381Y-130365714D02*
X193127381Y-130365714D01*
X194127381Y-130937143D01*
X193127381Y-130937143D01*
X193460714Y-131841905D02*
X194127381Y-131841905D01*
X193079762Y-131603809D02*
X193794048Y-131365714D01*
X193794048Y-131984762D01*
X194127381Y-132889524D02*
X194127381Y-132318095D01*
X194127381Y-132603809D02*
X193127381Y-132603809D01*
X193270238Y-132508571D01*
X193365476Y-132413333D01*
X193413095Y-132318095D01*
X193460714Y-133746667D02*
X194127381Y-133746667D01*
X193079762Y-133508571D02*
X193794048Y-133270476D01*
X193794048Y-133889524D01*
X193555952Y-134413333D02*
X193508333Y-134318095D01*
X193460714Y-134270476D01*
X193365476Y-134222857D01*
X193317857Y-134222857D01*
X193222619Y-134270476D01*
X193175000Y-134318095D01*
X193127381Y-134413333D01*
X193127381Y-134603810D01*
X193175000Y-134699048D01*
X193222619Y-134746667D01*
X193317857Y-134794286D01*
X193365476Y-134794286D01*
X193460714Y-134746667D01*
X193508333Y-134699048D01*
X193555952Y-134603810D01*
X193555952Y-134413333D01*
X193603571Y-134318095D01*
X193651190Y-134270476D01*
X193746429Y-134222857D01*
X193936905Y-134222857D01*
X194032143Y-134270476D01*
X194079762Y-134318095D01*
X194127381Y-134413333D01*
X194127381Y-134603810D01*
X194079762Y-134699048D01*
X194032143Y-134746667D01*
X193936905Y-134794286D01*
X193746429Y-134794286D01*
X193651190Y-134746667D01*
X193603571Y-134699048D01*
X193555952Y-134603810D01*
M02*
