G04 #@! TF.FileFunction,Legend,Bot*
%FSLAX46Y46*%
G04 Gerber Fmt 4.6, Leading zero omitted, Abs format (unit mm)*
G04 Created by KiCad (PCBNEW 4.0.5+dfsg1-4) date Mon Apr 17 00:41:20 2017*
%MOMM*%
%LPD*%
G01*
G04 APERTURE LIST*
%ADD10C,0.100000*%
%ADD11C,0.150000*%
G04 APERTURE END LIST*
D10*
D11*
X161045000Y-129810000D02*
X161045000Y-131810000D01*
X158995000Y-131810000D02*
X158995000Y-129810000D01*
X158995000Y-138160000D02*
X158995000Y-136160000D01*
X161045000Y-136160000D02*
X161045000Y-138160000D01*
X194555000Y-138160000D02*
X194555000Y-136160000D01*
X196605000Y-136160000D02*
X196605000Y-138160000D01*
X196605000Y-129599200D02*
X196605000Y-131599200D01*
X194555000Y-131599200D02*
X194555000Y-129599200D01*
X158555000Y-138160000D02*
X158555000Y-136160000D01*
X156405000Y-136160000D02*
X156405000Y-138160000D01*
X182610000Y-123385000D02*
X180610000Y-123385000D01*
X180610000Y-125535000D02*
X182610000Y-125535000D01*
X172990000Y-125535000D02*
X174990000Y-125535000D01*
X174990000Y-123385000D02*
X172990000Y-123385000D01*
X199195000Y-138160000D02*
X199195000Y-136160000D01*
X197045000Y-136160000D02*
X197045000Y-138160000D01*
X185225000Y-114030000D02*
X185225000Y-112030000D01*
X183075000Y-112030000D02*
X183075000Y-114030000D01*
X170335145Y-114733599D02*
G75*
G02X170332400Y-111328200I1114855J1703599D01*
G01*
X172567600Y-111328200D02*
G75*
G02X172567600Y-114731800I-1117600J-1701800D01*
G01*
X169926000Y-115316000D02*
X170332400Y-115316000D01*
X169164000Y-110744000D02*
X170332400Y-110744000D01*
X173736000Y-110744000D02*
X172567600Y-110744000D01*
X172974000Y-115316000D02*
X172567600Y-115316000D01*
X169164000Y-114554000D02*
X169164000Y-110744000D01*
X169164000Y-114554000D02*
X169926000Y-115316000D01*
X173736000Y-114554000D02*
X173736000Y-110744000D01*
X173736000Y-114554000D02*
X172974000Y-115316000D01*
X162560000Y-130310420D02*
X162560000Y-130160560D01*
X162560000Y-131158780D02*
X162560000Y-131359440D01*
X162560000Y-130310420D02*
X163309300Y-130310420D01*
X162560000Y-130310420D02*
X161858960Y-130310420D01*
X162560000Y-130310420D02*
X161858960Y-131158780D01*
X161858960Y-131158780D02*
X163261040Y-131158780D01*
X163261040Y-131158780D02*
X162560000Y-130310420D01*
X193040000Y-130310420D02*
X193040000Y-130160560D01*
X193040000Y-131158780D02*
X193040000Y-131359440D01*
X193040000Y-130310420D02*
X193789300Y-130310420D01*
X193040000Y-130310420D02*
X192338960Y-130310420D01*
X193040000Y-130310420D02*
X192338960Y-131158780D01*
X192338960Y-131158780D02*
X193741040Y-131158780D01*
X193741040Y-131158780D02*
X193040000Y-130310420D01*
X158472143Y-127468334D02*
X158519762Y-127420715D01*
X158567381Y-127277858D01*
X158567381Y-127182620D01*
X158519762Y-127039762D01*
X158424524Y-126944524D01*
X158329286Y-126896905D01*
X158138810Y-126849286D01*
X157995952Y-126849286D01*
X157805476Y-126896905D01*
X157710238Y-126944524D01*
X157615000Y-127039762D01*
X157567381Y-127182620D01*
X157567381Y-127277858D01*
X157615000Y-127420715D01*
X157662619Y-127468334D01*
X158567381Y-128420715D02*
X158567381Y-127849286D01*
X158567381Y-128135000D02*
X157567381Y-128135000D01*
X157710238Y-128039762D01*
X157805476Y-127944524D01*
X157853095Y-127849286D01*
X160377143Y-141438334D02*
X160424762Y-141390715D01*
X160472381Y-141247858D01*
X160472381Y-141152620D01*
X160424762Y-141009762D01*
X160329524Y-140914524D01*
X160234286Y-140866905D01*
X160043810Y-140819286D01*
X159900952Y-140819286D01*
X159710476Y-140866905D01*
X159615238Y-140914524D01*
X159520000Y-141009762D01*
X159472381Y-141152620D01*
X159472381Y-141247858D01*
X159520000Y-141390715D01*
X159567619Y-141438334D01*
X159567619Y-141819286D02*
X159520000Y-141866905D01*
X159472381Y-141962143D01*
X159472381Y-142200239D01*
X159520000Y-142295477D01*
X159567619Y-142343096D01*
X159662857Y-142390715D01*
X159758095Y-142390715D01*
X159900952Y-142343096D01*
X160472381Y-141771667D01*
X160472381Y-142390715D01*
X195937143Y-141438334D02*
X195984762Y-141390715D01*
X196032381Y-141247858D01*
X196032381Y-141152620D01*
X195984762Y-141009762D01*
X195889524Y-140914524D01*
X195794286Y-140866905D01*
X195603810Y-140819286D01*
X195460952Y-140819286D01*
X195270476Y-140866905D01*
X195175238Y-140914524D01*
X195080000Y-141009762D01*
X195032381Y-141152620D01*
X195032381Y-141247858D01*
X195080000Y-141390715D01*
X195127619Y-141438334D01*
X195032381Y-141771667D02*
X195032381Y-142390715D01*
X195413333Y-142057381D01*
X195413333Y-142200239D01*
X195460952Y-142295477D01*
X195508571Y-142343096D01*
X195603810Y-142390715D01*
X195841905Y-142390715D01*
X195937143Y-142343096D01*
X195984762Y-142295477D01*
X196032381Y-142200239D01*
X196032381Y-141914524D01*
X195984762Y-141819286D01*
X195937143Y-141771667D01*
X195937143Y-126198334D02*
X195984762Y-126150715D01*
X196032381Y-126007858D01*
X196032381Y-125912620D01*
X195984762Y-125769762D01*
X195889524Y-125674524D01*
X195794286Y-125626905D01*
X195603810Y-125579286D01*
X195460952Y-125579286D01*
X195270476Y-125626905D01*
X195175238Y-125674524D01*
X195080000Y-125769762D01*
X195032381Y-125912620D01*
X195032381Y-126007858D01*
X195080000Y-126150715D01*
X195127619Y-126198334D01*
X195365714Y-127055477D02*
X196032381Y-127055477D01*
X194984762Y-126817381D02*
X195699048Y-126579286D01*
X195699048Y-127198334D01*
X157932381Y-141438334D02*
X157456190Y-141105000D01*
X157932381Y-140866905D02*
X156932381Y-140866905D01*
X156932381Y-141247858D01*
X156980000Y-141343096D01*
X157027619Y-141390715D01*
X157122857Y-141438334D01*
X157265714Y-141438334D01*
X157360952Y-141390715D01*
X157408571Y-141343096D01*
X157456190Y-141247858D01*
X157456190Y-140866905D01*
X157932381Y-142390715D02*
X157932381Y-141819286D01*
X157932381Y-142105000D02*
X156932381Y-142105000D01*
X157075238Y-142009762D01*
X157170476Y-141914524D01*
X157218095Y-141819286D01*
X184951666Y-123007381D02*
X185285000Y-122531190D01*
X185523095Y-123007381D02*
X185523095Y-122007381D01*
X185142142Y-122007381D01*
X185046904Y-122055000D01*
X184999285Y-122102619D01*
X184951666Y-122197857D01*
X184951666Y-122340714D01*
X184999285Y-122435952D01*
X185046904Y-122483571D01*
X185142142Y-122531190D01*
X185523095Y-122531190D01*
X184618333Y-122007381D02*
X183999285Y-122007381D01*
X184332619Y-122388333D01*
X184189761Y-122388333D01*
X184094523Y-122435952D01*
X184046904Y-122483571D01*
X183999285Y-122578810D01*
X183999285Y-122816905D01*
X184046904Y-122912143D01*
X184094523Y-122959762D01*
X184189761Y-123007381D01*
X184475476Y-123007381D01*
X184570714Y-122959762D01*
X184618333Y-122912143D01*
X171616666Y-123007381D02*
X171950000Y-122531190D01*
X172188095Y-123007381D02*
X172188095Y-122007381D01*
X171807142Y-122007381D01*
X171711904Y-122055000D01*
X171664285Y-122102619D01*
X171616666Y-122197857D01*
X171616666Y-122340714D01*
X171664285Y-122435952D01*
X171711904Y-122483571D01*
X171807142Y-122531190D01*
X172188095Y-122531190D01*
X170759523Y-122340714D02*
X170759523Y-123007381D01*
X170997619Y-121959762D02*
X171235714Y-122674048D01*
X170616666Y-122674048D01*
X198572381Y-141438334D02*
X198096190Y-141105000D01*
X198572381Y-140866905D02*
X197572381Y-140866905D01*
X197572381Y-141247858D01*
X197620000Y-141343096D01*
X197667619Y-141390715D01*
X197762857Y-141438334D01*
X197905714Y-141438334D01*
X198000952Y-141390715D01*
X198048571Y-141343096D01*
X198096190Y-141247858D01*
X198096190Y-140866905D01*
X197572381Y-142343096D02*
X197572381Y-141866905D01*
X198048571Y-141819286D01*
X198000952Y-141866905D01*
X197953333Y-141962143D01*
X197953333Y-142200239D01*
X198000952Y-142295477D01*
X198048571Y-142343096D01*
X198143810Y-142390715D01*
X198381905Y-142390715D01*
X198477143Y-142343096D01*
X198524762Y-142295477D01*
X198572381Y-142200239D01*
X198572381Y-141962143D01*
X198524762Y-141866905D01*
X198477143Y-141819286D01*
X182697381Y-109688334D02*
X182221190Y-109355000D01*
X182697381Y-109116905D02*
X181697381Y-109116905D01*
X181697381Y-109497858D01*
X181745000Y-109593096D01*
X181792619Y-109640715D01*
X181887857Y-109688334D01*
X182030714Y-109688334D01*
X182125952Y-109640715D01*
X182173571Y-109593096D01*
X182221190Y-109497858D01*
X182221190Y-109116905D01*
X181697381Y-110021667D02*
X181697381Y-110688334D01*
X182697381Y-110259762D01*
X168505143Y-110958334D02*
X168552762Y-110910715D01*
X168600381Y-110767858D01*
X168600381Y-110672620D01*
X168552762Y-110529762D01*
X168457524Y-110434524D01*
X168362286Y-110386905D01*
X168171810Y-110339286D01*
X168028952Y-110339286D01*
X167838476Y-110386905D01*
X167743238Y-110434524D01*
X167648000Y-110529762D01*
X167600381Y-110672620D01*
X167600381Y-110767858D01*
X167648000Y-110910715D01*
X167695619Y-110958334D01*
X167600381Y-111863096D02*
X167600381Y-111386905D01*
X168076571Y-111339286D01*
X168028952Y-111386905D01*
X167981333Y-111482143D01*
X167981333Y-111720239D01*
X168028952Y-111815477D01*
X168076571Y-111863096D01*
X168171810Y-111910715D01*
X168409905Y-111910715D01*
X168505143Y-111863096D01*
X168552762Y-111815477D01*
X168600381Y-111720239D01*
X168600381Y-111482143D01*
X168552762Y-111386905D01*
X168505143Y-111339286D01*
X169514829Y-115430348D02*
X169514829Y-116192253D01*
X169895781Y-115811301D02*
X169133876Y-115811301D01*
X164282381Y-136421905D02*
X163282381Y-136421905D01*
X163282381Y-136660000D01*
X163330000Y-136802858D01*
X163425238Y-136898096D01*
X163520476Y-136945715D01*
X163710952Y-136993334D01*
X163853810Y-136993334D01*
X164044286Y-136945715D01*
X164139524Y-136898096D01*
X164234762Y-136802858D01*
X164282381Y-136660000D01*
X164282381Y-136421905D01*
X164282381Y-137945715D02*
X164282381Y-137374286D01*
X164282381Y-137660000D02*
X163282381Y-137660000D01*
X163425238Y-137564762D01*
X163520476Y-137469524D01*
X163568095Y-137374286D01*
X164862381Y-128748095D02*
X163862381Y-128748095D01*
X164862381Y-129319524D02*
X164290952Y-128890952D01*
X163862381Y-129319524D02*
X164433810Y-128748095D01*
X164576667Y-132371905D02*
X164576667Y-132848096D01*
X164862381Y-132276667D02*
X163862381Y-132610000D01*
X164862381Y-132943334D01*
X191587381Y-126896905D02*
X190587381Y-126896905D01*
X190587381Y-127135000D01*
X190635000Y-127277858D01*
X190730238Y-127373096D01*
X190825476Y-127420715D01*
X191015952Y-127468334D01*
X191158810Y-127468334D01*
X191349286Y-127420715D01*
X191444524Y-127373096D01*
X191539762Y-127277858D01*
X191587381Y-127135000D01*
X191587381Y-126896905D01*
X190920714Y-128325477D02*
X191587381Y-128325477D01*
X190539762Y-128087381D02*
X191254048Y-127849286D01*
X191254048Y-128468334D01*
X195342381Y-128748095D02*
X194342381Y-128748095D01*
X195342381Y-129319524D02*
X194770952Y-128890952D01*
X194342381Y-129319524D02*
X194913810Y-128748095D01*
X195056667Y-132371905D02*
X195056667Y-132848096D01*
X195342381Y-132276667D02*
X194342381Y-132610000D01*
X195342381Y-132943334D01*
M02*
