G04 #@! TF.FileFunction,Other,Fab,Bot*
%FSLAX46Y46*%
G04 Gerber Fmt 4.6, Leading zero omitted, Abs format (unit mm)*
G04 Created by KiCad (PCBNEW 4.0.5+dfsg1-4) date Sun Apr 16 21:16:24 2017*
%MOMM*%
%LPD*%
G01*
G04 APERTURE LIST*
%ADD10C,0.100000*%
%ADD11C,0.150000*%
G04 APERTURE END LIST*
D10*
D11*
X162890000Y-46520000D02*
X162890000Y-44920000D01*
X159690000Y-46520000D02*
X162890000Y-46520000D01*
X159690000Y-44920000D02*
X159690000Y-46520000D01*
X162890000Y-44920000D02*
X159690000Y-44920000D01*
X151600000Y-63830000D02*
X153200000Y-63830000D01*
X151600000Y-60630000D02*
X151600000Y-63830000D01*
X153200000Y-60630000D02*
X151600000Y-60630000D01*
X153200000Y-63830000D02*
X153200000Y-60630000D01*
X151460000Y-71920000D02*
X151460000Y-70320000D01*
X148260000Y-71920000D02*
X151460000Y-71920000D01*
X148260000Y-70320000D02*
X148260000Y-71920000D01*
X151460000Y-70320000D02*
X148260000Y-70320000D01*
X183680000Y-64440000D02*
X182080000Y-64440000D01*
X183680000Y-67640000D02*
X183680000Y-64440000D01*
X182080000Y-67640000D02*
X183680000Y-67640000D01*
X182080000Y-64440000D02*
X182080000Y-67640000D01*
X184620000Y-59809200D02*
X186220000Y-59809200D01*
X184620000Y-56609200D02*
X184620000Y-59809200D01*
X186220000Y-56609200D02*
X184620000Y-56609200D01*
X186220000Y-59809200D02*
X186220000Y-56609200D01*
D10*
X151460000Y-69380000D02*
X151460000Y-67780000D01*
X148260000Y-69380000D02*
X151460000Y-69380000D01*
X148260000Y-67780000D02*
X148260000Y-69380000D01*
X151460000Y-67780000D02*
X148260000Y-67780000D01*
X143980000Y-60560000D02*
X145580000Y-60560000D01*
X143980000Y-57360000D02*
X143980000Y-60560000D01*
X145580000Y-57360000D02*
X143980000Y-57360000D01*
X145580000Y-60560000D02*
X145580000Y-57360000D01*
X169380000Y-67005000D02*
X170980000Y-67005000D01*
X169380000Y-63805000D02*
X169380000Y-67005000D01*
X170980000Y-63805000D02*
X169380000Y-63805000D01*
X170980000Y-67005000D02*
X170980000Y-63805000D01*
X161620000Y-59220000D02*
X161620000Y-57620000D01*
X158420000Y-59220000D02*
X161620000Y-59220000D01*
X158420000Y-57620000D02*
X158420000Y-59220000D01*
X161620000Y-57620000D02*
X158420000Y-57620000D01*
X181140000Y-64440000D02*
X179540000Y-64440000D01*
X181140000Y-67640000D02*
X181140000Y-64440000D01*
X179540000Y-67640000D02*
X181140000Y-67640000D01*
X179540000Y-64440000D02*
X179540000Y-67640000D01*
X171920000Y-62560000D02*
X173520000Y-62560000D01*
X171920000Y-59360000D02*
X171920000Y-62560000D01*
X173520000Y-59360000D02*
X171920000Y-59360000D01*
X173520000Y-62560000D02*
X173520000Y-59360000D01*
X191300000Y-51740000D02*
X189700000Y-51740000D01*
X191300000Y-54940000D02*
X191300000Y-51740000D01*
X189700000Y-54940000D02*
X191300000Y-54940000D01*
X189700000Y-51740000D02*
X189700000Y-54940000D01*
D11*
X191363600Y-66903600D02*
X187096400Y-66903600D01*
X191363600Y-63309500D02*
X191363600Y-66903600D01*
X190690500Y-62636400D02*
X191363600Y-63309500D01*
X187769500Y-62636400D02*
X190690500Y-62636400D01*
X187096400Y-63309500D02*
X187769500Y-62636400D01*
X187096400Y-66903600D02*
X187096400Y-63309500D01*
X160551667Y-47172619D02*
X160504048Y-47125000D01*
X160408810Y-47077381D01*
X160170714Y-47077381D01*
X160075476Y-47125000D01*
X160027857Y-47172619D01*
X159980238Y-47267857D01*
X159980238Y-47363095D01*
X160027857Y-47505952D01*
X160599286Y-48077381D01*
X159980238Y-48077381D01*
X159123095Y-47410714D02*
X159123095Y-48077381D01*
X159551667Y-47410714D02*
X159551667Y-47934524D01*
X159504048Y-48029762D01*
X159408810Y-48077381D01*
X159265952Y-48077381D01*
X159170714Y-48029762D01*
X159123095Y-47982143D01*
X158313571Y-47553571D02*
X158646905Y-47553571D01*
X158646905Y-48077381D02*
X158646905Y-47077381D01*
X158170714Y-47077381D01*
X150280714Y-61063334D02*
X150947381Y-61063334D01*
X149899762Y-60825238D02*
X150614048Y-60587143D01*
X150614048Y-61206191D01*
X149947381Y-61491905D02*
X149947381Y-62158572D01*
X150947381Y-61730000D01*
X150280714Y-62539524D02*
X150947381Y-62539524D01*
X150375952Y-62539524D02*
X150328333Y-62587143D01*
X150280714Y-62682381D01*
X150280714Y-62825239D01*
X150328333Y-62920477D01*
X150423571Y-62968096D01*
X150947381Y-62968096D01*
X150423571Y-63777620D02*
X150423571Y-63444286D01*
X150947381Y-63444286D02*
X149947381Y-63444286D01*
X149947381Y-63920477D01*
X151026666Y-72810714D02*
X151026666Y-73477381D01*
X151264762Y-72429762D02*
X151502857Y-73144048D01*
X150883809Y-73144048D01*
X150598095Y-72477381D02*
X149931428Y-72477381D01*
X150360000Y-73477381D01*
X149550476Y-72810714D02*
X149550476Y-73477381D01*
X149550476Y-72905952D02*
X149502857Y-72858333D01*
X149407619Y-72810714D01*
X149264761Y-72810714D01*
X149169523Y-72858333D01*
X149121904Y-72953571D01*
X149121904Y-73477381D01*
X148312380Y-72953571D02*
X148645714Y-72953571D01*
X148645714Y-73477381D02*
X148645714Y-72477381D01*
X148169523Y-72477381D01*
X184570714Y-66143334D02*
X185237381Y-66143334D01*
X184189762Y-65905238D02*
X184904048Y-65667143D01*
X184904048Y-66286191D01*
X184237381Y-66571905D02*
X184237381Y-67238572D01*
X185237381Y-66810000D01*
X184570714Y-67619524D02*
X185237381Y-67619524D01*
X184665952Y-67619524D02*
X184618333Y-67667143D01*
X184570714Y-67762381D01*
X184570714Y-67905239D01*
X184618333Y-68000477D01*
X184713571Y-68048096D01*
X185237381Y-68048096D01*
X184713571Y-68857620D02*
X184713571Y-68524286D01*
X185237381Y-68524286D02*
X184237381Y-68524286D01*
X184237381Y-69000477D01*
X187110714Y-59158334D02*
X187777381Y-59158334D01*
X186729762Y-58920238D02*
X187444048Y-58682143D01*
X187444048Y-59301191D01*
X186777381Y-59586905D02*
X186777381Y-60253572D01*
X187777381Y-59825000D01*
X187110714Y-60634524D02*
X187777381Y-60634524D01*
X187205952Y-60634524D02*
X187158333Y-60682143D01*
X187110714Y-60777381D01*
X187110714Y-60920239D01*
X187158333Y-61015477D01*
X187253571Y-61063096D01*
X187777381Y-61063096D01*
X187253571Y-61872620D02*
X187253571Y-61539286D01*
X187777381Y-61539286D02*
X186777381Y-61539286D01*
X186777381Y-62015477D01*
X151074286Y-66127381D02*
X150455238Y-66127381D01*
X150788572Y-66508333D01*
X150645714Y-66508333D01*
X150550476Y-66555952D01*
X150502857Y-66603571D01*
X150455238Y-66698810D01*
X150455238Y-66936905D01*
X150502857Y-67032143D01*
X150550476Y-67079762D01*
X150645714Y-67127381D01*
X150931429Y-67127381D01*
X151026667Y-67079762D01*
X151074286Y-67032143D01*
X150121905Y-66127381D02*
X149502857Y-66127381D01*
X149836191Y-66508333D01*
X149693333Y-66508333D01*
X149598095Y-66555952D01*
X149550476Y-66603571D01*
X149502857Y-66698810D01*
X149502857Y-66936905D01*
X149550476Y-67032143D01*
X149598095Y-67079762D01*
X149693333Y-67127381D01*
X149979048Y-67127381D01*
X150074286Y-67079762D01*
X150121905Y-67032143D01*
X149074286Y-67127381D02*
X149074286Y-66127381D01*
X148979048Y-66746429D02*
X148693333Y-67127381D01*
X148693333Y-66460714D02*
X149074286Y-66841667D01*
X141932381Y-58912381D02*
X141932381Y-59007620D01*
X141980000Y-59102858D01*
X142027619Y-59150477D01*
X142122857Y-59198096D01*
X142313333Y-59245715D01*
X142551429Y-59245715D01*
X142741905Y-59198096D01*
X142837143Y-59150477D01*
X142884762Y-59102858D01*
X142932381Y-59007620D01*
X142932381Y-58912381D01*
X142884762Y-58817143D01*
X142837143Y-58769524D01*
X142741905Y-58721905D01*
X142551429Y-58674286D01*
X142313333Y-58674286D01*
X142122857Y-58721905D01*
X142027619Y-58769524D01*
X141980000Y-58817143D01*
X141932381Y-58912381D01*
X172505714Y-65349524D02*
X173172381Y-65349524D01*
X172124762Y-65111428D02*
X172839048Y-64873333D01*
X172839048Y-65492381D01*
X172172381Y-65778095D02*
X172172381Y-66444762D01*
X173172381Y-66016190D01*
X173172381Y-66825714D02*
X172172381Y-66825714D01*
X172791429Y-66920952D02*
X173172381Y-67206667D01*
X172505714Y-67206667D02*
X172886667Y-66825714D01*
X162615476Y-56300714D02*
X162615476Y-56967381D01*
X162853572Y-55919762D02*
X163091667Y-56634048D01*
X162472619Y-56634048D01*
X162186905Y-55967381D02*
X161520238Y-55967381D01*
X161948810Y-56967381D01*
X161139286Y-56967381D02*
X161139286Y-55967381D01*
X161044048Y-56586429D02*
X160758333Y-56967381D01*
X160758333Y-56300714D02*
X161139286Y-56681667D01*
X177887381Y-66730714D02*
X177887381Y-67349762D01*
X178268333Y-67016428D01*
X178268333Y-67159286D01*
X178315952Y-67254524D01*
X178363571Y-67302143D01*
X178458810Y-67349762D01*
X178696905Y-67349762D01*
X178792143Y-67302143D01*
X178839762Y-67254524D01*
X178887381Y-67159286D01*
X178887381Y-66873571D01*
X178839762Y-66778333D01*
X178792143Y-66730714D01*
X177887381Y-67683095D02*
X177887381Y-68302143D01*
X178268333Y-67968809D01*
X178268333Y-68111667D01*
X178315952Y-68206905D01*
X178363571Y-68254524D01*
X178458810Y-68302143D01*
X178696905Y-68302143D01*
X178792143Y-68254524D01*
X178839762Y-68206905D01*
X178887381Y-68111667D01*
X178887381Y-67825952D01*
X178839762Y-67730714D01*
X178792143Y-67683095D01*
X178887381Y-68730714D02*
X177887381Y-68730714D01*
X178506429Y-68825952D02*
X178887381Y-69111667D01*
X178220714Y-69111667D02*
X178601667Y-68730714D01*
X169872381Y-60912381D02*
X169872381Y-61007620D01*
X169920000Y-61102858D01*
X169967619Y-61150477D01*
X170062857Y-61198096D01*
X170253333Y-61245715D01*
X170491429Y-61245715D01*
X170681905Y-61198096D01*
X170777143Y-61150477D01*
X170824762Y-61102858D01*
X170872381Y-61007620D01*
X170872381Y-60912381D01*
X170824762Y-60817143D01*
X170777143Y-60769524D01*
X170681905Y-60721905D01*
X170491429Y-60674286D01*
X170253333Y-60674286D01*
X170062857Y-60721905D01*
X169967619Y-60769524D01*
X169920000Y-60817143D01*
X169872381Y-60912381D01*
X189047381Y-52506667D02*
X189047381Y-51935238D01*
X189047381Y-52220952D02*
X188047381Y-52220952D01*
X188190238Y-52125714D01*
X188285476Y-52030476D01*
X188333095Y-51935238D01*
X188952143Y-52935238D02*
X188999762Y-52982857D01*
X189047381Y-52935238D01*
X188999762Y-52887619D01*
X188952143Y-52935238D01*
X189047381Y-52935238D01*
X188047381Y-53887619D02*
X188047381Y-53411428D01*
X188523571Y-53363809D01*
X188475952Y-53411428D01*
X188428333Y-53506666D01*
X188428333Y-53744762D01*
X188475952Y-53840000D01*
X188523571Y-53887619D01*
X188618810Y-53935238D01*
X188856905Y-53935238D01*
X188952143Y-53887619D01*
X188999762Y-53840000D01*
X189047381Y-53744762D01*
X189047381Y-53506666D01*
X188999762Y-53411428D01*
X188952143Y-53363809D01*
X189047381Y-54363809D02*
X188047381Y-54363809D01*
X188666429Y-54459047D02*
X189047381Y-54744762D01*
X188380714Y-54744762D02*
X188761667Y-54363809D01*
X188412381Y-69254762D02*
X188412381Y-68683333D01*
X188412381Y-68969047D02*
X187412381Y-68969047D01*
X187555238Y-68873809D01*
X187650476Y-68778571D01*
X187698095Y-68683333D01*
X187745714Y-70111905D02*
X188412381Y-70111905D01*
X187745714Y-69683333D02*
X188269524Y-69683333D01*
X188364762Y-69730952D01*
X188412381Y-69826190D01*
X188412381Y-69969048D01*
X188364762Y-70064286D01*
X188317143Y-70111905D01*
X187888571Y-70921429D02*
X187888571Y-70588095D01*
X188412381Y-70588095D02*
X187412381Y-70588095D01*
X187412381Y-71064286D01*
X189237929Y-63271448D02*
X189237929Y-64033353D01*
X189618881Y-63652401D02*
X188856976Y-63652401D01*
X159202381Y-60087143D02*
X159202381Y-59515714D01*
X159202381Y-59801428D02*
X158202381Y-59801428D01*
X158345238Y-59706190D01*
X158440476Y-59610952D01*
X158488095Y-59515714D01*
X159202381Y-60515714D02*
X158202381Y-60515714D01*
X159202381Y-61087143D01*
X158202381Y-61087143D01*
X158535714Y-61991905D02*
X159202381Y-61991905D01*
X158154762Y-61753809D02*
X158869048Y-61515714D01*
X158869048Y-62134762D01*
X159202381Y-63039524D02*
X159202381Y-62468095D01*
X159202381Y-62753809D02*
X158202381Y-62753809D01*
X158345238Y-62658571D01*
X158440476Y-62563333D01*
X158488095Y-62468095D01*
X158535714Y-63896667D02*
X159202381Y-63896667D01*
X158154762Y-63658571D02*
X158869048Y-63420476D01*
X158869048Y-64039524D01*
X158630952Y-64563333D02*
X158583333Y-64468095D01*
X158535714Y-64420476D01*
X158440476Y-64372857D01*
X158392857Y-64372857D01*
X158297619Y-64420476D01*
X158250000Y-64468095D01*
X158202381Y-64563333D01*
X158202381Y-64753810D01*
X158250000Y-64849048D01*
X158297619Y-64896667D01*
X158392857Y-64944286D01*
X158440476Y-64944286D01*
X158535714Y-64896667D01*
X158583333Y-64849048D01*
X158630952Y-64753810D01*
X158630952Y-64563333D01*
X158678571Y-64468095D01*
X158726190Y-64420476D01*
X158821429Y-64372857D01*
X159011905Y-64372857D01*
X159107143Y-64420476D01*
X159154762Y-64468095D01*
X159202381Y-64563333D01*
X159202381Y-64753810D01*
X159154762Y-64849048D01*
X159107143Y-64896667D01*
X159011905Y-64944286D01*
X158821429Y-64944286D01*
X158726190Y-64896667D01*
X158678571Y-64849048D01*
X158630952Y-64753810D01*
X181427381Y-57547143D02*
X181427381Y-56975714D01*
X181427381Y-57261428D02*
X180427381Y-57261428D01*
X180570238Y-57166190D01*
X180665476Y-57070952D01*
X180713095Y-56975714D01*
X181427381Y-57975714D02*
X180427381Y-57975714D01*
X181427381Y-58547143D01*
X180427381Y-58547143D01*
X180760714Y-59451905D02*
X181427381Y-59451905D01*
X180379762Y-59213809D02*
X181094048Y-58975714D01*
X181094048Y-59594762D01*
X181427381Y-60499524D02*
X181427381Y-59928095D01*
X181427381Y-60213809D02*
X180427381Y-60213809D01*
X180570238Y-60118571D01*
X180665476Y-60023333D01*
X180713095Y-59928095D01*
X180760714Y-61356667D02*
X181427381Y-61356667D01*
X180379762Y-61118571D02*
X181094048Y-60880476D01*
X181094048Y-61499524D01*
X180855952Y-62023333D02*
X180808333Y-61928095D01*
X180760714Y-61880476D01*
X180665476Y-61832857D01*
X180617857Y-61832857D01*
X180522619Y-61880476D01*
X180475000Y-61928095D01*
X180427381Y-62023333D01*
X180427381Y-62213810D01*
X180475000Y-62309048D01*
X180522619Y-62356667D01*
X180617857Y-62404286D01*
X180665476Y-62404286D01*
X180760714Y-62356667D01*
X180808333Y-62309048D01*
X180855952Y-62213810D01*
X180855952Y-62023333D01*
X180903571Y-61928095D01*
X180951190Y-61880476D01*
X181046429Y-61832857D01*
X181236905Y-61832857D01*
X181332143Y-61880476D01*
X181379762Y-61928095D01*
X181427381Y-62023333D01*
X181427381Y-62213810D01*
X181379762Y-62309048D01*
X181332143Y-62356667D01*
X181236905Y-62404286D01*
X181046429Y-62404286D01*
X180951190Y-62356667D01*
X180903571Y-62309048D01*
X180855952Y-62213810D01*
M02*
