G04 #@! TF.FileFunction,Other,Fab,Bot*
%FSLAX46Y46*%
G04 Gerber Fmt 4.6, Leading zero omitted, Abs format (unit mm)*
G04 Created by KiCad (PCBNEW 4.0.5+dfsg1-4) date Mon Apr 17 12:34:13 2017*
%MOMM*%
%LPD*%
G01*
G04 APERTURE LIST*
%ADD10C,0.100000*%
%ADD11C,0.150000*%
G04 APERTURE END LIST*
D10*
D11*
X163030000Y-132410000D02*
X164630000Y-132410000D01*
X163030000Y-129210000D02*
X163030000Y-132410000D01*
X164630000Y-129210000D02*
X163030000Y-129210000D01*
X164630000Y-132410000D02*
X164630000Y-129210000D01*
X164630000Y-135560000D02*
X163030000Y-135560000D01*
X164630000Y-138760000D02*
X164630000Y-135560000D01*
X163030000Y-138760000D02*
X164630000Y-138760000D01*
X163030000Y-135560000D02*
X163030000Y-138760000D01*
X190030000Y-135560000D02*
X188430000Y-135560000D01*
X190030000Y-138760000D02*
X190030000Y-135560000D01*
X188430000Y-138760000D02*
X190030000Y-138760000D01*
X188430000Y-135560000D02*
X188430000Y-138760000D01*
X188430000Y-132410000D02*
X190030000Y-132410000D01*
X188430000Y-129210000D02*
X188430000Y-132410000D01*
X190030000Y-129210000D02*
X188430000Y-129210000D01*
X190030000Y-132410000D02*
X190030000Y-129210000D01*
D10*
X167170000Y-135560000D02*
X165570000Y-135560000D01*
X167170000Y-138760000D02*
X167170000Y-135560000D01*
X165570000Y-138760000D02*
X167170000Y-138760000D01*
X165570000Y-135560000D02*
X165570000Y-138760000D01*
X180010000Y-123660000D02*
X180010000Y-125260000D01*
X183210000Y-123660000D02*
X180010000Y-123660000D01*
X183210000Y-125260000D02*
X183210000Y-123660000D01*
X180010000Y-125260000D02*
X183210000Y-125260000D01*
X175590000Y-125260000D02*
X175590000Y-123660000D01*
X172390000Y-125260000D02*
X175590000Y-125260000D01*
X172390000Y-123660000D02*
X172390000Y-125260000D01*
X175590000Y-123660000D02*
X172390000Y-123660000D01*
X192570000Y-135560000D02*
X190970000Y-135560000D01*
X192570000Y-138760000D02*
X192570000Y-135560000D01*
X190970000Y-138760000D02*
X192570000Y-138760000D01*
X190970000Y-135560000D02*
X190970000Y-138760000D01*
X182410000Y-111430000D02*
X180810000Y-111430000D01*
X182410000Y-114630000D02*
X182410000Y-111430000D01*
X180810000Y-114630000D02*
X182410000Y-114630000D01*
X180810000Y-111430000D02*
X180810000Y-114630000D01*
D11*
X175590000Y-116030000D02*
X172390000Y-116030000D01*
X172390000Y-116030000D02*
X172390000Y-110030000D01*
X172390000Y-110030000D02*
X175590000Y-110030000D01*
X175590000Y-110030000D02*
X175590000Y-116030000D01*
X175590000Y-115430000D02*
X172390000Y-115430000D01*
X175590000Y-115130000D02*
X172390000Y-115130000D01*
X161710714Y-129643334D02*
X162377381Y-129643334D01*
X161329762Y-129405238D02*
X162044048Y-129167143D01*
X162044048Y-129786191D01*
X161377381Y-130071905D02*
X161377381Y-130738572D01*
X162377381Y-130310000D01*
X161710714Y-131119524D02*
X162377381Y-131119524D01*
X161805952Y-131119524D02*
X161758333Y-131167143D01*
X161710714Y-131262381D01*
X161710714Y-131405239D01*
X161758333Y-131500477D01*
X161853571Y-131548096D01*
X162377381Y-131548096D01*
X161853571Y-132357620D02*
X161853571Y-132024286D01*
X162377381Y-132024286D02*
X161377381Y-132024286D01*
X161377381Y-132500477D01*
X161710714Y-133453334D02*
X162377381Y-133453334D01*
X161329762Y-133215238D02*
X162044048Y-132977143D01*
X162044048Y-133596191D01*
X161377381Y-133881905D02*
X161377381Y-134548572D01*
X162377381Y-134120000D01*
X161710714Y-134929524D02*
X162377381Y-134929524D01*
X161805952Y-134929524D02*
X161758333Y-134977143D01*
X161710714Y-135072381D01*
X161710714Y-135215239D01*
X161758333Y-135310477D01*
X161853571Y-135358096D01*
X162377381Y-135358096D01*
X161853571Y-136167620D02*
X161853571Y-135834286D01*
X162377381Y-135834286D02*
X161377381Y-135834286D01*
X161377381Y-136310477D01*
X187110714Y-135993334D02*
X187777381Y-135993334D01*
X186729762Y-135755238D02*
X187444048Y-135517143D01*
X187444048Y-136136191D01*
X186777381Y-136421905D02*
X186777381Y-137088572D01*
X187777381Y-136660000D01*
X187110714Y-137469524D02*
X187777381Y-137469524D01*
X187205952Y-137469524D02*
X187158333Y-137517143D01*
X187110714Y-137612381D01*
X187110714Y-137755239D01*
X187158333Y-137850477D01*
X187253571Y-137898096D01*
X187777381Y-137898096D01*
X187253571Y-138707620D02*
X187253571Y-138374286D01*
X187777381Y-138374286D02*
X186777381Y-138374286D01*
X186777381Y-138850477D01*
X187110714Y-129854134D02*
X187777381Y-129854134D01*
X186729762Y-129616038D02*
X187444048Y-129377943D01*
X187444048Y-129996991D01*
X186777381Y-130282705D02*
X186777381Y-130949372D01*
X187777381Y-130520800D01*
X187110714Y-131330324D02*
X187777381Y-131330324D01*
X187205952Y-131330324D02*
X187158333Y-131377943D01*
X187110714Y-131473181D01*
X187110714Y-131616039D01*
X187158333Y-131711277D01*
X187253571Y-131758896D01*
X187777381Y-131758896D01*
X187253571Y-132568420D02*
X187253571Y-132235086D01*
X187777381Y-132235086D02*
X186777381Y-132235086D01*
X186777381Y-132711277D01*
X167727381Y-135945714D02*
X167727381Y-136564762D01*
X168108333Y-136231428D01*
X168108333Y-136374286D01*
X168155952Y-136469524D01*
X168203571Y-136517143D01*
X168298810Y-136564762D01*
X168536905Y-136564762D01*
X168632143Y-136517143D01*
X168679762Y-136469524D01*
X168727381Y-136374286D01*
X168727381Y-136088571D01*
X168679762Y-135993333D01*
X168632143Y-135945714D01*
X167727381Y-136898095D02*
X167727381Y-137517143D01*
X168108333Y-137183809D01*
X168108333Y-137326667D01*
X168155952Y-137421905D01*
X168203571Y-137469524D01*
X168298810Y-137517143D01*
X168536905Y-137517143D01*
X168632143Y-137469524D01*
X168679762Y-137421905D01*
X168727381Y-137326667D01*
X168727381Y-137040952D01*
X168679762Y-136945714D01*
X168632143Y-136898095D01*
X168727381Y-137945714D02*
X167727381Y-137945714D01*
X168346429Y-138040952D02*
X168727381Y-138326667D01*
X168060714Y-138326667D02*
X168441667Y-137945714D01*
X182300476Y-122340714D02*
X182300476Y-123007381D01*
X182538572Y-121959762D02*
X182776667Y-122674048D01*
X182157619Y-122674048D01*
X181871905Y-122007381D02*
X181205238Y-122007381D01*
X181633810Y-123007381D01*
X180824286Y-123007381D02*
X180824286Y-122007381D01*
X180729048Y-122626429D02*
X180443333Y-123007381D01*
X180443333Y-122340714D02*
X180824286Y-122721667D01*
X174680476Y-122340714D02*
X174680476Y-123007381D01*
X174918572Y-121959762D02*
X175156667Y-122674048D01*
X174537619Y-122674048D01*
X174251905Y-122007381D02*
X173585238Y-122007381D01*
X174013810Y-123007381D01*
X173204286Y-123007381D02*
X173204286Y-122007381D01*
X173109048Y-122626429D02*
X172823333Y-123007381D01*
X172823333Y-122340714D02*
X173204286Y-122721667D01*
X193127381Y-134040714D02*
X193127381Y-134659762D01*
X193508333Y-134326428D01*
X193508333Y-134469286D01*
X193555952Y-134564524D01*
X193603571Y-134612143D01*
X193698810Y-134659762D01*
X193936905Y-134659762D01*
X194032143Y-134612143D01*
X194079762Y-134564524D01*
X194127381Y-134469286D01*
X194127381Y-134183571D01*
X194079762Y-134088333D01*
X194032143Y-134040714D01*
X193127381Y-134993095D02*
X193127381Y-135612143D01*
X193508333Y-135278809D01*
X193508333Y-135421667D01*
X193555952Y-135516905D01*
X193603571Y-135564524D01*
X193698810Y-135612143D01*
X193936905Y-135612143D01*
X194032143Y-135564524D01*
X194079762Y-135516905D01*
X194127381Y-135421667D01*
X194127381Y-135135952D01*
X194079762Y-135040714D01*
X194032143Y-134993095D01*
X194127381Y-136040714D02*
X193127381Y-136040714D01*
X193746429Y-136135952D02*
X194127381Y-136421667D01*
X193460714Y-136421667D02*
X193841667Y-136040714D01*
X180157381Y-112196667D02*
X180157381Y-111625238D01*
X180157381Y-111910952D02*
X179157381Y-111910952D01*
X179300238Y-111815714D01*
X179395476Y-111720476D01*
X179443095Y-111625238D01*
X180062143Y-112625238D02*
X180109762Y-112672857D01*
X180157381Y-112625238D01*
X180109762Y-112577619D01*
X180062143Y-112625238D01*
X180157381Y-112625238D01*
X179157381Y-113577619D02*
X179157381Y-113101428D01*
X179633571Y-113053809D01*
X179585952Y-113101428D01*
X179538333Y-113196666D01*
X179538333Y-113434762D01*
X179585952Y-113530000D01*
X179633571Y-113577619D01*
X179728810Y-113625238D01*
X179966905Y-113625238D01*
X180062143Y-113577619D01*
X180109762Y-113530000D01*
X180157381Y-113434762D01*
X180157381Y-113196666D01*
X180109762Y-113101428D01*
X180062143Y-113053809D01*
X180157381Y-114053809D02*
X179157381Y-114053809D01*
X179776429Y-114149047D02*
X180157381Y-114434762D01*
X179490714Y-114434762D02*
X179871667Y-114053809D01*
X170632381Y-128667143D02*
X170632381Y-128095714D01*
X170632381Y-128381428D02*
X169632381Y-128381428D01*
X169775238Y-128286190D01*
X169870476Y-128190952D01*
X169918095Y-128095714D01*
X170632381Y-129095714D02*
X169632381Y-129095714D01*
X170632381Y-129667143D01*
X169632381Y-129667143D01*
X169965714Y-130571905D02*
X170632381Y-130571905D01*
X169584762Y-130333809D02*
X170299048Y-130095714D01*
X170299048Y-130714762D01*
X170632381Y-131619524D02*
X170632381Y-131048095D01*
X170632381Y-131333809D02*
X169632381Y-131333809D01*
X169775238Y-131238571D01*
X169870476Y-131143333D01*
X169918095Y-131048095D01*
X169965714Y-132476667D02*
X170632381Y-132476667D01*
X169584762Y-132238571D02*
X170299048Y-132000476D01*
X170299048Y-132619524D01*
X170060952Y-133143333D02*
X170013333Y-133048095D01*
X169965714Y-133000476D01*
X169870476Y-132952857D01*
X169822857Y-132952857D01*
X169727619Y-133000476D01*
X169680000Y-133048095D01*
X169632381Y-133143333D01*
X169632381Y-133333810D01*
X169680000Y-133429048D01*
X169727619Y-133476667D01*
X169822857Y-133524286D01*
X169870476Y-133524286D01*
X169965714Y-133476667D01*
X170013333Y-133429048D01*
X170060952Y-133333810D01*
X170060952Y-133143333D01*
X170108571Y-133048095D01*
X170156190Y-133000476D01*
X170251429Y-132952857D01*
X170441905Y-132952857D01*
X170537143Y-133000476D01*
X170584762Y-133048095D01*
X170632381Y-133143333D01*
X170632381Y-133333810D01*
X170584762Y-133429048D01*
X170537143Y-133476667D01*
X170441905Y-133524286D01*
X170251429Y-133524286D01*
X170156190Y-133476667D01*
X170108571Y-133429048D01*
X170060952Y-133333810D01*
X194127381Y-127397143D02*
X194127381Y-126825714D01*
X194127381Y-127111428D02*
X193127381Y-127111428D01*
X193270238Y-127016190D01*
X193365476Y-126920952D01*
X193413095Y-126825714D01*
X194127381Y-127825714D02*
X193127381Y-127825714D01*
X194127381Y-128397143D01*
X193127381Y-128397143D01*
X193460714Y-129301905D02*
X194127381Y-129301905D01*
X193079762Y-129063809D02*
X193794048Y-128825714D01*
X193794048Y-129444762D01*
X194127381Y-130349524D02*
X194127381Y-129778095D01*
X194127381Y-130063809D02*
X193127381Y-130063809D01*
X193270238Y-129968571D01*
X193365476Y-129873333D01*
X193413095Y-129778095D01*
X193460714Y-131206667D02*
X194127381Y-131206667D01*
X193079762Y-130968571D02*
X193794048Y-130730476D01*
X193794048Y-131349524D01*
X193555952Y-131873333D02*
X193508333Y-131778095D01*
X193460714Y-131730476D01*
X193365476Y-131682857D01*
X193317857Y-131682857D01*
X193222619Y-131730476D01*
X193175000Y-131778095D01*
X193127381Y-131873333D01*
X193127381Y-132063810D01*
X193175000Y-132159048D01*
X193222619Y-132206667D01*
X193317857Y-132254286D01*
X193365476Y-132254286D01*
X193460714Y-132206667D01*
X193508333Y-132159048D01*
X193555952Y-132063810D01*
X193555952Y-131873333D01*
X193603571Y-131778095D01*
X193651190Y-131730476D01*
X193746429Y-131682857D01*
X193936905Y-131682857D01*
X194032143Y-131730476D01*
X194079762Y-131778095D01*
X194127381Y-131873333D01*
X194127381Y-132063810D01*
X194079762Y-132159048D01*
X194032143Y-132206667D01*
X193936905Y-132254286D01*
X193746429Y-132254286D01*
X193651190Y-132206667D01*
X193603571Y-132159048D01*
X193555952Y-132063810D01*
X170425714Y-111625239D02*
X171092381Y-111625239D01*
X170044762Y-111387143D02*
X170759048Y-111149048D01*
X170759048Y-111768096D01*
X170997143Y-112149048D02*
X171044762Y-112196667D01*
X171092381Y-112149048D01*
X171044762Y-112101429D01*
X170997143Y-112149048D01*
X171092381Y-112149048D01*
X170092381Y-112530000D02*
X170092381Y-113196667D01*
X171092381Y-112768095D01*
X170425714Y-114006191D02*
X171092381Y-114006191D01*
X170425714Y-113577619D02*
X170949524Y-113577619D01*
X171044762Y-113625238D01*
X171092381Y-113720476D01*
X171092381Y-113863334D01*
X171044762Y-113958572D01*
X170997143Y-114006191D01*
X170568571Y-114815715D02*
X170568571Y-114482381D01*
X171092381Y-114482381D02*
X170092381Y-114482381D01*
X170092381Y-114958572D01*
M02*
