G04 #@! TF.FileFunction,Legend,Bot*
%FSLAX46Y46*%
G04 Gerber Fmt 4.6, Leading zero omitted, Abs format (unit mm)*
G04 Created by KiCad (PCBNEW 4.0.5+dfsg1-4) date Mon Apr 17 01:28:25 2017*
%MOMM*%
%LPD*%
G01*
G04 APERTURE LIST*
%ADD10C,0.100000*%
%ADD11C,0.150000*%
G04 APERTURE END LIST*
D10*
D11*
X161045000Y-129810000D02*
X161045000Y-131810000D01*
X158995000Y-131810000D02*
X158995000Y-129810000D01*
X158995000Y-138160000D02*
X158995000Y-136160000D01*
X161045000Y-136160000D02*
X161045000Y-138160000D01*
X194555000Y-138160000D02*
X194555000Y-136160000D01*
X196605000Y-136160000D02*
X196605000Y-138160000D01*
X194065000Y-129599200D02*
X194065000Y-131599200D01*
X192015000Y-131599200D02*
X192015000Y-129599200D01*
X163635000Y-138160000D02*
X163635000Y-136160000D01*
X161485000Y-136160000D02*
X161485000Y-138160000D01*
X182610000Y-123385000D02*
X180610000Y-123385000D01*
X180610000Y-125535000D02*
X182610000Y-125535000D01*
X172990000Y-125535000D02*
X174990000Y-125535000D01*
X174990000Y-123385000D02*
X172990000Y-123385000D01*
X194115000Y-138160000D02*
X194115000Y-136160000D01*
X191965000Y-136160000D02*
X191965000Y-138160000D01*
X182685000Y-114030000D02*
X182685000Y-112030000D01*
X180535000Y-112030000D02*
X180535000Y-114030000D01*
X172875145Y-114733599D02*
G75*
G02X172872400Y-111328200I1114855J1703599D01*
G01*
X175107600Y-111328200D02*
G75*
G02X175107600Y-114731800I-1117600J-1701800D01*
G01*
X172466000Y-115316000D02*
X172872400Y-115316000D01*
X171704000Y-110744000D02*
X172872400Y-110744000D01*
X176276000Y-110744000D02*
X175107600Y-110744000D01*
X175514000Y-115316000D02*
X175107600Y-115316000D01*
X171704000Y-114554000D02*
X171704000Y-110744000D01*
X171704000Y-114554000D02*
X172466000Y-115316000D01*
X176276000Y-114554000D02*
X176276000Y-110744000D01*
X176276000Y-114554000D02*
X175514000Y-115316000D01*
X162560000Y-130310420D02*
X162560000Y-130160560D01*
X162560000Y-131158780D02*
X162560000Y-131359440D01*
X162560000Y-130310420D02*
X163309300Y-130310420D01*
X162560000Y-130310420D02*
X161858960Y-130310420D01*
X162560000Y-130310420D02*
X161858960Y-131158780D01*
X161858960Y-131158780D02*
X163261040Y-131158780D01*
X163261040Y-131158780D02*
X162560000Y-130310420D01*
X195580000Y-130310420D02*
X195580000Y-130160560D01*
X195580000Y-131158780D02*
X195580000Y-131359440D01*
X195580000Y-130310420D02*
X196329300Y-130310420D01*
X195580000Y-130310420D02*
X194878960Y-130310420D01*
X195580000Y-130310420D02*
X194878960Y-131158780D01*
X194878960Y-131158780D02*
X196281040Y-131158780D01*
X196281040Y-131158780D02*
X195580000Y-130310420D01*
X158472143Y-127468334D02*
X158519762Y-127420715D01*
X158567381Y-127277858D01*
X158567381Y-127182620D01*
X158519762Y-127039762D01*
X158424524Y-126944524D01*
X158329286Y-126896905D01*
X158138810Y-126849286D01*
X157995952Y-126849286D01*
X157805476Y-126896905D01*
X157710238Y-126944524D01*
X157615000Y-127039762D01*
X157567381Y-127182620D01*
X157567381Y-127277858D01*
X157615000Y-127420715D01*
X157662619Y-127468334D01*
X158567381Y-128420715D02*
X158567381Y-127849286D01*
X158567381Y-128135000D02*
X157567381Y-128135000D01*
X157710238Y-128039762D01*
X157805476Y-127944524D01*
X157853095Y-127849286D01*
X160377143Y-141438334D02*
X160424762Y-141390715D01*
X160472381Y-141247858D01*
X160472381Y-141152620D01*
X160424762Y-141009762D01*
X160329524Y-140914524D01*
X160234286Y-140866905D01*
X160043810Y-140819286D01*
X159900952Y-140819286D01*
X159710476Y-140866905D01*
X159615238Y-140914524D01*
X159520000Y-141009762D01*
X159472381Y-141152620D01*
X159472381Y-141247858D01*
X159520000Y-141390715D01*
X159567619Y-141438334D01*
X159567619Y-141819286D02*
X159520000Y-141866905D01*
X159472381Y-141962143D01*
X159472381Y-142200239D01*
X159520000Y-142295477D01*
X159567619Y-142343096D01*
X159662857Y-142390715D01*
X159758095Y-142390715D01*
X159900952Y-142343096D01*
X160472381Y-141771667D01*
X160472381Y-142390715D01*
X195937143Y-141438334D02*
X195984762Y-141390715D01*
X196032381Y-141247858D01*
X196032381Y-141152620D01*
X195984762Y-141009762D01*
X195889524Y-140914524D01*
X195794286Y-140866905D01*
X195603810Y-140819286D01*
X195460952Y-140819286D01*
X195270476Y-140866905D01*
X195175238Y-140914524D01*
X195080000Y-141009762D01*
X195032381Y-141152620D01*
X195032381Y-141247858D01*
X195080000Y-141390715D01*
X195127619Y-141438334D01*
X195032381Y-141771667D02*
X195032381Y-142390715D01*
X195413333Y-142057381D01*
X195413333Y-142200239D01*
X195460952Y-142295477D01*
X195508571Y-142343096D01*
X195603810Y-142390715D01*
X195841905Y-142390715D01*
X195937143Y-142343096D01*
X195984762Y-142295477D01*
X196032381Y-142200239D01*
X196032381Y-141914524D01*
X195984762Y-141819286D01*
X195937143Y-141771667D01*
X193397143Y-126198334D02*
X193444762Y-126150715D01*
X193492381Y-126007858D01*
X193492381Y-125912620D01*
X193444762Y-125769762D01*
X193349524Y-125674524D01*
X193254286Y-125626905D01*
X193063810Y-125579286D01*
X192920952Y-125579286D01*
X192730476Y-125626905D01*
X192635238Y-125674524D01*
X192540000Y-125769762D01*
X192492381Y-125912620D01*
X192492381Y-126007858D01*
X192540000Y-126150715D01*
X192587619Y-126198334D01*
X192825714Y-127055477D02*
X193492381Y-127055477D01*
X192444762Y-126817381D02*
X193159048Y-126579286D01*
X193159048Y-127198334D01*
X163012381Y-141438334D02*
X162536190Y-141105000D01*
X163012381Y-140866905D02*
X162012381Y-140866905D01*
X162012381Y-141247858D01*
X162060000Y-141343096D01*
X162107619Y-141390715D01*
X162202857Y-141438334D01*
X162345714Y-141438334D01*
X162440952Y-141390715D01*
X162488571Y-141343096D01*
X162536190Y-141247858D01*
X162536190Y-140866905D01*
X163012381Y-142390715D02*
X163012381Y-141819286D01*
X163012381Y-142105000D02*
X162012381Y-142105000D01*
X162155238Y-142009762D01*
X162250476Y-141914524D01*
X162298095Y-141819286D01*
X184951666Y-123007381D02*
X185285000Y-122531190D01*
X185523095Y-123007381D02*
X185523095Y-122007381D01*
X185142142Y-122007381D01*
X185046904Y-122055000D01*
X184999285Y-122102619D01*
X184951666Y-122197857D01*
X184951666Y-122340714D01*
X184999285Y-122435952D01*
X185046904Y-122483571D01*
X185142142Y-122531190D01*
X185523095Y-122531190D01*
X184618333Y-122007381D02*
X183999285Y-122007381D01*
X184332619Y-122388333D01*
X184189761Y-122388333D01*
X184094523Y-122435952D01*
X184046904Y-122483571D01*
X183999285Y-122578810D01*
X183999285Y-122816905D01*
X184046904Y-122912143D01*
X184094523Y-122959762D01*
X184189761Y-123007381D01*
X184475476Y-123007381D01*
X184570714Y-122959762D01*
X184618333Y-122912143D01*
X171616666Y-123007381D02*
X171950000Y-122531190D01*
X172188095Y-123007381D02*
X172188095Y-122007381D01*
X171807142Y-122007381D01*
X171711904Y-122055000D01*
X171664285Y-122102619D01*
X171616666Y-122197857D01*
X171616666Y-122340714D01*
X171664285Y-122435952D01*
X171711904Y-122483571D01*
X171807142Y-122531190D01*
X172188095Y-122531190D01*
X170759523Y-122340714D02*
X170759523Y-123007381D01*
X170997619Y-121959762D02*
X171235714Y-122674048D01*
X170616666Y-122674048D01*
X193492381Y-141438334D02*
X193016190Y-141105000D01*
X193492381Y-140866905D02*
X192492381Y-140866905D01*
X192492381Y-141247858D01*
X192540000Y-141343096D01*
X192587619Y-141390715D01*
X192682857Y-141438334D01*
X192825714Y-141438334D01*
X192920952Y-141390715D01*
X192968571Y-141343096D01*
X193016190Y-141247858D01*
X193016190Y-140866905D01*
X192492381Y-142343096D02*
X192492381Y-141866905D01*
X192968571Y-141819286D01*
X192920952Y-141866905D01*
X192873333Y-141962143D01*
X192873333Y-142200239D01*
X192920952Y-142295477D01*
X192968571Y-142343096D01*
X193063810Y-142390715D01*
X193301905Y-142390715D01*
X193397143Y-142343096D01*
X193444762Y-142295477D01*
X193492381Y-142200239D01*
X193492381Y-141962143D01*
X193444762Y-141866905D01*
X193397143Y-141819286D01*
X180157381Y-109688334D02*
X179681190Y-109355000D01*
X180157381Y-109116905D02*
X179157381Y-109116905D01*
X179157381Y-109497858D01*
X179205000Y-109593096D01*
X179252619Y-109640715D01*
X179347857Y-109688334D01*
X179490714Y-109688334D01*
X179585952Y-109640715D01*
X179633571Y-109593096D01*
X179681190Y-109497858D01*
X179681190Y-109116905D01*
X179157381Y-110021667D02*
X179157381Y-110688334D01*
X180157381Y-110259762D01*
X171045143Y-110958334D02*
X171092762Y-110910715D01*
X171140381Y-110767858D01*
X171140381Y-110672620D01*
X171092762Y-110529762D01*
X170997524Y-110434524D01*
X170902286Y-110386905D01*
X170711810Y-110339286D01*
X170568952Y-110339286D01*
X170378476Y-110386905D01*
X170283238Y-110434524D01*
X170188000Y-110529762D01*
X170140381Y-110672620D01*
X170140381Y-110767858D01*
X170188000Y-110910715D01*
X170235619Y-110958334D01*
X170140381Y-111863096D02*
X170140381Y-111386905D01*
X170616571Y-111339286D01*
X170568952Y-111386905D01*
X170521333Y-111482143D01*
X170521333Y-111720239D01*
X170568952Y-111815477D01*
X170616571Y-111863096D01*
X170711810Y-111910715D01*
X170949905Y-111910715D01*
X171045143Y-111863096D01*
X171092762Y-111815477D01*
X171140381Y-111720239D01*
X171140381Y-111482143D01*
X171092762Y-111386905D01*
X171045143Y-111339286D01*
X172054829Y-115430348D02*
X172054829Y-116192253D01*
X172435781Y-115811301D02*
X171673876Y-115811301D01*
X164282381Y-136421905D02*
X163282381Y-136421905D01*
X163282381Y-136660000D01*
X163330000Y-136802858D01*
X163425238Y-136898096D01*
X163520476Y-136945715D01*
X163710952Y-136993334D01*
X163853810Y-136993334D01*
X164044286Y-136945715D01*
X164139524Y-136898096D01*
X164234762Y-136802858D01*
X164282381Y-136660000D01*
X164282381Y-136421905D01*
X164282381Y-137945715D02*
X164282381Y-137374286D01*
X164282381Y-137660000D02*
X163282381Y-137660000D01*
X163425238Y-137564762D01*
X163520476Y-137469524D01*
X163568095Y-137374286D01*
X164862381Y-128748095D02*
X163862381Y-128748095D01*
X164862381Y-129319524D02*
X164290952Y-128890952D01*
X163862381Y-129319524D02*
X164433810Y-128748095D01*
X164576667Y-132371905D02*
X164576667Y-132848096D01*
X164862381Y-132276667D02*
X163862381Y-132610000D01*
X164862381Y-132943334D01*
X194127381Y-126896905D02*
X193127381Y-126896905D01*
X193127381Y-127135000D01*
X193175000Y-127277858D01*
X193270238Y-127373096D01*
X193365476Y-127420715D01*
X193555952Y-127468334D01*
X193698810Y-127468334D01*
X193889286Y-127420715D01*
X193984524Y-127373096D01*
X194079762Y-127277858D01*
X194127381Y-127135000D01*
X194127381Y-126896905D01*
X193460714Y-128325477D02*
X194127381Y-128325477D01*
X193079762Y-128087381D02*
X193794048Y-127849286D01*
X193794048Y-128468334D01*
X197882381Y-128748095D02*
X196882381Y-128748095D01*
X197882381Y-129319524D02*
X197310952Y-128890952D01*
X196882381Y-129319524D02*
X197453810Y-128748095D01*
X197596667Y-132371905D02*
X197596667Y-132848096D01*
X197882381Y-132276667D02*
X196882381Y-132610000D01*
X197882381Y-132943334D01*
M02*
