G04 #@! TF.FileFunction,Soldermask,Bot*
%FSLAX46Y46*%
G04 Gerber Fmt 4.6, Leading zero omitted, Abs format (unit mm)*
G04 Created by KiCad (PCBNEW 4.0.5+dfsg1-4) date Sun Apr 16 21:16:24 2017*
%MOMM*%
%LPD*%
G01*
G04 APERTURE LIST*
%ADD10C,0.100000*%
%ADD11R,2.400000X2.000000*%
%ADD12C,2.178000*%
%ADD13R,2.178000X2.178000*%
%ADD14R,2.200000X4.000000*%
%ADD15O,2.200000X4.000000*%
%ADD16R,2.000000X2.400000*%
%ADD17R,2.400000X2.100000*%
%ADD18R,2.100000X2.400000*%
%ADD19R,2.000000X3.000000*%
%ADD20O,2.099260X3.900120*%
%ADD21O,2.700000X2.000000*%
%ADD22R,2.099260X3.699460*%
G04 APERTURE END LIST*
D10*
D11*
X163290000Y-45720000D03*
X159290000Y-45720000D03*
D12*
X158750000Y-55880000D03*
D13*
X148590000Y-55880000D03*
D12*
X182880000Y-72390000D03*
D13*
X172720000Y-72390000D03*
D12*
X190500000Y-69850000D03*
D13*
X190500000Y-59690000D03*
D14*
X182880000Y-40640000D03*
D15*
X187960000Y-40640000D03*
D14*
X156210000Y-40640000D03*
D15*
X161290000Y-40640000D03*
X166370000Y-40640000D03*
D16*
X152400000Y-64230000D03*
X152400000Y-60230000D03*
D11*
X151860000Y-71120000D03*
X147860000Y-71120000D03*
D16*
X182880000Y-64040000D03*
X182880000Y-68040000D03*
X185420000Y-60209200D03*
X185420000Y-56209200D03*
D17*
X151860000Y-68580000D03*
X147860000Y-68580000D03*
D18*
X144780000Y-60960000D03*
X144780000Y-56960000D03*
X170180000Y-67405000D03*
X170180000Y-63405000D03*
D17*
X162020000Y-58420000D03*
X158020000Y-58420000D03*
D18*
X180340000Y-64040000D03*
X180340000Y-68040000D03*
X172720000Y-62960000D03*
X172720000Y-58960000D03*
X190500000Y-51340000D03*
X190500000Y-55340000D03*
D19*
X189230000Y-62970000D03*
X189230000Y-66570000D03*
D20*
X153670000Y-52070000D03*
X151130000Y-52070000D03*
X156210000Y-52070000D03*
D21*
X158750000Y-69850000D03*
X158750000Y-72390000D03*
X166370000Y-72390000D03*
X166370000Y-69850000D03*
X166370000Y-64770000D03*
X166370000Y-62230000D03*
X158750000Y-62230000D03*
X158750000Y-64770000D03*
D20*
X175260000Y-52070000D03*
X172720000Y-52070000D03*
X177800000Y-52070000D03*
D22*
X154940000Y-59479180D03*
X154940000Y-64980820D03*
X182880000Y-55669180D03*
X182880000Y-61170820D03*
M02*
