G04 #@! TF.FileFunction,Legend,Bot*
%FSLAX46Y46*%
G04 Gerber Fmt 4.6, Leading zero omitted, Abs format (unit mm)*
G04 Created by KiCad (PCBNEW 4.0.5+dfsg1-4) date Mon Apr 17 13:32:19 2017*
%MOMM*%
%LPD*%
G01*
G04 APERTURE LIST*
%ADD10C,0.100000*%
%ADD11C,0.150000*%
G04 APERTURE END LIST*
D10*
D11*
X172990000Y-112005000D02*
X174990000Y-112005000D01*
X174990000Y-114055000D02*
X172990000Y-114055000D01*
X164855000Y-123460000D02*
X164855000Y-125460000D01*
X162805000Y-125460000D02*
X162805000Y-123460000D01*
X162805000Y-131810000D02*
X162805000Y-129810000D01*
X164855000Y-129810000D02*
X164855000Y-131810000D01*
X167445000Y-131810000D02*
X167445000Y-129810000D01*
X165295000Y-129810000D02*
X165295000Y-131810000D01*
X172990000Y-116645000D02*
X174990000Y-116645000D01*
X174990000Y-114495000D02*
X172990000Y-114495000D01*
X166370000Y-123960420D02*
X166370000Y-123810560D01*
X166370000Y-124808780D02*
X166370000Y-125009440D01*
X166370000Y-123960420D02*
X167119300Y-123960420D01*
X166370000Y-123960420D02*
X165668960Y-123960420D01*
X166370000Y-123960420D02*
X165668960Y-124808780D01*
X165668960Y-124808780D02*
X167071040Y-124808780D01*
X167071040Y-124808780D02*
X166370000Y-123960420D01*
X191770000Y-123960420D02*
X191770000Y-123810560D01*
X191770000Y-124808780D02*
X191770000Y-125009440D01*
X191770000Y-123960420D02*
X192519300Y-123960420D01*
X191770000Y-123960420D02*
X191068960Y-123960420D01*
X191770000Y-123960420D02*
X191068960Y-124808780D01*
X191068960Y-124808780D02*
X192471040Y-124808780D01*
X192471040Y-124808780D02*
X191770000Y-123960420D01*
X188205000Y-131810000D02*
X188205000Y-129810000D01*
X190255000Y-129810000D02*
X190255000Y-131810000D01*
X190255000Y-123460000D02*
X190255000Y-125460000D01*
X188205000Y-125460000D02*
X188205000Y-123460000D01*
X192845000Y-131810000D02*
X192845000Y-129810000D01*
X190695000Y-129810000D02*
X190695000Y-131810000D01*
X180610000Y-114105000D02*
X182610000Y-114105000D01*
X182610000Y-111955000D02*
X180610000Y-111955000D01*
X182610000Y-114495000D02*
X180610000Y-114495000D01*
X180610000Y-116645000D02*
X182610000Y-116645000D01*
X173795000Y-92440000D02*
X173795000Y-90440000D01*
X171645000Y-90440000D02*
X171645000Y-92440000D01*
X174156666Y-111087143D02*
X174204285Y-111134762D01*
X174347142Y-111182381D01*
X174442380Y-111182381D01*
X174585238Y-111134762D01*
X174680476Y-111039524D01*
X174728095Y-110944286D01*
X174775714Y-110753810D01*
X174775714Y-110610952D01*
X174728095Y-110420476D01*
X174680476Y-110325238D01*
X174585238Y-110230000D01*
X174442380Y-110182381D01*
X174347142Y-110182381D01*
X174204285Y-110230000D01*
X174156666Y-110277619D01*
X173251904Y-110182381D02*
X173728095Y-110182381D01*
X173775714Y-110658571D01*
X173728095Y-110610952D01*
X173632857Y-110563333D01*
X173394761Y-110563333D01*
X173299523Y-110610952D01*
X173251904Y-110658571D01*
X173204285Y-110753810D01*
X173204285Y-110991905D01*
X173251904Y-111087143D01*
X173299523Y-111134762D01*
X173394761Y-111182381D01*
X173632857Y-111182381D01*
X173728095Y-111134762D01*
X173775714Y-111087143D01*
X164187143Y-119848334D02*
X164234762Y-119800715D01*
X164282381Y-119657858D01*
X164282381Y-119562620D01*
X164234762Y-119419762D01*
X164139524Y-119324524D01*
X164044286Y-119276905D01*
X163853810Y-119229286D01*
X163710952Y-119229286D01*
X163520476Y-119276905D01*
X163425238Y-119324524D01*
X163330000Y-119419762D01*
X163282381Y-119562620D01*
X163282381Y-119657858D01*
X163330000Y-119800715D01*
X163377619Y-119848334D01*
X164282381Y-120800715D02*
X164282381Y-120229286D01*
X164282381Y-120515000D02*
X163282381Y-120515000D01*
X163425238Y-120419762D01*
X163520476Y-120324524D01*
X163568095Y-120229286D01*
X164187143Y-135088334D02*
X164234762Y-135040715D01*
X164282381Y-134897858D01*
X164282381Y-134802620D01*
X164234762Y-134659762D01*
X164139524Y-134564524D01*
X164044286Y-134516905D01*
X163853810Y-134469286D01*
X163710952Y-134469286D01*
X163520476Y-134516905D01*
X163425238Y-134564524D01*
X163330000Y-134659762D01*
X163282381Y-134802620D01*
X163282381Y-134897858D01*
X163330000Y-135040715D01*
X163377619Y-135088334D01*
X163377619Y-135469286D02*
X163330000Y-135516905D01*
X163282381Y-135612143D01*
X163282381Y-135850239D01*
X163330000Y-135945477D01*
X163377619Y-135993096D01*
X163472857Y-136040715D01*
X163568095Y-136040715D01*
X163710952Y-135993096D01*
X164282381Y-135421667D01*
X164282381Y-136040715D01*
X166822381Y-135088334D02*
X166346190Y-134755000D01*
X166822381Y-134516905D02*
X165822381Y-134516905D01*
X165822381Y-134897858D01*
X165870000Y-134993096D01*
X165917619Y-135040715D01*
X166012857Y-135088334D01*
X166155714Y-135088334D01*
X166250952Y-135040715D01*
X166298571Y-134993096D01*
X166346190Y-134897858D01*
X166346190Y-134516905D01*
X166822381Y-136040715D02*
X166822381Y-135469286D01*
X166822381Y-135755000D02*
X165822381Y-135755000D01*
X165965238Y-135659762D01*
X166060476Y-135564524D01*
X166108095Y-135469286D01*
X170981666Y-117927381D02*
X171315000Y-117451190D01*
X171553095Y-117927381D02*
X171553095Y-116927381D01*
X171172142Y-116927381D01*
X171076904Y-116975000D01*
X171029285Y-117022619D01*
X170981666Y-117117857D01*
X170981666Y-117260714D01*
X171029285Y-117355952D01*
X171076904Y-117403571D01*
X171172142Y-117451190D01*
X171553095Y-117451190D01*
X170648333Y-116927381D02*
X170029285Y-116927381D01*
X170362619Y-117308333D01*
X170219761Y-117308333D01*
X170124523Y-117355952D01*
X170076904Y-117403571D01*
X170029285Y-117498810D01*
X170029285Y-117736905D01*
X170076904Y-117832143D01*
X170124523Y-117879762D01*
X170219761Y-117927381D01*
X170505476Y-117927381D01*
X170600714Y-117879762D01*
X170648333Y-117832143D01*
X166822381Y-118006905D02*
X165822381Y-118006905D01*
X165822381Y-118245000D01*
X165870000Y-118387858D01*
X165965238Y-118483096D01*
X166060476Y-118530715D01*
X166250952Y-118578334D01*
X166393810Y-118578334D01*
X166584286Y-118530715D01*
X166679524Y-118483096D01*
X166774762Y-118387858D01*
X166822381Y-118245000D01*
X166822381Y-118006905D01*
X166822381Y-119530715D02*
X166822381Y-118959286D01*
X166822381Y-119245000D02*
X165822381Y-119245000D01*
X165965238Y-119149762D01*
X166060476Y-119054524D01*
X166108095Y-118959286D01*
X168672381Y-122398095D02*
X167672381Y-122398095D01*
X168672381Y-122969524D02*
X168100952Y-122540952D01*
X167672381Y-122969524D02*
X168243810Y-122398095D01*
X168386667Y-126021905D02*
X168386667Y-126498096D01*
X168672381Y-125926667D02*
X167672381Y-126260000D01*
X168672381Y-126593334D01*
X192222381Y-118006905D02*
X191222381Y-118006905D01*
X191222381Y-118245000D01*
X191270000Y-118387858D01*
X191365238Y-118483096D01*
X191460476Y-118530715D01*
X191650952Y-118578334D01*
X191793810Y-118578334D01*
X191984286Y-118530715D01*
X192079524Y-118483096D01*
X192174762Y-118387858D01*
X192222381Y-118245000D01*
X192222381Y-118006905D01*
X191555714Y-119435477D02*
X192222381Y-119435477D01*
X191174762Y-119197381D02*
X191889048Y-118959286D01*
X191889048Y-119578334D01*
X194072381Y-122398095D02*
X193072381Y-122398095D01*
X194072381Y-122969524D02*
X193500952Y-122540952D01*
X193072381Y-122969524D02*
X193643810Y-122398095D01*
X193786667Y-126021905D02*
X193786667Y-126498096D01*
X194072381Y-125926667D02*
X193072381Y-126260000D01*
X194072381Y-126593334D01*
X189587143Y-135088334D02*
X189634762Y-135040715D01*
X189682381Y-134897858D01*
X189682381Y-134802620D01*
X189634762Y-134659762D01*
X189539524Y-134564524D01*
X189444286Y-134516905D01*
X189253810Y-134469286D01*
X189110952Y-134469286D01*
X188920476Y-134516905D01*
X188825238Y-134564524D01*
X188730000Y-134659762D01*
X188682381Y-134802620D01*
X188682381Y-134897858D01*
X188730000Y-135040715D01*
X188777619Y-135088334D01*
X188682381Y-135421667D02*
X188682381Y-136040715D01*
X189063333Y-135707381D01*
X189063333Y-135850239D01*
X189110952Y-135945477D01*
X189158571Y-135993096D01*
X189253810Y-136040715D01*
X189491905Y-136040715D01*
X189587143Y-135993096D01*
X189634762Y-135945477D01*
X189682381Y-135850239D01*
X189682381Y-135564524D01*
X189634762Y-135469286D01*
X189587143Y-135421667D01*
X189587143Y-120059134D02*
X189634762Y-120011515D01*
X189682381Y-119868658D01*
X189682381Y-119773420D01*
X189634762Y-119630562D01*
X189539524Y-119535324D01*
X189444286Y-119487705D01*
X189253810Y-119440086D01*
X189110952Y-119440086D01*
X188920476Y-119487705D01*
X188825238Y-119535324D01*
X188730000Y-119630562D01*
X188682381Y-119773420D01*
X188682381Y-119868658D01*
X188730000Y-120011515D01*
X188777619Y-120059134D01*
X189015714Y-120916277D02*
X189682381Y-120916277D01*
X188634762Y-120678181D02*
X189349048Y-120440086D01*
X189349048Y-121059134D01*
X190317381Y-133183334D02*
X189841190Y-132850000D01*
X190317381Y-132611905D02*
X189317381Y-132611905D01*
X189317381Y-132992858D01*
X189365000Y-133088096D01*
X189412619Y-133135715D01*
X189507857Y-133183334D01*
X189650714Y-133183334D01*
X189745952Y-133135715D01*
X189793571Y-133088096D01*
X189841190Y-132992858D01*
X189841190Y-132611905D01*
X189650714Y-134040477D02*
X190317381Y-134040477D01*
X189269762Y-133802381D02*
X189984048Y-133564286D01*
X189984048Y-134183334D01*
X177331666Y-113482381D02*
X177665000Y-113006190D01*
X177903095Y-113482381D02*
X177903095Y-112482381D01*
X177522142Y-112482381D01*
X177426904Y-112530000D01*
X177379285Y-112577619D01*
X177331666Y-112672857D01*
X177331666Y-112815714D01*
X177379285Y-112910952D01*
X177426904Y-112958571D01*
X177522142Y-113006190D01*
X177903095Y-113006190D01*
X176426904Y-112482381D02*
X176903095Y-112482381D01*
X176950714Y-112958571D01*
X176903095Y-112910952D01*
X176807857Y-112863333D01*
X176569761Y-112863333D01*
X176474523Y-112910952D01*
X176426904Y-112958571D01*
X176379285Y-113053810D01*
X176379285Y-113291905D01*
X176426904Y-113387143D01*
X176474523Y-113434762D01*
X176569761Y-113482381D01*
X176807857Y-113482381D01*
X176903095Y-113434762D01*
X176950714Y-113387143D01*
X181776666Y-118322381D02*
X182110000Y-117846190D01*
X182348095Y-118322381D02*
X182348095Y-117322381D01*
X181967142Y-117322381D01*
X181871904Y-117370000D01*
X181824285Y-117417619D01*
X181776666Y-117512857D01*
X181776666Y-117655714D01*
X181824285Y-117750952D01*
X181871904Y-117798571D01*
X181967142Y-117846190D01*
X182348095Y-117846190D01*
X181395714Y-117417619D02*
X181348095Y-117370000D01*
X181252857Y-117322381D01*
X181014761Y-117322381D01*
X180919523Y-117370000D01*
X180871904Y-117417619D01*
X180824285Y-117512857D01*
X180824285Y-117608095D01*
X180871904Y-117750952D01*
X181443333Y-118322381D01*
X180824285Y-118322381D01*
X170872381Y-91273334D02*
X170396190Y-90940000D01*
X170872381Y-90701905D02*
X169872381Y-90701905D01*
X169872381Y-91082858D01*
X169920000Y-91178096D01*
X169967619Y-91225715D01*
X170062857Y-91273334D01*
X170205714Y-91273334D01*
X170300952Y-91225715D01*
X170348571Y-91178096D01*
X170396190Y-91082858D01*
X170396190Y-90701905D01*
X169872381Y-92130477D02*
X169872381Y-91940000D01*
X169920000Y-91844762D01*
X169967619Y-91797143D01*
X170110476Y-91701905D01*
X170300952Y-91654286D01*
X170681905Y-91654286D01*
X170777143Y-91701905D01*
X170824762Y-91749524D01*
X170872381Y-91844762D01*
X170872381Y-92035239D01*
X170824762Y-92130477D01*
X170777143Y-92178096D01*
X170681905Y-92225715D01*
X170443810Y-92225715D01*
X170348571Y-92178096D01*
X170300952Y-92130477D01*
X170253333Y-92035239D01*
X170253333Y-91844762D01*
X170300952Y-91749524D01*
X170348571Y-91701905D01*
X170443810Y-91654286D01*
M02*
