G04 #@! TF.FileFunction,Soldermask,Bot*
%FSLAX46Y46*%
G04 Gerber Fmt 4.6, Leading zero omitted, Abs format (unit mm)*
G04 Created by KiCad (PCBNEW 4.0.5+dfsg1-4) date Sat Apr 22 17:13:20 2017*
%MOMM*%
%LPD*%
G01*
G04 APERTURE LIST*
%ADD10C,0.100000*%
%ADD11O,2.400000X3.400000*%
%ADD12C,6.400000*%
%ADD13O,1.500000X2.700000*%
%ADD14C,2.178000*%
%ADD15R,2.178000X2.178000*%
%ADD16R,2.400000X2.000000*%
%ADD17R,2.000000X2.400000*%
%ADD18R,2.100000X2.400000*%
%ADD19R,2.400000X2.100000*%
%ADD20R,2.099260X3.699460*%
%ADD21C,2.398980*%
%ADD22C,7.400000*%
%ADD23R,2.200000X4.000000*%
%ADD24O,2.200000X4.000000*%
G04 APERTURE END LIST*
D10*
D11*
X163830000Y-114300000D03*
X166370000Y-114300000D03*
X168910000Y-114300000D03*
D12*
X166370000Y-100330000D03*
D13*
X173990000Y-133350000D03*
X176530000Y-133350000D03*
X176530000Y-125730000D03*
X173990000Y-125730000D03*
D14*
X173990000Y-121920000D03*
D15*
X163830000Y-121920000D03*
D14*
X191770000Y-121920000D03*
D15*
X181610000Y-121920000D03*
D13*
X179070000Y-133350000D03*
X181610000Y-133350000D03*
X181610000Y-125730000D03*
X179070000Y-125730000D03*
D16*
X175990000Y-113030000D03*
X171990000Y-113030000D03*
D17*
X167640000Y-126460000D03*
X167640000Y-122460000D03*
X167640000Y-128810000D03*
X167640000Y-132810000D03*
D18*
X170180000Y-128810000D03*
X170180000Y-132810000D03*
D19*
X175990000Y-115570000D03*
X171990000Y-115570000D03*
D20*
X170180000Y-121709180D03*
X170180000Y-127210820D03*
X187960000Y-121709180D03*
X187960000Y-127210820D03*
D17*
X185420000Y-128810000D03*
X185420000Y-132810000D03*
X185420000Y-126460000D03*
X185420000Y-122460000D03*
D18*
X187960000Y-128810000D03*
X187960000Y-132810000D03*
D19*
X183610000Y-113030000D03*
X179610000Y-113030000D03*
X179610000Y-115570000D03*
X183610000Y-115570000D03*
D14*
X177800000Y-109220000D03*
D15*
X177800000Y-119380000D03*
D21*
X182801260Y-92710000D03*
X172641260Y-92710000D03*
D18*
X177800000Y-90710000D03*
X177800000Y-94710000D03*
D22*
X162560000Y-133350000D03*
X193040000Y-133350000D03*
X193040000Y-83820000D03*
X162560000Y-82550000D03*
D11*
X186690000Y-114300000D03*
X189230000Y-114300000D03*
X191770000Y-114300000D03*
D12*
X189230000Y-100330000D03*
D23*
X170180000Y-83820000D03*
D24*
X175260000Y-83820000D03*
X180340000Y-83820000D03*
X185420000Y-83820000D03*
M02*
