M48
;DRILL file {KiCad 4.0.5+dfsg1-4} date Sun Apr 16 21:16:27 2017
;FORMAT={-:-/ absolute / inch / decimal}
FMAT,2
INCH,TZ
T1C0.031
T2C0.039
T3C0.040
T4C0.047
%
G90
G05
M72
T1
X6.25Y-2.45
X6.25Y-2.55
X6.25Y-2.75
X6.25Y-2.85
X6.55Y-2.45
X6.55Y-2.55
X6.55Y-2.75
X6.55Y-2.85
T2
X5.95Y-2.05
X6.05Y-2.05
X6.15Y-2.05
X6.8Y-2.05
X6.9Y-2.05
X7.Y-2.05
T3
X5.85Y-2.2
X6.25Y-2.2
X6.8Y-2.85
X7.2Y-2.85
X7.5Y-2.35
X7.5Y-2.75
T4
X6.15Y-1.6
X6.35Y-1.6
X6.55Y-1.6
X7.2Y-1.6
X7.4Y-1.6
T0
M30
