G04 #@! TF.FileFunction,Legend,Bot*
%FSLAX46Y46*%
G04 Gerber Fmt 4.6, Leading zero omitted, Abs format (unit mm)*
G04 Created by KiCad (PCBNEW 4.0.5+dfsg1-4) date Mon Apr 17 11:42:06 2017*
%MOMM*%
%LPD*%
G01*
G04 APERTURE LIST*
%ADD10C,0.100000*%
%ADD11C,0.150000*%
G04 APERTURE END LIST*
D10*
D11*
X163585000Y-129810000D02*
X163585000Y-131810000D01*
X161535000Y-131810000D02*
X161535000Y-129810000D01*
X161535000Y-138160000D02*
X161535000Y-136160000D01*
X163585000Y-136160000D02*
X163585000Y-138160000D01*
X189475000Y-138160000D02*
X189475000Y-136160000D01*
X191525000Y-136160000D02*
X191525000Y-138160000D01*
X191525000Y-129599200D02*
X191525000Y-131599200D01*
X189475000Y-131599200D02*
X189475000Y-129599200D01*
X166175000Y-138160000D02*
X166175000Y-136160000D01*
X164025000Y-136160000D02*
X164025000Y-138160000D01*
X182610000Y-123385000D02*
X180610000Y-123385000D01*
X180610000Y-125535000D02*
X182610000Y-125535000D01*
X172990000Y-125535000D02*
X174990000Y-125535000D01*
X174990000Y-123385000D02*
X172990000Y-123385000D01*
X194115000Y-138160000D02*
X194115000Y-136160000D01*
X191965000Y-136160000D02*
X191965000Y-138160000D01*
X182685000Y-114030000D02*
X182685000Y-112030000D01*
X180535000Y-112030000D02*
X180535000Y-114030000D01*
X172875145Y-114733599D02*
G75*
G02X172872400Y-111328200I1114855J1703599D01*
G01*
X175107600Y-111328200D02*
G75*
G02X175107600Y-114731800I-1117600J-1701800D01*
G01*
X172466000Y-115316000D02*
X172872400Y-115316000D01*
X171704000Y-110744000D02*
X172872400Y-110744000D01*
X176276000Y-110744000D02*
X175107600Y-110744000D01*
X175514000Y-115316000D02*
X175107600Y-115316000D01*
X171704000Y-114554000D02*
X171704000Y-110744000D01*
X171704000Y-114554000D02*
X172466000Y-115316000D01*
X176276000Y-114554000D02*
X176276000Y-110744000D01*
X176276000Y-114554000D02*
X175514000Y-115316000D01*
X165100000Y-130310420D02*
X165100000Y-130160560D01*
X165100000Y-131158780D02*
X165100000Y-131359440D01*
X165100000Y-130310420D02*
X165849300Y-130310420D01*
X165100000Y-130310420D02*
X164398960Y-130310420D01*
X165100000Y-130310420D02*
X164398960Y-131158780D01*
X164398960Y-131158780D02*
X165801040Y-131158780D01*
X165801040Y-131158780D02*
X165100000Y-130310420D01*
X193040000Y-130310420D02*
X193040000Y-130160560D01*
X193040000Y-131158780D02*
X193040000Y-131359440D01*
X193040000Y-130310420D02*
X193789300Y-130310420D01*
X193040000Y-130310420D02*
X192338960Y-130310420D01*
X193040000Y-130310420D02*
X192338960Y-131158780D01*
X192338960Y-131158780D02*
X193741040Y-131158780D01*
X193741040Y-131158780D02*
X193040000Y-130310420D01*
X162917143Y-126198334D02*
X162964762Y-126150715D01*
X163012381Y-126007858D01*
X163012381Y-125912620D01*
X162964762Y-125769762D01*
X162869524Y-125674524D01*
X162774286Y-125626905D01*
X162583810Y-125579286D01*
X162440952Y-125579286D01*
X162250476Y-125626905D01*
X162155238Y-125674524D01*
X162060000Y-125769762D01*
X162012381Y-125912620D01*
X162012381Y-126007858D01*
X162060000Y-126150715D01*
X162107619Y-126198334D01*
X163012381Y-127150715D02*
X163012381Y-126579286D01*
X163012381Y-126865000D02*
X162012381Y-126865000D01*
X162155238Y-126769762D01*
X162250476Y-126674524D01*
X162298095Y-126579286D01*
X162917143Y-141438334D02*
X162964762Y-141390715D01*
X163012381Y-141247858D01*
X163012381Y-141152620D01*
X162964762Y-141009762D01*
X162869524Y-140914524D01*
X162774286Y-140866905D01*
X162583810Y-140819286D01*
X162440952Y-140819286D01*
X162250476Y-140866905D01*
X162155238Y-140914524D01*
X162060000Y-141009762D01*
X162012381Y-141152620D01*
X162012381Y-141247858D01*
X162060000Y-141390715D01*
X162107619Y-141438334D01*
X162107619Y-141819286D02*
X162060000Y-141866905D01*
X162012381Y-141962143D01*
X162012381Y-142200239D01*
X162060000Y-142295477D01*
X162107619Y-142343096D01*
X162202857Y-142390715D01*
X162298095Y-142390715D01*
X162440952Y-142343096D01*
X163012381Y-141771667D01*
X163012381Y-142390715D01*
X190857143Y-141438334D02*
X190904762Y-141390715D01*
X190952381Y-141247858D01*
X190952381Y-141152620D01*
X190904762Y-141009762D01*
X190809524Y-140914524D01*
X190714286Y-140866905D01*
X190523810Y-140819286D01*
X190380952Y-140819286D01*
X190190476Y-140866905D01*
X190095238Y-140914524D01*
X190000000Y-141009762D01*
X189952381Y-141152620D01*
X189952381Y-141247858D01*
X190000000Y-141390715D01*
X190047619Y-141438334D01*
X189952381Y-141771667D02*
X189952381Y-142390715D01*
X190333333Y-142057381D01*
X190333333Y-142200239D01*
X190380952Y-142295477D01*
X190428571Y-142343096D01*
X190523810Y-142390715D01*
X190761905Y-142390715D01*
X190857143Y-142343096D01*
X190904762Y-142295477D01*
X190952381Y-142200239D01*
X190952381Y-141914524D01*
X190904762Y-141819286D01*
X190857143Y-141771667D01*
X190857143Y-126198334D02*
X190904762Y-126150715D01*
X190952381Y-126007858D01*
X190952381Y-125912620D01*
X190904762Y-125769762D01*
X190809524Y-125674524D01*
X190714286Y-125626905D01*
X190523810Y-125579286D01*
X190380952Y-125579286D01*
X190190476Y-125626905D01*
X190095238Y-125674524D01*
X190000000Y-125769762D01*
X189952381Y-125912620D01*
X189952381Y-126007858D01*
X190000000Y-126150715D01*
X190047619Y-126198334D01*
X190285714Y-127055477D02*
X190952381Y-127055477D01*
X189904762Y-126817381D02*
X190619048Y-126579286D01*
X190619048Y-127198334D01*
X165552381Y-141438334D02*
X165076190Y-141105000D01*
X165552381Y-140866905D02*
X164552381Y-140866905D01*
X164552381Y-141247858D01*
X164600000Y-141343096D01*
X164647619Y-141390715D01*
X164742857Y-141438334D01*
X164885714Y-141438334D01*
X164980952Y-141390715D01*
X165028571Y-141343096D01*
X165076190Y-141247858D01*
X165076190Y-140866905D01*
X165552381Y-142390715D02*
X165552381Y-141819286D01*
X165552381Y-142105000D02*
X164552381Y-142105000D01*
X164695238Y-142009762D01*
X164790476Y-141914524D01*
X164838095Y-141819286D01*
X184951666Y-123007381D02*
X185285000Y-122531190D01*
X185523095Y-123007381D02*
X185523095Y-122007381D01*
X185142142Y-122007381D01*
X185046904Y-122055000D01*
X184999285Y-122102619D01*
X184951666Y-122197857D01*
X184951666Y-122340714D01*
X184999285Y-122435952D01*
X185046904Y-122483571D01*
X185142142Y-122531190D01*
X185523095Y-122531190D01*
X184618333Y-122007381D02*
X183999285Y-122007381D01*
X184332619Y-122388333D01*
X184189761Y-122388333D01*
X184094523Y-122435952D01*
X184046904Y-122483571D01*
X183999285Y-122578810D01*
X183999285Y-122816905D01*
X184046904Y-122912143D01*
X184094523Y-122959762D01*
X184189761Y-123007381D01*
X184475476Y-123007381D01*
X184570714Y-122959762D01*
X184618333Y-122912143D01*
X171616666Y-123007381D02*
X171950000Y-122531190D01*
X172188095Y-123007381D02*
X172188095Y-122007381D01*
X171807142Y-122007381D01*
X171711904Y-122055000D01*
X171664285Y-122102619D01*
X171616666Y-122197857D01*
X171616666Y-122340714D01*
X171664285Y-122435952D01*
X171711904Y-122483571D01*
X171807142Y-122531190D01*
X172188095Y-122531190D01*
X170759523Y-122340714D02*
X170759523Y-123007381D01*
X170997619Y-121959762D02*
X171235714Y-122674048D01*
X170616666Y-122674048D01*
X193492381Y-141438334D02*
X193016190Y-141105000D01*
X193492381Y-140866905D02*
X192492381Y-140866905D01*
X192492381Y-141247858D01*
X192540000Y-141343096D01*
X192587619Y-141390715D01*
X192682857Y-141438334D01*
X192825714Y-141438334D01*
X192920952Y-141390715D01*
X192968571Y-141343096D01*
X193016190Y-141247858D01*
X193016190Y-140866905D01*
X192492381Y-142343096D02*
X192492381Y-141866905D01*
X192968571Y-141819286D01*
X192920952Y-141866905D01*
X192873333Y-141962143D01*
X192873333Y-142200239D01*
X192920952Y-142295477D01*
X192968571Y-142343096D01*
X193063810Y-142390715D01*
X193301905Y-142390715D01*
X193397143Y-142343096D01*
X193444762Y-142295477D01*
X193492381Y-142200239D01*
X193492381Y-141962143D01*
X193444762Y-141866905D01*
X193397143Y-141819286D01*
X180157381Y-109688334D02*
X179681190Y-109355000D01*
X180157381Y-109116905D02*
X179157381Y-109116905D01*
X179157381Y-109497858D01*
X179205000Y-109593096D01*
X179252619Y-109640715D01*
X179347857Y-109688334D01*
X179490714Y-109688334D01*
X179585952Y-109640715D01*
X179633571Y-109593096D01*
X179681190Y-109497858D01*
X179681190Y-109116905D01*
X179157381Y-110021667D02*
X179157381Y-110688334D01*
X180157381Y-110259762D01*
X171045143Y-110958334D02*
X171092762Y-110910715D01*
X171140381Y-110767858D01*
X171140381Y-110672620D01*
X171092762Y-110529762D01*
X170997524Y-110434524D01*
X170902286Y-110386905D01*
X170711810Y-110339286D01*
X170568952Y-110339286D01*
X170378476Y-110386905D01*
X170283238Y-110434524D01*
X170188000Y-110529762D01*
X170140381Y-110672620D01*
X170140381Y-110767858D01*
X170188000Y-110910715D01*
X170235619Y-110958334D01*
X170140381Y-111863096D02*
X170140381Y-111386905D01*
X170616571Y-111339286D01*
X170568952Y-111386905D01*
X170521333Y-111482143D01*
X170521333Y-111720239D01*
X170568952Y-111815477D01*
X170616571Y-111863096D01*
X170711810Y-111910715D01*
X170949905Y-111910715D01*
X171045143Y-111863096D01*
X171092762Y-111815477D01*
X171140381Y-111720239D01*
X171140381Y-111482143D01*
X171092762Y-111386905D01*
X171045143Y-111339286D01*
X172054829Y-115430348D02*
X172054829Y-116192253D01*
X172435781Y-115811301D02*
X171673876Y-115811301D01*
X165552381Y-124356905D02*
X164552381Y-124356905D01*
X164552381Y-124595000D01*
X164600000Y-124737858D01*
X164695238Y-124833096D01*
X164790476Y-124880715D01*
X164980952Y-124928334D01*
X165123810Y-124928334D01*
X165314286Y-124880715D01*
X165409524Y-124833096D01*
X165504762Y-124737858D01*
X165552381Y-124595000D01*
X165552381Y-124356905D01*
X165552381Y-125880715D02*
X165552381Y-125309286D01*
X165552381Y-125595000D02*
X164552381Y-125595000D01*
X164695238Y-125499762D01*
X164790476Y-125404524D01*
X164838095Y-125309286D01*
X167402381Y-128748095D02*
X166402381Y-128748095D01*
X167402381Y-129319524D02*
X166830952Y-128890952D01*
X166402381Y-129319524D02*
X166973810Y-128748095D01*
X167116667Y-132371905D02*
X167116667Y-132848096D01*
X167402381Y-132276667D02*
X166402381Y-132610000D01*
X167402381Y-132943334D01*
X193492381Y-124356905D02*
X192492381Y-124356905D01*
X192492381Y-124595000D01*
X192540000Y-124737858D01*
X192635238Y-124833096D01*
X192730476Y-124880715D01*
X192920952Y-124928334D01*
X193063810Y-124928334D01*
X193254286Y-124880715D01*
X193349524Y-124833096D01*
X193444762Y-124737858D01*
X193492381Y-124595000D01*
X193492381Y-124356905D01*
X192825714Y-125785477D02*
X193492381Y-125785477D01*
X192444762Y-125547381D02*
X193159048Y-125309286D01*
X193159048Y-125928334D01*
X195342381Y-128748095D02*
X194342381Y-128748095D01*
X195342381Y-129319524D02*
X194770952Y-128890952D01*
X194342381Y-129319524D02*
X194913810Y-128748095D01*
X195056667Y-132371905D02*
X195056667Y-132848096D01*
X195342381Y-132276667D02*
X194342381Y-132610000D01*
X195342381Y-132943334D01*
M02*
