G04 #@! TF.FileFunction,Legend,Bot*
%FSLAX46Y46*%
G04 Gerber Fmt 4.6, Leading zero omitted, Abs format (unit mm)*
G04 Created by KiCad (PCBNEW 4.0.5+dfsg1-4) date Mon Apr 17 12:34:13 2017*
%MOMM*%
%LPD*%
G01*
G04 APERTURE LIST*
%ADD10C,0.100000*%
%ADD11C,0.150000*%
G04 APERTURE END LIST*
D10*
D11*
X164855000Y-129810000D02*
X164855000Y-131810000D01*
X162805000Y-131810000D02*
X162805000Y-129810000D01*
X162805000Y-138160000D02*
X162805000Y-136160000D01*
X164855000Y-136160000D02*
X164855000Y-138160000D01*
X188205000Y-138160000D02*
X188205000Y-136160000D01*
X190255000Y-136160000D02*
X190255000Y-138160000D01*
X190255000Y-129810000D02*
X190255000Y-131810000D01*
X188205000Y-131810000D02*
X188205000Y-129810000D01*
X167445000Y-138160000D02*
X167445000Y-136160000D01*
X165295000Y-136160000D02*
X165295000Y-138160000D01*
X182610000Y-123385000D02*
X180610000Y-123385000D01*
X180610000Y-125535000D02*
X182610000Y-125535000D01*
X172990000Y-125535000D02*
X174990000Y-125535000D01*
X174990000Y-123385000D02*
X172990000Y-123385000D01*
X192845000Y-138160000D02*
X192845000Y-136160000D01*
X190695000Y-136160000D02*
X190695000Y-138160000D01*
X182685000Y-114030000D02*
X182685000Y-112030000D01*
X180535000Y-112030000D02*
X180535000Y-114030000D01*
X166370000Y-130310420D02*
X166370000Y-130160560D01*
X166370000Y-131158780D02*
X166370000Y-131359440D01*
X166370000Y-130310420D02*
X167119300Y-130310420D01*
X166370000Y-130310420D02*
X165668960Y-130310420D01*
X166370000Y-130310420D02*
X165668960Y-131158780D01*
X165668960Y-131158780D02*
X167071040Y-131158780D01*
X167071040Y-131158780D02*
X166370000Y-130310420D01*
X191770000Y-130310420D02*
X191770000Y-130160560D01*
X191770000Y-131158780D02*
X191770000Y-131359440D01*
X191770000Y-130310420D02*
X192519300Y-130310420D01*
X191770000Y-130310420D02*
X191068960Y-130310420D01*
X191770000Y-130310420D02*
X191068960Y-131158780D01*
X191068960Y-131158780D02*
X192471040Y-131158780D01*
X192471040Y-131158780D02*
X191770000Y-130310420D01*
X175840000Y-118330000D02*
X175840000Y-110030000D01*
X172140000Y-118330000D02*
X172140000Y-110030000D01*
X175840000Y-118330000D02*
X172140000Y-118330000D01*
X164187143Y-126198334D02*
X164234762Y-126150715D01*
X164282381Y-126007858D01*
X164282381Y-125912620D01*
X164234762Y-125769762D01*
X164139524Y-125674524D01*
X164044286Y-125626905D01*
X163853810Y-125579286D01*
X163710952Y-125579286D01*
X163520476Y-125626905D01*
X163425238Y-125674524D01*
X163330000Y-125769762D01*
X163282381Y-125912620D01*
X163282381Y-126007858D01*
X163330000Y-126150715D01*
X163377619Y-126198334D01*
X164282381Y-127150715D02*
X164282381Y-126579286D01*
X164282381Y-126865000D02*
X163282381Y-126865000D01*
X163425238Y-126769762D01*
X163520476Y-126674524D01*
X163568095Y-126579286D01*
X164187143Y-141438334D02*
X164234762Y-141390715D01*
X164282381Y-141247858D01*
X164282381Y-141152620D01*
X164234762Y-141009762D01*
X164139524Y-140914524D01*
X164044286Y-140866905D01*
X163853810Y-140819286D01*
X163710952Y-140819286D01*
X163520476Y-140866905D01*
X163425238Y-140914524D01*
X163330000Y-141009762D01*
X163282381Y-141152620D01*
X163282381Y-141247858D01*
X163330000Y-141390715D01*
X163377619Y-141438334D01*
X163377619Y-141819286D02*
X163330000Y-141866905D01*
X163282381Y-141962143D01*
X163282381Y-142200239D01*
X163330000Y-142295477D01*
X163377619Y-142343096D01*
X163472857Y-142390715D01*
X163568095Y-142390715D01*
X163710952Y-142343096D01*
X164282381Y-141771667D01*
X164282381Y-142390715D01*
X189587143Y-141438334D02*
X189634762Y-141390715D01*
X189682381Y-141247858D01*
X189682381Y-141152620D01*
X189634762Y-141009762D01*
X189539524Y-140914524D01*
X189444286Y-140866905D01*
X189253810Y-140819286D01*
X189110952Y-140819286D01*
X188920476Y-140866905D01*
X188825238Y-140914524D01*
X188730000Y-141009762D01*
X188682381Y-141152620D01*
X188682381Y-141247858D01*
X188730000Y-141390715D01*
X188777619Y-141438334D01*
X188682381Y-141771667D02*
X188682381Y-142390715D01*
X189063333Y-142057381D01*
X189063333Y-142200239D01*
X189110952Y-142295477D01*
X189158571Y-142343096D01*
X189253810Y-142390715D01*
X189491905Y-142390715D01*
X189587143Y-142343096D01*
X189634762Y-142295477D01*
X189682381Y-142200239D01*
X189682381Y-141914524D01*
X189634762Y-141819286D01*
X189587143Y-141771667D01*
X189587143Y-126409134D02*
X189634762Y-126361515D01*
X189682381Y-126218658D01*
X189682381Y-126123420D01*
X189634762Y-125980562D01*
X189539524Y-125885324D01*
X189444286Y-125837705D01*
X189253810Y-125790086D01*
X189110952Y-125790086D01*
X188920476Y-125837705D01*
X188825238Y-125885324D01*
X188730000Y-125980562D01*
X188682381Y-126123420D01*
X188682381Y-126218658D01*
X188730000Y-126361515D01*
X188777619Y-126409134D01*
X189015714Y-127266277D02*
X189682381Y-127266277D01*
X188634762Y-127028181D02*
X189349048Y-126790086D01*
X189349048Y-127409134D01*
X166822381Y-141438334D02*
X166346190Y-141105000D01*
X166822381Y-140866905D02*
X165822381Y-140866905D01*
X165822381Y-141247858D01*
X165870000Y-141343096D01*
X165917619Y-141390715D01*
X166012857Y-141438334D01*
X166155714Y-141438334D01*
X166250952Y-141390715D01*
X166298571Y-141343096D01*
X166346190Y-141247858D01*
X166346190Y-140866905D01*
X166822381Y-142390715D02*
X166822381Y-141819286D01*
X166822381Y-142105000D02*
X165822381Y-142105000D01*
X165965238Y-142009762D01*
X166060476Y-141914524D01*
X166108095Y-141819286D01*
X184951666Y-123007381D02*
X185285000Y-122531190D01*
X185523095Y-123007381D02*
X185523095Y-122007381D01*
X185142142Y-122007381D01*
X185046904Y-122055000D01*
X184999285Y-122102619D01*
X184951666Y-122197857D01*
X184951666Y-122340714D01*
X184999285Y-122435952D01*
X185046904Y-122483571D01*
X185142142Y-122531190D01*
X185523095Y-122531190D01*
X184618333Y-122007381D02*
X183999285Y-122007381D01*
X184332619Y-122388333D01*
X184189761Y-122388333D01*
X184094523Y-122435952D01*
X184046904Y-122483571D01*
X183999285Y-122578810D01*
X183999285Y-122816905D01*
X184046904Y-122912143D01*
X184094523Y-122959762D01*
X184189761Y-123007381D01*
X184475476Y-123007381D01*
X184570714Y-122959762D01*
X184618333Y-122912143D01*
X171616666Y-123007381D02*
X171950000Y-122531190D01*
X172188095Y-123007381D02*
X172188095Y-122007381D01*
X171807142Y-122007381D01*
X171711904Y-122055000D01*
X171664285Y-122102619D01*
X171616666Y-122197857D01*
X171616666Y-122340714D01*
X171664285Y-122435952D01*
X171711904Y-122483571D01*
X171807142Y-122531190D01*
X172188095Y-122531190D01*
X170759523Y-122340714D02*
X170759523Y-123007381D01*
X170997619Y-121959762D02*
X171235714Y-122674048D01*
X170616666Y-122674048D01*
X192222381Y-141438334D02*
X191746190Y-141105000D01*
X192222381Y-140866905D02*
X191222381Y-140866905D01*
X191222381Y-141247858D01*
X191270000Y-141343096D01*
X191317619Y-141390715D01*
X191412857Y-141438334D01*
X191555714Y-141438334D01*
X191650952Y-141390715D01*
X191698571Y-141343096D01*
X191746190Y-141247858D01*
X191746190Y-140866905D01*
X191222381Y-142343096D02*
X191222381Y-141866905D01*
X191698571Y-141819286D01*
X191650952Y-141866905D01*
X191603333Y-141962143D01*
X191603333Y-142200239D01*
X191650952Y-142295477D01*
X191698571Y-142343096D01*
X191793810Y-142390715D01*
X192031905Y-142390715D01*
X192127143Y-142343096D01*
X192174762Y-142295477D01*
X192222381Y-142200239D01*
X192222381Y-141962143D01*
X192174762Y-141866905D01*
X192127143Y-141819286D01*
X180157381Y-109688334D02*
X179681190Y-109355000D01*
X180157381Y-109116905D02*
X179157381Y-109116905D01*
X179157381Y-109497858D01*
X179205000Y-109593096D01*
X179252619Y-109640715D01*
X179347857Y-109688334D01*
X179490714Y-109688334D01*
X179585952Y-109640715D01*
X179633571Y-109593096D01*
X179681190Y-109497858D01*
X179681190Y-109116905D01*
X179157381Y-110021667D02*
X179157381Y-110688334D01*
X180157381Y-110259762D01*
X166822381Y-124356905D02*
X165822381Y-124356905D01*
X165822381Y-124595000D01*
X165870000Y-124737858D01*
X165965238Y-124833096D01*
X166060476Y-124880715D01*
X166250952Y-124928334D01*
X166393810Y-124928334D01*
X166584286Y-124880715D01*
X166679524Y-124833096D01*
X166774762Y-124737858D01*
X166822381Y-124595000D01*
X166822381Y-124356905D01*
X166822381Y-125880715D02*
X166822381Y-125309286D01*
X166822381Y-125595000D02*
X165822381Y-125595000D01*
X165965238Y-125499762D01*
X166060476Y-125404524D01*
X166108095Y-125309286D01*
X168672381Y-128748095D02*
X167672381Y-128748095D01*
X168672381Y-129319524D02*
X168100952Y-128890952D01*
X167672381Y-129319524D02*
X168243810Y-128748095D01*
X168386667Y-132371905D02*
X168386667Y-132848096D01*
X168672381Y-132276667D02*
X167672381Y-132610000D01*
X168672381Y-132943334D01*
X192222381Y-124356905D02*
X191222381Y-124356905D01*
X191222381Y-124595000D01*
X191270000Y-124737858D01*
X191365238Y-124833096D01*
X191460476Y-124880715D01*
X191650952Y-124928334D01*
X191793810Y-124928334D01*
X191984286Y-124880715D01*
X192079524Y-124833096D01*
X192174762Y-124737858D01*
X192222381Y-124595000D01*
X192222381Y-124356905D01*
X191555714Y-125785477D02*
X192222381Y-125785477D01*
X191174762Y-125547381D02*
X191889048Y-125309286D01*
X191889048Y-125928334D01*
X194072381Y-128748095D02*
X193072381Y-128748095D01*
X194072381Y-129319524D02*
X193500952Y-128890952D01*
X193072381Y-129319524D02*
X193643810Y-128748095D01*
X193786667Y-132371905D02*
X193786667Y-132848096D01*
X194072381Y-132276667D02*
X193072381Y-132610000D01*
X194072381Y-132943334D01*
X177697143Y-112863334D02*
X177744762Y-112815715D01*
X177792381Y-112672858D01*
X177792381Y-112577620D01*
X177744762Y-112434762D01*
X177649524Y-112339524D01*
X177554286Y-112291905D01*
X177363810Y-112244286D01*
X177220952Y-112244286D01*
X177030476Y-112291905D01*
X176935238Y-112339524D01*
X176840000Y-112434762D01*
X176792381Y-112577620D01*
X176792381Y-112672858D01*
X176840000Y-112815715D01*
X176887619Y-112863334D01*
X176792381Y-113768096D02*
X176792381Y-113291905D01*
X177268571Y-113244286D01*
X177220952Y-113291905D01*
X177173333Y-113387143D01*
X177173333Y-113625239D01*
X177220952Y-113720477D01*
X177268571Y-113768096D01*
X177363810Y-113815715D01*
X177601905Y-113815715D01*
X177697143Y-113768096D01*
X177744762Y-113720477D01*
X177792381Y-113625239D01*
X177792381Y-113387143D01*
X177744762Y-113291905D01*
X177697143Y-113244286D01*
M02*
