G04 #@! TF.FileFunction,Other,Fab,Bot*
%FSLAX46Y46*%
G04 Gerber Fmt 4.6, Leading zero omitted, Abs format (unit mm)*
G04 Created by KiCad (PCBNEW 4.0.5+dfsg1-4) date Mon Apr 17 13:27:25 2017*
%MOMM*%
%LPD*%
G01*
G04 APERTURE LIST*
%ADD10C,0.100000*%
%ADD11C,0.150000*%
G04 APERTURE END LIST*
D10*
D11*
X175590000Y-113830000D02*
X175590000Y-112230000D01*
X172390000Y-113830000D02*
X175590000Y-113830000D01*
X172390000Y-112230000D02*
X172390000Y-113830000D01*
X175590000Y-112230000D02*
X172390000Y-112230000D01*
X163030000Y-126060000D02*
X164630000Y-126060000D01*
X163030000Y-122860000D02*
X163030000Y-126060000D01*
X164630000Y-122860000D02*
X163030000Y-122860000D01*
X164630000Y-126060000D02*
X164630000Y-122860000D01*
X164630000Y-129210000D02*
X163030000Y-129210000D01*
X164630000Y-132410000D02*
X164630000Y-129210000D01*
X163030000Y-132410000D02*
X164630000Y-132410000D01*
X163030000Y-129210000D02*
X163030000Y-132410000D01*
D10*
X167170000Y-129210000D02*
X165570000Y-129210000D01*
X167170000Y-132410000D02*
X167170000Y-129210000D01*
X165570000Y-132410000D02*
X167170000Y-132410000D01*
X165570000Y-129210000D02*
X165570000Y-132410000D01*
X175590000Y-116370000D02*
X175590000Y-114770000D01*
X172390000Y-116370000D02*
X175590000Y-116370000D01*
X172390000Y-114770000D02*
X172390000Y-116370000D01*
X175590000Y-114770000D02*
X172390000Y-114770000D01*
D11*
X190030000Y-129210000D02*
X188430000Y-129210000D01*
X190030000Y-132410000D02*
X190030000Y-129210000D01*
X188430000Y-132410000D02*
X190030000Y-132410000D01*
X188430000Y-129210000D02*
X188430000Y-132410000D01*
X188430000Y-126060000D02*
X190030000Y-126060000D01*
X188430000Y-122860000D02*
X188430000Y-126060000D01*
X190030000Y-122860000D02*
X188430000Y-122860000D01*
X190030000Y-126060000D02*
X190030000Y-122860000D01*
D10*
X192570000Y-129210000D02*
X190970000Y-129210000D01*
X192570000Y-132410000D02*
X192570000Y-129210000D01*
X190970000Y-132410000D02*
X192570000Y-132410000D01*
X190970000Y-129210000D02*
X190970000Y-132410000D01*
X183210000Y-113830000D02*
X183210000Y-112230000D01*
X180010000Y-113830000D02*
X183210000Y-113830000D01*
X180010000Y-112230000D02*
X180010000Y-113830000D01*
X183210000Y-112230000D02*
X180010000Y-112230000D01*
X180010000Y-114770000D02*
X180010000Y-116370000D01*
X183210000Y-114770000D02*
X180010000Y-114770000D01*
X183210000Y-116370000D02*
X183210000Y-114770000D01*
X180010000Y-116370000D02*
X183210000Y-116370000D01*
X173520000Y-89840000D02*
X171920000Y-89840000D01*
X173520000Y-93040000D02*
X173520000Y-89840000D01*
X171920000Y-93040000D02*
X173520000Y-93040000D01*
X171920000Y-89840000D02*
X171920000Y-93040000D01*
D11*
X175156666Y-115115714D02*
X175156666Y-115782381D01*
X175394762Y-114734762D02*
X175632857Y-115449048D01*
X175013809Y-115449048D01*
X174728095Y-114782381D02*
X174061428Y-114782381D01*
X174490000Y-115782381D01*
X173680476Y-115115714D02*
X173680476Y-115782381D01*
X173680476Y-115210952D02*
X173632857Y-115163333D01*
X173537619Y-115115714D01*
X173394761Y-115115714D01*
X173299523Y-115163333D01*
X173251904Y-115258571D01*
X173251904Y-115782381D01*
X172442380Y-115258571D02*
X172775714Y-115258571D01*
X172775714Y-115782381D02*
X172775714Y-114782381D01*
X172299523Y-114782381D01*
X161710714Y-123293334D02*
X162377381Y-123293334D01*
X161329762Y-123055238D02*
X162044048Y-122817143D01*
X162044048Y-123436191D01*
X161377381Y-123721905D02*
X161377381Y-124388572D01*
X162377381Y-123960000D01*
X161710714Y-124769524D02*
X162377381Y-124769524D01*
X161805952Y-124769524D02*
X161758333Y-124817143D01*
X161710714Y-124912381D01*
X161710714Y-125055239D01*
X161758333Y-125150477D01*
X161853571Y-125198096D01*
X162377381Y-125198096D01*
X161853571Y-126007620D02*
X161853571Y-125674286D01*
X162377381Y-125674286D02*
X161377381Y-125674286D01*
X161377381Y-126150477D01*
X161710714Y-127103334D02*
X162377381Y-127103334D01*
X161329762Y-126865238D02*
X162044048Y-126627143D01*
X162044048Y-127246191D01*
X161377381Y-127531905D02*
X161377381Y-128198572D01*
X162377381Y-127770000D01*
X161710714Y-128579524D02*
X162377381Y-128579524D01*
X161805952Y-128579524D02*
X161758333Y-128627143D01*
X161710714Y-128722381D01*
X161710714Y-128865239D01*
X161758333Y-128960477D01*
X161853571Y-129008096D01*
X162377381Y-129008096D01*
X161853571Y-129817620D02*
X161853571Y-129484286D01*
X162377381Y-129484286D02*
X161377381Y-129484286D01*
X161377381Y-129960477D01*
X167727381Y-129595714D02*
X167727381Y-130214762D01*
X168108333Y-129881428D01*
X168108333Y-130024286D01*
X168155952Y-130119524D01*
X168203571Y-130167143D01*
X168298810Y-130214762D01*
X168536905Y-130214762D01*
X168632143Y-130167143D01*
X168679762Y-130119524D01*
X168727381Y-130024286D01*
X168727381Y-129738571D01*
X168679762Y-129643333D01*
X168632143Y-129595714D01*
X167727381Y-130548095D02*
X167727381Y-131167143D01*
X168108333Y-130833809D01*
X168108333Y-130976667D01*
X168155952Y-131071905D01*
X168203571Y-131119524D01*
X168298810Y-131167143D01*
X168536905Y-131167143D01*
X168632143Y-131119524D01*
X168679762Y-131071905D01*
X168727381Y-130976667D01*
X168727381Y-130690952D01*
X168679762Y-130595714D01*
X168632143Y-130548095D01*
X168727381Y-131595714D02*
X167727381Y-131595714D01*
X168346429Y-131690952D02*
X168727381Y-131976667D01*
X168060714Y-131976667D02*
X168441667Y-131595714D01*
X174680476Y-117260714D02*
X174680476Y-117927381D01*
X174918572Y-116879762D02*
X175156667Y-117594048D01*
X174537619Y-117594048D01*
X174251905Y-116927381D02*
X173585238Y-116927381D01*
X174013810Y-117927381D01*
X173204286Y-117927381D02*
X173204286Y-116927381D01*
X173109048Y-117546429D02*
X172823333Y-117927381D01*
X172823333Y-117260714D02*
X173204286Y-117641667D01*
X170632381Y-122317143D02*
X170632381Y-121745714D01*
X170632381Y-122031428D02*
X169632381Y-122031428D01*
X169775238Y-121936190D01*
X169870476Y-121840952D01*
X169918095Y-121745714D01*
X170632381Y-122745714D02*
X169632381Y-122745714D01*
X170632381Y-123317143D01*
X169632381Y-123317143D01*
X169965714Y-124221905D02*
X170632381Y-124221905D01*
X169584762Y-123983809D02*
X170299048Y-123745714D01*
X170299048Y-124364762D01*
X170632381Y-125269524D02*
X170632381Y-124698095D01*
X170632381Y-124983809D02*
X169632381Y-124983809D01*
X169775238Y-124888571D01*
X169870476Y-124793333D01*
X169918095Y-124698095D01*
X169965714Y-126126667D02*
X170632381Y-126126667D01*
X169584762Y-125888571D02*
X170299048Y-125650476D01*
X170299048Y-126269524D01*
X170060952Y-126793333D02*
X170013333Y-126698095D01*
X169965714Y-126650476D01*
X169870476Y-126602857D01*
X169822857Y-126602857D01*
X169727619Y-126650476D01*
X169680000Y-126698095D01*
X169632381Y-126793333D01*
X169632381Y-126983810D01*
X169680000Y-127079048D01*
X169727619Y-127126667D01*
X169822857Y-127174286D01*
X169870476Y-127174286D01*
X169965714Y-127126667D01*
X170013333Y-127079048D01*
X170060952Y-126983810D01*
X170060952Y-126793333D01*
X170108571Y-126698095D01*
X170156190Y-126650476D01*
X170251429Y-126602857D01*
X170441905Y-126602857D01*
X170537143Y-126650476D01*
X170584762Y-126698095D01*
X170632381Y-126793333D01*
X170632381Y-126983810D01*
X170584762Y-127079048D01*
X170537143Y-127126667D01*
X170441905Y-127174286D01*
X170251429Y-127174286D01*
X170156190Y-127126667D01*
X170108571Y-127079048D01*
X170060952Y-126983810D01*
X194127381Y-121047143D02*
X194127381Y-120475714D01*
X194127381Y-120761428D02*
X193127381Y-120761428D01*
X193270238Y-120666190D01*
X193365476Y-120570952D01*
X193413095Y-120475714D01*
X194127381Y-121475714D02*
X193127381Y-121475714D01*
X194127381Y-122047143D01*
X193127381Y-122047143D01*
X193460714Y-122951905D02*
X194127381Y-122951905D01*
X193079762Y-122713809D02*
X193794048Y-122475714D01*
X193794048Y-123094762D01*
X194127381Y-123999524D02*
X194127381Y-123428095D01*
X194127381Y-123713809D02*
X193127381Y-123713809D01*
X193270238Y-123618571D01*
X193365476Y-123523333D01*
X193413095Y-123428095D01*
X193460714Y-124856667D02*
X194127381Y-124856667D01*
X193079762Y-124618571D02*
X193794048Y-124380476D01*
X193794048Y-124999524D01*
X193555952Y-125523333D02*
X193508333Y-125428095D01*
X193460714Y-125380476D01*
X193365476Y-125332857D01*
X193317857Y-125332857D01*
X193222619Y-125380476D01*
X193175000Y-125428095D01*
X193127381Y-125523333D01*
X193127381Y-125713810D01*
X193175000Y-125809048D01*
X193222619Y-125856667D01*
X193317857Y-125904286D01*
X193365476Y-125904286D01*
X193460714Y-125856667D01*
X193508333Y-125809048D01*
X193555952Y-125713810D01*
X193555952Y-125523333D01*
X193603571Y-125428095D01*
X193651190Y-125380476D01*
X193746429Y-125332857D01*
X193936905Y-125332857D01*
X194032143Y-125380476D01*
X194079762Y-125428095D01*
X194127381Y-125523333D01*
X194127381Y-125713810D01*
X194079762Y-125809048D01*
X194032143Y-125856667D01*
X193936905Y-125904286D01*
X193746429Y-125904286D01*
X193651190Y-125856667D01*
X193603571Y-125809048D01*
X193555952Y-125713810D01*
X187110714Y-129643334D02*
X187777381Y-129643334D01*
X186729762Y-129405238D02*
X187444048Y-129167143D01*
X187444048Y-129786191D01*
X186777381Y-130071905D02*
X186777381Y-130738572D01*
X187777381Y-130310000D01*
X187110714Y-131119524D02*
X187777381Y-131119524D01*
X187205952Y-131119524D02*
X187158333Y-131167143D01*
X187110714Y-131262381D01*
X187110714Y-131405239D01*
X187158333Y-131500477D01*
X187253571Y-131548096D01*
X187777381Y-131548096D01*
X187253571Y-132357620D02*
X187253571Y-132024286D01*
X187777381Y-132024286D02*
X186777381Y-132024286D01*
X186777381Y-132500477D01*
X187110714Y-123504134D02*
X187777381Y-123504134D01*
X186729762Y-123266038D02*
X187444048Y-123027943D01*
X187444048Y-123646991D01*
X186777381Y-123932705D02*
X186777381Y-124599372D01*
X187777381Y-124170800D01*
X187110714Y-124980324D02*
X187777381Y-124980324D01*
X187205952Y-124980324D02*
X187158333Y-125027943D01*
X187110714Y-125123181D01*
X187110714Y-125266039D01*
X187158333Y-125361277D01*
X187253571Y-125408896D01*
X187777381Y-125408896D01*
X187253571Y-126218420D02*
X187253571Y-125885086D01*
X187777381Y-125885086D02*
X186777381Y-125885086D01*
X186777381Y-126361277D01*
X189317381Y-129595714D02*
X189317381Y-130214762D01*
X189698333Y-129881428D01*
X189698333Y-130024286D01*
X189745952Y-130119524D01*
X189793571Y-130167143D01*
X189888810Y-130214762D01*
X190126905Y-130214762D01*
X190222143Y-130167143D01*
X190269762Y-130119524D01*
X190317381Y-130024286D01*
X190317381Y-129738571D01*
X190269762Y-129643333D01*
X190222143Y-129595714D01*
X189317381Y-130548095D02*
X189317381Y-131167143D01*
X189698333Y-130833809D01*
X189698333Y-130976667D01*
X189745952Y-131071905D01*
X189793571Y-131119524D01*
X189888810Y-131167143D01*
X190126905Y-131167143D01*
X190222143Y-131119524D01*
X190269762Y-131071905D01*
X190317381Y-130976667D01*
X190317381Y-130690952D01*
X190269762Y-130595714D01*
X190222143Y-130548095D01*
X190317381Y-131595714D02*
X189317381Y-131595714D01*
X189936429Y-131690952D02*
X190317381Y-131976667D01*
X189650714Y-131976667D02*
X190031667Y-131595714D01*
X183634047Y-115387381D02*
X184205476Y-115387381D01*
X183919762Y-115387381D02*
X183919762Y-114387381D01*
X184015000Y-114530238D01*
X184110238Y-114625476D01*
X184205476Y-114673095D01*
X183205476Y-115387381D02*
X183205476Y-114387381D01*
X183110238Y-115006429D02*
X182824523Y-115387381D01*
X182824523Y-114720714D02*
X183205476Y-115101667D01*
X182300476Y-113055714D02*
X182300476Y-113722381D01*
X182538572Y-112674762D02*
X182776667Y-113389048D01*
X182157619Y-113389048D01*
X181871905Y-112722381D02*
X181205238Y-112722381D01*
X181633810Y-113722381D01*
X180824286Y-113722381D02*
X180824286Y-112722381D01*
X180729048Y-113341429D02*
X180443333Y-113722381D01*
X180443333Y-113055714D02*
X180824286Y-113436667D01*
X175472381Y-91320953D02*
X175472381Y-90749524D01*
X175472381Y-91035238D02*
X174472381Y-91035238D01*
X174615238Y-90940000D01*
X174710476Y-90844762D01*
X174758095Y-90749524D01*
X175472381Y-91749524D02*
X174472381Y-91749524D01*
X175091429Y-91844762D02*
X175472381Y-92130477D01*
X174805714Y-92130477D02*
X175186667Y-91749524D01*
M02*
