G04 #@! TF.FileFunction,Soldermask,Bot*
%FSLAX46Y46*%
G04 Gerber Fmt 4.6, Leading zero omitted, Abs format (unit mm)*
G04 Created by KiCad (PCBNEW 4.0.5+dfsg1-4) date Mon Apr 17 11:42:06 2017*
%MOMM*%
%LPD*%
G01*
G04 APERTURE LIST*
%ADD10C,0.100000*%
%ADD11C,2.178000*%
%ADD12R,2.178000X2.178000*%
%ADD13R,2.200000X4.000000*%
%ADD14O,2.200000X4.000000*%
%ADD15R,2.000000X2.400000*%
%ADD16R,2.100000X2.400000*%
%ADD17R,2.400000X2.100000*%
%ADD18R,2.000000X3.000000*%
%ADD19R,2.099260X3.699460*%
%ADD20C,5.900000*%
%ADD21O,2.099260X3.900120*%
%ADD22C,6.400000*%
%ADD23O,1.500000X2.700000*%
G04 APERTURE END LIST*
D10*
D11*
X168910000Y-128270000D03*
D12*
X158750000Y-128270000D03*
D11*
X196850000Y-128270000D03*
D12*
X186690000Y-128270000D03*
D11*
X177800000Y-111760000D03*
D12*
X177800000Y-121920000D03*
D13*
X182880000Y-78740000D03*
D14*
X187960000Y-78740000D03*
D13*
X167640000Y-78740000D03*
D14*
X172720000Y-78740000D03*
X177800000Y-78740000D03*
D15*
X162560000Y-132810000D03*
X162560000Y-128810000D03*
X162560000Y-135160000D03*
X162560000Y-139160000D03*
X190500000Y-135160000D03*
X190500000Y-139160000D03*
X190500000Y-132599200D03*
X190500000Y-128599200D03*
D16*
X165100000Y-135160000D03*
X165100000Y-139160000D03*
D17*
X179610000Y-124460000D03*
X183610000Y-124460000D03*
X175990000Y-124460000D03*
X171990000Y-124460000D03*
D16*
X193040000Y-135160000D03*
X193040000Y-139160000D03*
X181610000Y-111030000D03*
X181610000Y-115030000D03*
D18*
X173990000Y-114830000D03*
X173990000Y-111230000D03*
D19*
X165100000Y-128059180D03*
X165100000Y-133560820D03*
X193040000Y-128059180D03*
X193040000Y-133560820D03*
D20*
X155575000Y-139065000D03*
X200025000Y-139065000D03*
D21*
X161290000Y-114300000D03*
X158750000Y-114300000D03*
X163830000Y-114300000D03*
D22*
X161290000Y-97536000D03*
D21*
X194310000Y-114300000D03*
X191770000Y-114300000D03*
X196850000Y-114300000D03*
D22*
X194310000Y-97536000D03*
D20*
X200025000Y-74295000D03*
X155575000Y-74295000D03*
D23*
X173990000Y-137160000D03*
X176530000Y-137160000D03*
X176530000Y-129540000D03*
X173990000Y-129540000D03*
X179070000Y-137160000D03*
X181610000Y-137160000D03*
X181610000Y-129540000D03*
X179070000Y-129540000D03*
M02*
