%FSLAX45Y45*%
G04 Gerber Fmt 4.5, Leading zero omitted, Abs format (unit mm)*
G04 Created by KiCad (PCBNEW 4.0.5+dfsg1-4) date Sun Apr 16 21:16:27 2017*
%MOMM*%
%LPD*%
G01*
G04 APERTURE LIST*
%ADD10C,0.127000*%
%ADD11C,0.150000*%
%ADD12C,0.200000*%
%ADD13C,0.300000*%
G04 APERTURE END LIST*
D10*
D11*
X14224000Y-3556000D02*
X14224000Y-7620000D01*
X19304000Y-3556000D02*
X14224000Y-3556000D01*
X19304000Y-7620000D02*
X19304000Y-3556000D01*
X14224000Y-7620000D02*
X19304000Y-7620000D01*
D12*
X15835000Y-6183000D02*
X15915000Y-6263000D01*
X15915000Y-6183000D02*
X15835000Y-6263000D01*
X15835000Y-6437000D02*
X15915000Y-6517000D01*
X15915000Y-6437000D02*
X15835000Y-6517000D01*
X15835000Y-6945000D02*
X15915000Y-7025000D01*
X15915000Y-6945000D02*
X15835000Y-7025000D01*
X15835000Y-7199000D02*
X15915000Y-7279000D01*
X15915000Y-7199000D02*
X15835000Y-7279000D01*
X16597000Y-6183000D02*
X16677000Y-6263000D01*
X16677000Y-6183000D02*
X16597000Y-6263000D01*
X16597000Y-6437000D02*
X16677000Y-6517000D01*
X16677000Y-6437000D02*
X16597000Y-6517000D01*
X16597000Y-6945000D02*
X16677000Y-7025000D01*
X16677000Y-6945000D02*
X16597000Y-7025000D01*
X16597000Y-7199000D02*
X16677000Y-7279000D01*
X16677000Y-7199000D02*
X16597000Y-7279000D01*
X15163038Y-5207000D02*
G75*
G03X15163038Y-5207000I-50038J0D01*
G01*
X15417038Y-5207000D02*
G75*
G03X15417038Y-5207000I-50038J0D01*
G01*
X15671038Y-5207000D02*
G75*
G03X15671038Y-5207000I-50038J0D01*
G01*
X17322038Y-5207000D02*
G75*
G03X17322038Y-5207000I-50038J0D01*
G01*
X17576038Y-5207000D02*
G75*
G03X17576038Y-5207000I-50038J0D01*
G01*
X17830038Y-5207000D02*
G75*
G03X17830038Y-5207000I-50038J0D01*
G01*
X14859000Y-5537200D02*
X14859000Y-5638800D01*
X14808200Y-5588000D02*
X14909800Y-5588000D01*
X15875000Y-5537200D02*
X15875000Y-5638800D01*
X15824200Y-5588000D02*
X15925800Y-5588000D01*
X17272000Y-7188200D02*
X17272000Y-7289800D01*
X17221200Y-7239000D02*
X17322800Y-7239000D01*
X18288000Y-7188200D02*
X18288000Y-7289800D01*
X18237200Y-7239000D02*
X18338800Y-7239000D01*
X19050000Y-5918200D02*
X19050000Y-6019800D01*
X18999200Y-5969000D02*
X19100800Y-5969000D01*
X19050000Y-6934200D02*
X19050000Y-7035800D01*
X18999200Y-6985000D02*
X19100800Y-6985000D01*
X15663427Y-4106427D02*
X15663427Y-4021573D01*
X15578573Y-4021573D01*
X15578573Y-4106427D01*
X15663427Y-4106427D01*
X16171427Y-4106427D02*
X16171427Y-4021573D01*
X16086573Y-4021573D01*
X16086573Y-4106427D01*
X16171427Y-4106427D01*
X16679427Y-4106427D02*
X16679427Y-4021573D01*
X16594573Y-4021573D01*
X16594573Y-4106427D01*
X16679427Y-4106427D01*
X18330427Y-4106427D02*
X18330427Y-4021573D01*
X18245573Y-4021573D01*
X18245573Y-4106427D01*
X18330427Y-4106427D01*
X18838427Y-4106427D02*
X18838427Y-4021573D01*
X18753573Y-4021573D01*
X18753573Y-4106427D01*
X18838427Y-4106427D01*
D13*
X14487928Y-8093214D02*
X14487928Y-7793214D01*
X14559357Y-7793214D01*
X14602214Y-7807500D01*
X14630786Y-7836071D01*
X14645071Y-7864643D01*
X14659357Y-7921786D01*
X14659357Y-7964643D01*
X14645071Y-8021786D01*
X14630786Y-8050357D01*
X14602214Y-8078929D01*
X14559357Y-8093214D01*
X14487928Y-8093214D01*
X14787928Y-8093214D02*
X14787928Y-7893214D01*
X14787928Y-7950357D02*
X14802214Y-7921786D01*
X14816500Y-7907500D01*
X14845071Y-7893214D01*
X14873643Y-7893214D01*
X14973643Y-8093214D02*
X14973643Y-7893214D01*
X14973643Y-7793214D02*
X14959357Y-7807500D01*
X14973643Y-7821786D01*
X14987928Y-7807500D01*
X14973643Y-7793214D01*
X14973643Y-7821786D01*
X15159357Y-8093214D02*
X15130786Y-8078929D01*
X15116500Y-8050357D01*
X15116500Y-7793214D01*
X15316500Y-8093214D02*
X15287928Y-8078929D01*
X15273643Y-8050357D01*
X15273643Y-7793214D01*
X15659357Y-8093214D02*
X15659357Y-7793214D01*
X15759357Y-8007500D01*
X15859357Y-7793214D01*
X15859357Y-8093214D01*
X16130786Y-8093214D02*
X16130786Y-7936071D01*
X16116500Y-7907500D01*
X16087928Y-7893214D01*
X16030786Y-7893214D01*
X16002214Y-7907500D01*
X16130786Y-8078929D02*
X16102214Y-8093214D01*
X16030786Y-8093214D01*
X16002214Y-8078929D01*
X15987928Y-8050357D01*
X15987928Y-8021786D01*
X16002214Y-7993214D01*
X16030786Y-7978929D01*
X16102214Y-7978929D01*
X16130786Y-7964643D01*
X16273643Y-7893214D02*
X16273643Y-8193214D01*
X16273643Y-7907500D02*
X16302214Y-7893214D01*
X16359357Y-7893214D01*
X16387928Y-7907500D01*
X16402214Y-7921786D01*
X16416500Y-7950357D01*
X16416500Y-8036071D01*
X16402214Y-8064643D01*
X16387928Y-8078929D01*
X16359357Y-8093214D01*
X16302214Y-8093214D01*
X16273643Y-8078929D01*
X16545071Y-8064643D02*
X16559357Y-8078929D01*
X16545071Y-8093214D01*
X16530786Y-8078929D01*
X16545071Y-8064643D01*
X16545071Y-8093214D01*
X16545071Y-7907500D02*
X16559357Y-7921786D01*
X16545071Y-7936071D01*
X16530786Y-7921786D01*
X16545071Y-7907500D01*
X16545071Y-7936071D01*
X14136500Y-8547500D02*
X14216500Y-8627500D01*
X14216500Y-8547500D02*
X14136500Y-8627500D01*
X14545071Y-8423214D02*
X14573643Y-8423214D01*
X14602214Y-8437500D01*
X14616500Y-8451786D01*
X14630786Y-8480357D01*
X14645071Y-8537500D01*
X14645071Y-8608929D01*
X14630786Y-8666072D01*
X14616500Y-8694643D01*
X14602214Y-8708929D01*
X14573643Y-8723214D01*
X14545071Y-8723214D01*
X14516500Y-8708929D01*
X14502214Y-8694643D01*
X14487928Y-8666072D01*
X14473643Y-8608929D01*
X14473643Y-8537500D01*
X14487928Y-8480357D01*
X14502214Y-8451786D01*
X14516500Y-8437500D01*
X14545071Y-8423214D01*
X14773643Y-8694643D02*
X14787928Y-8708929D01*
X14773643Y-8723214D01*
X14759357Y-8708929D01*
X14773643Y-8694643D01*
X14773643Y-8723214D01*
X14959357Y-8551786D02*
X14930786Y-8537500D01*
X14916500Y-8523214D01*
X14902214Y-8494643D01*
X14902214Y-8480357D01*
X14916500Y-8451786D01*
X14930786Y-8437500D01*
X14959357Y-8423214D01*
X15016500Y-8423214D01*
X15045071Y-8437500D01*
X15059357Y-8451786D01*
X15073643Y-8480357D01*
X15073643Y-8494643D01*
X15059357Y-8523214D01*
X15045071Y-8537500D01*
X15016500Y-8551786D01*
X14959357Y-8551786D01*
X14930786Y-8566072D01*
X14916500Y-8580357D01*
X14902214Y-8608929D01*
X14902214Y-8666072D01*
X14916500Y-8694643D01*
X14930786Y-8708929D01*
X14959357Y-8723214D01*
X15016500Y-8723214D01*
X15045071Y-8708929D01*
X15059357Y-8694643D01*
X15073643Y-8666072D01*
X15073643Y-8608929D01*
X15059357Y-8580357D01*
X15045071Y-8566072D01*
X15016500Y-8551786D01*
X15259357Y-8423214D02*
X15287928Y-8423214D01*
X15316500Y-8437500D01*
X15330786Y-8451786D01*
X15345071Y-8480357D01*
X15359357Y-8537500D01*
X15359357Y-8608929D01*
X15345071Y-8666072D01*
X15330786Y-8694643D01*
X15316500Y-8708929D01*
X15287928Y-8723214D01*
X15259357Y-8723214D01*
X15230786Y-8708929D01*
X15216500Y-8694643D01*
X15202214Y-8666072D01*
X15187928Y-8608929D01*
X15187928Y-8537500D01*
X15202214Y-8480357D01*
X15216500Y-8451786D01*
X15230786Y-8437500D01*
X15259357Y-8423214D01*
X15487928Y-8723214D02*
X15487928Y-8523214D01*
X15487928Y-8551786D02*
X15502214Y-8537500D01*
X15530786Y-8523214D01*
X15573643Y-8523214D01*
X15602214Y-8537500D01*
X15616500Y-8566072D01*
X15616500Y-8723214D01*
X15616500Y-8566072D02*
X15630786Y-8537500D01*
X15659357Y-8523214D01*
X15702214Y-8523214D01*
X15730786Y-8537500D01*
X15745071Y-8566072D01*
X15745071Y-8723214D01*
X15887928Y-8723214D02*
X15887928Y-8523214D01*
X15887928Y-8551786D02*
X15902214Y-8537500D01*
X15930786Y-8523214D01*
X15973643Y-8523214D01*
X16002214Y-8537500D01*
X16016500Y-8566072D01*
X16016500Y-8723214D01*
X16016500Y-8566072D02*
X16030786Y-8537500D01*
X16059357Y-8523214D01*
X16102214Y-8523214D01*
X16130786Y-8537500D01*
X16145071Y-8566072D01*
X16145071Y-8723214D01*
X16730786Y-8408929D02*
X16473643Y-8794643D01*
X17116500Y-8423214D02*
X17145071Y-8423214D01*
X17173643Y-8437500D01*
X17187928Y-8451786D01*
X17202214Y-8480357D01*
X17216500Y-8537500D01*
X17216500Y-8608929D01*
X17202214Y-8666072D01*
X17187928Y-8694643D01*
X17173643Y-8708929D01*
X17145071Y-8723214D01*
X17116500Y-8723214D01*
X17087928Y-8708929D01*
X17073643Y-8694643D01*
X17059357Y-8666072D01*
X17045071Y-8608929D01*
X17045071Y-8537500D01*
X17059357Y-8480357D01*
X17073643Y-8451786D01*
X17087928Y-8437500D01*
X17116500Y-8423214D01*
X17345071Y-8694643D02*
X17359357Y-8708929D01*
X17345071Y-8723214D01*
X17330786Y-8708929D01*
X17345071Y-8694643D01*
X17345071Y-8723214D01*
X17545071Y-8423214D02*
X17573643Y-8423214D01*
X17602214Y-8437500D01*
X17616500Y-8451786D01*
X17630786Y-8480357D01*
X17645071Y-8537500D01*
X17645071Y-8608929D01*
X17630786Y-8666072D01*
X17616500Y-8694643D01*
X17602214Y-8708929D01*
X17573643Y-8723214D01*
X17545071Y-8723214D01*
X17516500Y-8708929D01*
X17502214Y-8694643D01*
X17487928Y-8666072D01*
X17473643Y-8608929D01*
X17473643Y-8537500D01*
X17487928Y-8480357D01*
X17502214Y-8451786D01*
X17516500Y-8437500D01*
X17545071Y-8423214D01*
X17745071Y-8423214D02*
X17930786Y-8423214D01*
X17830786Y-8537500D01*
X17873643Y-8537500D01*
X17902214Y-8551786D01*
X17916500Y-8566072D01*
X17930786Y-8594643D01*
X17930786Y-8666072D01*
X17916500Y-8694643D01*
X17902214Y-8708929D01*
X17873643Y-8723214D01*
X17787928Y-8723214D01*
X17759357Y-8708929D01*
X17745071Y-8694643D01*
X18216500Y-8723214D02*
X18045071Y-8723214D01*
X18130786Y-8723214D02*
X18130786Y-8423214D01*
X18102214Y-8466072D01*
X18073643Y-8494643D01*
X18045071Y-8508929D01*
X18330786Y-8423214D02*
X18330786Y-8480357D01*
X18445071Y-8423214D02*
X18445071Y-8480357D01*
X18887928Y-8837500D02*
X18873643Y-8823214D01*
X18845071Y-8780357D01*
X18830786Y-8751786D01*
X18816500Y-8708929D01*
X18802214Y-8637500D01*
X18802214Y-8580357D01*
X18816500Y-8508929D01*
X18830786Y-8466072D01*
X18845071Y-8437500D01*
X18873643Y-8394643D01*
X18887928Y-8380357D01*
X19045071Y-8551786D02*
X19016500Y-8537500D01*
X19002214Y-8523214D01*
X18987928Y-8494643D01*
X18987928Y-8480357D01*
X19002214Y-8451786D01*
X19016500Y-8437500D01*
X19045071Y-8423214D01*
X19102214Y-8423214D01*
X19130786Y-8437500D01*
X19145071Y-8451786D01*
X19159357Y-8480357D01*
X19159357Y-8494643D01*
X19145071Y-8523214D01*
X19130786Y-8537500D01*
X19102214Y-8551786D01*
X19045071Y-8551786D01*
X19016500Y-8566072D01*
X19002214Y-8580357D01*
X18987928Y-8608929D01*
X18987928Y-8666072D01*
X19002214Y-8694643D01*
X19016500Y-8708929D01*
X19045071Y-8723214D01*
X19102214Y-8723214D01*
X19130786Y-8708929D01*
X19145071Y-8694643D01*
X19159357Y-8666072D01*
X19159357Y-8608929D01*
X19145071Y-8580357D01*
X19130786Y-8566072D01*
X19102214Y-8551786D01*
X19516500Y-8723214D02*
X19516500Y-8423214D01*
X19645071Y-8723214D02*
X19645071Y-8566072D01*
X19630786Y-8537500D01*
X19602214Y-8523214D01*
X19559357Y-8523214D01*
X19530786Y-8537500D01*
X19516500Y-8551786D01*
X19830786Y-8723214D02*
X19802214Y-8708929D01*
X19787928Y-8694643D01*
X19773643Y-8666072D01*
X19773643Y-8580357D01*
X19787928Y-8551786D01*
X19802214Y-8537500D01*
X19830786Y-8523214D01*
X19873643Y-8523214D01*
X19902214Y-8537500D01*
X19916500Y-8551786D01*
X19930786Y-8580357D01*
X19930786Y-8666072D01*
X19916500Y-8694643D01*
X19902214Y-8708929D01*
X19873643Y-8723214D01*
X19830786Y-8723214D01*
X20102214Y-8723214D02*
X20073643Y-8708929D01*
X20059357Y-8680357D01*
X20059357Y-8423214D01*
X20330786Y-8708929D02*
X20302214Y-8723214D01*
X20245071Y-8723214D01*
X20216500Y-8708929D01*
X20202214Y-8680357D01*
X20202214Y-8566072D01*
X20216500Y-8537500D01*
X20245071Y-8523214D01*
X20302214Y-8523214D01*
X20330786Y-8537500D01*
X20345071Y-8566072D01*
X20345071Y-8594643D01*
X20202214Y-8623214D01*
X20459357Y-8708929D02*
X20487929Y-8723214D01*
X20545071Y-8723214D01*
X20573643Y-8708929D01*
X20587929Y-8680357D01*
X20587929Y-8666072D01*
X20573643Y-8637500D01*
X20545071Y-8623214D01*
X20502214Y-8623214D01*
X20473643Y-8608929D01*
X20459357Y-8580357D01*
X20459357Y-8566072D01*
X20473643Y-8537500D01*
X20502214Y-8523214D01*
X20545071Y-8523214D01*
X20573643Y-8537500D01*
X20687928Y-8837500D02*
X20702214Y-8823214D01*
X20730786Y-8780357D01*
X20745071Y-8751786D01*
X20759357Y-8708929D01*
X20773643Y-8637500D01*
X20773643Y-8580357D01*
X20759357Y-8508929D01*
X20745071Y-8466072D01*
X20730786Y-8437500D01*
X20702214Y-8394643D01*
X20687928Y-8380357D01*
X14216500Y-8983500D02*
G75*
G03X14216500Y-8983500I-50038J0D01*
G01*
X14645071Y-9119214D02*
X14473643Y-9119214D01*
X14559357Y-9119214D02*
X14559357Y-8819214D01*
X14530786Y-8862072D01*
X14502214Y-8890643D01*
X14473643Y-8904929D01*
X14773643Y-9090643D02*
X14787928Y-9104929D01*
X14773643Y-9119214D01*
X14759357Y-9104929D01*
X14773643Y-9090643D01*
X14773643Y-9119214D01*
X14973643Y-8819214D02*
X15002214Y-8819214D01*
X15030786Y-8833500D01*
X15045071Y-8847786D01*
X15059357Y-8876357D01*
X15073643Y-8933500D01*
X15073643Y-9004929D01*
X15059357Y-9062072D01*
X15045071Y-9090643D01*
X15030786Y-9104929D01*
X15002214Y-9119214D01*
X14973643Y-9119214D01*
X14945071Y-9104929D01*
X14930786Y-9090643D01*
X14916500Y-9062072D01*
X14902214Y-9004929D01*
X14902214Y-8933500D01*
X14916500Y-8876357D01*
X14930786Y-8847786D01*
X14945071Y-8833500D01*
X14973643Y-8819214D01*
X15259357Y-8819214D02*
X15287928Y-8819214D01*
X15316500Y-8833500D01*
X15330786Y-8847786D01*
X15345071Y-8876357D01*
X15359357Y-8933500D01*
X15359357Y-9004929D01*
X15345071Y-9062072D01*
X15330786Y-9090643D01*
X15316500Y-9104929D01*
X15287928Y-9119214D01*
X15259357Y-9119214D01*
X15230786Y-9104929D01*
X15216500Y-9090643D01*
X15202214Y-9062072D01*
X15187928Y-9004929D01*
X15187928Y-8933500D01*
X15202214Y-8876357D01*
X15216500Y-8847786D01*
X15230786Y-8833500D01*
X15259357Y-8819214D01*
X15487928Y-9119214D02*
X15487928Y-8919214D01*
X15487928Y-8947786D02*
X15502214Y-8933500D01*
X15530786Y-8919214D01*
X15573643Y-8919214D01*
X15602214Y-8933500D01*
X15616500Y-8962072D01*
X15616500Y-9119214D01*
X15616500Y-8962072D02*
X15630786Y-8933500D01*
X15659357Y-8919214D01*
X15702214Y-8919214D01*
X15730786Y-8933500D01*
X15745071Y-8962072D01*
X15745071Y-9119214D01*
X15887928Y-9119214D02*
X15887928Y-8919214D01*
X15887928Y-8947786D02*
X15902214Y-8933500D01*
X15930786Y-8919214D01*
X15973643Y-8919214D01*
X16002214Y-8933500D01*
X16016500Y-8962072D01*
X16016500Y-9119214D01*
X16016500Y-8962072D02*
X16030786Y-8933500D01*
X16059357Y-8919214D01*
X16102214Y-8919214D01*
X16130786Y-8933500D01*
X16145071Y-8962072D01*
X16145071Y-9119214D01*
X16730786Y-8804929D02*
X16473643Y-9190643D01*
X17116500Y-8819214D02*
X17145071Y-8819214D01*
X17173643Y-8833500D01*
X17187928Y-8847786D01*
X17202214Y-8876357D01*
X17216500Y-8933500D01*
X17216500Y-9004929D01*
X17202214Y-9062072D01*
X17187928Y-9090643D01*
X17173643Y-9104929D01*
X17145071Y-9119214D01*
X17116500Y-9119214D01*
X17087928Y-9104929D01*
X17073643Y-9090643D01*
X17059357Y-9062072D01*
X17045071Y-9004929D01*
X17045071Y-8933500D01*
X17059357Y-8876357D01*
X17073643Y-8847786D01*
X17087928Y-8833500D01*
X17116500Y-8819214D01*
X17345071Y-9090643D02*
X17359357Y-9104929D01*
X17345071Y-9119214D01*
X17330786Y-9104929D01*
X17345071Y-9090643D01*
X17345071Y-9119214D01*
X17545071Y-8819214D02*
X17573643Y-8819214D01*
X17602214Y-8833500D01*
X17616500Y-8847786D01*
X17630786Y-8876357D01*
X17645071Y-8933500D01*
X17645071Y-9004929D01*
X17630786Y-9062072D01*
X17616500Y-9090643D01*
X17602214Y-9104929D01*
X17573643Y-9119214D01*
X17545071Y-9119214D01*
X17516500Y-9104929D01*
X17502214Y-9090643D01*
X17487928Y-9062072D01*
X17473643Y-9004929D01*
X17473643Y-8933500D01*
X17487928Y-8876357D01*
X17502214Y-8847786D01*
X17516500Y-8833500D01*
X17545071Y-8819214D01*
X17745071Y-8819214D02*
X17930786Y-8819214D01*
X17830786Y-8933500D01*
X17873643Y-8933500D01*
X17902214Y-8947786D01*
X17916500Y-8962072D01*
X17930786Y-8990643D01*
X17930786Y-9062072D01*
X17916500Y-9090643D01*
X17902214Y-9104929D01*
X17873643Y-9119214D01*
X17787928Y-9119214D01*
X17759357Y-9104929D01*
X17745071Y-9090643D01*
X18073643Y-9119214D02*
X18130786Y-9119214D01*
X18159357Y-9104929D01*
X18173643Y-9090643D01*
X18202214Y-9047786D01*
X18216500Y-8990643D01*
X18216500Y-8876357D01*
X18202214Y-8847786D01*
X18187928Y-8833500D01*
X18159357Y-8819214D01*
X18102214Y-8819214D01*
X18073643Y-8833500D01*
X18059357Y-8847786D01*
X18045071Y-8876357D01*
X18045071Y-8947786D01*
X18059357Y-8976357D01*
X18073643Y-8990643D01*
X18102214Y-9004929D01*
X18159357Y-9004929D01*
X18187928Y-8990643D01*
X18202214Y-8976357D01*
X18216500Y-8947786D01*
X18330786Y-8819214D02*
X18330786Y-8876357D01*
X18445071Y-8819214D02*
X18445071Y-8876357D01*
X18887928Y-9233500D02*
X18873643Y-9219214D01*
X18845071Y-9176357D01*
X18830786Y-9147786D01*
X18816500Y-9104929D01*
X18802214Y-9033500D01*
X18802214Y-8976357D01*
X18816500Y-8904929D01*
X18830786Y-8862072D01*
X18845071Y-8833500D01*
X18873643Y-8790643D01*
X18887928Y-8776357D01*
X19130786Y-8819214D02*
X19073643Y-8819214D01*
X19045071Y-8833500D01*
X19030786Y-8847786D01*
X19002214Y-8890643D01*
X18987928Y-8947786D01*
X18987928Y-9062072D01*
X19002214Y-9090643D01*
X19016500Y-9104929D01*
X19045071Y-9119214D01*
X19102214Y-9119214D01*
X19130786Y-9104929D01*
X19145071Y-9090643D01*
X19159357Y-9062072D01*
X19159357Y-8990643D01*
X19145071Y-8962072D01*
X19130786Y-8947786D01*
X19102214Y-8933500D01*
X19045071Y-8933500D01*
X19016500Y-8947786D01*
X19002214Y-8962072D01*
X18987928Y-8990643D01*
X19516500Y-9119214D02*
X19516500Y-8819214D01*
X19645071Y-9119214D02*
X19645071Y-8962072D01*
X19630786Y-8933500D01*
X19602214Y-8919214D01*
X19559357Y-8919214D01*
X19530786Y-8933500D01*
X19516500Y-8947786D01*
X19830786Y-9119214D02*
X19802214Y-9104929D01*
X19787928Y-9090643D01*
X19773643Y-9062072D01*
X19773643Y-8976357D01*
X19787928Y-8947786D01*
X19802214Y-8933500D01*
X19830786Y-8919214D01*
X19873643Y-8919214D01*
X19902214Y-8933500D01*
X19916500Y-8947786D01*
X19930786Y-8976357D01*
X19930786Y-9062072D01*
X19916500Y-9090643D01*
X19902214Y-9104929D01*
X19873643Y-9119214D01*
X19830786Y-9119214D01*
X20102214Y-9119214D02*
X20073643Y-9104929D01*
X20059357Y-9076357D01*
X20059357Y-8819214D01*
X20330786Y-9104929D02*
X20302214Y-9119214D01*
X20245071Y-9119214D01*
X20216500Y-9104929D01*
X20202214Y-9076357D01*
X20202214Y-8962072D01*
X20216500Y-8933500D01*
X20245071Y-8919214D01*
X20302214Y-8919214D01*
X20330786Y-8933500D01*
X20345071Y-8962072D01*
X20345071Y-8990643D01*
X20202214Y-9019214D01*
X20459357Y-9104929D02*
X20487929Y-9119214D01*
X20545071Y-9119214D01*
X20573643Y-9104929D01*
X20587929Y-9076357D01*
X20587929Y-9062072D01*
X20573643Y-9033500D01*
X20545071Y-9019214D01*
X20502214Y-9019214D01*
X20473643Y-9004929D01*
X20459357Y-8976357D01*
X20459357Y-8962072D01*
X20473643Y-8933500D01*
X20502214Y-8919214D01*
X20545071Y-8919214D01*
X20573643Y-8933500D01*
X20687928Y-9233500D02*
X20702214Y-9219214D01*
X20730786Y-9176357D01*
X20745071Y-9147786D01*
X20759357Y-9104929D01*
X20773643Y-9033500D01*
X20773643Y-8976357D01*
X20759357Y-8904929D01*
X20745071Y-8862072D01*
X20730786Y-8833500D01*
X20702214Y-8790643D01*
X20687928Y-8776357D01*
X14165700Y-9328700D02*
X14165700Y-9430300D01*
X14114900Y-9379500D02*
X14216500Y-9379500D01*
X14645071Y-9515214D02*
X14473643Y-9515214D01*
X14559357Y-9515214D02*
X14559357Y-9215214D01*
X14530786Y-9258072D01*
X14502214Y-9286643D01*
X14473643Y-9300929D01*
X14773643Y-9486643D02*
X14787928Y-9500929D01*
X14773643Y-9515214D01*
X14759357Y-9500929D01*
X14773643Y-9486643D01*
X14773643Y-9515214D01*
X14973643Y-9215214D02*
X15002214Y-9215214D01*
X15030786Y-9229500D01*
X15045071Y-9243786D01*
X15059357Y-9272357D01*
X15073643Y-9329500D01*
X15073643Y-9400929D01*
X15059357Y-9458072D01*
X15045071Y-9486643D01*
X15030786Y-9500929D01*
X15002214Y-9515214D01*
X14973643Y-9515214D01*
X14945071Y-9500929D01*
X14930786Y-9486643D01*
X14916500Y-9458072D01*
X14902214Y-9400929D01*
X14902214Y-9329500D01*
X14916500Y-9272357D01*
X14930786Y-9243786D01*
X14945071Y-9229500D01*
X14973643Y-9215214D01*
X15187928Y-9243786D02*
X15202214Y-9229500D01*
X15230786Y-9215214D01*
X15302214Y-9215214D01*
X15330786Y-9229500D01*
X15345071Y-9243786D01*
X15359357Y-9272357D01*
X15359357Y-9300929D01*
X15345071Y-9343786D01*
X15173643Y-9515214D01*
X15359357Y-9515214D01*
X15487928Y-9515214D02*
X15487928Y-9315214D01*
X15487928Y-9343786D02*
X15502214Y-9329500D01*
X15530786Y-9315214D01*
X15573643Y-9315214D01*
X15602214Y-9329500D01*
X15616500Y-9358072D01*
X15616500Y-9515214D01*
X15616500Y-9358072D02*
X15630786Y-9329500D01*
X15659357Y-9315214D01*
X15702214Y-9315214D01*
X15730786Y-9329500D01*
X15745071Y-9358072D01*
X15745071Y-9515214D01*
X15887928Y-9515214D02*
X15887928Y-9315214D01*
X15887928Y-9343786D02*
X15902214Y-9329500D01*
X15930786Y-9315214D01*
X15973643Y-9315214D01*
X16002214Y-9329500D01*
X16016500Y-9358072D01*
X16016500Y-9515214D01*
X16016500Y-9358072D02*
X16030786Y-9329500D01*
X16059357Y-9315214D01*
X16102214Y-9315214D01*
X16130786Y-9329500D01*
X16145071Y-9358072D01*
X16145071Y-9515214D01*
X16730786Y-9200929D02*
X16473643Y-9586643D01*
X17116500Y-9215214D02*
X17145071Y-9215214D01*
X17173643Y-9229500D01*
X17187928Y-9243786D01*
X17202214Y-9272357D01*
X17216500Y-9329500D01*
X17216500Y-9400929D01*
X17202214Y-9458072D01*
X17187928Y-9486643D01*
X17173643Y-9500929D01*
X17145071Y-9515214D01*
X17116500Y-9515214D01*
X17087928Y-9500929D01*
X17073643Y-9486643D01*
X17059357Y-9458072D01*
X17045071Y-9400929D01*
X17045071Y-9329500D01*
X17059357Y-9272357D01*
X17073643Y-9243786D01*
X17087928Y-9229500D01*
X17116500Y-9215214D01*
X17345071Y-9486643D02*
X17359357Y-9500929D01*
X17345071Y-9515214D01*
X17330786Y-9500929D01*
X17345071Y-9486643D01*
X17345071Y-9515214D01*
X17545071Y-9215214D02*
X17573643Y-9215214D01*
X17602214Y-9229500D01*
X17616500Y-9243786D01*
X17630786Y-9272357D01*
X17645071Y-9329500D01*
X17645071Y-9400929D01*
X17630786Y-9458072D01*
X17616500Y-9486643D01*
X17602214Y-9500929D01*
X17573643Y-9515214D01*
X17545071Y-9515214D01*
X17516500Y-9500929D01*
X17502214Y-9486643D01*
X17487928Y-9458072D01*
X17473643Y-9400929D01*
X17473643Y-9329500D01*
X17487928Y-9272357D01*
X17502214Y-9243786D01*
X17516500Y-9229500D01*
X17545071Y-9215214D01*
X17902214Y-9315214D02*
X17902214Y-9515214D01*
X17830786Y-9200929D02*
X17759357Y-9415214D01*
X17945071Y-9415214D01*
X18116500Y-9215214D02*
X18145071Y-9215214D01*
X18173643Y-9229500D01*
X18187928Y-9243786D01*
X18202214Y-9272357D01*
X18216500Y-9329500D01*
X18216500Y-9400929D01*
X18202214Y-9458072D01*
X18187928Y-9486643D01*
X18173643Y-9500929D01*
X18145071Y-9515214D01*
X18116500Y-9515214D01*
X18087928Y-9500929D01*
X18073643Y-9486643D01*
X18059357Y-9458072D01*
X18045071Y-9400929D01*
X18045071Y-9329500D01*
X18059357Y-9272357D01*
X18073643Y-9243786D01*
X18087928Y-9229500D01*
X18116500Y-9215214D01*
X18330786Y-9215214D02*
X18330786Y-9272357D01*
X18445071Y-9215214D02*
X18445071Y-9272357D01*
X18887928Y-9629500D02*
X18873643Y-9615214D01*
X18845071Y-9572357D01*
X18830786Y-9543786D01*
X18816500Y-9500929D01*
X18802214Y-9429500D01*
X18802214Y-9372357D01*
X18816500Y-9300929D01*
X18830786Y-9258072D01*
X18845071Y-9229500D01*
X18873643Y-9186643D01*
X18887928Y-9172357D01*
X19130786Y-9215214D02*
X19073643Y-9215214D01*
X19045071Y-9229500D01*
X19030786Y-9243786D01*
X19002214Y-9286643D01*
X18987928Y-9343786D01*
X18987928Y-9458072D01*
X19002214Y-9486643D01*
X19016500Y-9500929D01*
X19045071Y-9515214D01*
X19102214Y-9515214D01*
X19130786Y-9500929D01*
X19145071Y-9486643D01*
X19159357Y-9458072D01*
X19159357Y-9386643D01*
X19145071Y-9358072D01*
X19130786Y-9343786D01*
X19102214Y-9329500D01*
X19045071Y-9329500D01*
X19016500Y-9343786D01*
X19002214Y-9358072D01*
X18987928Y-9386643D01*
X19516500Y-9515214D02*
X19516500Y-9215214D01*
X19645071Y-9515214D02*
X19645071Y-9358072D01*
X19630786Y-9329500D01*
X19602214Y-9315214D01*
X19559357Y-9315214D01*
X19530786Y-9329500D01*
X19516500Y-9343786D01*
X19830786Y-9515214D02*
X19802214Y-9500929D01*
X19787928Y-9486643D01*
X19773643Y-9458072D01*
X19773643Y-9372357D01*
X19787928Y-9343786D01*
X19802214Y-9329500D01*
X19830786Y-9315214D01*
X19873643Y-9315214D01*
X19902214Y-9329500D01*
X19916500Y-9343786D01*
X19930786Y-9372357D01*
X19930786Y-9458072D01*
X19916500Y-9486643D01*
X19902214Y-9500929D01*
X19873643Y-9515214D01*
X19830786Y-9515214D01*
X20102214Y-9515214D02*
X20073643Y-9500929D01*
X20059357Y-9472357D01*
X20059357Y-9215214D01*
X20330786Y-9500929D02*
X20302214Y-9515214D01*
X20245071Y-9515214D01*
X20216500Y-9500929D01*
X20202214Y-9472357D01*
X20202214Y-9358072D01*
X20216500Y-9329500D01*
X20245071Y-9315214D01*
X20302214Y-9315214D01*
X20330786Y-9329500D01*
X20345071Y-9358072D01*
X20345071Y-9386643D01*
X20202214Y-9415214D01*
X20459357Y-9500929D02*
X20487929Y-9515214D01*
X20545071Y-9515214D01*
X20573643Y-9500929D01*
X20587929Y-9472357D01*
X20587929Y-9458072D01*
X20573643Y-9429500D01*
X20545071Y-9415214D01*
X20502214Y-9415214D01*
X20473643Y-9400929D01*
X20459357Y-9372357D01*
X20459357Y-9358072D01*
X20473643Y-9329500D01*
X20502214Y-9315214D01*
X20545071Y-9315214D01*
X20573643Y-9329500D01*
X20687928Y-9629500D02*
X20702214Y-9615214D01*
X20730786Y-9572357D01*
X20745071Y-9543786D01*
X20759357Y-9500929D01*
X20773643Y-9429500D01*
X20773643Y-9372357D01*
X20759357Y-9300929D01*
X20745071Y-9258072D01*
X20730786Y-9229500D01*
X20702214Y-9186643D01*
X20687928Y-9172357D01*
X14198927Y-9817927D02*
X14198927Y-9733073D01*
X14114073Y-9733073D01*
X14114073Y-9817927D01*
X14198927Y-9817927D01*
X14645071Y-9911214D02*
X14473643Y-9911214D01*
X14559357Y-9911214D02*
X14559357Y-9611214D01*
X14530786Y-9654072D01*
X14502214Y-9682643D01*
X14473643Y-9696929D01*
X14773643Y-9882643D02*
X14787928Y-9896929D01*
X14773643Y-9911214D01*
X14759357Y-9896929D01*
X14773643Y-9882643D01*
X14773643Y-9911214D01*
X14902214Y-9639786D02*
X14916500Y-9625500D01*
X14945071Y-9611214D01*
X15016500Y-9611214D01*
X15045071Y-9625500D01*
X15059357Y-9639786D01*
X15073643Y-9668357D01*
X15073643Y-9696929D01*
X15059357Y-9739786D01*
X14887928Y-9911214D01*
X15073643Y-9911214D01*
X15259357Y-9611214D02*
X15287928Y-9611214D01*
X15316500Y-9625500D01*
X15330786Y-9639786D01*
X15345071Y-9668357D01*
X15359357Y-9725500D01*
X15359357Y-9796929D01*
X15345071Y-9854072D01*
X15330786Y-9882643D01*
X15316500Y-9896929D01*
X15287928Y-9911214D01*
X15259357Y-9911214D01*
X15230786Y-9896929D01*
X15216500Y-9882643D01*
X15202214Y-9854072D01*
X15187928Y-9796929D01*
X15187928Y-9725500D01*
X15202214Y-9668357D01*
X15216500Y-9639786D01*
X15230786Y-9625500D01*
X15259357Y-9611214D01*
X15487928Y-9911214D02*
X15487928Y-9711214D01*
X15487928Y-9739786D02*
X15502214Y-9725500D01*
X15530786Y-9711214D01*
X15573643Y-9711214D01*
X15602214Y-9725500D01*
X15616500Y-9754072D01*
X15616500Y-9911214D01*
X15616500Y-9754072D02*
X15630786Y-9725500D01*
X15659357Y-9711214D01*
X15702214Y-9711214D01*
X15730786Y-9725500D01*
X15745071Y-9754072D01*
X15745071Y-9911214D01*
X15887928Y-9911214D02*
X15887928Y-9711214D01*
X15887928Y-9739786D02*
X15902214Y-9725500D01*
X15930786Y-9711214D01*
X15973643Y-9711214D01*
X16002214Y-9725500D01*
X16016500Y-9754072D01*
X16016500Y-9911214D01*
X16016500Y-9754072D02*
X16030786Y-9725500D01*
X16059357Y-9711214D01*
X16102214Y-9711214D01*
X16130786Y-9725500D01*
X16145071Y-9754072D01*
X16145071Y-9911214D01*
X16730786Y-9596929D02*
X16473643Y-9982643D01*
X17116500Y-9611214D02*
X17145071Y-9611214D01*
X17173643Y-9625500D01*
X17187928Y-9639786D01*
X17202214Y-9668357D01*
X17216500Y-9725500D01*
X17216500Y-9796929D01*
X17202214Y-9854072D01*
X17187928Y-9882643D01*
X17173643Y-9896929D01*
X17145071Y-9911214D01*
X17116500Y-9911214D01*
X17087928Y-9896929D01*
X17073643Y-9882643D01*
X17059357Y-9854072D01*
X17045071Y-9796929D01*
X17045071Y-9725500D01*
X17059357Y-9668357D01*
X17073643Y-9639786D01*
X17087928Y-9625500D01*
X17116500Y-9611214D01*
X17345071Y-9882643D02*
X17359357Y-9896929D01*
X17345071Y-9911214D01*
X17330786Y-9896929D01*
X17345071Y-9882643D01*
X17345071Y-9911214D01*
X17545071Y-9611214D02*
X17573643Y-9611214D01*
X17602214Y-9625500D01*
X17616500Y-9639786D01*
X17630786Y-9668357D01*
X17645071Y-9725500D01*
X17645071Y-9796929D01*
X17630786Y-9854072D01*
X17616500Y-9882643D01*
X17602214Y-9896929D01*
X17573643Y-9911214D01*
X17545071Y-9911214D01*
X17516500Y-9896929D01*
X17502214Y-9882643D01*
X17487928Y-9854072D01*
X17473643Y-9796929D01*
X17473643Y-9725500D01*
X17487928Y-9668357D01*
X17502214Y-9639786D01*
X17516500Y-9625500D01*
X17545071Y-9611214D01*
X17902214Y-9711214D02*
X17902214Y-9911214D01*
X17830786Y-9596929D02*
X17759357Y-9811214D01*
X17945071Y-9811214D01*
X18030786Y-9611214D02*
X18230786Y-9611214D01*
X18102214Y-9911214D01*
X18330786Y-9611214D02*
X18330786Y-9668357D01*
X18445071Y-9611214D02*
X18445071Y-9668357D01*
X18887928Y-10025500D02*
X18873643Y-10011214D01*
X18845071Y-9968357D01*
X18830786Y-9939786D01*
X18816500Y-9896929D01*
X18802214Y-9825500D01*
X18802214Y-9768357D01*
X18816500Y-9696929D01*
X18830786Y-9654072D01*
X18845071Y-9625500D01*
X18873643Y-9582643D01*
X18887928Y-9568357D01*
X19145071Y-9611214D02*
X19002214Y-9611214D01*
X18987928Y-9754072D01*
X19002214Y-9739786D01*
X19030786Y-9725500D01*
X19102214Y-9725500D01*
X19130786Y-9739786D01*
X19145071Y-9754072D01*
X19159357Y-9782643D01*
X19159357Y-9854072D01*
X19145071Y-9882643D01*
X19130786Y-9896929D01*
X19102214Y-9911214D01*
X19030786Y-9911214D01*
X19002214Y-9896929D01*
X18987928Y-9882643D01*
X19516500Y-9911214D02*
X19516500Y-9611214D01*
X19645071Y-9911214D02*
X19645071Y-9754072D01*
X19630786Y-9725500D01*
X19602214Y-9711214D01*
X19559357Y-9711214D01*
X19530786Y-9725500D01*
X19516500Y-9739786D01*
X19830786Y-9911214D02*
X19802214Y-9896929D01*
X19787928Y-9882643D01*
X19773643Y-9854072D01*
X19773643Y-9768357D01*
X19787928Y-9739786D01*
X19802214Y-9725500D01*
X19830786Y-9711214D01*
X19873643Y-9711214D01*
X19902214Y-9725500D01*
X19916500Y-9739786D01*
X19930786Y-9768357D01*
X19930786Y-9854072D01*
X19916500Y-9882643D01*
X19902214Y-9896929D01*
X19873643Y-9911214D01*
X19830786Y-9911214D01*
X20102214Y-9911214D02*
X20073643Y-9896929D01*
X20059357Y-9868357D01*
X20059357Y-9611214D01*
X20330786Y-9896929D02*
X20302214Y-9911214D01*
X20245071Y-9911214D01*
X20216500Y-9896929D01*
X20202214Y-9868357D01*
X20202214Y-9754072D01*
X20216500Y-9725500D01*
X20245071Y-9711214D01*
X20302214Y-9711214D01*
X20330786Y-9725500D01*
X20345071Y-9754072D01*
X20345071Y-9782643D01*
X20202214Y-9811214D01*
X20459357Y-9896929D02*
X20487929Y-9911214D01*
X20545071Y-9911214D01*
X20573643Y-9896929D01*
X20587929Y-9868357D01*
X20587929Y-9854072D01*
X20573643Y-9825500D01*
X20545071Y-9811214D01*
X20502214Y-9811214D01*
X20473643Y-9796929D01*
X20459357Y-9768357D01*
X20459357Y-9754072D01*
X20473643Y-9725500D01*
X20502214Y-9711214D01*
X20545071Y-9711214D01*
X20573643Y-9725500D01*
X20687928Y-10025500D02*
X20702214Y-10011214D01*
X20730786Y-9968357D01*
X20745071Y-9939786D01*
X20759357Y-9896929D01*
X20773643Y-9825500D01*
X20773643Y-9768357D01*
X20759357Y-9696929D01*
X20745071Y-9654072D01*
X20730786Y-9625500D01*
X20702214Y-9582643D01*
X20687928Y-9568357D01*
M02*
