G04 #@! TF.FileFunction,Copper,L1,Top,Signal*
%FSLAX46Y46*%
G04 Gerber Fmt 4.6, Leading zero omitted, Abs format (unit mm)*
G04 Created by KiCad (PCBNEW 4.0.5+dfsg1-4) date Tue May 16 19:14:59 2017*
%MOMM*%
%LPD*%
G01*
G04 APERTURE LIST*
%ADD10C,0.100000*%
%ADD11O,1.100000X2.300000*%
%ADD12C,1.778000*%
%ADD13R,1.778000X1.778000*%
%ADD14C,1.998980*%
%ADD15C,7.000000*%
%ADD16R,2.000000X4.000000*%
%ADD17O,2.000000X4.000000*%
%ADD18C,0.254000*%
G04 APERTURE END LIST*
D10*
D11*
X173990000Y-133350000D03*
X176530000Y-133350000D03*
X176530000Y-125730000D03*
X173990000Y-125730000D03*
D12*
X173990000Y-121920000D03*
D13*
X163830000Y-121920000D03*
D12*
X191770000Y-121920000D03*
D13*
X181610000Y-121920000D03*
D11*
X179070000Y-133350000D03*
X181610000Y-133350000D03*
X181610000Y-125730000D03*
X179070000Y-125730000D03*
D12*
X177800000Y-109220000D03*
D13*
X177800000Y-119380000D03*
D14*
X182801260Y-92710000D03*
X172641260Y-92710000D03*
D15*
X162560000Y-133350000D03*
X193040000Y-133350000D03*
X193040000Y-83820000D03*
X162560000Y-83820000D03*
D16*
X170180000Y-83820000D03*
D17*
X175260000Y-83820000D03*
X180340000Y-83820000D03*
X185420000Y-83820000D03*
D18*
G36*
X176911000Y-121112201D02*
X178689000Y-121112201D01*
X178943000Y-121064408D01*
X178943000Y-122555000D01*
X178953006Y-122604410D01*
X178981447Y-122646035D01*
X179023841Y-122673315D01*
X179070000Y-122682000D01*
X179877799Y-122682000D01*
X179877799Y-122809000D01*
X179935465Y-123115468D01*
X180116587Y-123396939D01*
X180392948Y-123585769D01*
X180721000Y-123652201D01*
X182499000Y-123652201D01*
X182805468Y-123594535D01*
X183086939Y-123413413D01*
X183275769Y-123137052D01*
X183342201Y-122809000D01*
X183342201Y-122682000D01*
X190423601Y-122682000D01*
X190442461Y-122727533D01*
X190697804Y-122812591D01*
X190828395Y-122682000D01*
X191187605Y-122682000D01*
X190877409Y-122992196D01*
X190962467Y-123247539D01*
X191531965Y-123455516D01*
X192137700Y-123429723D01*
X192577533Y-123247539D01*
X192662591Y-122992196D01*
X192352395Y-122682000D01*
X192711605Y-122682000D01*
X192842196Y-122812591D01*
X193097539Y-122727533D01*
X193114167Y-122682000D01*
X196723000Y-122682000D01*
X196723000Y-131427051D01*
X196566750Y-131039855D01*
X196523924Y-130975762D01*
X195997312Y-130572293D01*
X193219605Y-133350000D01*
X195997312Y-136127707D01*
X196523924Y-135724238D01*
X196723000Y-135255785D01*
X196723000Y-137033000D01*
X194962949Y-137033000D01*
X195350145Y-136876750D01*
X195414238Y-136833924D01*
X195817707Y-136307312D01*
X193040000Y-133529605D01*
X190262293Y-136307312D01*
X190665762Y-136833924D01*
X191134215Y-137033000D01*
X164482949Y-137033000D01*
X164870145Y-136876750D01*
X164934238Y-136833924D01*
X165337707Y-136307312D01*
X162560000Y-133529605D01*
X159782293Y-136307312D01*
X160185762Y-136833924D01*
X160654215Y-137033000D01*
X158877000Y-137033000D01*
X158877000Y-135272949D01*
X159033250Y-135660145D01*
X159076076Y-135724238D01*
X159602688Y-136127707D01*
X162380395Y-133350000D01*
X162739605Y-133350000D01*
X165517312Y-136127707D01*
X166043924Y-135724238D01*
X166687307Y-134210270D01*
X166701011Y-132711268D01*
X172613000Y-132711268D01*
X172613000Y-133988732D01*
X172717818Y-134515687D01*
X173016314Y-134962418D01*
X173463045Y-135260914D01*
X173990000Y-135365732D01*
X174516955Y-135260914D01*
X174963686Y-134962418D01*
X175260000Y-134518953D01*
X175556314Y-134962418D01*
X176003045Y-135260914D01*
X176530000Y-135365732D01*
X177056955Y-135260914D01*
X177503686Y-134962418D01*
X177800000Y-134518953D01*
X178096314Y-134962418D01*
X178543045Y-135260914D01*
X179070000Y-135365732D01*
X179596955Y-135260914D01*
X180043686Y-134962418D01*
X180340000Y-134518953D01*
X180636314Y-134962418D01*
X181083045Y-135260914D01*
X181610000Y-135365732D01*
X182136955Y-135260914D01*
X182583686Y-134962418D01*
X182882182Y-134515687D01*
X182957971Y-134134666D01*
X188897654Y-134134666D01*
X189513250Y-135660145D01*
X189556076Y-135724238D01*
X190082688Y-136127707D01*
X192860395Y-133350000D01*
X190082688Y-130572293D01*
X189556076Y-130975762D01*
X188912693Y-132489730D01*
X188897654Y-134134666D01*
X182957971Y-134134666D01*
X182987000Y-133988732D01*
X182987000Y-132711268D01*
X182882182Y-132184313D01*
X182583686Y-131737582D01*
X182136955Y-131439086D01*
X181610000Y-131334268D01*
X181083045Y-131439086D01*
X180636314Y-131737582D01*
X180340000Y-132181047D01*
X180043686Y-131737582D01*
X179596955Y-131439086D01*
X179070000Y-131334268D01*
X178543045Y-131439086D01*
X178096314Y-131737582D01*
X177800000Y-132181047D01*
X177503686Y-131737582D01*
X177056955Y-131439086D01*
X176530000Y-131334268D01*
X176003045Y-131439086D01*
X175556314Y-131737582D01*
X175260000Y-132181047D01*
X174963686Y-131737582D01*
X174516955Y-131439086D01*
X173990000Y-131334268D01*
X173463045Y-131439086D01*
X173016314Y-131737582D01*
X172717818Y-132184313D01*
X172613000Y-132711268D01*
X166701011Y-132711268D01*
X166702346Y-132565334D01*
X166086750Y-131039855D01*
X166043924Y-130975762D01*
X165517312Y-130572293D01*
X162739605Y-133350000D01*
X162380395Y-133350000D01*
X159602688Y-130572293D01*
X159076076Y-130975762D01*
X158877000Y-131444215D01*
X158877000Y-130392688D01*
X159782293Y-130392688D01*
X162560000Y-133170395D01*
X165337707Y-130392688D01*
X190262293Y-130392688D01*
X193040000Y-133170395D01*
X195817707Y-130392688D01*
X195414238Y-129866076D01*
X193900270Y-129222693D01*
X192255334Y-129207654D01*
X190729855Y-129823250D01*
X190665762Y-129866076D01*
X190262293Y-130392688D01*
X165337707Y-130392688D01*
X164934238Y-129866076D01*
X163420270Y-129222693D01*
X161775334Y-129207654D01*
X160249855Y-129823250D01*
X160185762Y-129866076D01*
X159782293Y-130392688D01*
X158877000Y-130392688D01*
X158877000Y-125091268D01*
X172613000Y-125091268D01*
X172613000Y-126368732D01*
X172717818Y-126895687D01*
X173016314Y-127342418D01*
X173463045Y-127640914D01*
X173990000Y-127745732D01*
X174516955Y-127640914D01*
X174963686Y-127342418D01*
X175260000Y-126898953D01*
X175556314Y-127342418D01*
X176003045Y-127640914D01*
X176530000Y-127745732D01*
X177056955Y-127640914D01*
X177503686Y-127342418D01*
X177800000Y-126898953D01*
X178096314Y-127342418D01*
X178543045Y-127640914D01*
X179070000Y-127745732D01*
X179596955Y-127640914D01*
X180043686Y-127342418D01*
X180340000Y-126898953D01*
X180636314Y-127342418D01*
X181083045Y-127640914D01*
X181610000Y-127745732D01*
X182136955Y-127640914D01*
X182583686Y-127342418D01*
X182882182Y-126895687D01*
X182987000Y-126368732D01*
X182987000Y-125091268D01*
X182882182Y-124564313D01*
X182583686Y-124117582D01*
X182136955Y-123819086D01*
X181610000Y-123714268D01*
X181083045Y-123819086D01*
X180636314Y-124117582D01*
X180340000Y-124561047D01*
X180043686Y-124117582D01*
X179596955Y-123819086D01*
X179070000Y-123714268D01*
X178543045Y-123819086D01*
X178096314Y-124117582D01*
X177800000Y-124561047D01*
X177503686Y-124117582D01*
X177056955Y-123819086D01*
X176530000Y-123714268D01*
X176003045Y-123819086D01*
X175556314Y-124117582D01*
X175260000Y-124561047D01*
X174963686Y-124117582D01*
X174516955Y-123819086D01*
X173990000Y-123714268D01*
X173463045Y-123819086D01*
X173016314Y-124117582D01*
X172717818Y-124564313D01*
X172613000Y-125091268D01*
X158877000Y-125091268D01*
X158877000Y-122682000D01*
X162097799Y-122682000D01*
X162097799Y-122809000D01*
X162155465Y-123115468D01*
X162336587Y-123396939D01*
X162612948Y-123585769D01*
X162941000Y-123652201D01*
X164719000Y-123652201D01*
X165025468Y-123594535D01*
X165306939Y-123413413D01*
X165495769Y-123137052D01*
X165562201Y-122809000D01*
X165562201Y-122682000D01*
X172643601Y-122682000D01*
X172662461Y-122727533D01*
X172917804Y-122812591D01*
X173048395Y-122682000D01*
X173407605Y-122682000D01*
X173097409Y-122992196D01*
X173182467Y-123247539D01*
X173751965Y-123455516D01*
X174357700Y-123429723D01*
X174797533Y-123247539D01*
X174882591Y-122992196D01*
X174572395Y-122682000D01*
X174931605Y-122682000D01*
X175062196Y-122812591D01*
X175317539Y-122727533D01*
X175334167Y-122682000D01*
X176530000Y-122682000D01*
X176579410Y-122671994D01*
X176621035Y-122643553D01*
X176648315Y-122601159D01*
X176657000Y-122555000D01*
X176657000Y-121060765D01*
X176911000Y-121112201D01*
X176911000Y-121112201D01*
G37*
X176911000Y-121112201D02*
X178689000Y-121112201D01*
X178943000Y-121064408D01*
X178943000Y-122555000D01*
X178953006Y-122604410D01*
X178981447Y-122646035D01*
X179023841Y-122673315D01*
X179070000Y-122682000D01*
X179877799Y-122682000D01*
X179877799Y-122809000D01*
X179935465Y-123115468D01*
X180116587Y-123396939D01*
X180392948Y-123585769D01*
X180721000Y-123652201D01*
X182499000Y-123652201D01*
X182805468Y-123594535D01*
X183086939Y-123413413D01*
X183275769Y-123137052D01*
X183342201Y-122809000D01*
X183342201Y-122682000D01*
X190423601Y-122682000D01*
X190442461Y-122727533D01*
X190697804Y-122812591D01*
X190828395Y-122682000D01*
X191187605Y-122682000D01*
X190877409Y-122992196D01*
X190962467Y-123247539D01*
X191531965Y-123455516D01*
X192137700Y-123429723D01*
X192577533Y-123247539D01*
X192662591Y-122992196D01*
X192352395Y-122682000D01*
X192711605Y-122682000D01*
X192842196Y-122812591D01*
X193097539Y-122727533D01*
X193114167Y-122682000D01*
X196723000Y-122682000D01*
X196723000Y-131427051D01*
X196566750Y-131039855D01*
X196523924Y-130975762D01*
X195997312Y-130572293D01*
X193219605Y-133350000D01*
X195997312Y-136127707D01*
X196523924Y-135724238D01*
X196723000Y-135255785D01*
X196723000Y-137033000D01*
X194962949Y-137033000D01*
X195350145Y-136876750D01*
X195414238Y-136833924D01*
X195817707Y-136307312D01*
X193040000Y-133529605D01*
X190262293Y-136307312D01*
X190665762Y-136833924D01*
X191134215Y-137033000D01*
X164482949Y-137033000D01*
X164870145Y-136876750D01*
X164934238Y-136833924D01*
X165337707Y-136307312D01*
X162560000Y-133529605D01*
X159782293Y-136307312D01*
X160185762Y-136833924D01*
X160654215Y-137033000D01*
X158877000Y-137033000D01*
X158877000Y-135272949D01*
X159033250Y-135660145D01*
X159076076Y-135724238D01*
X159602688Y-136127707D01*
X162380395Y-133350000D01*
X162739605Y-133350000D01*
X165517312Y-136127707D01*
X166043924Y-135724238D01*
X166687307Y-134210270D01*
X166701011Y-132711268D01*
X172613000Y-132711268D01*
X172613000Y-133988732D01*
X172717818Y-134515687D01*
X173016314Y-134962418D01*
X173463045Y-135260914D01*
X173990000Y-135365732D01*
X174516955Y-135260914D01*
X174963686Y-134962418D01*
X175260000Y-134518953D01*
X175556314Y-134962418D01*
X176003045Y-135260914D01*
X176530000Y-135365732D01*
X177056955Y-135260914D01*
X177503686Y-134962418D01*
X177800000Y-134518953D01*
X178096314Y-134962418D01*
X178543045Y-135260914D01*
X179070000Y-135365732D01*
X179596955Y-135260914D01*
X180043686Y-134962418D01*
X180340000Y-134518953D01*
X180636314Y-134962418D01*
X181083045Y-135260914D01*
X181610000Y-135365732D01*
X182136955Y-135260914D01*
X182583686Y-134962418D01*
X182882182Y-134515687D01*
X182957971Y-134134666D01*
X188897654Y-134134666D01*
X189513250Y-135660145D01*
X189556076Y-135724238D01*
X190082688Y-136127707D01*
X192860395Y-133350000D01*
X190082688Y-130572293D01*
X189556076Y-130975762D01*
X188912693Y-132489730D01*
X188897654Y-134134666D01*
X182957971Y-134134666D01*
X182987000Y-133988732D01*
X182987000Y-132711268D01*
X182882182Y-132184313D01*
X182583686Y-131737582D01*
X182136955Y-131439086D01*
X181610000Y-131334268D01*
X181083045Y-131439086D01*
X180636314Y-131737582D01*
X180340000Y-132181047D01*
X180043686Y-131737582D01*
X179596955Y-131439086D01*
X179070000Y-131334268D01*
X178543045Y-131439086D01*
X178096314Y-131737582D01*
X177800000Y-132181047D01*
X177503686Y-131737582D01*
X177056955Y-131439086D01*
X176530000Y-131334268D01*
X176003045Y-131439086D01*
X175556314Y-131737582D01*
X175260000Y-132181047D01*
X174963686Y-131737582D01*
X174516955Y-131439086D01*
X173990000Y-131334268D01*
X173463045Y-131439086D01*
X173016314Y-131737582D01*
X172717818Y-132184313D01*
X172613000Y-132711268D01*
X166701011Y-132711268D01*
X166702346Y-132565334D01*
X166086750Y-131039855D01*
X166043924Y-130975762D01*
X165517312Y-130572293D01*
X162739605Y-133350000D01*
X162380395Y-133350000D01*
X159602688Y-130572293D01*
X159076076Y-130975762D01*
X158877000Y-131444215D01*
X158877000Y-130392688D01*
X159782293Y-130392688D01*
X162560000Y-133170395D01*
X165337707Y-130392688D01*
X190262293Y-130392688D01*
X193040000Y-133170395D01*
X195817707Y-130392688D01*
X195414238Y-129866076D01*
X193900270Y-129222693D01*
X192255334Y-129207654D01*
X190729855Y-129823250D01*
X190665762Y-129866076D01*
X190262293Y-130392688D01*
X165337707Y-130392688D01*
X164934238Y-129866076D01*
X163420270Y-129222693D01*
X161775334Y-129207654D01*
X160249855Y-129823250D01*
X160185762Y-129866076D01*
X159782293Y-130392688D01*
X158877000Y-130392688D01*
X158877000Y-125091268D01*
X172613000Y-125091268D01*
X172613000Y-126368732D01*
X172717818Y-126895687D01*
X173016314Y-127342418D01*
X173463045Y-127640914D01*
X173990000Y-127745732D01*
X174516955Y-127640914D01*
X174963686Y-127342418D01*
X175260000Y-126898953D01*
X175556314Y-127342418D01*
X176003045Y-127640914D01*
X176530000Y-127745732D01*
X177056955Y-127640914D01*
X177503686Y-127342418D01*
X177800000Y-126898953D01*
X178096314Y-127342418D01*
X178543045Y-127640914D01*
X179070000Y-127745732D01*
X179596955Y-127640914D01*
X180043686Y-127342418D01*
X180340000Y-126898953D01*
X180636314Y-127342418D01*
X181083045Y-127640914D01*
X181610000Y-127745732D01*
X182136955Y-127640914D01*
X182583686Y-127342418D01*
X182882182Y-126895687D01*
X182987000Y-126368732D01*
X182987000Y-125091268D01*
X182882182Y-124564313D01*
X182583686Y-124117582D01*
X182136955Y-123819086D01*
X181610000Y-123714268D01*
X181083045Y-123819086D01*
X180636314Y-124117582D01*
X180340000Y-124561047D01*
X180043686Y-124117582D01*
X179596955Y-123819086D01*
X179070000Y-123714268D01*
X178543045Y-123819086D01*
X178096314Y-124117582D01*
X177800000Y-124561047D01*
X177503686Y-124117582D01*
X177056955Y-123819086D01*
X176530000Y-123714268D01*
X176003045Y-123819086D01*
X175556314Y-124117582D01*
X175260000Y-124561047D01*
X174963686Y-124117582D01*
X174516955Y-123819086D01*
X173990000Y-123714268D01*
X173463045Y-123819086D01*
X173016314Y-124117582D01*
X172717818Y-124564313D01*
X172613000Y-125091268D01*
X158877000Y-125091268D01*
X158877000Y-122682000D01*
X162097799Y-122682000D01*
X162097799Y-122809000D01*
X162155465Y-123115468D01*
X162336587Y-123396939D01*
X162612948Y-123585769D01*
X162941000Y-123652201D01*
X164719000Y-123652201D01*
X165025468Y-123594535D01*
X165306939Y-123413413D01*
X165495769Y-123137052D01*
X165562201Y-122809000D01*
X165562201Y-122682000D01*
X172643601Y-122682000D01*
X172662461Y-122727533D01*
X172917804Y-122812591D01*
X173048395Y-122682000D01*
X173407605Y-122682000D01*
X173097409Y-122992196D01*
X173182467Y-123247539D01*
X173751965Y-123455516D01*
X174357700Y-123429723D01*
X174797533Y-123247539D01*
X174882591Y-122992196D01*
X174572395Y-122682000D01*
X174931605Y-122682000D01*
X175062196Y-122812591D01*
X175317539Y-122727533D01*
X175334167Y-122682000D01*
X176530000Y-122682000D01*
X176579410Y-122671994D01*
X176621035Y-122643553D01*
X176648315Y-122601159D01*
X176657000Y-122555000D01*
X176657000Y-121060765D01*
X176911000Y-121112201D01*
G36*
X196723000Y-81897051D02*
X196566750Y-81509855D01*
X196523924Y-81445762D01*
X195997312Y-81042293D01*
X193219605Y-83820000D01*
X195997312Y-86597707D01*
X196523924Y-86194238D01*
X196723000Y-85725785D01*
X196723000Y-92583000D01*
X184627861Y-92583000D01*
X184628066Y-92348283D01*
X184350586Y-91676728D01*
X183837234Y-91162480D01*
X183166165Y-90883828D01*
X182439543Y-90883194D01*
X181767988Y-91160674D01*
X181253740Y-91674026D01*
X180975088Y-92345095D01*
X180974880Y-92583000D01*
X179070000Y-92583000D01*
X179020590Y-92593006D01*
X178978965Y-92621447D01*
X178951685Y-92663841D01*
X178943000Y-92710000D01*
X178943000Y-108350995D01*
X178872196Y-108327409D01*
X177979605Y-109220000D01*
X178872196Y-110112591D01*
X178943000Y-110089005D01*
X178943000Y-117699235D01*
X178689000Y-117647799D01*
X176911000Y-117647799D01*
X176657000Y-117695592D01*
X176657000Y-110292196D01*
X176907409Y-110292196D01*
X176992467Y-110547539D01*
X177561965Y-110755516D01*
X178167700Y-110729723D01*
X178607533Y-110547539D01*
X178692591Y-110292196D01*
X177800000Y-109399605D01*
X176907409Y-110292196D01*
X176657000Y-110292196D01*
X176657000Y-110089005D01*
X176727804Y-110112591D01*
X177620395Y-109220000D01*
X176727804Y-108327409D01*
X176657000Y-108350995D01*
X176657000Y-108147804D01*
X176907409Y-108147804D01*
X177800000Y-109040395D01*
X178692591Y-108147804D01*
X178607533Y-107892461D01*
X178038035Y-107684484D01*
X177432300Y-107710277D01*
X176992467Y-107892461D01*
X176907409Y-108147804D01*
X176657000Y-108147804D01*
X176657000Y-92710000D01*
X176646994Y-92660590D01*
X176618553Y-92618965D01*
X176576159Y-92591685D01*
X176530000Y-92583000D01*
X174467861Y-92583000D01*
X174468066Y-92348283D01*
X174190586Y-91676728D01*
X173677234Y-91162480D01*
X173006165Y-90883828D01*
X172279543Y-90883194D01*
X171607988Y-91160674D01*
X171093740Y-91674026D01*
X170815088Y-92345095D01*
X170814880Y-92583000D01*
X158877000Y-92583000D01*
X158877000Y-86777312D01*
X159782293Y-86777312D01*
X160185762Y-87303924D01*
X161699730Y-87947307D01*
X163344666Y-87962346D01*
X164870145Y-87346750D01*
X164934238Y-87303924D01*
X165337707Y-86777312D01*
X190262293Y-86777312D01*
X190665762Y-87303924D01*
X192179730Y-87947307D01*
X193824666Y-87962346D01*
X195350145Y-87346750D01*
X195414238Y-87303924D01*
X195817707Y-86777312D01*
X193040000Y-83999605D01*
X190262293Y-86777312D01*
X165337707Y-86777312D01*
X162560000Y-83999605D01*
X159782293Y-86777312D01*
X158877000Y-86777312D01*
X158877000Y-85742949D01*
X159033250Y-86130145D01*
X159076076Y-86194238D01*
X159602688Y-86597707D01*
X162380395Y-83820000D01*
X162739605Y-83820000D01*
X165517312Y-86597707D01*
X166043924Y-86194238D01*
X166687307Y-84680270D01*
X166702346Y-83035334D01*
X166211907Y-81820000D01*
X168336799Y-81820000D01*
X168336799Y-85820000D01*
X168394465Y-86126468D01*
X168575587Y-86407939D01*
X168851948Y-86596769D01*
X169180000Y-86663201D01*
X171180000Y-86663201D01*
X171486468Y-86605535D01*
X171767939Y-86424413D01*
X171956769Y-86148052D01*
X172023201Y-85820000D01*
X172023201Y-82764616D01*
X173433000Y-82764616D01*
X173433000Y-84875384D01*
X173572072Y-85574547D01*
X173968116Y-86167268D01*
X174560837Y-86563312D01*
X175260000Y-86702384D01*
X175959163Y-86563312D01*
X176551884Y-86167268D01*
X176947928Y-85574547D01*
X177087000Y-84875384D01*
X177087000Y-83947000D01*
X178705000Y-83947000D01*
X178705000Y-84947000D01*
X178878058Y-85563020D01*
X179273683Y-86065922D01*
X179831645Y-86379144D01*
X179959566Y-86410124D01*
X180213000Y-86290777D01*
X180213000Y-83947000D01*
X180467000Y-83947000D01*
X180467000Y-86290777D01*
X180720434Y-86410124D01*
X180848355Y-86379144D01*
X181406317Y-86065922D01*
X181801942Y-85563020D01*
X181975000Y-84947000D01*
X181975000Y-83947000D01*
X180467000Y-83947000D01*
X180213000Y-83947000D01*
X178705000Y-83947000D01*
X177087000Y-83947000D01*
X177087000Y-82764616D01*
X177072755Y-82693000D01*
X178705000Y-82693000D01*
X178705000Y-83693000D01*
X180213000Y-83693000D01*
X180213000Y-81349223D01*
X180467000Y-81349223D01*
X180467000Y-83693000D01*
X181975000Y-83693000D01*
X181975000Y-82764616D01*
X183593000Y-82764616D01*
X183593000Y-84875384D01*
X183732072Y-85574547D01*
X184128116Y-86167268D01*
X184720837Y-86563312D01*
X185420000Y-86702384D01*
X186119163Y-86563312D01*
X186711884Y-86167268D01*
X187107928Y-85574547D01*
X187247000Y-84875384D01*
X187247000Y-84604666D01*
X188897654Y-84604666D01*
X189513250Y-86130145D01*
X189556076Y-86194238D01*
X190082688Y-86597707D01*
X192860395Y-83820000D01*
X190082688Y-81042293D01*
X189556076Y-81445762D01*
X188912693Y-82959730D01*
X188897654Y-84604666D01*
X187247000Y-84604666D01*
X187247000Y-82764616D01*
X187107928Y-82065453D01*
X186711884Y-81472732D01*
X186119163Y-81076688D01*
X185420000Y-80937616D01*
X184720837Y-81076688D01*
X184128116Y-81472732D01*
X183732072Y-82065453D01*
X183593000Y-82764616D01*
X181975000Y-82764616D01*
X181975000Y-82693000D01*
X181801942Y-82076980D01*
X181406317Y-81574078D01*
X180848355Y-81260856D01*
X180720434Y-81229876D01*
X180467000Y-81349223D01*
X180213000Y-81349223D01*
X179959566Y-81229876D01*
X179831645Y-81260856D01*
X179273683Y-81574078D01*
X178878058Y-82076980D01*
X178705000Y-82693000D01*
X177072755Y-82693000D01*
X176947928Y-82065453D01*
X176551884Y-81472732D01*
X175959163Y-81076688D01*
X175260000Y-80937616D01*
X174560837Y-81076688D01*
X173968116Y-81472732D01*
X173572072Y-82065453D01*
X173433000Y-82764616D01*
X172023201Y-82764616D01*
X172023201Y-81820000D01*
X171965535Y-81513532D01*
X171784413Y-81232061D01*
X171508052Y-81043231D01*
X171180000Y-80976799D01*
X169180000Y-80976799D01*
X168873532Y-81034465D01*
X168592061Y-81215587D01*
X168403231Y-81491948D01*
X168336799Y-81820000D01*
X166211907Y-81820000D01*
X166086750Y-81509855D01*
X166043924Y-81445762D01*
X165517312Y-81042293D01*
X162739605Y-83820000D01*
X162380395Y-83820000D01*
X159602688Y-81042293D01*
X159076076Y-81445762D01*
X158877000Y-81914215D01*
X158877000Y-80862688D01*
X159782293Y-80862688D01*
X162560000Y-83640395D01*
X165337707Y-80862688D01*
X190262293Y-80862688D01*
X193040000Y-83640395D01*
X195817707Y-80862688D01*
X195414238Y-80336076D01*
X193900270Y-79692693D01*
X192255334Y-79677654D01*
X190729855Y-80293250D01*
X190665762Y-80336076D01*
X190262293Y-80862688D01*
X165337707Y-80862688D01*
X164934238Y-80336076D01*
X163420270Y-79692693D01*
X161775334Y-79677654D01*
X160249855Y-80293250D01*
X160185762Y-80336076D01*
X159782293Y-80862688D01*
X158877000Y-80862688D01*
X158877000Y-79642000D01*
X196723000Y-79642000D01*
X196723000Y-81897051D01*
X196723000Y-81897051D01*
G37*
X196723000Y-81897051D02*
X196566750Y-81509855D01*
X196523924Y-81445762D01*
X195997312Y-81042293D01*
X193219605Y-83820000D01*
X195997312Y-86597707D01*
X196523924Y-86194238D01*
X196723000Y-85725785D01*
X196723000Y-92583000D01*
X184627861Y-92583000D01*
X184628066Y-92348283D01*
X184350586Y-91676728D01*
X183837234Y-91162480D01*
X183166165Y-90883828D01*
X182439543Y-90883194D01*
X181767988Y-91160674D01*
X181253740Y-91674026D01*
X180975088Y-92345095D01*
X180974880Y-92583000D01*
X179070000Y-92583000D01*
X179020590Y-92593006D01*
X178978965Y-92621447D01*
X178951685Y-92663841D01*
X178943000Y-92710000D01*
X178943000Y-108350995D01*
X178872196Y-108327409D01*
X177979605Y-109220000D01*
X178872196Y-110112591D01*
X178943000Y-110089005D01*
X178943000Y-117699235D01*
X178689000Y-117647799D01*
X176911000Y-117647799D01*
X176657000Y-117695592D01*
X176657000Y-110292196D01*
X176907409Y-110292196D01*
X176992467Y-110547539D01*
X177561965Y-110755516D01*
X178167700Y-110729723D01*
X178607533Y-110547539D01*
X178692591Y-110292196D01*
X177800000Y-109399605D01*
X176907409Y-110292196D01*
X176657000Y-110292196D01*
X176657000Y-110089005D01*
X176727804Y-110112591D01*
X177620395Y-109220000D01*
X176727804Y-108327409D01*
X176657000Y-108350995D01*
X176657000Y-108147804D01*
X176907409Y-108147804D01*
X177800000Y-109040395D01*
X178692591Y-108147804D01*
X178607533Y-107892461D01*
X178038035Y-107684484D01*
X177432300Y-107710277D01*
X176992467Y-107892461D01*
X176907409Y-108147804D01*
X176657000Y-108147804D01*
X176657000Y-92710000D01*
X176646994Y-92660590D01*
X176618553Y-92618965D01*
X176576159Y-92591685D01*
X176530000Y-92583000D01*
X174467861Y-92583000D01*
X174468066Y-92348283D01*
X174190586Y-91676728D01*
X173677234Y-91162480D01*
X173006165Y-90883828D01*
X172279543Y-90883194D01*
X171607988Y-91160674D01*
X171093740Y-91674026D01*
X170815088Y-92345095D01*
X170814880Y-92583000D01*
X158877000Y-92583000D01*
X158877000Y-86777312D01*
X159782293Y-86777312D01*
X160185762Y-87303924D01*
X161699730Y-87947307D01*
X163344666Y-87962346D01*
X164870145Y-87346750D01*
X164934238Y-87303924D01*
X165337707Y-86777312D01*
X190262293Y-86777312D01*
X190665762Y-87303924D01*
X192179730Y-87947307D01*
X193824666Y-87962346D01*
X195350145Y-87346750D01*
X195414238Y-87303924D01*
X195817707Y-86777312D01*
X193040000Y-83999605D01*
X190262293Y-86777312D01*
X165337707Y-86777312D01*
X162560000Y-83999605D01*
X159782293Y-86777312D01*
X158877000Y-86777312D01*
X158877000Y-85742949D01*
X159033250Y-86130145D01*
X159076076Y-86194238D01*
X159602688Y-86597707D01*
X162380395Y-83820000D01*
X162739605Y-83820000D01*
X165517312Y-86597707D01*
X166043924Y-86194238D01*
X166687307Y-84680270D01*
X166702346Y-83035334D01*
X166211907Y-81820000D01*
X168336799Y-81820000D01*
X168336799Y-85820000D01*
X168394465Y-86126468D01*
X168575587Y-86407939D01*
X168851948Y-86596769D01*
X169180000Y-86663201D01*
X171180000Y-86663201D01*
X171486468Y-86605535D01*
X171767939Y-86424413D01*
X171956769Y-86148052D01*
X172023201Y-85820000D01*
X172023201Y-82764616D01*
X173433000Y-82764616D01*
X173433000Y-84875384D01*
X173572072Y-85574547D01*
X173968116Y-86167268D01*
X174560837Y-86563312D01*
X175260000Y-86702384D01*
X175959163Y-86563312D01*
X176551884Y-86167268D01*
X176947928Y-85574547D01*
X177087000Y-84875384D01*
X177087000Y-83947000D01*
X178705000Y-83947000D01*
X178705000Y-84947000D01*
X178878058Y-85563020D01*
X179273683Y-86065922D01*
X179831645Y-86379144D01*
X179959566Y-86410124D01*
X180213000Y-86290777D01*
X180213000Y-83947000D01*
X180467000Y-83947000D01*
X180467000Y-86290777D01*
X180720434Y-86410124D01*
X180848355Y-86379144D01*
X181406317Y-86065922D01*
X181801942Y-85563020D01*
X181975000Y-84947000D01*
X181975000Y-83947000D01*
X180467000Y-83947000D01*
X180213000Y-83947000D01*
X178705000Y-83947000D01*
X177087000Y-83947000D01*
X177087000Y-82764616D01*
X177072755Y-82693000D01*
X178705000Y-82693000D01*
X178705000Y-83693000D01*
X180213000Y-83693000D01*
X180213000Y-81349223D01*
X180467000Y-81349223D01*
X180467000Y-83693000D01*
X181975000Y-83693000D01*
X181975000Y-82764616D01*
X183593000Y-82764616D01*
X183593000Y-84875384D01*
X183732072Y-85574547D01*
X184128116Y-86167268D01*
X184720837Y-86563312D01*
X185420000Y-86702384D01*
X186119163Y-86563312D01*
X186711884Y-86167268D01*
X187107928Y-85574547D01*
X187247000Y-84875384D01*
X187247000Y-84604666D01*
X188897654Y-84604666D01*
X189513250Y-86130145D01*
X189556076Y-86194238D01*
X190082688Y-86597707D01*
X192860395Y-83820000D01*
X190082688Y-81042293D01*
X189556076Y-81445762D01*
X188912693Y-82959730D01*
X188897654Y-84604666D01*
X187247000Y-84604666D01*
X187247000Y-82764616D01*
X187107928Y-82065453D01*
X186711884Y-81472732D01*
X186119163Y-81076688D01*
X185420000Y-80937616D01*
X184720837Y-81076688D01*
X184128116Y-81472732D01*
X183732072Y-82065453D01*
X183593000Y-82764616D01*
X181975000Y-82764616D01*
X181975000Y-82693000D01*
X181801942Y-82076980D01*
X181406317Y-81574078D01*
X180848355Y-81260856D01*
X180720434Y-81229876D01*
X180467000Y-81349223D01*
X180213000Y-81349223D01*
X179959566Y-81229876D01*
X179831645Y-81260856D01*
X179273683Y-81574078D01*
X178878058Y-82076980D01*
X178705000Y-82693000D01*
X177072755Y-82693000D01*
X176947928Y-82065453D01*
X176551884Y-81472732D01*
X175959163Y-81076688D01*
X175260000Y-80937616D01*
X174560837Y-81076688D01*
X173968116Y-81472732D01*
X173572072Y-82065453D01*
X173433000Y-82764616D01*
X172023201Y-82764616D01*
X172023201Y-81820000D01*
X171965535Y-81513532D01*
X171784413Y-81232061D01*
X171508052Y-81043231D01*
X171180000Y-80976799D01*
X169180000Y-80976799D01*
X168873532Y-81034465D01*
X168592061Y-81215587D01*
X168403231Y-81491948D01*
X168336799Y-81820000D01*
X166211907Y-81820000D01*
X166086750Y-81509855D01*
X166043924Y-81445762D01*
X165517312Y-81042293D01*
X162739605Y-83820000D01*
X162380395Y-83820000D01*
X159602688Y-81042293D01*
X159076076Y-81445762D01*
X158877000Y-81914215D01*
X158877000Y-80862688D01*
X159782293Y-80862688D01*
X162560000Y-83640395D01*
X165337707Y-80862688D01*
X190262293Y-80862688D01*
X193040000Y-83640395D01*
X195817707Y-80862688D01*
X195414238Y-80336076D01*
X193900270Y-79692693D01*
X192255334Y-79677654D01*
X190729855Y-80293250D01*
X190665762Y-80336076D01*
X190262293Y-80862688D01*
X165337707Y-80862688D01*
X164934238Y-80336076D01*
X163420270Y-79692693D01*
X161775334Y-79677654D01*
X160249855Y-80293250D01*
X160185762Y-80336076D01*
X159782293Y-80862688D01*
X158877000Y-80862688D01*
X158877000Y-79642000D01*
X196723000Y-79642000D01*
X196723000Y-81897051D01*
M02*
