G04 #@! TF.FileFunction,Legend,Top*
%FSLAX46Y46*%
G04 Gerber Fmt 4.6, Leading zero omitted, Abs format (unit mm)*
G04 Created by KiCad (PCBNEW 4.0.5+dfsg1-4) date Sun Apr 23 12:29:52 2017*
%MOMM*%
%LPD*%
G01*
G04 APERTURE LIST*
%ADD10C,0.100000*%
%ADD11C,0.150000*%
G04 APERTURE END LIST*
D10*
D11*
X172720000Y-130810000D02*
G75*
G03X172720000Y-128270000I0J1270000D01*
G01*
X172720000Y-133350000D02*
X172720000Y-125730000D01*
X177800000Y-133350000D02*
X177800000Y-125730000D01*
X172720000Y-123190000D02*
X165100000Y-123190000D01*
X165100000Y-123190000D02*
X165100000Y-120650000D01*
X165100000Y-120650000D02*
X172720000Y-120650000D01*
X172720000Y-120650000D02*
X172720000Y-123190000D01*
X165735000Y-123190000D02*
X165735000Y-120650000D01*
X166370000Y-120650000D02*
X166370000Y-123190000D01*
X172720000Y-121920000D02*
X173990000Y-121920000D01*
X165100000Y-121920000D02*
X163830000Y-121920000D01*
X190500000Y-123190000D02*
X182880000Y-123190000D01*
X182880000Y-123190000D02*
X182880000Y-120650000D01*
X182880000Y-120650000D02*
X190500000Y-120650000D01*
X190500000Y-120650000D02*
X190500000Y-123190000D01*
X183515000Y-123190000D02*
X183515000Y-120650000D01*
X184150000Y-120650000D02*
X184150000Y-123190000D01*
X190500000Y-121920000D02*
X191770000Y-121920000D01*
X182880000Y-121920000D02*
X181610000Y-121920000D01*
X177800000Y-130810000D02*
G75*
G03X177800000Y-128270000I0J1270000D01*
G01*
X177800000Y-133350000D02*
X177800000Y-125730000D01*
X182880000Y-133350000D02*
X182880000Y-125730000D01*
X179070000Y-110490000D02*
X179070000Y-118110000D01*
X179070000Y-118110000D02*
X176530000Y-118110000D01*
X176530000Y-118110000D02*
X176530000Y-110490000D01*
X176530000Y-110490000D02*
X179070000Y-110490000D01*
X179070000Y-117475000D02*
X176530000Y-117475000D01*
X176530000Y-116840000D02*
X179070000Y-116840000D01*
X177800000Y-110490000D02*
X177800000Y-109220000D01*
X177800000Y-118110000D02*
X177800000Y-119380000D01*
X180515260Y-92710000D02*
X181277260Y-92710000D01*
X175054260Y-92710000D02*
X174165260Y-92710000D01*
X180515260Y-91440000D02*
X180515260Y-94107000D01*
X180515260Y-94107000D02*
X175054260Y-94107000D01*
X175054260Y-94107000D02*
X175054260Y-91440000D01*
X175054260Y-91440000D02*
X180515260Y-91440000D01*
X167640000Y-77470000D02*
X167640000Y-90170000D01*
X167640000Y-90170000D02*
X187960000Y-90170000D01*
X187960000Y-90170000D02*
X187960000Y-77470000D01*
X187960000Y-77470000D02*
X167640000Y-77470000D01*
X168680000Y-85970000D02*
X168680000Y-81670000D01*
X171680000Y-81670000D02*
X171680000Y-85970000D01*
X173760000Y-85970000D02*
X173760000Y-81670000D01*
X176760000Y-81670000D02*
X176760000Y-85970000D01*
X178840000Y-85970000D02*
X178840000Y-81670000D01*
X181840000Y-81670000D02*
X181840000Y-85970000D01*
X183920000Y-85970000D02*
X183920000Y-81670000D01*
X186920000Y-81670000D02*
X186920000Y-85970000D01*
X170180000Y-78970000D02*
X170480000Y-78370000D01*
X170480000Y-78370000D02*
X169880000Y-78370000D01*
X169880000Y-78370000D02*
X170180000Y-78970000D01*
X158750000Y-95250000D02*
X158750000Y-120015000D01*
X173990000Y-95250000D02*
X158750000Y-95250000D01*
X173990000Y-120015000D02*
X173990000Y-95250000D01*
X158750000Y-120015000D02*
X173990000Y-120015000D01*
X163830000Y-116205000D02*
X168910000Y-116205000D01*
X163830000Y-112395000D02*
X168910000Y-112395000D01*
X163830000Y-112395000D02*
G75*
G03X163830000Y-116205000I0J-1905000D01*
G01*
X168910000Y-111125000D02*
X168910000Y-112395000D01*
X166370000Y-111125000D02*
X166370000Y-112395000D01*
X163830000Y-111125000D02*
X163830000Y-112395000D01*
X162560000Y-104140000D02*
X170180000Y-104140000D01*
X162560000Y-96520000D02*
X170180000Y-96520000D01*
X170180000Y-96520000D02*
X170180000Y-111125000D01*
X170180000Y-111125000D02*
X162560000Y-111125000D01*
X162560000Y-111125000D02*
X162560000Y-96520000D01*
X168910000Y-116205000D02*
G75*
G03X168910000Y-112395000I0J1905000D01*
G01*
X181610000Y-95250000D02*
X181610000Y-120015000D01*
X196850000Y-95250000D02*
X181610000Y-95250000D01*
X196850000Y-120015000D02*
X196850000Y-95250000D01*
X181610000Y-120015000D02*
X196850000Y-120015000D01*
X186690000Y-116205000D02*
X191770000Y-116205000D01*
X186690000Y-112395000D02*
X191770000Y-112395000D01*
X186690000Y-112395000D02*
G75*
G03X186690000Y-116205000I0J-1905000D01*
G01*
X191770000Y-111125000D02*
X191770000Y-112395000D01*
X189230000Y-111125000D02*
X189230000Y-112395000D01*
X186690000Y-111125000D02*
X186690000Y-112395000D01*
X185420000Y-104140000D02*
X193040000Y-104140000D01*
X185420000Y-96520000D02*
X193040000Y-96520000D01*
X193040000Y-96520000D02*
X193040000Y-111125000D01*
X193040000Y-111125000D02*
X185420000Y-111125000D01*
X185420000Y-111125000D02*
X185420000Y-96520000D01*
X191770000Y-116205000D02*
G75*
G03X191770000Y-112395000I0J1905000D01*
G01*
X175807619Y-135985238D02*
X175760000Y-136080476D01*
X175664762Y-136175714D01*
X175521905Y-136318571D01*
X175474286Y-136413810D01*
X175474286Y-136509048D01*
X175712381Y-136461429D02*
X175664762Y-136556667D01*
X175569524Y-136651905D01*
X175379048Y-136699524D01*
X175045714Y-136699524D01*
X174855238Y-136651905D01*
X174760000Y-136556667D01*
X174712381Y-136461429D01*
X174712381Y-136270952D01*
X174760000Y-136175714D01*
X174855238Y-136080476D01*
X175045714Y-136032857D01*
X175379048Y-136032857D01*
X175569524Y-136080476D01*
X175664762Y-136175714D01*
X175712381Y-136270952D01*
X175712381Y-136461429D01*
X174712381Y-135699524D02*
X174712381Y-135080476D01*
X175093333Y-135413810D01*
X175093333Y-135270952D01*
X175140952Y-135175714D01*
X175188571Y-135128095D01*
X175283810Y-135080476D01*
X175521905Y-135080476D01*
X175617143Y-135128095D01*
X175664762Y-135175714D01*
X175712381Y-135270952D01*
X175712381Y-135556667D01*
X175664762Y-135651905D01*
X175617143Y-135699524D01*
X160551905Y-122372381D02*
X160551905Y-121372381D01*
X160790000Y-121372381D01*
X160932858Y-121420000D01*
X161028096Y-121515238D01*
X161075715Y-121610476D01*
X161123334Y-121800952D01*
X161123334Y-121943810D01*
X161075715Y-122134286D01*
X161028096Y-122229524D01*
X160932858Y-122324762D01*
X160790000Y-122372381D01*
X160551905Y-122372381D01*
X161504286Y-121467619D02*
X161551905Y-121420000D01*
X161647143Y-121372381D01*
X161885239Y-121372381D01*
X161980477Y-121420000D01*
X162028096Y-121467619D01*
X162075715Y-121562857D01*
X162075715Y-121658095D01*
X162028096Y-121800952D01*
X161456667Y-122372381D01*
X162075715Y-122372381D01*
X178331905Y-122372381D02*
X178331905Y-121372381D01*
X178570000Y-121372381D01*
X178712858Y-121420000D01*
X178808096Y-121515238D01*
X178855715Y-121610476D01*
X178903334Y-121800952D01*
X178903334Y-121943810D01*
X178855715Y-122134286D01*
X178808096Y-122229524D01*
X178712858Y-122324762D01*
X178570000Y-122372381D01*
X178331905Y-122372381D01*
X179236667Y-121372381D02*
X179855715Y-121372381D01*
X179522381Y-121753333D01*
X179665239Y-121753333D01*
X179760477Y-121800952D01*
X179808096Y-121848571D01*
X179855715Y-121943810D01*
X179855715Y-122181905D01*
X179808096Y-122277143D01*
X179760477Y-122324762D01*
X179665239Y-122372381D01*
X179379524Y-122372381D01*
X179284286Y-122324762D01*
X179236667Y-122277143D01*
X180887619Y-135985238D02*
X180840000Y-136080476D01*
X180744762Y-136175714D01*
X180601905Y-136318571D01*
X180554286Y-136413810D01*
X180554286Y-136509048D01*
X180792381Y-136461429D02*
X180744762Y-136556667D01*
X180649524Y-136651905D01*
X180459048Y-136699524D01*
X180125714Y-136699524D01*
X179935238Y-136651905D01*
X179840000Y-136556667D01*
X179792381Y-136461429D01*
X179792381Y-136270952D01*
X179840000Y-136175714D01*
X179935238Y-136080476D01*
X180125714Y-136032857D01*
X180459048Y-136032857D01*
X180649524Y-136080476D01*
X180744762Y-136175714D01*
X180792381Y-136270952D01*
X180792381Y-136461429D01*
X179887619Y-135651905D02*
X179840000Y-135604286D01*
X179792381Y-135509048D01*
X179792381Y-135270952D01*
X179840000Y-135175714D01*
X179887619Y-135128095D01*
X179982857Y-135080476D01*
X180078095Y-135080476D01*
X180220952Y-135128095D01*
X180792381Y-135699524D01*
X180792381Y-135080476D01*
X174521905Y-119832381D02*
X174521905Y-118832381D01*
X174760000Y-118832381D01*
X174902858Y-118880000D01*
X174998096Y-118975238D01*
X175045715Y-119070476D01*
X175093334Y-119260952D01*
X175093334Y-119403810D01*
X175045715Y-119594286D01*
X174998096Y-119689524D01*
X174902858Y-119784762D01*
X174760000Y-119832381D01*
X174521905Y-119832381D01*
X175998096Y-118832381D02*
X175521905Y-118832381D01*
X175474286Y-119308571D01*
X175521905Y-119260952D01*
X175617143Y-119213333D01*
X175855239Y-119213333D01*
X175950477Y-119260952D01*
X175998096Y-119308571D01*
X176045715Y-119403810D01*
X176045715Y-119641905D01*
X175998096Y-119737143D01*
X175950477Y-119784762D01*
X175855239Y-119832381D01*
X175617143Y-119832381D01*
X175521905Y-119784762D01*
X175474286Y-119737143D01*
X170013334Y-93067143D02*
X169965715Y-93114762D01*
X169822858Y-93162381D01*
X169727620Y-93162381D01*
X169584762Y-93114762D01*
X169489524Y-93019524D01*
X169441905Y-92924286D01*
X169394286Y-92733810D01*
X169394286Y-92590952D01*
X169441905Y-92400476D01*
X169489524Y-92305238D01*
X169584762Y-92210000D01*
X169727620Y-92162381D01*
X169822858Y-92162381D01*
X169965715Y-92210000D01*
X170013334Y-92257619D01*
X170870477Y-92162381D02*
X170680000Y-92162381D01*
X170584762Y-92210000D01*
X170537143Y-92257619D01*
X170441905Y-92400476D01*
X170394286Y-92590952D01*
X170394286Y-92971905D01*
X170441905Y-93067143D01*
X170489524Y-93114762D01*
X170584762Y-93162381D01*
X170775239Y-93162381D01*
X170870477Y-93114762D01*
X170918096Y-93067143D01*
X170965715Y-92971905D01*
X170965715Y-92733810D01*
X170918096Y-92638571D01*
X170870477Y-92590952D01*
X170775239Y-92543333D01*
X170584762Y-92543333D01*
X170489524Y-92590952D01*
X170441905Y-92638571D01*
X170394286Y-92733810D01*
X161798095Y-129302381D02*
X161798095Y-128302381D01*
X161798095Y-128778571D02*
X162369524Y-128778571D01*
X162369524Y-129302381D02*
X162369524Y-128302381D01*
X163369524Y-129302381D02*
X162798095Y-129302381D01*
X163083809Y-129302381D02*
X163083809Y-128302381D01*
X162988571Y-128445238D01*
X162893333Y-128540476D01*
X162798095Y-128588095D01*
X192278095Y-129302381D02*
X192278095Y-128302381D01*
X192278095Y-128778571D02*
X192849524Y-128778571D01*
X192849524Y-129302381D02*
X192849524Y-128302381D01*
X193278095Y-128397619D02*
X193325714Y-128350000D01*
X193420952Y-128302381D01*
X193659048Y-128302381D01*
X193754286Y-128350000D01*
X193801905Y-128397619D01*
X193849524Y-128492857D01*
X193849524Y-128588095D01*
X193801905Y-128730952D01*
X193230476Y-129302381D01*
X193849524Y-129302381D01*
X192278095Y-79772381D02*
X192278095Y-78772381D01*
X192278095Y-79248571D02*
X192849524Y-79248571D01*
X192849524Y-79772381D02*
X192849524Y-78772381D01*
X193230476Y-78772381D02*
X193849524Y-78772381D01*
X193516190Y-79153333D01*
X193659048Y-79153333D01*
X193754286Y-79200952D01*
X193801905Y-79248571D01*
X193849524Y-79343810D01*
X193849524Y-79581905D01*
X193801905Y-79677143D01*
X193754286Y-79724762D01*
X193659048Y-79772381D01*
X193373333Y-79772381D01*
X193278095Y-79724762D01*
X193230476Y-79677143D01*
X161798095Y-79772381D02*
X161798095Y-78772381D01*
X161798095Y-79248571D02*
X162369524Y-79248571D01*
X162369524Y-79772381D02*
X162369524Y-78772381D01*
X163274286Y-79105714D02*
X163274286Y-79772381D01*
X163036190Y-78724762D02*
X162798095Y-79439048D01*
X163417143Y-79439048D01*
X177466667Y-77722381D02*
X177466667Y-78436667D01*
X177419047Y-78579524D01*
X177323809Y-78674762D01*
X177180952Y-78722381D01*
X177085714Y-78722381D01*
X178466667Y-78722381D02*
X177895238Y-78722381D01*
X178180952Y-78722381D02*
X178180952Y-77722381D01*
X178085714Y-77865238D01*
X177990476Y-77960476D01*
X177895238Y-78008095D01*
X166274762Y-105957619D02*
X166179524Y-105910000D01*
X166084286Y-105814762D01*
X165941429Y-105671905D01*
X165846190Y-105624286D01*
X165750952Y-105624286D01*
X165798571Y-105862381D02*
X165703333Y-105814762D01*
X165608095Y-105719524D01*
X165560476Y-105529048D01*
X165560476Y-105195714D01*
X165608095Y-105005238D01*
X165703333Y-104910000D01*
X165798571Y-104862381D01*
X165989048Y-104862381D01*
X166084286Y-104910000D01*
X166179524Y-105005238D01*
X166227143Y-105195714D01*
X166227143Y-105529048D01*
X166179524Y-105719524D01*
X166084286Y-105814762D01*
X165989048Y-105862381D01*
X165798571Y-105862381D01*
X167179524Y-105862381D02*
X166608095Y-105862381D01*
X166893809Y-105862381D02*
X166893809Y-104862381D01*
X166798571Y-105005238D01*
X166703333Y-105100476D01*
X166608095Y-105148095D01*
X189134762Y-105957619D02*
X189039524Y-105910000D01*
X188944286Y-105814762D01*
X188801429Y-105671905D01*
X188706190Y-105624286D01*
X188610952Y-105624286D01*
X188658571Y-105862381D02*
X188563333Y-105814762D01*
X188468095Y-105719524D01*
X188420476Y-105529048D01*
X188420476Y-105195714D01*
X188468095Y-105005238D01*
X188563333Y-104910000D01*
X188658571Y-104862381D01*
X188849048Y-104862381D01*
X188944286Y-104910000D01*
X189039524Y-105005238D01*
X189087143Y-105195714D01*
X189087143Y-105529048D01*
X189039524Y-105719524D01*
X188944286Y-105814762D01*
X188849048Y-105862381D01*
X188658571Y-105862381D01*
X189944286Y-105195714D02*
X189944286Y-105862381D01*
X189706190Y-104814762D02*
X189468095Y-105529048D01*
X190087143Y-105529048D01*
M02*
