G04 #@! TF.FileFunction,Copper,L2,Bot,Signal*
%FSLAX46Y46*%
G04 Gerber Fmt 4.6, Leading zero omitted, Abs format (unit mm)*
G04 Created by KiCad (PCBNEW 4.0.5+dfsg1-4) date Mon Apr 17 12:34:13 2017*
%MOMM*%
%LPD*%
G01*
G04 APERTURE LIST*
%ADD10C,0.100000*%
%ADD11C,1.778000*%
%ADD12R,1.778000X1.778000*%
%ADD13R,1.800000X3.600000*%
%ADD14O,1.800000X3.600000*%
%ADD15R,1.600000X2.000000*%
%ADD16R,1.700000X2.000000*%
%ADD17R,2.000000X1.700000*%
%ADD18R,1.699260X3.299460*%
%ADD19C,5.500000*%
%ADD20O,1.699260X3.500120*%
%ADD21C,6.000000*%
%ADD22O,1.100000X2.300000*%
%ADD23C,1.998980*%
%ADD24R,2.500000X3.750000*%
%ADD25C,1.500000*%
%ADD26C,0.500000*%
%ADD27C,1.000000*%
%ADD28C,0.254000*%
G04 APERTURE END LIST*
D10*
D11*
X170180000Y-128270000D03*
D12*
X160020000Y-128270000D03*
D11*
X195580000Y-128270000D03*
D12*
X185420000Y-128270000D03*
D11*
X177800000Y-111760000D03*
D12*
X177800000Y-121920000D03*
D13*
X182880000Y-78740000D03*
D14*
X187960000Y-78740000D03*
D13*
X167640000Y-78740000D03*
D14*
X172720000Y-78740000D03*
X177800000Y-78740000D03*
D15*
X163830000Y-132810000D03*
X163830000Y-128810000D03*
X163830000Y-135160000D03*
X163830000Y-139160000D03*
X189230000Y-135160000D03*
X189230000Y-139160000D03*
X189230000Y-132810000D03*
X189230000Y-128810000D03*
D16*
X166370000Y-135160000D03*
X166370000Y-139160000D03*
D17*
X179610000Y-124460000D03*
X183610000Y-124460000D03*
X175990000Y-124460000D03*
X171990000Y-124460000D03*
D16*
X191770000Y-135160000D03*
X191770000Y-139160000D03*
X181610000Y-111030000D03*
X181610000Y-115030000D03*
D18*
X166370000Y-128059180D03*
X166370000Y-133560820D03*
X191770000Y-128059180D03*
X191770000Y-133560820D03*
D19*
X155575000Y-139065000D03*
X200025000Y-139065000D03*
D20*
X161290000Y-114300000D03*
X158750000Y-114300000D03*
X163830000Y-114300000D03*
D21*
X161290000Y-97536000D03*
D20*
X194310000Y-114300000D03*
X191770000Y-114300000D03*
X196850000Y-114300000D03*
D21*
X194310000Y-97536000D03*
D19*
X200025000Y-74295000D03*
X155575000Y-74295000D03*
D22*
X173990000Y-137160000D03*
X176530000Y-137160000D03*
X176530000Y-129540000D03*
X173990000Y-129540000D03*
X179070000Y-137160000D03*
X181610000Y-137160000D03*
X181610000Y-129540000D03*
X179070000Y-129540000D03*
D23*
X177800000Y-94058740D03*
X177800000Y-104218740D03*
D24*
X173990000Y-116155000D03*
X173990000Y-109905000D03*
D25*
X155575000Y-139065000D02*
X155575000Y-135175913D01*
X155575000Y-135175913D02*
X153180949Y-132781862D01*
X153180949Y-89389051D02*
X153670000Y-88900000D01*
X153180949Y-132781862D02*
X153180949Y-89389051D01*
X201850913Y-90249087D02*
X202400022Y-90798196D01*
X202400022Y-90798196D02*
X202400022Y-132800891D01*
X202400022Y-132800891D02*
X200025000Y-135175913D01*
X200025000Y-135175913D02*
X200025000Y-139065000D01*
D26*
X181610000Y-137160000D02*
X181610000Y-134620000D01*
X181610000Y-134620000D02*
X180340000Y-133350000D01*
X180340000Y-133350000D02*
X166580820Y-133350000D01*
X166580820Y-133350000D02*
X166370000Y-133560820D01*
X166370000Y-133560820D02*
X166370000Y-134360920D01*
X166370000Y-133560820D02*
X164580820Y-133560820D01*
X164580820Y-133560820D02*
X163830000Y-132810000D01*
X163830000Y-132810000D02*
X163830000Y-135160000D01*
D27*
X163850500Y-133560800D02*
X163830000Y-133540300D01*
D25*
X163830000Y-128810000D02*
X163830000Y-123190000D01*
X161290000Y-120650000D02*
X161290000Y-114300000D01*
X163830000Y-123190000D02*
X161290000Y-120650000D01*
X161290000Y-97536000D02*
X161290000Y-104140000D01*
X161290000Y-104140000D02*
X161290000Y-114300000D01*
X177800000Y-104218740D02*
X161368740Y-104218740D01*
X161368740Y-104218740D02*
X161290000Y-104140000D01*
X161958122Y-78740000D02*
X161290000Y-79408122D01*
X161290000Y-79408122D02*
X161290000Y-97536000D01*
X167640000Y-78740000D02*
X161958122Y-78740000D01*
D27*
X166370000Y-128059180D02*
X164580820Y-128059180D01*
X164580820Y-128059180D02*
X163830000Y-128810000D01*
X166149500Y-128059200D02*
X166370000Y-128059200D01*
X165630300Y-127540000D02*
X166149500Y-128059200D01*
D26*
X186055000Y-135890000D02*
X186785000Y-135160000D01*
X186785000Y-135160000D02*
X189230000Y-135160000D01*
X186055000Y-139700000D02*
X186055000Y-135890000D01*
X176530000Y-137160000D02*
X176530000Y-139700000D01*
X176530000Y-139700000D02*
X177800000Y-140970000D01*
X177800000Y-140970000D02*
X184785000Y-140970000D01*
X184785000Y-140970000D02*
X186055000Y-139700000D01*
X189135000Y-135255000D02*
X189230000Y-135160000D01*
X189062000Y-132767200D02*
X189230000Y-132599200D01*
X189230000Y-132599200D02*
X190808380Y-132599200D01*
X190808380Y-132599200D02*
X191770000Y-133560820D01*
X189230000Y-132599200D02*
X189230000Y-135160000D01*
X191770000Y-132599200D02*
X191770000Y-133350000D01*
X191770000Y-133350000D02*
X191770000Y-135160000D01*
X191559180Y-133560820D02*
X191770000Y-133350000D01*
D25*
X191770000Y-128059180D02*
X191770000Y-122555508D01*
X191770000Y-122555508D02*
X194310000Y-120015508D01*
X194310000Y-120015508D02*
X194310000Y-114300000D01*
X194310000Y-74930000D02*
X194310000Y-93980000D01*
X194310000Y-93980000D02*
X194310000Y-97536000D01*
X177800000Y-94058740D02*
X194231260Y-94058740D01*
X194231260Y-94058740D02*
X194310000Y-93980000D01*
X194310000Y-97536000D02*
X194310000Y-114300000D01*
X193040000Y-73660000D02*
X194310000Y-74930000D01*
X191520028Y-128599200D02*
X191770000Y-128599200D01*
X189230000Y-128599200D02*
X191229980Y-128599200D01*
X191229980Y-128599200D02*
X191770000Y-128059180D01*
X177800000Y-78740000D02*
X177800000Y-76200000D01*
X177800000Y-76200000D02*
X180340000Y-73660000D01*
X180340000Y-73660000D02*
X193040000Y-73660000D01*
D26*
X179070000Y-137160000D02*
X179070000Y-139065000D01*
X179070000Y-139065000D02*
X179705000Y-139700000D01*
X179705000Y-139700000D02*
X182880000Y-139700000D01*
X184150000Y-138430000D02*
X184150000Y-133350000D01*
X182880000Y-139700000D02*
X184150000Y-138430000D01*
X177800000Y-131445000D02*
X177800000Y-124460000D01*
X184150000Y-133350000D02*
X182880000Y-132080000D01*
X182880000Y-132080000D02*
X178435000Y-132080000D01*
X178435000Y-132080000D02*
X177800000Y-131445000D01*
X179070000Y-135255000D02*
X179070000Y-137160000D01*
X178435000Y-134620000D02*
X179070000Y-135255000D01*
X174625000Y-134620000D02*
X178435000Y-134620000D01*
X173990000Y-135255000D02*
X174625000Y-134620000D01*
X173990000Y-137160000D02*
X173990000Y-135255000D01*
X177800000Y-121920000D02*
X177800000Y-124460000D01*
X173990000Y-114830000D02*
X177800000Y-114830000D01*
X177800000Y-114830000D02*
X181410000Y-114830000D01*
X177800000Y-121920000D02*
X177800000Y-114830000D01*
X181410000Y-114830000D02*
X181610000Y-115030000D01*
X177800000Y-124460000D02*
X179610000Y-124460000D01*
X177800000Y-124460000D02*
X175990000Y-124460000D01*
D25*
X172720000Y-86360000D02*
X172720000Y-97790000D01*
X172720000Y-97790000D02*
X173990000Y-99060000D01*
X173990000Y-99060000D02*
X180340000Y-99060000D01*
X180340000Y-99060000D02*
X182705319Y-101425319D01*
X182705319Y-101425319D02*
X182705319Y-109934681D01*
X182705319Y-109934681D02*
X181610000Y-111030000D01*
X172720000Y-78740000D02*
X172720000Y-86360000D01*
X172720000Y-86360000D02*
X181610000Y-86360000D01*
X182880000Y-78740000D02*
X182880000Y-86360000D01*
X181610000Y-86360000D02*
X182880000Y-86360000D01*
D26*
X158750000Y-114300000D02*
X158750000Y-121920000D01*
X158750000Y-121920000D02*
X160020000Y-123190000D01*
X160020000Y-123190000D02*
X160020000Y-128270000D01*
X161007387Y-130810000D02*
X171450000Y-130810000D01*
X171990000Y-124460000D02*
X171990000Y-129540000D01*
X171990000Y-129540000D02*
X171990000Y-130270000D01*
X172720000Y-129540000D02*
X171990000Y-129540000D01*
X171990000Y-130270000D02*
X171450000Y-130810000D01*
X161007387Y-130810000D02*
X160020000Y-129822613D01*
X160020000Y-129822613D02*
X160020000Y-128270000D01*
X173990000Y-129540000D02*
X176530000Y-129540000D01*
X173990000Y-129540000D02*
X172720000Y-129540000D01*
X171790778Y-124460000D02*
X171990000Y-124460000D01*
X172720000Y-123920000D02*
X172180000Y-124460000D01*
X172720000Y-125000000D02*
X172180000Y-124460000D01*
X185420000Y-128270000D02*
X183610000Y-128270000D01*
X183610000Y-124460000D02*
X183610000Y-128270000D01*
X183610000Y-128270000D02*
X183610000Y-128810000D01*
X182880000Y-129540000D02*
X181610000Y-129540000D01*
X183610000Y-128810000D02*
X182880000Y-129540000D01*
X186690000Y-124460000D02*
X186690000Y-122775869D01*
X183610000Y-124460000D02*
X186690000Y-124460000D01*
X181610000Y-129540000D02*
X182660000Y-129540000D01*
X179070000Y-129540000D02*
X181610000Y-129540000D01*
X186690000Y-122775869D02*
X191759498Y-117706371D01*
X191759498Y-117706371D02*
X191759498Y-116560562D01*
X191759498Y-116560562D02*
X191770000Y-116550060D01*
X191770000Y-116550060D02*
X191770000Y-114300000D01*
D28*
G36*
X167513000Y-111633000D02*
X155067000Y-111633000D01*
X155067000Y-100132630D01*
X158872975Y-100132630D01*
X159215566Y-100607277D01*
X160548800Y-101167342D01*
X161994875Y-101174568D01*
X163333639Y-100627854D01*
X163364434Y-100607277D01*
X163707025Y-100132630D01*
X161290000Y-97715605D01*
X158872975Y-100132630D01*
X155067000Y-100132630D01*
X155067000Y-98240875D01*
X157651432Y-98240875D01*
X158198146Y-99579639D01*
X158218723Y-99610434D01*
X158693370Y-99953025D01*
X161110395Y-97536000D01*
X161469605Y-97536000D01*
X163886630Y-99953025D01*
X164361277Y-99610434D01*
X164921342Y-98277200D01*
X164928568Y-96831125D01*
X164381854Y-95492361D01*
X164361277Y-95461566D01*
X163886630Y-95118975D01*
X161469605Y-97536000D01*
X161110395Y-97536000D01*
X158693370Y-95118975D01*
X158218723Y-95461566D01*
X157658658Y-96794800D01*
X157651432Y-98240875D01*
X155067000Y-98240875D01*
X155067000Y-94939370D01*
X158872975Y-94939370D01*
X161290000Y-97356395D01*
X163707025Y-94939370D01*
X163364434Y-94464723D01*
X162031200Y-93904658D01*
X160585125Y-93897432D01*
X159246361Y-94444146D01*
X159215566Y-94464723D01*
X158872975Y-94939370D01*
X155067000Y-94939370D01*
X155067000Y-92837000D01*
X167513000Y-92837000D01*
X167513000Y-111633000D01*
X167513000Y-111633000D01*
G37*
X167513000Y-111633000D02*
X155067000Y-111633000D01*
X155067000Y-100132630D01*
X158872975Y-100132630D01*
X159215566Y-100607277D01*
X160548800Y-101167342D01*
X161994875Y-101174568D01*
X163333639Y-100627854D01*
X163364434Y-100607277D01*
X163707025Y-100132630D01*
X161290000Y-97715605D01*
X158872975Y-100132630D01*
X155067000Y-100132630D01*
X155067000Y-98240875D01*
X157651432Y-98240875D01*
X158198146Y-99579639D01*
X158218723Y-99610434D01*
X158693370Y-99953025D01*
X161110395Y-97536000D01*
X161469605Y-97536000D01*
X163886630Y-99953025D01*
X164361277Y-99610434D01*
X164921342Y-98277200D01*
X164928568Y-96831125D01*
X164381854Y-95492361D01*
X164361277Y-95461566D01*
X163886630Y-95118975D01*
X161469605Y-97536000D01*
X161110395Y-97536000D01*
X158693370Y-95118975D01*
X158218723Y-95461566D01*
X157658658Y-96794800D01*
X157651432Y-98240875D01*
X155067000Y-98240875D01*
X155067000Y-94939370D01*
X158872975Y-94939370D01*
X161290000Y-97356395D01*
X163707025Y-94939370D01*
X163364434Y-94464723D01*
X162031200Y-93904658D01*
X160585125Y-93897432D01*
X159246361Y-94444146D01*
X159215566Y-94464723D01*
X158872975Y-94939370D01*
X155067000Y-94939370D01*
X155067000Y-92837000D01*
X167513000Y-92837000D01*
X167513000Y-111633000D01*
G36*
X200533000Y-111633000D02*
X188087000Y-111633000D01*
X188087000Y-100132630D01*
X191892975Y-100132630D01*
X192235566Y-100607277D01*
X193568800Y-101167342D01*
X195014875Y-101174568D01*
X196353639Y-100627854D01*
X196384434Y-100607277D01*
X196727025Y-100132630D01*
X194310000Y-97715605D01*
X191892975Y-100132630D01*
X188087000Y-100132630D01*
X188087000Y-98240875D01*
X190671432Y-98240875D01*
X191218146Y-99579639D01*
X191238723Y-99610434D01*
X191713370Y-99953025D01*
X194130395Y-97536000D01*
X194489605Y-97536000D01*
X196906630Y-99953025D01*
X197381277Y-99610434D01*
X197941342Y-98277200D01*
X197948568Y-96831125D01*
X197401854Y-95492361D01*
X197381277Y-95461566D01*
X196906630Y-95118975D01*
X194489605Y-97536000D01*
X194130395Y-97536000D01*
X191713370Y-95118975D01*
X191238723Y-95461566D01*
X190678658Y-96794800D01*
X190671432Y-98240875D01*
X188087000Y-98240875D01*
X188087000Y-94939370D01*
X191892975Y-94939370D01*
X194310000Y-97356395D01*
X196727025Y-94939370D01*
X196384434Y-94464723D01*
X195051200Y-93904658D01*
X193605125Y-93897432D01*
X192266361Y-94444146D01*
X192235566Y-94464723D01*
X191892975Y-94939370D01*
X188087000Y-94939370D01*
X188087000Y-92837000D01*
X200533000Y-92837000D01*
X200533000Y-111633000D01*
X200533000Y-111633000D01*
G37*
X200533000Y-111633000D02*
X188087000Y-111633000D01*
X188087000Y-100132630D01*
X191892975Y-100132630D01*
X192235566Y-100607277D01*
X193568800Y-101167342D01*
X195014875Y-101174568D01*
X196353639Y-100627854D01*
X196384434Y-100607277D01*
X196727025Y-100132630D01*
X194310000Y-97715605D01*
X191892975Y-100132630D01*
X188087000Y-100132630D01*
X188087000Y-98240875D01*
X190671432Y-98240875D01*
X191218146Y-99579639D01*
X191238723Y-99610434D01*
X191713370Y-99953025D01*
X194130395Y-97536000D01*
X194489605Y-97536000D01*
X196906630Y-99953025D01*
X197381277Y-99610434D01*
X197941342Y-98277200D01*
X197948568Y-96831125D01*
X197401854Y-95492361D01*
X197381277Y-95461566D01*
X196906630Y-95118975D01*
X194489605Y-97536000D01*
X194130395Y-97536000D01*
X191713370Y-95118975D01*
X191238723Y-95461566D01*
X190678658Y-96794800D01*
X190671432Y-98240875D01*
X188087000Y-98240875D01*
X188087000Y-94939370D01*
X191892975Y-94939370D01*
X194310000Y-97356395D01*
X196727025Y-94939370D01*
X196384434Y-94464723D01*
X195051200Y-93904658D01*
X193605125Y-93897432D01*
X192266361Y-94444146D01*
X192235566Y-94464723D01*
X191892975Y-94939370D01*
X188087000Y-94939370D01*
X188087000Y-92837000D01*
X200533000Y-92837000D01*
X200533000Y-111633000D01*
G36*
X157073370Y-113349082D02*
X157073370Y-115250918D01*
X157200996Y-115892537D01*
X157564444Y-116436474D01*
X157673000Y-116509009D01*
X157673000Y-121920000D01*
X157754982Y-122332150D01*
X157988446Y-122681554D01*
X158943000Y-123636108D01*
X158943000Y-126573174D01*
X158824532Y-126595465D01*
X158543061Y-126776587D01*
X158354231Y-127052948D01*
X158287799Y-127381000D01*
X158287799Y-129159000D01*
X158345465Y-129465468D01*
X158526587Y-129746939D01*
X158802948Y-129935769D01*
X158972331Y-129970070D01*
X159024982Y-130234763D01*
X159258446Y-130584167D01*
X160245833Y-131571554D01*
X160595237Y-131805018D01*
X161007387Y-131887000D01*
X162186799Y-131887000D01*
X162186799Y-133810000D01*
X162220936Y-133991424D01*
X162186799Y-134160000D01*
X162186799Y-136160000D01*
X162244465Y-136466468D01*
X162425587Y-136747939D01*
X162701948Y-136936769D01*
X163030000Y-137003201D01*
X164630000Y-137003201D01*
X164936468Y-136945535D01*
X165074646Y-136856620D01*
X165191948Y-136936769D01*
X165520000Y-137003201D01*
X167220000Y-137003201D01*
X167526468Y-136945535D01*
X167807939Y-136764413D01*
X167996769Y-136488052D01*
X168063201Y-136160000D01*
X168063201Y-134427000D01*
X173294892Y-134427000D01*
X173228446Y-134493446D01*
X172994982Y-134842850D01*
X172913000Y-135255000D01*
X172913000Y-135702202D01*
X172717818Y-135994313D01*
X172613000Y-136521268D01*
X172613000Y-137798732D01*
X172717818Y-138325687D01*
X173016314Y-138772418D01*
X173463045Y-139070914D01*
X173990000Y-139175732D01*
X174516955Y-139070914D01*
X174963686Y-138772418D01*
X175260000Y-138328953D01*
X175453000Y-138617798D01*
X175453000Y-139700000D01*
X175534982Y-140112150D01*
X175768446Y-140461554D01*
X177038446Y-141731554D01*
X177387850Y-141965018D01*
X177800000Y-142047000D01*
X184785000Y-142047000D01*
X185197150Y-141965018D01*
X185546554Y-141731554D01*
X186816554Y-140461554D01*
X187050018Y-140112150D01*
X187132000Y-139700000D01*
X187132000Y-139445750D01*
X187795000Y-139445750D01*
X187795000Y-140286309D01*
X187891673Y-140519698D01*
X188070301Y-140698327D01*
X188303690Y-140795000D01*
X188944250Y-140795000D01*
X189103000Y-140636250D01*
X189103000Y-139287000D01*
X189357000Y-139287000D01*
X189357000Y-140636250D01*
X189515750Y-140795000D01*
X190156310Y-140795000D01*
X190389699Y-140698327D01*
X190475000Y-140613026D01*
X190560301Y-140698327D01*
X190793690Y-140795000D01*
X191484250Y-140795000D01*
X191643000Y-140636250D01*
X191643000Y-139287000D01*
X191897000Y-139287000D01*
X191897000Y-140636250D01*
X192055750Y-140795000D01*
X192746310Y-140795000D01*
X192979699Y-140698327D01*
X193158327Y-140519698D01*
X193255000Y-140286309D01*
X193255000Y-139729976D01*
X196638352Y-139729976D01*
X197150620Y-140975371D01*
X197160068Y-140989513D01*
X197608734Y-141301661D01*
X199845395Y-139065000D01*
X197608734Y-136828339D01*
X197160068Y-137140487D01*
X196641669Y-138383343D01*
X196638352Y-139729976D01*
X193255000Y-139729976D01*
X193255000Y-139445750D01*
X193096250Y-139287000D01*
X191897000Y-139287000D01*
X191643000Y-139287000D01*
X189357000Y-139287000D01*
X189103000Y-139287000D01*
X187953750Y-139287000D01*
X187795000Y-139445750D01*
X187132000Y-139445750D01*
X187132000Y-138033691D01*
X187795000Y-138033691D01*
X187795000Y-138874250D01*
X187953750Y-139033000D01*
X189103000Y-139033000D01*
X189103000Y-137683750D01*
X189357000Y-137683750D01*
X189357000Y-139033000D01*
X191643000Y-139033000D01*
X191643000Y-137683750D01*
X191897000Y-137683750D01*
X191897000Y-139033000D01*
X193096250Y-139033000D01*
X193255000Y-138874250D01*
X193255000Y-138033691D01*
X193158327Y-137800302D01*
X192979699Y-137621673D01*
X192746310Y-137525000D01*
X192055750Y-137525000D01*
X191897000Y-137683750D01*
X191643000Y-137683750D01*
X191484250Y-137525000D01*
X190793690Y-137525000D01*
X190560301Y-137621673D01*
X190475000Y-137706974D01*
X190389699Y-137621673D01*
X190156310Y-137525000D01*
X189515750Y-137525000D01*
X189357000Y-137683750D01*
X189103000Y-137683750D01*
X188944250Y-137525000D01*
X188303690Y-137525000D01*
X188070301Y-137621673D01*
X187891673Y-137800302D01*
X187795000Y-138033691D01*
X187132000Y-138033691D01*
X187132000Y-136336108D01*
X187231108Y-136237000D01*
X187601288Y-136237000D01*
X187644465Y-136466468D01*
X187825587Y-136747939D01*
X188101948Y-136936769D01*
X188430000Y-137003201D01*
X190030000Y-137003201D01*
X190336468Y-136945535D01*
X190474646Y-136856620D01*
X190591948Y-136936769D01*
X190920000Y-137003201D01*
X192620000Y-137003201D01*
X192926468Y-136945535D01*
X193207939Y-136764413D01*
X193286979Y-136648734D01*
X197788339Y-136648734D01*
X200025000Y-138885395D01*
X202261661Y-136648734D01*
X201949513Y-136200068D01*
X200706657Y-135681669D01*
X199360024Y-135678352D01*
X198114629Y-136190620D01*
X198100487Y-136200068D01*
X197788339Y-136648734D01*
X193286979Y-136648734D01*
X193396769Y-136488052D01*
X193463201Y-136160000D01*
X193463201Y-134160000D01*
X193462831Y-134158034D01*
X193462831Y-131911090D01*
X193405165Y-131604622D01*
X193224043Y-131323151D01*
X192947682Y-131134321D01*
X192619630Y-131067889D01*
X190920370Y-131067889D01*
X190613902Y-131125555D01*
X190551727Y-131165564D01*
X190358052Y-131033231D01*
X190030000Y-130966799D01*
X188430000Y-130966799D01*
X188123532Y-131024465D01*
X187842061Y-131205587D01*
X187653231Y-131481948D01*
X187586799Y-131810000D01*
X187586799Y-133810000D01*
X187620936Y-133991424D01*
X187602392Y-134083000D01*
X186785000Y-134083000D01*
X186372850Y-134164982D01*
X186023446Y-134398446D01*
X185293446Y-135128446D01*
X185227000Y-135227890D01*
X185227000Y-133350000D01*
X185145018Y-132937850D01*
X184911554Y-132588446D01*
X183641554Y-131318446D01*
X183292150Y-131084982D01*
X182880000Y-131003000D01*
X182683524Y-131003000D01*
X182882182Y-130705687D01*
X182900640Y-130612895D01*
X183292150Y-130535018D01*
X183641554Y-130301554D01*
X184086740Y-129856368D01*
X184202948Y-129935769D01*
X184531000Y-130002201D01*
X186309000Y-130002201D01*
X186615468Y-129944535D01*
X186896939Y-129763413D01*
X187085769Y-129487052D01*
X187152201Y-129159000D01*
X187152201Y-127381000D01*
X187094535Y-127074532D01*
X186913413Y-126793061D01*
X186637052Y-126604231D01*
X186309000Y-126537799D01*
X184687000Y-126537799D01*
X184687000Y-126138712D01*
X184916468Y-126095535D01*
X185197939Y-125914413D01*
X185386769Y-125638052D01*
X185407232Y-125537000D01*
X186690000Y-125537000D01*
X187102150Y-125455018D01*
X187451554Y-125221554D01*
X187685018Y-124872150D01*
X187767000Y-124460000D01*
X187767000Y-123221977D01*
X192521052Y-118467925D01*
X192733000Y-118150722D01*
X192733000Y-119362293D01*
X190654893Y-121440401D01*
X190313042Y-121952016D01*
X190193000Y-122555508D01*
X190193000Y-126009100D01*
X190143601Y-126081398D01*
X190077169Y-126409450D01*
X190077169Y-126976351D01*
X190030000Y-126966799D01*
X188430000Y-126966799D01*
X188123532Y-127024465D01*
X187842061Y-127205587D01*
X187653231Y-127481948D01*
X187586799Y-127810000D01*
X187586799Y-129810000D01*
X187644465Y-130116468D01*
X187825587Y-130397939D01*
X188101948Y-130586769D01*
X188430000Y-130653201D01*
X190030000Y-130653201D01*
X190336468Y-130595535D01*
X190551030Y-130457468D01*
X190592318Y-130485679D01*
X190920370Y-130552111D01*
X192619630Y-130552111D01*
X192926098Y-130494445D01*
X193207569Y-130313323D01*
X193396399Y-130036962D01*
X193462831Y-129708910D01*
X193462831Y-129342196D01*
X194687409Y-129342196D01*
X194772467Y-129597539D01*
X195341965Y-129805516D01*
X195947700Y-129779723D01*
X196387533Y-129597539D01*
X196472591Y-129342196D01*
X195580000Y-128449605D01*
X194687409Y-129342196D01*
X193462831Y-129342196D01*
X193462831Y-128031965D01*
X194044484Y-128031965D01*
X194070277Y-128637700D01*
X194252461Y-129077533D01*
X194507804Y-129162591D01*
X195400395Y-128270000D01*
X195759605Y-128270000D01*
X196652196Y-129162591D01*
X196907539Y-129077533D01*
X197115516Y-128508035D01*
X197089723Y-127902300D01*
X196907539Y-127462467D01*
X196652196Y-127377409D01*
X195759605Y-128270000D01*
X195400395Y-128270000D01*
X194507804Y-127377409D01*
X194252461Y-127462467D01*
X194044484Y-128031965D01*
X193462831Y-128031965D01*
X193462831Y-127197804D01*
X194687409Y-127197804D01*
X195580000Y-128090395D01*
X196472591Y-127197804D01*
X196387533Y-126942461D01*
X195818035Y-126734484D01*
X195212300Y-126760277D01*
X194772467Y-126942461D01*
X194687409Y-127197804D01*
X193462831Y-127197804D01*
X193462831Y-126409450D01*
X193405165Y-126102982D01*
X193347000Y-126012591D01*
X193347000Y-123208722D01*
X195425107Y-121130616D01*
X195766958Y-120619000D01*
X195805231Y-120426587D01*
X195887000Y-120015508D01*
X195887000Y-116336257D01*
X195890011Y-116340024D01*
X196399190Y-116620649D01*
X196493168Y-116641540D01*
X196723000Y-116520214D01*
X196723000Y-114427000D01*
X196977000Y-114427000D01*
X196977000Y-116520214D01*
X197206832Y-116641540D01*
X197300810Y-116620649D01*
X197809989Y-116340024D01*
X198173018Y-115885906D01*
X198334630Y-115327430D01*
X198334630Y-114427000D01*
X196977000Y-114427000D01*
X196723000Y-114427000D01*
X196703000Y-114427000D01*
X196703000Y-114173000D01*
X196723000Y-114173000D01*
X196723000Y-114153000D01*
X196977000Y-114153000D01*
X196977000Y-114173000D01*
X198334630Y-114173000D01*
X198334630Y-113272570D01*
X198301186Y-113157000D01*
X203073000Y-113157000D01*
X203073000Y-137576723D01*
X202899380Y-137154629D01*
X202889932Y-137140487D01*
X202441266Y-136828339D01*
X200204605Y-139065000D01*
X202441266Y-141301661D01*
X202889932Y-140989513D01*
X203073000Y-140550609D01*
X203073000Y-142113000D01*
X201513277Y-142113000D01*
X201935371Y-141939380D01*
X201949513Y-141929932D01*
X202261661Y-141481266D01*
X200025000Y-139244605D01*
X197788339Y-141481266D01*
X198100487Y-141929932D01*
X198539391Y-142113000D01*
X157063277Y-142113000D01*
X157485371Y-141939380D01*
X157499513Y-141929932D01*
X157811661Y-141481266D01*
X155575000Y-139244605D01*
X153338339Y-141481266D01*
X153650487Y-141929932D01*
X154089391Y-142113000D01*
X152527000Y-142113000D01*
X152527000Y-140553277D01*
X152700620Y-140975371D01*
X152710068Y-140989513D01*
X153158734Y-141301661D01*
X155395395Y-139065000D01*
X155754605Y-139065000D01*
X157991266Y-141301661D01*
X158439932Y-140989513D01*
X158958331Y-139746657D01*
X158959072Y-139445750D01*
X162395000Y-139445750D01*
X162395000Y-140286309D01*
X162491673Y-140519698D01*
X162670301Y-140698327D01*
X162903690Y-140795000D01*
X163544250Y-140795000D01*
X163703000Y-140636250D01*
X163703000Y-139287000D01*
X163957000Y-139287000D01*
X163957000Y-140636250D01*
X164115750Y-140795000D01*
X164756310Y-140795000D01*
X164989699Y-140698327D01*
X165075000Y-140613026D01*
X165160301Y-140698327D01*
X165393690Y-140795000D01*
X166084250Y-140795000D01*
X166243000Y-140636250D01*
X166243000Y-139287000D01*
X166497000Y-139287000D01*
X166497000Y-140636250D01*
X166655750Y-140795000D01*
X167346310Y-140795000D01*
X167579699Y-140698327D01*
X167758327Y-140519698D01*
X167855000Y-140286309D01*
X167855000Y-139445750D01*
X167696250Y-139287000D01*
X166497000Y-139287000D01*
X166243000Y-139287000D01*
X163957000Y-139287000D01*
X163703000Y-139287000D01*
X162553750Y-139287000D01*
X162395000Y-139445750D01*
X158959072Y-139445750D01*
X158961648Y-138400024D01*
X158810965Y-138033691D01*
X162395000Y-138033691D01*
X162395000Y-138874250D01*
X162553750Y-139033000D01*
X163703000Y-139033000D01*
X163703000Y-137683750D01*
X163957000Y-137683750D01*
X163957000Y-139033000D01*
X166243000Y-139033000D01*
X166243000Y-137683750D01*
X166497000Y-137683750D01*
X166497000Y-139033000D01*
X167696250Y-139033000D01*
X167855000Y-138874250D01*
X167855000Y-138033691D01*
X167758327Y-137800302D01*
X167579699Y-137621673D01*
X167346310Y-137525000D01*
X166655750Y-137525000D01*
X166497000Y-137683750D01*
X166243000Y-137683750D01*
X166084250Y-137525000D01*
X165393690Y-137525000D01*
X165160301Y-137621673D01*
X165075000Y-137706974D01*
X164989699Y-137621673D01*
X164756310Y-137525000D01*
X164115750Y-137525000D01*
X163957000Y-137683750D01*
X163703000Y-137683750D01*
X163544250Y-137525000D01*
X162903690Y-137525000D01*
X162670301Y-137621673D01*
X162491673Y-137800302D01*
X162395000Y-138033691D01*
X158810965Y-138033691D01*
X158449380Y-137154629D01*
X158439932Y-137140487D01*
X157991266Y-136828339D01*
X155754605Y-139065000D01*
X155395395Y-139065000D01*
X153158734Y-136828339D01*
X152710068Y-137140487D01*
X152527000Y-137579391D01*
X152527000Y-136648734D01*
X153338339Y-136648734D01*
X155575000Y-138885395D01*
X157811661Y-136648734D01*
X157499513Y-136200068D01*
X156256657Y-135681669D01*
X154910024Y-135678352D01*
X153664629Y-136190620D01*
X153650487Y-136200068D01*
X153338339Y-136648734D01*
X152527000Y-136648734D01*
X152527000Y-113157000D01*
X157111577Y-113157000D01*
X157073370Y-113349082D01*
X157073370Y-113349082D01*
G37*
X157073370Y-113349082D02*
X157073370Y-115250918D01*
X157200996Y-115892537D01*
X157564444Y-116436474D01*
X157673000Y-116509009D01*
X157673000Y-121920000D01*
X157754982Y-122332150D01*
X157988446Y-122681554D01*
X158943000Y-123636108D01*
X158943000Y-126573174D01*
X158824532Y-126595465D01*
X158543061Y-126776587D01*
X158354231Y-127052948D01*
X158287799Y-127381000D01*
X158287799Y-129159000D01*
X158345465Y-129465468D01*
X158526587Y-129746939D01*
X158802948Y-129935769D01*
X158972331Y-129970070D01*
X159024982Y-130234763D01*
X159258446Y-130584167D01*
X160245833Y-131571554D01*
X160595237Y-131805018D01*
X161007387Y-131887000D01*
X162186799Y-131887000D01*
X162186799Y-133810000D01*
X162220936Y-133991424D01*
X162186799Y-134160000D01*
X162186799Y-136160000D01*
X162244465Y-136466468D01*
X162425587Y-136747939D01*
X162701948Y-136936769D01*
X163030000Y-137003201D01*
X164630000Y-137003201D01*
X164936468Y-136945535D01*
X165074646Y-136856620D01*
X165191948Y-136936769D01*
X165520000Y-137003201D01*
X167220000Y-137003201D01*
X167526468Y-136945535D01*
X167807939Y-136764413D01*
X167996769Y-136488052D01*
X168063201Y-136160000D01*
X168063201Y-134427000D01*
X173294892Y-134427000D01*
X173228446Y-134493446D01*
X172994982Y-134842850D01*
X172913000Y-135255000D01*
X172913000Y-135702202D01*
X172717818Y-135994313D01*
X172613000Y-136521268D01*
X172613000Y-137798732D01*
X172717818Y-138325687D01*
X173016314Y-138772418D01*
X173463045Y-139070914D01*
X173990000Y-139175732D01*
X174516955Y-139070914D01*
X174963686Y-138772418D01*
X175260000Y-138328953D01*
X175453000Y-138617798D01*
X175453000Y-139700000D01*
X175534982Y-140112150D01*
X175768446Y-140461554D01*
X177038446Y-141731554D01*
X177387850Y-141965018D01*
X177800000Y-142047000D01*
X184785000Y-142047000D01*
X185197150Y-141965018D01*
X185546554Y-141731554D01*
X186816554Y-140461554D01*
X187050018Y-140112150D01*
X187132000Y-139700000D01*
X187132000Y-139445750D01*
X187795000Y-139445750D01*
X187795000Y-140286309D01*
X187891673Y-140519698D01*
X188070301Y-140698327D01*
X188303690Y-140795000D01*
X188944250Y-140795000D01*
X189103000Y-140636250D01*
X189103000Y-139287000D01*
X189357000Y-139287000D01*
X189357000Y-140636250D01*
X189515750Y-140795000D01*
X190156310Y-140795000D01*
X190389699Y-140698327D01*
X190475000Y-140613026D01*
X190560301Y-140698327D01*
X190793690Y-140795000D01*
X191484250Y-140795000D01*
X191643000Y-140636250D01*
X191643000Y-139287000D01*
X191897000Y-139287000D01*
X191897000Y-140636250D01*
X192055750Y-140795000D01*
X192746310Y-140795000D01*
X192979699Y-140698327D01*
X193158327Y-140519698D01*
X193255000Y-140286309D01*
X193255000Y-139729976D01*
X196638352Y-139729976D01*
X197150620Y-140975371D01*
X197160068Y-140989513D01*
X197608734Y-141301661D01*
X199845395Y-139065000D01*
X197608734Y-136828339D01*
X197160068Y-137140487D01*
X196641669Y-138383343D01*
X196638352Y-139729976D01*
X193255000Y-139729976D01*
X193255000Y-139445750D01*
X193096250Y-139287000D01*
X191897000Y-139287000D01*
X191643000Y-139287000D01*
X189357000Y-139287000D01*
X189103000Y-139287000D01*
X187953750Y-139287000D01*
X187795000Y-139445750D01*
X187132000Y-139445750D01*
X187132000Y-138033691D01*
X187795000Y-138033691D01*
X187795000Y-138874250D01*
X187953750Y-139033000D01*
X189103000Y-139033000D01*
X189103000Y-137683750D01*
X189357000Y-137683750D01*
X189357000Y-139033000D01*
X191643000Y-139033000D01*
X191643000Y-137683750D01*
X191897000Y-137683750D01*
X191897000Y-139033000D01*
X193096250Y-139033000D01*
X193255000Y-138874250D01*
X193255000Y-138033691D01*
X193158327Y-137800302D01*
X192979699Y-137621673D01*
X192746310Y-137525000D01*
X192055750Y-137525000D01*
X191897000Y-137683750D01*
X191643000Y-137683750D01*
X191484250Y-137525000D01*
X190793690Y-137525000D01*
X190560301Y-137621673D01*
X190475000Y-137706974D01*
X190389699Y-137621673D01*
X190156310Y-137525000D01*
X189515750Y-137525000D01*
X189357000Y-137683750D01*
X189103000Y-137683750D01*
X188944250Y-137525000D01*
X188303690Y-137525000D01*
X188070301Y-137621673D01*
X187891673Y-137800302D01*
X187795000Y-138033691D01*
X187132000Y-138033691D01*
X187132000Y-136336108D01*
X187231108Y-136237000D01*
X187601288Y-136237000D01*
X187644465Y-136466468D01*
X187825587Y-136747939D01*
X188101948Y-136936769D01*
X188430000Y-137003201D01*
X190030000Y-137003201D01*
X190336468Y-136945535D01*
X190474646Y-136856620D01*
X190591948Y-136936769D01*
X190920000Y-137003201D01*
X192620000Y-137003201D01*
X192926468Y-136945535D01*
X193207939Y-136764413D01*
X193286979Y-136648734D01*
X197788339Y-136648734D01*
X200025000Y-138885395D01*
X202261661Y-136648734D01*
X201949513Y-136200068D01*
X200706657Y-135681669D01*
X199360024Y-135678352D01*
X198114629Y-136190620D01*
X198100487Y-136200068D01*
X197788339Y-136648734D01*
X193286979Y-136648734D01*
X193396769Y-136488052D01*
X193463201Y-136160000D01*
X193463201Y-134160000D01*
X193462831Y-134158034D01*
X193462831Y-131911090D01*
X193405165Y-131604622D01*
X193224043Y-131323151D01*
X192947682Y-131134321D01*
X192619630Y-131067889D01*
X190920370Y-131067889D01*
X190613902Y-131125555D01*
X190551727Y-131165564D01*
X190358052Y-131033231D01*
X190030000Y-130966799D01*
X188430000Y-130966799D01*
X188123532Y-131024465D01*
X187842061Y-131205587D01*
X187653231Y-131481948D01*
X187586799Y-131810000D01*
X187586799Y-133810000D01*
X187620936Y-133991424D01*
X187602392Y-134083000D01*
X186785000Y-134083000D01*
X186372850Y-134164982D01*
X186023446Y-134398446D01*
X185293446Y-135128446D01*
X185227000Y-135227890D01*
X185227000Y-133350000D01*
X185145018Y-132937850D01*
X184911554Y-132588446D01*
X183641554Y-131318446D01*
X183292150Y-131084982D01*
X182880000Y-131003000D01*
X182683524Y-131003000D01*
X182882182Y-130705687D01*
X182900640Y-130612895D01*
X183292150Y-130535018D01*
X183641554Y-130301554D01*
X184086740Y-129856368D01*
X184202948Y-129935769D01*
X184531000Y-130002201D01*
X186309000Y-130002201D01*
X186615468Y-129944535D01*
X186896939Y-129763413D01*
X187085769Y-129487052D01*
X187152201Y-129159000D01*
X187152201Y-127381000D01*
X187094535Y-127074532D01*
X186913413Y-126793061D01*
X186637052Y-126604231D01*
X186309000Y-126537799D01*
X184687000Y-126537799D01*
X184687000Y-126138712D01*
X184916468Y-126095535D01*
X185197939Y-125914413D01*
X185386769Y-125638052D01*
X185407232Y-125537000D01*
X186690000Y-125537000D01*
X187102150Y-125455018D01*
X187451554Y-125221554D01*
X187685018Y-124872150D01*
X187767000Y-124460000D01*
X187767000Y-123221977D01*
X192521052Y-118467925D01*
X192733000Y-118150722D01*
X192733000Y-119362293D01*
X190654893Y-121440401D01*
X190313042Y-121952016D01*
X190193000Y-122555508D01*
X190193000Y-126009100D01*
X190143601Y-126081398D01*
X190077169Y-126409450D01*
X190077169Y-126976351D01*
X190030000Y-126966799D01*
X188430000Y-126966799D01*
X188123532Y-127024465D01*
X187842061Y-127205587D01*
X187653231Y-127481948D01*
X187586799Y-127810000D01*
X187586799Y-129810000D01*
X187644465Y-130116468D01*
X187825587Y-130397939D01*
X188101948Y-130586769D01*
X188430000Y-130653201D01*
X190030000Y-130653201D01*
X190336468Y-130595535D01*
X190551030Y-130457468D01*
X190592318Y-130485679D01*
X190920370Y-130552111D01*
X192619630Y-130552111D01*
X192926098Y-130494445D01*
X193207569Y-130313323D01*
X193396399Y-130036962D01*
X193462831Y-129708910D01*
X193462831Y-129342196D01*
X194687409Y-129342196D01*
X194772467Y-129597539D01*
X195341965Y-129805516D01*
X195947700Y-129779723D01*
X196387533Y-129597539D01*
X196472591Y-129342196D01*
X195580000Y-128449605D01*
X194687409Y-129342196D01*
X193462831Y-129342196D01*
X193462831Y-128031965D01*
X194044484Y-128031965D01*
X194070277Y-128637700D01*
X194252461Y-129077533D01*
X194507804Y-129162591D01*
X195400395Y-128270000D01*
X195759605Y-128270000D01*
X196652196Y-129162591D01*
X196907539Y-129077533D01*
X197115516Y-128508035D01*
X197089723Y-127902300D01*
X196907539Y-127462467D01*
X196652196Y-127377409D01*
X195759605Y-128270000D01*
X195400395Y-128270000D01*
X194507804Y-127377409D01*
X194252461Y-127462467D01*
X194044484Y-128031965D01*
X193462831Y-128031965D01*
X193462831Y-127197804D01*
X194687409Y-127197804D01*
X195580000Y-128090395D01*
X196472591Y-127197804D01*
X196387533Y-126942461D01*
X195818035Y-126734484D01*
X195212300Y-126760277D01*
X194772467Y-126942461D01*
X194687409Y-127197804D01*
X193462831Y-127197804D01*
X193462831Y-126409450D01*
X193405165Y-126102982D01*
X193347000Y-126012591D01*
X193347000Y-123208722D01*
X195425107Y-121130616D01*
X195766958Y-120619000D01*
X195805231Y-120426587D01*
X195887000Y-120015508D01*
X195887000Y-116336257D01*
X195890011Y-116340024D01*
X196399190Y-116620649D01*
X196493168Y-116641540D01*
X196723000Y-116520214D01*
X196723000Y-114427000D01*
X196977000Y-114427000D01*
X196977000Y-116520214D01*
X197206832Y-116641540D01*
X197300810Y-116620649D01*
X197809989Y-116340024D01*
X198173018Y-115885906D01*
X198334630Y-115327430D01*
X198334630Y-114427000D01*
X196977000Y-114427000D01*
X196723000Y-114427000D01*
X196703000Y-114427000D01*
X196703000Y-114173000D01*
X196723000Y-114173000D01*
X196723000Y-114153000D01*
X196977000Y-114153000D01*
X196977000Y-114173000D01*
X198334630Y-114173000D01*
X198334630Y-113272570D01*
X198301186Y-113157000D01*
X203073000Y-113157000D01*
X203073000Y-137576723D01*
X202899380Y-137154629D01*
X202889932Y-137140487D01*
X202441266Y-136828339D01*
X200204605Y-139065000D01*
X202441266Y-141301661D01*
X202889932Y-140989513D01*
X203073000Y-140550609D01*
X203073000Y-142113000D01*
X201513277Y-142113000D01*
X201935371Y-141939380D01*
X201949513Y-141929932D01*
X202261661Y-141481266D01*
X200025000Y-139244605D01*
X197788339Y-141481266D01*
X198100487Y-141929932D01*
X198539391Y-142113000D01*
X157063277Y-142113000D01*
X157485371Y-141939380D01*
X157499513Y-141929932D01*
X157811661Y-141481266D01*
X155575000Y-139244605D01*
X153338339Y-141481266D01*
X153650487Y-141929932D01*
X154089391Y-142113000D01*
X152527000Y-142113000D01*
X152527000Y-140553277D01*
X152700620Y-140975371D01*
X152710068Y-140989513D01*
X153158734Y-141301661D01*
X155395395Y-139065000D01*
X155754605Y-139065000D01*
X157991266Y-141301661D01*
X158439932Y-140989513D01*
X158958331Y-139746657D01*
X158959072Y-139445750D01*
X162395000Y-139445750D01*
X162395000Y-140286309D01*
X162491673Y-140519698D01*
X162670301Y-140698327D01*
X162903690Y-140795000D01*
X163544250Y-140795000D01*
X163703000Y-140636250D01*
X163703000Y-139287000D01*
X163957000Y-139287000D01*
X163957000Y-140636250D01*
X164115750Y-140795000D01*
X164756310Y-140795000D01*
X164989699Y-140698327D01*
X165075000Y-140613026D01*
X165160301Y-140698327D01*
X165393690Y-140795000D01*
X166084250Y-140795000D01*
X166243000Y-140636250D01*
X166243000Y-139287000D01*
X166497000Y-139287000D01*
X166497000Y-140636250D01*
X166655750Y-140795000D01*
X167346310Y-140795000D01*
X167579699Y-140698327D01*
X167758327Y-140519698D01*
X167855000Y-140286309D01*
X167855000Y-139445750D01*
X167696250Y-139287000D01*
X166497000Y-139287000D01*
X166243000Y-139287000D01*
X163957000Y-139287000D01*
X163703000Y-139287000D01*
X162553750Y-139287000D01*
X162395000Y-139445750D01*
X158959072Y-139445750D01*
X158961648Y-138400024D01*
X158810965Y-138033691D01*
X162395000Y-138033691D01*
X162395000Y-138874250D01*
X162553750Y-139033000D01*
X163703000Y-139033000D01*
X163703000Y-137683750D01*
X163957000Y-137683750D01*
X163957000Y-139033000D01*
X166243000Y-139033000D01*
X166243000Y-137683750D01*
X166497000Y-137683750D01*
X166497000Y-139033000D01*
X167696250Y-139033000D01*
X167855000Y-138874250D01*
X167855000Y-138033691D01*
X167758327Y-137800302D01*
X167579699Y-137621673D01*
X167346310Y-137525000D01*
X166655750Y-137525000D01*
X166497000Y-137683750D01*
X166243000Y-137683750D01*
X166084250Y-137525000D01*
X165393690Y-137525000D01*
X165160301Y-137621673D01*
X165075000Y-137706974D01*
X164989699Y-137621673D01*
X164756310Y-137525000D01*
X164115750Y-137525000D01*
X163957000Y-137683750D01*
X163703000Y-137683750D01*
X163544250Y-137525000D01*
X162903690Y-137525000D01*
X162670301Y-137621673D01*
X162491673Y-137800302D01*
X162395000Y-138033691D01*
X158810965Y-138033691D01*
X158449380Y-137154629D01*
X158439932Y-137140487D01*
X157991266Y-136828339D01*
X155754605Y-139065000D01*
X155395395Y-139065000D01*
X153158734Y-136828339D01*
X152710068Y-137140487D01*
X152527000Y-137579391D01*
X152527000Y-136648734D01*
X153338339Y-136648734D01*
X155575000Y-138885395D01*
X157811661Y-136648734D01*
X157499513Y-136200068D01*
X156256657Y-135681669D01*
X154910024Y-135678352D01*
X153664629Y-136190620D01*
X153650487Y-136200068D01*
X153338339Y-136648734D01*
X152527000Y-136648734D01*
X152527000Y-113157000D01*
X157111577Y-113157000D01*
X157073370Y-113349082D01*
G36*
X153664629Y-71420620D02*
X153650487Y-71430068D01*
X153338339Y-71878734D01*
X155575000Y-74115395D01*
X157811661Y-71878734D01*
X157499513Y-71430068D01*
X157060609Y-71247000D01*
X198536723Y-71247000D01*
X198114629Y-71420620D01*
X198100487Y-71430068D01*
X197788339Y-71878734D01*
X200025000Y-74115395D01*
X202261661Y-71878734D01*
X201949513Y-71430068D01*
X201510609Y-71247000D01*
X203073000Y-71247000D01*
X203073000Y-72806723D01*
X202899380Y-72384629D01*
X202889932Y-72370487D01*
X202441266Y-72058339D01*
X200204605Y-74295000D01*
X202441266Y-76531661D01*
X202889932Y-76219513D01*
X203073000Y-75780609D01*
X203073000Y-91313000D01*
X195887000Y-91313000D01*
X195887000Y-76711266D01*
X197788339Y-76711266D01*
X198100487Y-77159932D01*
X199343343Y-77678331D01*
X200689976Y-77681648D01*
X201935371Y-77169380D01*
X201949513Y-77159932D01*
X202261661Y-76711266D01*
X200025000Y-74474605D01*
X197788339Y-76711266D01*
X195887000Y-76711266D01*
X195887000Y-74959976D01*
X196638352Y-74959976D01*
X197150620Y-76205371D01*
X197160068Y-76219513D01*
X197608734Y-76531661D01*
X199845395Y-74295000D01*
X197608734Y-72058339D01*
X197160068Y-72370487D01*
X196641669Y-73613343D01*
X196638352Y-74959976D01*
X195887000Y-74959976D01*
X195887000Y-74930000D01*
X195766958Y-74326508D01*
X195724852Y-74263492D01*
X195425107Y-73814892D01*
X194155107Y-72544893D01*
X193643492Y-72203042D01*
X193040000Y-72083000D01*
X180340000Y-72083000D01*
X179736508Y-72203042D01*
X179224892Y-72544893D01*
X176684893Y-75084893D01*
X176343042Y-75596508D01*
X176223000Y-76200000D01*
X176223000Y-77099893D01*
X176204460Y-77127640D01*
X176073000Y-77788534D01*
X176073000Y-79691466D01*
X176204460Y-80352360D01*
X176578827Y-80912639D01*
X177139106Y-81287006D01*
X177800000Y-81418466D01*
X178460894Y-81287006D01*
X179021173Y-80912639D01*
X179395540Y-80352360D01*
X179527000Y-79691466D01*
X179527000Y-77788534D01*
X179395540Y-77127640D01*
X179377000Y-77099893D01*
X179377000Y-76853214D01*
X180993215Y-75237000D01*
X192386786Y-75237000D01*
X192733000Y-75583215D01*
X192733000Y-91313000D01*
X186690000Y-91313000D01*
X186640590Y-91323006D01*
X186598965Y-91351447D01*
X186571685Y-91393841D01*
X186563000Y-91440000D01*
X186563000Y-92481740D01*
X178764978Y-92481740D01*
X178164905Y-92232568D01*
X177438283Y-92231934D01*
X176766728Y-92509414D01*
X176252480Y-93022766D01*
X175973828Y-93693835D01*
X175973194Y-94420457D01*
X176250674Y-95092012D01*
X176764026Y-95606260D01*
X177435095Y-95884912D01*
X178161717Y-95885546D01*
X178766296Y-95635740D01*
X186563000Y-95635740D01*
X186563000Y-113030000D01*
X186573006Y-113079410D01*
X186601447Y-113121035D01*
X186643841Y-113148315D01*
X186690000Y-113157000D01*
X190131577Y-113157000D01*
X190093370Y-113349082D01*
X190093370Y-115250918D01*
X190220996Y-115892537D01*
X190584444Y-116436474D01*
X190692782Y-116508863D01*
X190682498Y-116560562D01*
X190682498Y-117260263D01*
X185928446Y-122014315D01*
X185694982Y-122363719D01*
X185613000Y-122775869D01*
X185613000Y-123383000D01*
X185410488Y-123383000D01*
X185395535Y-123303532D01*
X185214413Y-123022061D01*
X184938052Y-122833231D01*
X184610000Y-122766799D01*
X182610000Y-122766799D01*
X182303532Y-122824465D01*
X182022061Y-123005587D01*
X181833231Y-123281948D01*
X181766799Y-123610000D01*
X181766799Y-125310000D01*
X181824465Y-125616468D01*
X182005587Y-125897939D01*
X182281948Y-126086769D01*
X182533000Y-126137608D01*
X182533000Y-127893715D01*
X182136955Y-127629086D01*
X181610000Y-127524268D01*
X181083045Y-127629086D01*
X180636314Y-127927582D01*
X180340000Y-128371047D01*
X180043686Y-127927582D01*
X179596955Y-127629086D01*
X179070000Y-127524268D01*
X178877000Y-127562658D01*
X178877000Y-126153201D01*
X180610000Y-126153201D01*
X180916468Y-126095535D01*
X181197939Y-125914413D01*
X181386769Y-125638052D01*
X181453201Y-125310000D01*
X181453201Y-123610000D01*
X181395535Y-123303532D01*
X181214413Y-123022061D01*
X180938052Y-122833231D01*
X180610000Y-122766799D01*
X179532201Y-122766799D01*
X179532201Y-121031000D01*
X179474535Y-120724532D01*
X179293413Y-120443061D01*
X179017052Y-120254231D01*
X178877000Y-120225870D01*
X178877000Y-115907000D01*
X179916799Y-115907000D01*
X179916799Y-116030000D01*
X179974465Y-116336468D01*
X180155587Y-116617939D01*
X180431948Y-116806769D01*
X180760000Y-116873201D01*
X182460000Y-116873201D01*
X182766468Y-116815535D01*
X183047939Y-116634413D01*
X183236769Y-116358052D01*
X183303201Y-116030000D01*
X183303201Y-114030000D01*
X183245535Y-113723532D01*
X183064413Y-113442061D01*
X182788052Y-113253231D01*
X182460000Y-113186799D01*
X180760000Y-113186799D01*
X180453532Y-113244465D01*
X180172061Y-113425587D01*
X179983231Y-113701948D01*
X179972893Y-113753000D01*
X175883626Y-113753000D01*
X175844413Y-113692061D01*
X175568052Y-113503231D01*
X175240000Y-113436799D01*
X172740000Y-113436799D01*
X172433532Y-113494465D01*
X172152061Y-113675587D01*
X171963231Y-113951948D01*
X171896799Y-114280000D01*
X171896799Y-118030000D01*
X171954465Y-118336468D01*
X172135587Y-118617939D01*
X172411948Y-118806769D01*
X172740000Y-118873201D01*
X175240000Y-118873201D01*
X175546468Y-118815535D01*
X175827939Y-118634413D01*
X176016769Y-118358052D01*
X176083201Y-118030000D01*
X176083201Y-115907000D01*
X176723000Y-115907000D01*
X176723000Y-120223174D01*
X176604532Y-120245465D01*
X176323061Y-120426587D01*
X176134231Y-120702948D01*
X176067799Y-121031000D01*
X176067799Y-122766799D01*
X174990000Y-122766799D01*
X174683532Y-122824465D01*
X174402061Y-123005587D01*
X174213231Y-123281948D01*
X174146799Y-123610000D01*
X174146799Y-125310000D01*
X174204465Y-125616468D01*
X174385587Y-125897939D01*
X174661948Y-126086769D01*
X174990000Y-126153201D01*
X176723000Y-126153201D01*
X176723000Y-127562658D01*
X176530000Y-127524268D01*
X176003045Y-127629086D01*
X175556314Y-127927582D01*
X175260000Y-128371047D01*
X174963686Y-127927582D01*
X174516955Y-127629086D01*
X173990000Y-127524268D01*
X173463045Y-127629086D01*
X173067000Y-127893715D01*
X173067000Y-126138712D01*
X173296468Y-126095535D01*
X173577939Y-125914413D01*
X173766769Y-125638052D01*
X173833201Y-125310000D01*
X173833201Y-123610000D01*
X173775535Y-123303532D01*
X173594413Y-123022061D01*
X173318052Y-122833231D01*
X172990000Y-122766799D01*
X170990000Y-122766799D01*
X170683532Y-122824465D01*
X170402061Y-123005587D01*
X170213231Y-123281948D01*
X170146799Y-123610000D01*
X170146799Y-125310000D01*
X170204465Y-125616468D01*
X170385587Y-125897939D01*
X170661948Y-126086769D01*
X170913000Y-126137608D01*
X170913000Y-126915242D01*
X170418035Y-126734484D01*
X169812300Y-126760277D01*
X169372467Y-126942461D01*
X169287409Y-127197804D01*
X170180000Y-128090395D01*
X170194143Y-128076253D01*
X170373748Y-128255858D01*
X170359605Y-128270000D01*
X170373748Y-128284143D01*
X170194143Y-128463748D01*
X170180000Y-128449605D01*
X169287409Y-129342196D01*
X169372467Y-129597539D01*
X169743396Y-129733000D01*
X168057953Y-129733000D01*
X168062831Y-129708910D01*
X168062831Y-128031965D01*
X168644484Y-128031965D01*
X168670277Y-128637700D01*
X168852461Y-129077533D01*
X169107804Y-129162591D01*
X170000395Y-128270000D01*
X169107804Y-127377409D01*
X168852461Y-127462467D01*
X168644484Y-128031965D01*
X168062831Y-128031965D01*
X168062831Y-126409450D01*
X168005165Y-126102982D01*
X167824043Y-125821511D01*
X167547682Y-125632681D01*
X167219630Y-125566249D01*
X165520370Y-125566249D01*
X165407000Y-125587581D01*
X165407000Y-123190000D01*
X165286958Y-122586508D01*
X165046742Y-122227000D01*
X164945107Y-122074892D01*
X162867000Y-119996786D01*
X162867000Y-116336257D01*
X162870011Y-116340024D01*
X163379190Y-116620649D01*
X163473168Y-116641540D01*
X163703000Y-116520214D01*
X163703000Y-114427000D01*
X163957000Y-114427000D01*
X163957000Y-116520214D01*
X164186832Y-116641540D01*
X164280810Y-116620649D01*
X164789989Y-116340024D01*
X165153018Y-115885906D01*
X165314630Y-115327430D01*
X165314630Y-114427000D01*
X163957000Y-114427000D01*
X163703000Y-114427000D01*
X163683000Y-114427000D01*
X163683000Y-114173000D01*
X163703000Y-114173000D01*
X163703000Y-114153000D01*
X163957000Y-114153000D01*
X163957000Y-114173000D01*
X165314630Y-114173000D01*
X165314630Y-113272570D01*
X165281186Y-113157000D01*
X168910000Y-113157000D01*
X168959410Y-113146994D01*
X169001035Y-113118553D01*
X169028315Y-113076159D01*
X169037000Y-113030000D01*
X169037000Y-112832196D01*
X176907409Y-112832196D01*
X176992467Y-113087539D01*
X177561965Y-113295516D01*
X178167700Y-113269723D01*
X178607533Y-113087539D01*
X178692591Y-112832196D01*
X177800000Y-111939605D01*
X176907409Y-112832196D01*
X169037000Y-112832196D01*
X169037000Y-110190750D01*
X172105000Y-110190750D01*
X172105000Y-111906309D01*
X172201673Y-112139698D01*
X172380301Y-112318327D01*
X172613690Y-112415000D01*
X173704250Y-112415000D01*
X173863000Y-112256250D01*
X173863000Y-110032000D01*
X174117000Y-110032000D01*
X174117000Y-112256250D01*
X174275750Y-112415000D01*
X175366310Y-112415000D01*
X175599699Y-112318327D01*
X175778327Y-112139698D01*
X175875000Y-111906309D01*
X175875000Y-111521965D01*
X176264484Y-111521965D01*
X176290277Y-112127700D01*
X176472461Y-112567533D01*
X176727804Y-112652591D01*
X177620395Y-111760000D01*
X177979605Y-111760000D01*
X178872196Y-112652591D01*
X179127539Y-112567533D01*
X179335516Y-111998035D01*
X179309723Y-111392300D01*
X179127539Y-110952467D01*
X178872196Y-110867409D01*
X177979605Y-111760000D01*
X177620395Y-111760000D01*
X176727804Y-110867409D01*
X176472461Y-110952467D01*
X176264484Y-111521965D01*
X175875000Y-111521965D01*
X175875000Y-110687804D01*
X176907409Y-110687804D01*
X177800000Y-111580395D01*
X178692591Y-110687804D01*
X178607533Y-110432461D01*
X178038035Y-110224484D01*
X177432300Y-110250277D01*
X176992467Y-110432461D01*
X176907409Y-110687804D01*
X175875000Y-110687804D01*
X175875000Y-110190750D01*
X175716250Y-110032000D01*
X174117000Y-110032000D01*
X173863000Y-110032000D01*
X172263750Y-110032000D01*
X172105000Y-110190750D01*
X169037000Y-110190750D01*
X169037000Y-107903691D01*
X172105000Y-107903691D01*
X172105000Y-109619250D01*
X172263750Y-109778000D01*
X173863000Y-109778000D01*
X173863000Y-107553750D01*
X174117000Y-107553750D01*
X174117000Y-109778000D01*
X175716250Y-109778000D01*
X175875000Y-109619250D01*
X175875000Y-107903691D01*
X175778327Y-107670302D01*
X175599699Y-107491673D01*
X175366310Y-107395000D01*
X174275750Y-107395000D01*
X174117000Y-107553750D01*
X173863000Y-107553750D01*
X173704250Y-107395000D01*
X172613690Y-107395000D01*
X172380301Y-107491673D01*
X172201673Y-107670302D01*
X172105000Y-107903691D01*
X169037000Y-107903691D01*
X169037000Y-105795740D01*
X176835022Y-105795740D01*
X177435095Y-106044912D01*
X178161717Y-106045546D01*
X178833272Y-105768066D01*
X179347520Y-105254714D01*
X179626172Y-104583645D01*
X179626806Y-103857023D01*
X179349326Y-103185468D01*
X178835974Y-102671220D01*
X178164905Y-102392568D01*
X177438283Y-102391934D01*
X176833704Y-102641740D01*
X169037000Y-102641740D01*
X169037000Y-91440000D01*
X169026994Y-91390590D01*
X168998553Y-91348965D01*
X168956159Y-91321685D01*
X168910000Y-91313000D01*
X162867000Y-91313000D01*
X162867000Y-80317000D01*
X165896799Y-80317000D01*
X165896799Y-80540000D01*
X165954465Y-80846468D01*
X166135587Y-81127939D01*
X166411948Y-81316769D01*
X166740000Y-81383201D01*
X168540000Y-81383201D01*
X168846468Y-81325535D01*
X169127939Y-81144413D01*
X169316769Y-80868052D01*
X169383201Y-80540000D01*
X169383201Y-77788534D01*
X170993000Y-77788534D01*
X170993000Y-79691466D01*
X171124460Y-80352360D01*
X171143000Y-80380107D01*
X171143000Y-97790000D01*
X171243232Y-98293898D01*
X171263042Y-98393492D01*
X171604893Y-98905107D01*
X172874892Y-100175107D01*
X173077091Y-100310212D01*
X173386508Y-100516958D01*
X173990000Y-100637000D01*
X179686786Y-100637000D01*
X181128319Y-102078534D01*
X181128319Y-109186799D01*
X180760000Y-109186799D01*
X180453532Y-109244465D01*
X180172061Y-109425587D01*
X179983231Y-109701948D01*
X179916799Y-110030000D01*
X179916799Y-112030000D01*
X179974465Y-112336468D01*
X180155587Y-112617939D01*
X180431948Y-112806769D01*
X180760000Y-112873201D01*
X182460000Y-112873201D01*
X182766468Y-112815535D01*
X183047939Y-112634413D01*
X183236769Y-112358052D01*
X183303201Y-112030000D01*
X183303201Y-111567013D01*
X183820426Y-111049788D01*
X184162277Y-110538173D01*
X184183304Y-110432461D01*
X184282319Y-109934681D01*
X184282319Y-101425319D01*
X184162277Y-100821827D01*
X184133314Y-100778481D01*
X183820426Y-100310211D01*
X181455107Y-97944893D01*
X180943492Y-97603042D01*
X180340000Y-97483000D01*
X174643215Y-97483000D01*
X174297000Y-97136786D01*
X174297000Y-87937000D01*
X182880000Y-87937000D01*
X183483492Y-87816958D01*
X183995107Y-87475107D01*
X184336958Y-86963492D01*
X184457000Y-86360000D01*
X184457000Y-81014068D01*
X184556769Y-80868052D01*
X184623201Y-80540000D01*
X184623201Y-78867000D01*
X186425000Y-78867000D01*
X186425000Y-79767000D01*
X186590446Y-80344752D01*
X186964394Y-80815212D01*
X187489914Y-81106756D01*
X187595260Y-81131036D01*
X187833000Y-81010378D01*
X187833000Y-78867000D01*
X188087000Y-78867000D01*
X188087000Y-81010378D01*
X188324740Y-81131036D01*
X188430086Y-81106756D01*
X188955606Y-80815212D01*
X189329554Y-80344752D01*
X189495000Y-79767000D01*
X189495000Y-78867000D01*
X188087000Y-78867000D01*
X187833000Y-78867000D01*
X186425000Y-78867000D01*
X184623201Y-78867000D01*
X184623201Y-77713000D01*
X186425000Y-77713000D01*
X186425000Y-78613000D01*
X187833000Y-78613000D01*
X187833000Y-76469622D01*
X188087000Y-76469622D01*
X188087000Y-78613000D01*
X189495000Y-78613000D01*
X189495000Y-77713000D01*
X189329554Y-77135248D01*
X188955606Y-76664788D01*
X188430086Y-76373244D01*
X188324740Y-76348964D01*
X188087000Y-76469622D01*
X187833000Y-76469622D01*
X187595260Y-76348964D01*
X187489914Y-76373244D01*
X186964394Y-76664788D01*
X186590446Y-77135248D01*
X186425000Y-77713000D01*
X184623201Y-77713000D01*
X184623201Y-76940000D01*
X184565535Y-76633532D01*
X184384413Y-76352061D01*
X184108052Y-76163231D01*
X183780000Y-76096799D01*
X181980000Y-76096799D01*
X181673532Y-76154465D01*
X181392061Y-76335587D01*
X181203231Y-76611948D01*
X181136799Y-76940000D01*
X181136799Y-80540000D01*
X181194465Y-80846468D01*
X181303000Y-81015136D01*
X181303000Y-84783000D01*
X174297000Y-84783000D01*
X174297000Y-80380107D01*
X174315540Y-80352360D01*
X174447000Y-79691466D01*
X174447000Y-77788534D01*
X174315540Y-77127640D01*
X173941173Y-76567361D01*
X173380894Y-76192994D01*
X172720000Y-76061534D01*
X172059106Y-76192994D01*
X171498827Y-76567361D01*
X171124460Y-77127640D01*
X170993000Y-77788534D01*
X169383201Y-77788534D01*
X169383201Y-76940000D01*
X169325535Y-76633532D01*
X169144413Y-76352061D01*
X168868052Y-76163231D01*
X168540000Y-76096799D01*
X166740000Y-76096799D01*
X166433532Y-76154465D01*
X166152061Y-76335587D01*
X165963231Y-76611948D01*
X165896799Y-76940000D01*
X165896799Y-77163000D01*
X161958122Y-77163000D01*
X161354630Y-77283042D01*
X160843014Y-77624893D01*
X160174893Y-78293015D01*
X159833042Y-78804630D01*
X159713000Y-79408122D01*
X159713000Y-91313000D01*
X152527000Y-91313000D01*
X152527000Y-76711266D01*
X153338339Y-76711266D01*
X153650487Y-77159932D01*
X154893343Y-77678331D01*
X156239976Y-77681648D01*
X157485371Y-77169380D01*
X157499513Y-77159932D01*
X157811661Y-76711266D01*
X155575000Y-74474605D01*
X153338339Y-76711266D01*
X152527000Y-76711266D01*
X152527000Y-75783277D01*
X152700620Y-76205371D01*
X152710068Y-76219513D01*
X153158734Y-76531661D01*
X155395395Y-74295000D01*
X155754605Y-74295000D01*
X157991266Y-76531661D01*
X158439932Y-76219513D01*
X158958331Y-74976657D01*
X158961648Y-73630024D01*
X158449380Y-72384629D01*
X158439932Y-72370487D01*
X157991266Y-72058339D01*
X155754605Y-74295000D01*
X155395395Y-74295000D01*
X153158734Y-72058339D01*
X152710068Y-72370487D01*
X152527000Y-72809391D01*
X152527000Y-71247000D01*
X154086723Y-71247000D01*
X153664629Y-71420620D01*
X153664629Y-71420620D01*
G37*
X153664629Y-71420620D02*
X153650487Y-71430068D01*
X153338339Y-71878734D01*
X155575000Y-74115395D01*
X157811661Y-71878734D01*
X157499513Y-71430068D01*
X157060609Y-71247000D01*
X198536723Y-71247000D01*
X198114629Y-71420620D01*
X198100487Y-71430068D01*
X197788339Y-71878734D01*
X200025000Y-74115395D01*
X202261661Y-71878734D01*
X201949513Y-71430068D01*
X201510609Y-71247000D01*
X203073000Y-71247000D01*
X203073000Y-72806723D01*
X202899380Y-72384629D01*
X202889932Y-72370487D01*
X202441266Y-72058339D01*
X200204605Y-74295000D01*
X202441266Y-76531661D01*
X202889932Y-76219513D01*
X203073000Y-75780609D01*
X203073000Y-91313000D01*
X195887000Y-91313000D01*
X195887000Y-76711266D01*
X197788339Y-76711266D01*
X198100487Y-77159932D01*
X199343343Y-77678331D01*
X200689976Y-77681648D01*
X201935371Y-77169380D01*
X201949513Y-77159932D01*
X202261661Y-76711266D01*
X200025000Y-74474605D01*
X197788339Y-76711266D01*
X195887000Y-76711266D01*
X195887000Y-74959976D01*
X196638352Y-74959976D01*
X197150620Y-76205371D01*
X197160068Y-76219513D01*
X197608734Y-76531661D01*
X199845395Y-74295000D01*
X197608734Y-72058339D01*
X197160068Y-72370487D01*
X196641669Y-73613343D01*
X196638352Y-74959976D01*
X195887000Y-74959976D01*
X195887000Y-74930000D01*
X195766958Y-74326508D01*
X195724852Y-74263492D01*
X195425107Y-73814892D01*
X194155107Y-72544893D01*
X193643492Y-72203042D01*
X193040000Y-72083000D01*
X180340000Y-72083000D01*
X179736508Y-72203042D01*
X179224892Y-72544893D01*
X176684893Y-75084893D01*
X176343042Y-75596508D01*
X176223000Y-76200000D01*
X176223000Y-77099893D01*
X176204460Y-77127640D01*
X176073000Y-77788534D01*
X176073000Y-79691466D01*
X176204460Y-80352360D01*
X176578827Y-80912639D01*
X177139106Y-81287006D01*
X177800000Y-81418466D01*
X178460894Y-81287006D01*
X179021173Y-80912639D01*
X179395540Y-80352360D01*
X179527000Y-79691466D01*
X179527000Y-77788534D01*
X179395540Y-77127640D01*
X179377000Y-77099893D01*
X179377000Y-76853214D01*
X180993215Y-75237000D01*
X192386786Y-75237000D01*
X192733000Y-75583215D01*
X192733000Y-91313000D01*
X186690000Y-91313000D01*
X186640590Y-91323006D01*
X186598965Y-91351447D01*
X186571685Y-91393841D01*
X186563000Y-91440000D01*
X186563000Y-92481740D01*
X178764978Y-92481740D01*
X178164905Y-92232568D01*
X177438283Y-92231934D01*
X176766728Y-92509414D01*
X176252480Y-93022766D01*
X175973828Y-93693835D01*
X175973194Y-94420457D01*
X176250674Y-95092012D01*
X176764026Y-95606260D01*
X177435095Y-95884912D01*
X178161717Y-95885546D01*
X178766296Y-95635740D01*
X186563000Y-95635740D01*
X186563000Y-113030000D01*
X186573006Y-113079410D01*
X186601447Y-113121035D01*
X186643841Y-113148315D01*
X186690000Y-113157000D01*
X190131577Y-113157000D01*
X190093370Y-113349082D01*
X190093370Y-115250918D01*
X190220996Y-115892537D01*
X190584444Y-116436474D01*
X190692782Y-116508863D01*
X190682498Y-116560562D01*
X190682498Y-117260263D01*
X185928446Y-122014315D01*
X185694982Y-122363719D01*
X185613000Y-122775869D01*
X185613000Y-123383000D01*
X185410488Y-123383000D01*
X185395535Y-123303532D01*
X185214413Y-123022061D01*
X184938052Y-122833231D01*
X184610000Y-122766799D01*
X182610000Y-122766799D01*
X182303532Y-122824465D01*
X182022061Y-123005587D01*
X181833231Y-123281948D01*
X181766799Y-123610000D01*
X181766799Y-125310000D01*
X181824465Y-125616468D01*
X182005587Y-125897939D01*
X182281948Y-126086769D01*
X182533000Y-126137608D01*
X182533000Y-127893715D01*
X182136955Y-127629086D01*
X181610000Y-127524268D01*
X181083045Y-127629086D01*
X180636314Y-127927582D01*
X180340000Y-128371047D01*
X180043686Y-127927582D01*
X179596955Y-127629086D01*
X179070000Y-127524268D01*
X178877000Y-127562658D01*
X178877000Y-126153201D01*
X180610000Y-126153201D01*
X180916468Y-126095535D01*
X181197939Y-125914413D01*
X181386769Y-125638052D01*
X181453201Y-125310000D01*
X181453201Y-123610000D01*
X181395535Y-123303532D01*
X181214413Y-123022061D01*
X180938052Y-122833231D01*
X180610000Y-122766799D01*
X179532201Y-122766799D01*
X179532201Y-121031000D01*
X179474535Y-120724532D01*
X179293413Y-120443061D01*
X179017052Y-120254231D01*
X178877000Y-120225870D01*
X178877000Y-115907000D01*
X179916799Y-115907000D01*
X179916799Y-116030000D01*
X179974465Y-116336468D01*
X180155587Y-116617939D01*
X180431948Y-116806769D01*
X180760000Y-116873201D01*
X182460000Y-116873201D01*
X182766468Y-116815535D01*
X183047939Y-116634413D01*
X183236769Y-116358052D01*
X183303201Y-116030000D01*
X183303201Y-114030000D01*
X183245535Y-113723532D01*
X183064413Y-113442061D01*
X182788052Y-113253231D01*
X182460000Y-113186799D01*
X180760000Y-113186799D01*
X180453532Y-113244465D01*
X180172061Y-113425587D01*
X179983231Y-113701948D01*
X179972893Y-113753000D01*
X175883626Y-113753000D01*
X175844413Y-113692061D01*
X175568052Y-113503231D01*
X175240000Y-113436799D01*
X172740000Y-113436799D01*
X172433532Y-113494465D01*
X172152061Y-113675587D01*
X171963231Y-113951948D01*
X171896799Y-114280000D01*
X171896799Y-118030000D01*
X171954465Y-118336468D01*
X172135587Y-118617939D01*
X172411948Y-118806769D01*
X172740000Y-118873201D01*
X175240000Y-118873201D01*
X175546468Y-118815535D01*
X175827939Y-118634413D01*
X176016769Y-118358052D01*
X176083201Y-118030000D01*
X176083201Y-115907000D01*
X176723000Y-115907000D01*
X176723000Y-120223174D01*
X176604532Y-120245465D01*
X176323061Y-120426587D01*
X176134231Y-120702948D01*
X176067799Y-121031000D01*
X176067799Y-122766799D01*
X174990000Y-122766799D01*
X174683532Y-122824465D01*
X174402061Y-123005587D01*
X174213231Y-123281948D01*
X174146799Y-123610000D01*
X174146799Y-125310000D01*
X174204465Y-125616468D01*
X174385587Y-125897939D01*
X174661948Y-126086769D01*
X174990000Y-126153201D01*
X176723000Y-126153201D01*
X176723000Y-127562658D01*
X176530000Y-127524268D01*
X176003045Y-127629086D01*
X175556314Y-127927582D01*
X175260000Y-128371047D01*
X174963686Y-127927582D01*
X174516955Y-127629086D01*
X173990000Y-127524268D01*
X173463045Y-127629086D01*
X173067000Y-127893715D01*
X173067000Y-126138712D01*
X173296468Y-126095535D01*
X173577939Y-125914413D01*
X173766769Y-125638052D01*
X173833201Y-125310000D01*
X173833201Y-123610000D01*
X173775535Y-123303532D01*
X173594413Y-123022061D01*
X173318052Y-122833231D01*
X172990000Y-122766799D01*
X170990000Y-122766799D01*
X170683532Y-122824465D01*
X170402061Y-123005587D01*
X170213231Y-123281948D01*
X170146799Y-123610000D01*
X170146799Y-125310000D01*
X170204465Y-125616468D01*
X170385587Y-125897939D01*
X170661948Y-126086769D01*
X170913000Y-126137608D01*
X170913000Y-126915242D01*
X170418035Y-126734484D01*
X169812300Y-126760277D01*
X169372467Y-126942461D01*
X169287409Y-127197804D01*
X170180000Y-128090395D01*
X170194143Y-128076253D01*
X170373748Y-128255858D01*
X170359605Y-128270000D01*
X170373748Y-128284143D01*
X170194143Y-128463748D01*
X170180000Y-128449605D01*
X169287409Y-129342196D01*
X169372467Y-129597539D01*
X169743396Y-129733000D01*
X168057953Y-129733000D01*
X168062831Y-129708910D01*
X168062831Y-128031965D01*
X168644484Y-128031965D01*
X168670277Y-128637700D01*
X168852461Y-129077533D01*
X169107804Y-129162591D01*
X170000395Y-128270000D01*
X169107804Y-127377409D01*
X168852461Y-127462467D01*
X168644484Y-128031965D01*
X168062831Y-128031965D01*
X168062831Y-126409450D01*
X168005165Y-126102982D01*
X167824043Y-125821511D01*
X167547682Y-125632681D01*
X167219630Y-125566249D01*
X165520370Y-125566249D01*
X165407000Y-125587581D01*
X165407000Y-123190000D01*
X165286958Y-122586508D01*
X165046742Y-122227000D01*
X164945107Y-122074892D01*
X162867000Y-119996786D01*
X162867000Y-116336257D01*
X162870011Y-116340024D01*
X163379190Y-116620649D01*
X163473168Y-116641540D01*
X163703000Y-116520214D01*
X163703000Y-114427000D01*
X163957000Y-114427000D01*
X163957000Y-116520214D01*
X164186832Y-116641540D01*
X164280810Y-116620649D01*
X164789989Y-116340024D01*
X165153018Y-115885906D01*
X165314630Y-115327430D01*
X165314630Y-114427000D01*
X163957000Y-114427000D01*
X163703000Y-114427000D01*
X163683000Y-114427000D01*
X163683000Y-114173000D01*
X163703000Y-114173000D01*
X163703000Y-114153000D01*
X163957000Y-114153000D01*
X163957000Y-114173000D01*
X165314630Y-114173000D01*
X165314630Y-113272570D01*
X165281186Y-113157000D01*
X168910000Y-113157000D01*
X168959410Y-113146994D01*
X169001035Y-113118553D01*
X169028315Y-113076159D01*
X169037000Y-113030000D01*
X169037000Y-112832196D01*
X176907409Y-112832196D01*
X176992467Y-113087539D01*
X177561965Y-113295516D01*
X178167700Y-113269723D01*
X178607533Y-113087539D01*
X178692591Y-112832196D01*
X177800000Y-111939605D01*
X176907409Y-112832196D01*
X169037000Y-112832196D01*
X169037000Y-110190750D01*
X172105000Y-110190750D01*
X172105000Y-111906309D01*
X172201673Y-112139698D01*
X172380301Y-112318327D01*
X172613690Y-112415000D01*
X173704250Y-112415000D01*
X173863000Y-112256250D01*
X173863000Y-110032000D01*
X174117000Y-110032000D01*
X174117000Y-112256250D01*
X174275750Y-112415000D01*
X175366310Y-112415000D01*
X175599699Y-112318327D01*
X175778327Y-112139698D01*
X175875000Y-111906309D01*
X175875000Y-111521965D01*
X176264484Y-111521965D01*
X176290277Y-112127700D01*
X176472461Y-112567533D01*
X176727804Y-112652591D01*
X177620395Y-111760000D01*
X177979605Y-111760000D01*
X178872196Y-112652591D01*
X179127539Y-112567533D01*
X179335516Y-111998035D01*
X179309723Y-111392300D01*
X179127539Y-110952467D01*
X178872196Y-110867409D01*
X177979605Y-111760000D01*
X177620395Y-111760000D01*
X176727804Y-110867409D01*
X176472461Y-110952467D01*
X176264484Y-111521965D01*
X175875000Y-111521965D01*
X175875000Y-110687804D01*
X176907409Y-110687804D01*
X177800000Y-111580395D01*
X178692591Y-110687804D01*
X178607533Y-110432461D01*
X178038035Y-110224484D01*
X177432300Y-110250277D01*
X176992467Y-110432461D01*
X176907409Y-110687804D01*
X175875000Y-110687804D01*
X175875000Y-110190750D01*
X175716250Y-110032000D01*
X174117000Y-110032000D01*
X173863000Y-110032000D01*
X172263750Y-110032000D01*
X172105000Y-110190750D01*
X169037000Y-110190750D01*
X169037000Y-107903691D01*
X172105000Y-107903691D01*
X172105000Y-109619250D01*
X172263750Y-109778000D01*
X173863000Y-109778000D01*
X173863000Y-107553750D01*
X174117000Y-107553750D01*
X174117000Y-109778000D01*
X175716250Y-109778000D01*
X175875000Y-109619250D01*
X175875000Y-107903691D01*
X175778327Y-107670302D01*
X175599699Y-107491673D01*
X175366310Y-107395000D01*
X174275750Y-107395000D01*
X174117000Y-107553750D01*
X173863000Y-107553750D01*
X173704250Y-107395000D01*
X172613690Y-107395000D01*
X172380301Y-107491673D01*
X172201673Y-107670302D01*
X172105000Y-107903691D01*
X169037000Y-107903691D01*
X169037000Y-105795740D01*
X176835022Y-105795740D01*
X177435095Y-106044912D01*
X178161717Y-106045546D01*
X178833272Y-105768066D01*
X179347520Y-105254714D01*
X179626172Y-104583645D01*
X179626806Y-103857023D01*
X179349326Y-103185468D01*
X178835974Y-102671220D01*
X178164905Y-102392568D01*
X177438283Y-102391934D01*
X176833704Y-102641740D01*
X169037000Y-102641740D01*
X169037000Y-91440000D01*
X169026994Y-91390590D01*
X168998553Y-91348965D01*
X168956159Y-91321685D01*
X168910000Y-91313000D01*
X162867000Y-91313000D01*
X162867000Y-80317000D01*
X165896799Y-80317000D01*
X165896799Y-80540000D01*
X165954465Y-80846468D01*
X166135587Y-81127939D01*
X166411948Y-81316769D01*
X166740000Y-81383201D01*
X168540000Y-81383201D01*
X168846468Y-81325535D01*
X169127939Y-81144413D01*
X169316769Y-80868052D01*
X169383201Y-80540000D01*
X169383201Y-77788534D01*
X170993000Y-77788534D01*
X170993000Y-79691466D01*
X171124460Y-80352360D01*
X171143000Y-80380107D01*
X171143000Y-97790000D01*
X171243232Y-98293898D01*
X171263042Y-98393492D01*
X171604893Y-98905107D01*
X172874892Y-100175107D01*
X173077091Y-100310212D01*
X173386508Y-100516958D01*
X173990000Y-100637000D01*
X179686786Y-100637000D01*
X181128319Y-102078534D01*
X181128319Y-109186799D01*
X180760000Y-109186799D01*
X180453532Y-109244465D01*
X180172061Y-109425587D01*
X179983231Y-109701948D01*
X179916799Y-110030000D01*
X179916799Y-112030000D01*
X179974465Y-112336468D01*
X180155587Y-112617939D01*
X180431948Y-112806769D01*
X180760000Y-112873201D01*
X182460000Y-112873201D01*
X182766468Y-112815535D01*
X183047939Y-112634413D01*
X183236769Y-112358052D01*
X183303201Y-112030000D01*
X183303201Y-111567013D01*
X183820426Y-111049788D01*
X184162277Y-110538173D01*
X184183304Y-110432461D01*
X184282319Y-109934681D01*
X184282319Y-101425319D01*
X184162277Y-100821827D01*
X184133314Y-100778481D01*
X183820426Y-100310211D01*
X181455107Y-97944893D01*
X180943492Y-97603042D01*
X180340000Y-97483000D01*
X174643215Y-97483000D01*
X174297000Y-97136786D01*
X174297000Y-87937000D01*
X182880000Y-87937000D01*
X183483492Y-87816958D01*
X183995107Y-87475107D01*
X184336958Y-86963492D01*
X184457000Y-86360000D01*
X184457000Y-81014068D01*
X184556769Y-80868052D01*
X184623201Y-80540000D01*
X184623201Y-78867000D01*
X186425000Y-78867000D01*
X186425000Y-79767000D01*
X186590446Y-80344752D01*
X186964394Y-80815212D01*
X187489914Y-81106756D01*
X187595260Y-81131036D01*
X187833000Y-81010378D01*
X187833000Y-78867000D01*
X188087000Y-78867000D01*
X188087000Y-81010378D01*
X188324740Y-81131036D01*
X188430086Y-81106756D01*
X188955606Y-80815212D01*
X189329554Y-80344752D01*
X189495000Y-79767000D01*
X189495000Y-78867000D01*
X188087000Y-78867000D01*
X187833000Y-78867000D01*
X186425000Y-78867000D01*
X184623201Y-78867000D01*
X184623201Y-77713000D01*
X186425000Y-77713000D01*
X186425000Y-78613000D01*
X187833000Y-78613000D01*
X187833000Y-76469622D01*
X188087000Y-76469622D01*
X188087000Y-78613000D01*
X189495000Y-78613000D01*
X189495000Y-77713000D01*
X189329554Y-77135248D01*
X188955606Y-76664788D01*
X188430086Y-76373244D01*
X188324740Y-76348964D01*
X188087000Y-76469622D01*
X187833000Y-76469622D01*
X187595260Y-76348964D01*
X187489914Y-76373244D01*
X186964394Y-76664788D01*
X186590446Y-77135248D01*
X186425000Y-77713000D01*
X184623201Y-77713000D01*
X184623201Y-76940000D01*
X184565535Y-76633532D01*
X184384413Y-76352061D01*
X184108052Y-76163231D01*
X183780000Y-76096799D01*
X181980000Y-76096799D01*
X181673532Y-76154465D01*
X181392061Y-76335587D01*
X181203231Y-76611948D01*
X181136799Y-76940000D01*
X181136799Y-80540000D01*
X181194465Y-80846468D01*
X181303000Y-81015136D01*
X181303000Y-84783000D01*
X174297000Y-84783000D01*
X174297000Y-80380107D01*
X174315540Y-80352360D01*
X174447000Y-79691466D01*
X174447000Y-77788534D01*
X174315540Y-77127640D01*
X173941173Y-76567361D01*
X173380894Y-76192994D01*
X172720000Y-76061534D01*
X172059106Y-76192994D01*
X171498827Y-76567361D01*
X171124460Y-77127640D01*
X170993000Y-77788534D01*
X169383201Y-77788534D01*
X169383201Y-76940000D01*
X169325535Y-76633532D01*
X169144413Y-76352061D01*
X168868052Y-76163231D01*
X168540000Y-76096799D01*
X166740000Y-76096799D01*
X166433532Y-76154465D01*
X166152061Y-76335587D01*
X165963231Y-76611948D01*
X165896799Y-76940000D01*
X165896799Y-77163000D01*
X161958122Y-77163000D01*
X161354630Y-77283042D01*
X160843014Y-77624893D01*
X160174893Y-78293015D01*
X159833042Y-78804630D01*
X159713000Y-79408122D01*
X159713000Y-91313000D01*
X152527000Y-91313000D01*
X152527000Y-76711266D01*
X153338339Y-76711266D01*
X153650487Y-77159932D01*
X154893343Y-77678331D01*
X156239976Y-77681648D01*
X157485371Y-77169380D01*
X157499513Y-77159932D01*
X157811661Y-76711266D01*
X155575000Y-74474605D01*
X153338339Y-76711266D01*
X152527000Y-76711266D01*
X152527000Y-75783277D01*
X152700620Y-76205371D01*
X152710068Y-76219513D01*
X153158734Y-76531661D01*
X155395395Y-74295000D01*
X155754605Y-74295000D01*
X157991266Y-76531661D01*
X158439932Y-76219513D01*
X158958331Y-74976657D01*
X158961648Y-73630024D01*
X158449380Y-72384629D01*
X158439932Y-72370487D01*
X157991266Y-72058339D01*
X155754605Y-74295000D01*
X155395395Y-74295000D01*
X153158734Y-72058339D01*
X152710068Y-72370487D01*
X152527000Y-72809391D01*
X152527000Y-71247000D01*
X154086723Y-71247000D01*
X153664629Y-71420620D01*
M02*
