G04 #@! TF.FileFunction,Other,Fab,Bot*
%FSLAX46Y46*%
G04 Gerber Fmt 4.6, Leading zero omitted, Abs format (unit mm)*
G04 Created by KiCad (PCBNEW 4.0.5+dfsg1-4) date Mon Apr 17 11:42:06 2017*
%MOMM*%
%LPD*%
G01*
G04 APERTURE LIST*
%ADD10C,0.100000*%
%ADD11C,0.150000*%
G04 APERTURE END LIST*
D10*
D11*
X161760000Y-132410000D02*
X163360000Y-132410000D01*
X161760000Y-129210000D02*
X161760000Y-132410000D01*
X163360000Y-129210000D02*
X161760000Y-129210000D01*
X163360000Y-132410000D02*
X163360000Y-129210000D01*
X163360000Y-135560000D02*
X161760000Y-135560000D01*
X163360000Y-138760000D02*
X163360000Y-135560000D01*
X161760000Y-138760000D02*
X163360000Y-138760000D01*
X161760000Y-135560000D02*
X161760000Y-138760000D01*
X191300000Y-135560000D02*
X189700000Y-135560000D01*
X191300000Y-138760000D02*
X191300000Y-135560000D01*
X189700000Y-138760000D02*
X191300000Y-138760000D01*
X189700000Y-135560000D02*
X189700000Y-138760000D01*
X189700000Y-132199200D02*
X191300000Y-132199200D01*
X189700000Y-128999200D02*
X189700000Y-132199200D01*
X191300000Y-128999200D02*
X189700000Y-128999200D01*
X191300000Y-132199200D02*
X191300000Y-128999200D01*
D10*
X165900000Y-135560000D02*
X164300000Y-135560000D01*
X165900000Y-138760000D02*
X165900000Y-135560000D01*
X164300000Y-138760000D02*
X165900000Y-138760000D01*
X164300000Y-135560000D02*
X164300000Y-138760000D01*
X180010000Y-123660000D02*
X180010000Y-125260000D01*
X183210000Y-123660000D02*
X180010000Y-123660000D01*
X183210000Y-125260000D02*
X183210000Y-123660000D01*
X180010000Y-125260000D02*
X183210000Y-125260000D01*
X175590000Y-125260000D02*
X175590000Y-123660000D01*
X172390000Y-125260000D02*
X175590000Y-125260000D01*
X172390000Y-123660000D02*
X172390000Y-125260000D01*
X175590000Y-123660000D02*
X172390000Y-123660000D01*
X193840000Y-135560000D02*
X192240000Y-135560000D01*
X193840000Y-138760000D02*
X193840000Y-135560000D01*
X192240000Y-138760000D02*
X193840000Y-138760000D01*
X192240000Y-135560000D02*
X192240000Y-138760000D01*
X182410000Y-111430000D02*
X180810000Y-111430000D01*
X182410000Y-114630000D02*
X182410000Y-111430000D01*
X180810000Y-114630000D02*
X182410000Y-114630000D01*
X180810000Y-111430000D02*
X180810000Y-114630000D01*
D11*
X171856400Y-110896400D02*
X176123600Y-110896400D01*
X171856400Y-114490500D02*
X171856400Y-110896400D01*
X172529500Y-115163600D02*
X171856400Y-114490500D01*
X175450500Y-115163600D02*
X172529500Y-115163600D01*
X176123600Y-114490500D02*
X175450500Y-115163600D01*
X176123600Y-110896400D02*
X176123600Y-114490500D01*
X160440714Y-129643334D02*
X161107381Y-129643334D01*
X160059762Y-129405238D02*
X160774048Y-129167143D01*
X160774048Y-129786191D01*
X160107381Y-130071905D02*
X160107381Y-130738572D01*
X161107381Y-130310000D01*
X160440714Y-131119524D02*
X161107381Y-131119524D01*
X160535952Y-131119524D02*
X160488333Y-131167143D01*
X160440714Y-131262381D01*
X160440714Y-131405239D01*
X160488333Y-131500477D01*
X160583571Y-131548096D01*
X161107381Y-131548096D01*
X160583571Y-132357620D02*
X160583571Y-132024286D01*
X161107381Y-132024286D02*
X160107381Y-132024286D01*
X160107381Y-132500477D01*
X160440714Y-133453334D02*
X161107381Y-133453334D01*
X160059762Y-133215238D02*
X160774048Y-132977143D01*
X160774048Y-133596191D01*
X160107381Y-133881905D02*
X160107381Y-134548572D01*
X161107381Y-134120000D01*
X160440714Y-134929524D02*
X161107381Y-134929524D01*
X160535952Y-134929524D02*
X160488333Y-134977143D01*
X160440714Y-135072381D01*
X160440714Y-135215239D01*
X160488333Y-135310477D01*
X160583571Y-135358096D01*
X161107381Y-135358096D01*
X160583571Y-136167620D02*
X160583571Y-135834286D01*
X161107381Y-135834286D02*
X160107381Y-135834286D01*
X160107381Y-136310477D01*
X188380714Y-135993334D02*
X189047381Y-135993334D01*
X187999762Y-135755238D02*
X188714048Y-135517143D01*
X188714048Y-136136191D01*
X188047381Y-136421905D02*
X188047381Y-137088572D01*
X189047381Y-136660000D01*
X188380714Y-137469524D02*
X189047381Y-137469524D01*
X188475952Y-137469524D02*
X188428333Y-137517143D01*
X188380714Y-137612381D01*
X188380714Y-137755239D01*
X188428333Y-137850477D01*
X188523571Y-137898096D01*
X189047381Y-137898096D01*
X188523571Y-138707620D02*
X188523571Y-138374286D01*
X189047381Y-138374286D02*
X188047381Y-138374286D01*
X188047381Y-138850477D01*
X188380714Y-129643334D02*
X189047381Y-129643334D01*
X187999762Y-129405238D02*
X188714048Y-129167143D01*
X188714048Y-129786191D01*
X188047381Y-130071905D02*
X188047381Y-130738572D01*
X189047381Y-130310000D01*
X188380714Y-131119524D02*
X189047381Y-131119524D01*
X188475952Y-131119524D02*
X188428333Y-131167143D01*
X188380714Y-131262381D01*
X188380714Y-131405239D01*
X188428333Y-131500477D01*
X188523571Y-131548096D01*
X189047381Y-131548096D01*
X188523571Y-132357620D02*
X188523571Y-132024286D01*
X189047381Y-132024286D02*
X188047381Y-132024286D01*
X188047381Y-132500477D01*
X166457381Y-135945714D02*
X166457381Y-136564762D01*
X166838333Y-136231428D01*
X166838333Y-136374286D01*
X166885952Y-136469524D01*
X166933571Y-136517143D01*
X167028810Y-136564762D01*
X167266905Y-136564762D01*
X167362143Y-136517143D01*
X167409762Y-136469524D01*
X167457381Y-136374286D01*
X167457381Y-136088571D01*
X167409762Y-135993333D01*
X167362143Y-135945714D01*
X166457381Y-136898095D02*
X166457381Y-137517143D01*
X166838333Y-137183809D01*
X166838333Y-137326667D01*
X166885952Y-137421905D01*
X166933571Y-137469524D01*
X167028810Y-137517143D01*
X167266905Y-137517143D01*
X167362143Y-137469524D01*
X167409762Y-137421905D01*
X167457381Y-137326667D01*
X167457381Y-137040952D01*
X167409762Y-136945714D01*
X167362143Y-136898095D01*
X167457381Y-137945714D02*
X166457381Y-137945714D01*
X167076429Y-138040952D02*
X167457381Y-138326667D01*
X166790714Y-138326667D02*
X167171667Y-137945714D01*
X182300476Y-122340714D02*
X182300476Y-123007381D01*
X182538572Y-121959762D02*
X182776667Y-122674048D01*
X182157619Y-122674048D01*
X181871905Y-122007381D02*
X181205238Y-122007381D01*
X181633810Y-123007381D01*
X180824286Y-123007381D02*
X180824286Y-122007381D01*
X180729048Y-122626429D02*
X180443333Y-123007381D01*
X180443333Y-122340714D02*
X180824286Y-122721667D01*
X174680476Y-122340714D02*
X174680476Y-123007381D01*
X174918572Y-121959762D02*
X175156667Y-122674048D01*
X174537619Y-122674048D01*
X174251905Y-122007381D02*
X173585238Y-122007381D01*
X174013810Y-123007381D01*
X173204286Y-123007381D02*
X173204286Y-122007381D01*
X173109048Y-122626429D02*
X172823333Y-123007381D01*
X172823333Y-122340714D02*
X173204286Y-122721667D01*
X194397381Y-134040714D02*
X194397381Y-134659762D01*
X194778333Y-134326428D01*
X194778333Y-134469286D01*
X194825952Y-134564524D01*
X194873571Y-134612143D01*
X194968810Y-134659762D01*
X195206905Y-134659762D01*
X195302143Y-134612143D01*
X195349762Y-134564524D01*
X195397381Y-134469286D01*
X195397381Y-134183571D01*
X195349762Y-134088333D01*
X195302143Y-134040714D01*
X194397381Y-134993095D02*
X194397381Y-135612143D01*
X194778333Y-135278809D01*
X194778333Y-135421667D01*
X194825952Y-135516905D01*
X194873571Y-135564524D01*
X194968810Y-135612143D01*
X195206905Y-135612143D01*
X195302143Y-135564524D01*
X195349762Y-135516905D01*
X195397381Y-135421667D01*
X195397381Y-135135952D01*
X195349762Y-135040714D01*
X195302143Y-134993095D01*
X195397381Y-136040714D02*
X194397381Y-136040714D01*
X195016429Y-136135952D02*
X195397381Y-136421667D01*
X194730714Y-136421667D02*
X195111667Y-136040714D01*
X180157381Y-112196667D02*
X180157381Y-111625238D01*
X180157381Y-111910952D02*
X179157381Y-111910952D01*
X179300238Y-111815714D01*
X179395476Y-111720476D01*
X179443095Y-111625238D01*
X180062143Y-112625238D02*
X180109762Y-112672857D01*
X180157381Y-112625238D01*
X180109762Y-112577619D01*
X180062143Y-112625238D01*
X180157381Y-112625238D01*
X179157381Y-113577619D02*
X179157381Y-113101428D01*
X179633571Y-113053809D01*
X179585952Y-113101428D01*
X179538333Y-113196666D01*
X179538333Y-113434762D01*
X179585952Y-113530000D01*
X179633571Y-113577619D01*
X179728810Y-113625238D01*
X179966905Y-113625238D01*
X180062143Y-113577619D01*
X180109762Y-113530000D01*
X180157381Y-113434762D01*
X180157381Y-113196666D01*
X180109762Y-113101428D01*
X180062143Y-113053809D01*
X180157381Y-114053809D02*
X179157381Y-114053809D01*
X179776429Y-114149047D02*
X180157381Y-114434762D01*
X179490714Y-114434762D02*
X179871667Y-114053809D01*
X171140381Y-113704762D02*
X171140381Y-113133333D01*
X171140381Y-113419047D02*
X170140381Y-113419047D01*
X170283238Y-113323809D01*
X170378476Y-113228571D01*
X170426095Y-113133333D01*
X170473714Y-114561905D02*
X171140381Y-114561905D01*
X170473714Y-114133333D02*
X170997524Y-114133333D01*
X171092762Y-114180952D01*
X171140381Y-114276190D01*
X171140381Y-114419048D01*
X171092762Y-114514286D01*
X171045143Y-114561905D01*
X170616571Y-115371429D02*
X170616571Y-115038095D01*
X171140381Y-115038095D02*
X170140381Y-115038095D01*
X170140381Y-115514286D01*
X174124929Y-113766648D02*
X174124929Y-114528553D01*
X174505881Y-114147601D02*
X173743976Y-114147601D01*
X169362381Y-128667143D02*
X169362381Y-128095714D01*
X169362381Y-128381428D02*
X168362381Y-128381428D01*
X168505238Y-128286190D01*
X168600476Y-128190952D01*
X168648095Y-128095714D01*
X169362381Y-129095714D02*
X168362381Y-129095714D01*
X169362381Y-129667143D01*
X168362381Y-129667143D01*
X168695714Y-130571905D02*
X169362381Y-130571905D01*
X168314762Y-130333809D02*
X169029048Y-130095714D01*
X169029048Y-130714762D01*
X169362381Y-131619524D02*
X169362381Y-131048095D01*
X169362381Y-131333809D02*
X168362381Y-131333809D01*
X168505238Y-131238571D01*
X168600476Y-131143333D01*
X168648095Y-131048095D01*
X168695714Y-132476667D02*
X169362381Y-132476667D01*
X168314762Y-132238571D02*
X169029048Y-132000476D01*
X169029048Y-132619524D01*
X168790952Y-133143333D02*
X168743333Y-133048095D01*
X168695714Y-133000476D01*
X168600476Y-132952857D01*
X168552857Y-132952857D01*
X168457619Y-133000476D01*
X168410000Y-133048095D01*
X168362381Y-133143333D01*
X168362381Y-133333810D01*
X168410000Y-133429048D01*
X168457619Y-133476667D01*
X168552857Y-133524286D01*
X168600476Y-133524286D01*
X168695714Y-133476667D01*
X168743333Y-133429048D01*
X168790952Y-133333810D01*
X168790952Y-133143333D01*
X168838571Y-133048095D01*
X168886190Y-133000476D01*
X168981429Y-132952857D01*
X169171905Y-132952857D01*
X169267143Y-133000476D01*
X169314762Y-133048095D01*
X169362381Y-133143333D01*
X169362381Y-133333810D01*
X169314762Y-133429048D01*
X169267143Y-133476667D01*
X169171905Y-133524286D01*
X168981429Y-133524286D01*
X168886190Y-133476667D01*
X168838571Y-133429048D01*
X168790952Y-133333810D01*
X195397381Y-127397143D02*
X195397381Y-126825714D01*
X195397381Y-127111428D02*
X194397381Y-127111428D01*
X194540238Y-127016190D01*
X194635476Y-126920952D01*
X194683095Y-126825714D01*
X195397381Y-127825714D02*
X194397381Y-127825714D01*
X195397381Y-128397143D01*
X194397381Y-128397143D01*
X194730714Y-129301905D02*
X195397381Y-129301905D01*
X194349762Y-129063809D02*
X195064048Y-128825714D01*
X195064048Y-129444762D01*
X195397381Y-130349524D02*
X195397381Y-129778095D01*
X195397381Y-130063809D02*
X194397381Y-130063809D01*
X194540238Y-129968571D01*
X194635476Y-129873333D01*
X194683095Y-129778095D01*
X194730714Y-131206667D02*
X195397381Y-131206667D01*
X194349762Y-130968571D02*
X195064048Y-130730476D01*
X195064048Y-131349524D01*
X194825952Y-131873333D02*
X194778333Y-131778095D01*
X194730714Y-131730476D01*
X194635476Y-131682857D01*
X194587857Y-131682857D01*
X194492619Y-131730476D01*
X194445000Y-131778095D01*
X194397381Y-131873333D01*
X194397381Y-132063810D01*
X194445000Y-132159048D01*
X194492619Y-132206667D01*
X194587857Y-132254286D01*
X194635476Y-132254286D01*
X194730714Y-132206667D01*
X194778333Y-132159048D01*
X194825952Y-132063810D01*
X194825952Y-131873333D01*
X194873571Y-131778095D01*
X194921190Y-131730476D01*
X195016429Y-131682857D01*
X195206905Y-131682857D01*
X195302143Y-131730476D01*
X195349762Y-131778095D01*
X195397381Y-131873333D01*
X195397381Y-132063810D01*
X195349762Y-132159048D01*
X195302143Y-132206667D01*
X195206905Y-132254286D01*
X195016429Y-132254286D01*
X194921190Y-132206667D01*
X194873571Y-132159048D01*
X194825952Y-132063810D01*
M02*
