G04 #@! TF.FileFunction,Copper,L2,Bot,Signal*
%FSLAX46Y46*%
G04 Gerber Fmt 4.6, Leading zero omitted, Abs format (unit mm)*
G04 Created by KiCad (PCBNEW 4.0.5+dfsg1-4) date Mon Apr 17 00:41:20 2017*
%MOMM*%
%LPD*%
G01*
G04 APERTURE LIST*
%ADD10C,0.100000*%
%ADD11O,1.600000X2.300000*%
%ADD12C,1.778000*%
%ADD13R,1.778000X1.778000*%
%ADD14R,1.800000X3.600000*%
%ADD15O,1.800000X3.600000*%
%ADD16R,1.600000X2.000000*%
%ADD17R,1.700000X2.000000*%
%ADD18R,2.000000X1.700000*%
%ADD19R,1.600000X2.600000*%
%ADD20R,1.699260X3.299460*%
%ADD21C,5.500000*%
%ADD22O,1.699260X3.500120*%
%ADD23C,6.000000*%
%ADD24C,0.500000*%
%ADD25C,1.000000*%
%ADD26C,1.500000*%
%ADD27C,0.254000*%
G04 APERTURE END LIST*
D10*
D11*
X180340000Y-137160000D03*
X182880000Y-137160000D03*
X182880000Y-129540000D03*
X180340000Y-129540000D03*
D12*
X166370000Y-128270000D03*
D13*
X156210000Y-128270000D03*
D12*
X199390000Y-128270000D03*
D13*
X189230000Y-128270000D03*
D12*
X177800000Y-111760000D03*
D13*
X177800000Y-121920000D03*
D14*
X175260000Y-97790000D03*
D15*
X180340000Y-97790000D03*
D14*
X160020000Y-13970000D03*
D15*
X165100000Y-13970000D03*
X170180000Y-13970000D03*
D16*
X160020000Y-132810000D03*
X160020000Y-128810000D03*
X160020000Y-135160000D03*
X160020000Y-139160000D03*
X195580000Y-135160000D03*
X195580000Y-139160000D03*
X195580000Y-132599200D03*
X195580000Y-128599200D03*
D17*
X157480000Y-135160000D03*
X157480000Y-139160000D03*
D18*
X179610000Y-124460000D03*
X183610000Y-124460000D03*
X175990000Y-124460000D03*
X171990000Y-124460000D03*
D17*
X198120000Y-135160000D03*
X198120000Y-139160000D03*
X184150000Y-111030000D03*
X184150000Y-115030000D03*
D19*
X171450000Y-114830000D03*
X171450000Y-111230000D03*
D11*
X172720000Y-137160000D03*
X175260000Y-137160000D03*
X175260000Y-129540000D03*
X172720000Y-129540000D03*
D20*
X162560000Y-128059180D03*
X162560000Y-133560820D03*
X193040000Y-128059180D03*
X193040000Y-133560820D03*
D21*
X143510000Y-17780000D03*
X191770000Y-17780000D03*
D22*
X158750000Y-114300000D03*
X156210000Y-114300000D03*
X161290000Y-114300000D03*
D23*
X158750000Y-97536000D03*
D22*
X196850000Y-114554000D03*
X194310000Y-114554000D03*
X199390000Y-114554000D03*
D23*
X196850000Y-97790000D03*
D24*
X182880000Y-137160000D02*
X182880000Y-134620000D01*
X181610000Y-133350000D02*
X162770820Y-133350000D01*
X182880000Y-134620000D02*
X181610000Y-133350000D01*
X162770820Y-133350000D02*
X162560000Y-133560820D01*
X162560000Y-133560820D02*
X162560000Y-134360920D01*
X162560000Y-133560820D02*
X160770820Y-133560820D01*
X160770820Y-133560820D02*
X160020000Y-132810000D01*
X160020000Y-132810000D02*
X160020000Y-135160000D01*
X160020000Y-135160000D02*
X157480000Y-135160000D01*
D25*
X160040500Y-133560800D02*
X160020000Y-133540300D01*
D26*
X158750000Y-118110000D02*
X160020000Y-119380000D01*
X160020000Y-119380000D02*
X160020000Y-128810000D01*
X158750000Y-114300000D02*
X158750000Y-118110000D01*
X158750000Y-97536000D02*
X158750000Y-114300000D01*
D25*
X162560000Y-128059180D02*
X160770820Y-128059180D01*
X160770820Y-128059180D02*
X160020000Y-128810000D01*
X162339500Y-128059200D02*
X162560000Y-128059200D01*
X161820300Y-127540000D02*
X162339500Y-128059200D01*
D24*
X195580000Y-132599200D02*
X195580000Y-133350000D01*
X195580000Y-133350000D02*
X195580000Y-135160000D01*
X193040000Y-133560820D02*
X195369180Y-133560820D01*
X195369180Y-133560820D02*
X195580000Y-133350000D01*
X193040000Y-136430000D02*
X193040000Y-136400000D01*
X193040000Y-136400000D02*
X194280000Y-135160000D01*
X194280000Y-135160000D02*
X195580000Y-135160000D01*
X187787697Y-138552502D02*
X190917498Y-138552502D01*
X190917498Y-138552502D02*
X193040000Y-136430000D01*
X195580000Y-135160000D02*
X198120000Y-135160000D01*
X175260000Y-137160000D02*
X175260000Y-139700000D01*
X175260000Y-139700000D02*
X176530000Y-140970000D01*
X176530000Y-140970000D02*
X185420000Y-140970000D01*
X185420000Y-140970000D02*
X185420000Y-140920199D01*
X185420000Y-140920199D02*
X187787697Y-138552502D01*
D25*
X193580020Y-128599200D02*
X193040000Y-128059180D01*
D26*
X195580000Y-128599200D02*
X195330028Y-128599200D01*
X196850000Y-119380000D02*
X195580000Y-120650000D01*
X195580000Y-120650000D02*
X195580000Y-128599200D01*
X196850000Y-114554000D02*
X196850000Y-119380000D01*
X196850000Y-97790000D02*
X196850000Y-114554000D01*
D24*
X177800000Y-124460000D02*
X179610000Y-124460000D01*
X177800000Y-124460000D02*
X177800000Y-130810000D01*
X177800000Y-118110000D02*
X177800000Y-124460000D01*
X177800000Y-124460000D02*
X175990000Y-124460000D01*
X186690000Y-133350000D02*
X186690000Y-134620000D01*
X185420000Y-132080000D02*
X186690000Y-133350000D01*
X179070000Y-132080000D02*
X185420000Y-132080000D01*
X177800000Y-130810000D02*
X179070000Y-132080000D01*
X180340000Y-135890000D02*
X180340000Y-137160000D01*
X179070000Y-134620000D02*
X180340000Y-135890000D01*
X173610000Y-134620000D02*
X179070000Y-134620000D01*
X172720000Y-137160000D02*
X172720000Y-135510000D01*
X172720000Y-135510000D02*
X173610000Y-134620000D01*
X180340000Y-137160000D02*
X180340000Y-138810000D01*
X180340000Y-138810000D02*
X181230000Y-139700000D01*
X181230000Y-139700000D02*
X184598377Y-139700000D01*
X184598377Y-139700000D02*
X186690000Y-137608377D01*
X186690000Y-137608377D02*
X186690000Y-134620000D01*
X184150000Y-118110000D02*
X184150000Y-115030000D01*
X177800000Y-118110000D02*
X184150000Y-118110000D01*
X172720000Y-116450000D02*
X172720000Y-118110000D01*
X177800000Y-118110000D02*
X172720000Y-118110000D01*
X171450000Y-114830000D02*
X171450000Y-115180000D01*
X171450000Y-115180000D02*
X172720000Y-116450000D01*
D26*
X184150000Y-102500000D02*
X184150000Y-111030000D01*
X180340000Y-97790000D02*
X180340000Y-98690000D01*
X180340000Y-98690000D02*
X184150000Y-102500000D01*
D24*
X172720000Y-123920000D02*
X172180000Y-124460000D01*
X172720000Y-125000000D02*
X172180000Y-124460000D01*
X182880000Y-129540000D02*
X182880000Y-124460000D01*
D27*
G36*
X157365000Y-118110000D02*
X157470427Y-118640017D01*
X157662606Y-118927633D01*
X157770657Y-119089343D01*
X158635000Y-119953686D01*
X158635000Y-127541380D01*
X158623569Y-127558110D01*
X158572560Y-127810000D01*
X158572560Y-129810000D01*
X158616838Y-130045317D01*
X158755910Y-130261441D01*
X158968110Y-130406431D01*
X159220000Y-130457440D01*
X160820000Y-130457440D01*
X161055317Y-130413162D01*
X161271441Y-130274090D01*
X161316413Y-130208271D01*
X161458480Y-130305341D01*
X161710370Y-130356350D01*
X163409630Y-130356350D01*
X163644947Y-130312072D01*
X163861071Y-130173000D01*
X164006061Y-129960800D01*
X164057070Y-129708910D01*
X164057070Y-129342196D01*
X165477409Y-129342196D01*
X165562467Y-129597539D01*
X166131965Y-129805516D01*
X166737700Y-129779723D01*
X167177533Y-129597539D01*
X167262591Y-129342196D01*
X166370000Y-128449605D01*
X165477409Y-129342196D01*
X164057070Y-129342196D01*
X164057070Y-128031965D01*
X164834484Y-128031965D01*
X164860277Y-128637700D01*
X165042461Y-129077533D01*
X165297804Y-129162591D01*
X166190395Y-128270000D01*
X166549605Y-128270000D01*
X167442196Y-129162591D01*
X167464894Y-129155030D01*
X171285000Y-129155030D01*
X171285000Y-129924970D01*
X171394233Y-130474121D01*
X171705302Y-130939668D01*
X172170849Y-131250737D01*
X172720000Y-131359970D01*
X173269151Y-131250737D01*
X173734698Y-130939668D01*
X173990000Y-130557582D01*
X174245302Y-130939668D01*
X174710849Y-131250737D01*
X175260000Y-131359970D01*
X175809151Y-131250737D01*
X176274698Y-130939668D01*
X176585767Y-130474121D01*
X176695000Y-129924970D01*
X176695000Y-129155030D01*
X176585767Y-128605879D01*
X176274698Y-128140332D01*
X175809151Y-127829263D01*
X175260000Y-127720030D01*
X174710849Y-127829263D01*
X174245302Y-128140332D01*
X173990000Y-128522418D01*
X173734698Y-128140332D01*
X173269151Y-127829263D01*
X172720000Y-127720030D01*
X172170849Y-127829263D01*
X171705302Y-128140332D01*
X171394233Y-128605879D01*
X171285000Y-129155030D01*
X167464894Y-129155030D01*
X167697539Y-129077533D01*
X167905516Y-128508035D01*
X167879723Y-127902300D01*
X167697539Y-127462467D01*
X167442196Y-127377409D01*
X166549605Y-128270000D01*
X166190395Y-128270000D01*
X165297804Y-127377409D01*
X165042461Y-127462467D01*
X164834484Y-128031965D01*
X164057070Y-128031965D01*
X164057070Y-127197804D01*
X165477409Y-127197804D01*
X166370000Y-128090395D01*
X167262591Y-127197804D01*
X167177533Y-126942461D01*
X166608035Y-126734484D01*
X166002300Y-126760277D01*
X165562467Y-126942461D01*
X165477409Y-127197804D01*
X164057070Y-127197804D01*
X164057070Y-126409450D01*
X164012792Y-126174133D01*
X163873720Y-125958009D01*
X163661520Y-125813019D01*
X163409630Y-125762010D01*
X161710370Y-125762010D01*
X161475053Y-125806288D01*
X161405000Y-125851366D01*
X161405000Y-123610000D01*
X170342560Y-123610000D01*
X170342560Y-125310000D01*
X170386838Y-125545317D01*
X170525910Y-125761441D01*
X170738110Y-125906431D01*
X170990000Y-125957440D01*
X172990000Y-125957440D01*
X173225317Y-125913162D01*
X173441441Y-125774090D01*
X173586431Y-125561890D01*
X173637440Y-125310000D01*
X173637440Y-123610000D01*
X173593162Y-123374683D01*
X173454090Y-123158559D01*
X173241890Y-123013569D01*
X172990000Y-122962560D01*
X170990000Y-122962560D01*
X170754683Y-123006838D01*
X170538559Y-123145910D01*
X170393569Y-123358110D01*
X170342560Y-123610000D01*
X161405000Y-123610000D01*
X161405000Y-119380000D01*
X161299573Y-118849983D01*
X160999343Y-118400657D01*
X160135000Y-117536314D01*
X160135000Y-116967000D01*
X171835000Y-116967000D01*
X171835000Y-118110000D01*
X171902367Y-118448675D01*
X172094210Y-118735790D01*
X172381325Y-118927633D01*
X172720000Y-118995000D01*
X176915000Y-118995000D01*
X176915000Y-120383560D01*
X176911000Y-120383560D01*
X176675683Y-120427838D01*
X176459559Y-120566910D01*
X176314569Y-120779110D01*
X176263560Y-121031000D01*
X176263560Y-122809000D01*
X176292454Y-122962560D01*
X174990000Y-122962560D01*
X174754683Y-123006838D01*
X174538559Y-123145910D01*
X174393569Y-123358110D01*
X174342560Y-123610000D01*
X174342560Y-125310000D01*
X174386838Y-125545317D01*
X174525910Y-125761441D01*
X174738110Y-125906431D01*
X174990000Y-125957440D01*
X176915000Y-125957440D01*
X176915000Y-130809995D01*
X176914999Y-130810000D01*
X176952005Y-130996038D01*
X176982367Y-131148675D01*
X177115090Y-131347310D01*
X177174210Y-131435790D01*
X178203421Y-132465000D01*
X164057070Y-132465000D01*
X164057070Y-131911090D01*
X164012792Y-131675773D01*
X163873720Y-131459649D01*
X163661520Y-131314659D01*
X163409630Y-131263650D01*
X161710370Y-131263650D01*
X161475053Y-131307928D01*
X161316968Y-131409653D01*
X161284090Y-131358559D01*
X161071890Y-131213569D01*
X160820000Y-131162560D01*
X159220000Y-131162560D01*
X158984683Y-131206838D01*
X158768559Y-131345910D01*
X158623569Y-131558110D01*
X158572560Y-131810000D01*
X158572560Y-133561680D01*
X158330000Y-133512560D01*
X156630000Y-133512560D01*
X156394683Y-133556838D01*
X156178559Y-133695910D01*
X156033569Y-133908110D01*
X155982560Y-134160000D01*
X155982560Y-136160000D01*
X156026838Y-136395317D01*
X156165910Y-136611441D01*
X156378110Y-136756431D01*
X156630000Y-136807440D01*
X158330000Y-136807440D01*
X158565317Y-136763162D01*
X158777826Y-136626416D01*
X158968110Y-136756431D01*
X159220000Y-136807440D01*
X160820000Y-136807440D01*
X161055317Y-136763162D01*
X161271441Y-136624090D01*
X161416431Y-136411890D01*
X161467440Y-136160000D01*
X161467440Y-135808795D01*
X161710370Y-135857990D01*
X163409630Y-135857990D01*
X163644947Y-135813712D01*
X163861071Y-135674640D01*
X164006061Y-135462440D01*
X164057070Y-135210550D01*
X164057070Y-134235000D01*
X172743421Y-134235000D01*
X172094210Y-134884210D01*
X171902367Y-135171325D01*
X171902367Y-135171326D01*
X171834999Y-135510000D01*
X171835000Y-135510005D01*
X171835000Y-135673670D01*
X171705302Y-135760332D01*
X171394233Y-136225879D01*
X171285000Y-136775030D01*
X171285000Y-137544970D01*
X171394233Y-138094121D01*
X171705302Y-138559668D01*
X172170849Y-138870737D01*
X172720000Y-138979970D01*
X173269151Y-138870737D01*
X173734698Y-138559668D01*
X173990000Y-138177582D01*
X174245302Y-138559668D01*
X174375000Y-138646330D01*
X174375000Y-139699995D01*
X174374999Y-139700000D01*
X174431190Y-139982484D01*
X174442367Y-140038675D01*
X174607830Y-140286309D01*
X174634210Y-140325790D01*
X175904208Y-141595787D01*
X175904210Y-141595790D01*
X176116792Y-141737832D01*
X176191325Y-141787633D01*
X176530000Y-141855001D01*
X176530005Y-141855000D01*
X185420000Y-141855000D01*
X185758675Y-141787633D01*
X186045790Y-141595790D01*
X186146071Y-141445708D01*
X188146028Y-139445750D01*
X194145000Y-139445750D01*
X194145000Y-140286309D01*
X194241673Y-140519698D01*
X194420301Y-140698327D01*
X194653690Y-140795000D01*
X195294250Y-140795000D01*
X195453000Y-140636250D01*
X195453000Y-139287000D01*
X195707000Y-139287000D01*
X195707000Y-140636250D01*
X195865750Y-140795000D01*
X196506310Y-140795000D01*
X196739699Y-140698327D01*
X196825000Y-140613026D01*
X196910301Y-140698327D01*
X197143690Y-140795000D01*
X197834250Y-140795000D01*
X197993000Y-140636250D01*
X197993000Y-139287000D01*
X198247000Y-139287000D01*
X198247000Y-140636250D01*
X198405750Y-140795000D01*
X199096310Y-140795000D01*
X199329699Y-140698327D01*
X199508327Y-140519698D01*
X199605000Y-140286309D01*
X199605000Y-139445750D01*
X199446250Y-139287000D01*
X198247000Y-139287000D01*
X197993000Y-139287000D01*
X195707000Y-139287000D01*
X195453000Y-139287000D01*
X194303750Y-139287000D01*
X194145000Y-139445750D01*
X188146028Y-139445750D01*
X188154276Y-139437502D01*
X190917493Y-139437502D01*
X190917498Y-139437503D01*
X191199982Y-139381312D01*
X191256173Y-139370135D01*
X191543288Y-139178292D01*
X192687888Y-138033691D01*
X194145000Y-138033691D01*
X194145000Y-138874250D01*
X194303750Y-139033000D01*
X195453000Y-139033000D01*
X195453000Y-137683750D01*
X195707000Y-137683750D01*
X195707000Y-139033000D01*
X197993000Y-139033000D01*
X197993000Y-137683750D01*
X198247000Y-137683750D01*
X198247000Y-139033000D01*
X199446250Y-139033000D01*
X199605000Y-138874250D01*
X199605000Y-138033691D01*
X199508327Y-137800302D01*
X199329699Y-137621673D01*
X199096310Y-137525000D01*
X198405750Y-137525000D01*
X198247000Y-137683750D01*
X197993000Y-137683750D01*
X197834250Y-137525000D01*
X197143690Y-137525000D01*
X196910301Y-137621673D01*
X196825000Y-137706974D01*
X196739699Y-137621673D01*
X196506310Y-137525000D01*
X195865750Y-137525000D01*
X195707000Y-137683750D01*
X195453000Y-137683750D01*
X195294250Y-137525000D01*
X194653690Y-137525000D01*
X194420301Y-137621673D01*
X194241673Y-137800302D01*
X194145000Y-138033691D01*
X192687888Y-138033691D01*
X193665787Y-137055792D01*
X193665790Y-137055790D01*
X193726199Y-136965381D01*
X194223597Y-136467983D01*
X194315910Y-136611441D01*
X194528110Y-136756431D01*
X194780000Y-136807440D01*
X196380000Y-136807440D01*
X196615317Y-136763162D01*
X196827826Y-136626416D01*
X197018110Y-136756431D01*
X197270000Y-136807440D01*
X198970000Y-136807440D01*
X199205317Y-136763162D01*
X199421441Y-136624090D01*
X199566431Y-136411890D01*
X199617440Y-136160000D01*
X199617440Y-134160000D01*
X199573162Y-133924683D01*
X199434090Y-133708559D01*
X199221890Y-133563569D01*
X198970000Y-133512560D01*
X197270000Y-133512560D01*
X197034683Y-133556838D01*
X197027440Y-133561499D01*
X197027440Y-131599200D01*
X196983162Y-131363883D01*
X196844090Y-131147759D01*
X196631890Y-131002769D01*
X196380000Y-130951760D01*
X194780000Y-130951760D01*
X194544683Y-130996038D01*
X194328559Y-131135110D01*
X194185395Y-131344638D01*
X194141520Y-131314659D01*
X193889630Y-131263650D01*
X192190370Y-131263650D01*
X191955053Y-131307928D01*
X191738929Y-131447000D01*
X191593939Y-131659200D01*
X191542930Y-131911090D01*
X191542930Y-135210550D01*
X191587208Y-135445867D01*
X191726280Y-135661991D01*
X191938480Y-135806981D01*
X192190370Y-135857990D01*
X192358230Y-135857990D01*
X192353799Y-135864622D01*
X190550918Y-137667502D01*
X187787702Y-137667502D01*
X187787697Y-137667501D01*
X187553993Y-137713988D01*
X187575001Y-137608377D01*
X187575000Y-137608372D01*
X187575000Y-133350005D01*
X187575001Y-133350000D01*
X187507633Y-133011325D01*
X187456655Y-132935031D01*
X187315790Y-132724210D01*
X187315787Y-132724208D01*
X186045790Y-131454210D01*
X185902637Y-131358559D01*
X185758675Y-131262367D01*
X185700207Y-131250737D01*
X185420000Y-131194999D01*
X185419995Y-131195000D01*
X183512567Y-131195000D01*
X183894698Y-130939668D01*
X184205767Y-130474121D01*
X184315000Y-129924970D01*
X184315000Y-129155030D01*
X184205767Y-128605879D01*
X183894698Y-128140332D01*
X183765000Y-128053670D01*
X183765000Y-127381000D01*
X187693560Y-127381000D01*
X187693560Y-129159000D01*
X187737838Y-129394317D01*
X187876910Y-129610441D01*
X188089110Y-129755431D01*
X188341000Y-129806440D01*
X190119000Y-129806440D01*
X190354317Y-129762162D01*
X190570441Y-129623090D01*
X190715431Y-129410890D01*
X190766440Y-129159000D01*
X190766440Y-127381000D01*
X190722162Y-127145683D01*
X190583090Y-126929559D01*
X190370890Y-126784569D01*
X190119000Y-126733560D01*
X188341000Y-126733560D01*
X188105683Y-126777838D01*
X187889559Y-126916910D01*
X187744569Y-127129110D01*
X187693560Y-127381000D01*
X183765000Y-127381000D01*
X183765000Y-125957440D01*
X184610000Y-125957440D01*
X184845317Y-125913162D01*
X185061441Y-125774090D01*
X185206431Y-125561890D01*
X185257440Y-125310000D01*
X185257440Y-123610000D01*
X185213162Y-123374683D01*
X185074090Y-123158559D01*
X184861890Y-123013569D01*
X184610000Y-122962560D01*
X182610000Y-122962560D01*
X182374683Y-123006838D01*
X182158559Y-123145910D01*
X182013569Y-123358110D01*
X181962560Y-123610000D01*
X181962560Y-125310000D01*
X181995000Y-125482404D01*
X181995000Y-128053670D01*
X181865302Y-128140332D01*
X181610000Y-128522418D01*
X181354698Y-128140332D01*
X180889151Y-127829263D01*
X180340000Y-127720030D01*
X179790849Y-127829263D01*
X179325302Y-128140332D01*
X179014233Y-128605879D01*
X178905000Y-129155030D01*
X178905000Y-129924970D01*
X179014233Y-130474121D01*
X179325302Y-130939668D01*
X179707433Y-131195000D01*
X179436579Y-131195000D01*
X178685000Y-130443420D01*
X178685000Y-125957440D01*
X180610000Y-125957440D01*
X180845317Y-125913162D01*
X181061441Y-125774090D01*
X181206431Y-125561890D01*
X181257440Y-125310000D01*
X181257440Y-123610000D01*
X181213162Y-123374683D01*
X181074090Y-123158559D01*
X180861890Y-123013569D01*
X180610000Y-122962560D01*
X179305343Y-122962560D01*
X179336440Y-122809000D01*
X179336440Y-121031000D01*
X179292162Y-120795683D01*
X179153090Y-120579559D01*
X178940890Y-120434569D01*
X178689000Y-120383560D01*
X178685000Y-120383560D01*
X178685000Y-118995000D01*
X184150000Y-118995000D01*
X184488675Y-118927633D01*
X184775790Y-118735790D01*
X184967633Y-118448675D01*
X185035000Y-118110000D01*
X185035000Y-116967000D01*
X194215557Y-116967000D01*
X194310000Y-116985786D01*
X194404443Y-116967000D01*
X195465000Y-116967000D01*
X195465000Y-118806314D01*
X194600657Y-119670657D01*
X194300427Y-120119983D01*
X194195000Y-120650000D01*
X194195000Y-125849560D01*
X194141520Y-125813019D01*
X193889630Y-125762010D01*
X192190370Y-125762010D01*
X191955053Y-125806288D01*
X191738929Y-125945360D01*
X191593939Y-126157560D01*
X191542930Y-126409450D01*
X191542930Y-129708910D01*
X191587208Y-129944227D01*
X191726280Y-130160351D01*
X191938480Y-130305341D01*
X192190370Y-130356350D01*
X193889630Y-130356350D01*
X194124947Y-130312072D01*
X194341071Y-130173000D01*
X194390058Y-130101304D01*
X194528110Y-130195631D01*
X194780000Y-130246640D01*
X196380000Y-130246640D01*
X196615317Y-130202362D01*
X196831441Y-130063290D01*
X196976431Y-129851090D01*
X197027440Y-129599200D01*
X197027440Y-129342196D01*
X198497409Y-129342196D01*
X198582467Y-129597539D01*
X199151965Y-129805516D01*
X199757700Y-129779723D01*
X200197533Y-129597539D01*
X200282591Y-129342196D01*
X199390000Y-128449605D01*
X198497409Y-129342196D01*
X197027440Y-129342196D01*
X197027440Y-128031965D01*
X197854484Y-128031965D01*
X197880277Y-128637700D01*
X198062461Y-129077533D01*
X198317804Y-129162591D01*
X199210395Y-128270000D01*
X199569605Y-128270000D01*
X200462196Y-129162591D01*
X200717539Y-129077533D01*
X200925516Y-128508035D01*
X200899723Y-127902300D01*
X200717539Y-127462467D01*
X200462196Y-127377409D01*
X199569605Y-128270000D01*
X199210395Y-128270000D01*
X198317804Y-127377409D01*
X198062461Y-127462467D01*
X197854484Y-128031965D01*
X197027440Y-128031965D01*
X197027440Y-127599200D01*
X196983162Y-127363883D01*
X196965000Y-127335658D01*
X196965000Y-127197804D01*
X198497409Y-127197804D01*
X199390000Y-128090395D01*
X200282591Y-127197804D01*
X200197533Y-126942461D01*
X199628035Y-126734484D01*
X199022300Y-126760277D01*
X198582467Y-126942461D01*
X198497409Y-127197804D01*
X196965000Y-127197804D01*
X196965000Y-121223686D01*
X197829343Y-120359343D01*
X198129573Y-119910017D01*
X198235000Y-119380000D01*
X198235000Y-116967000D01*
X203073000Y-116967000D01*
X203073000Y-142113000D01*
X152527000Y-142113000D01*
X152527000Y-139445750D01*
X155995000Y-139445750D01*
X155995000Y-140286309D01*
X156091673Y-140519698D01*
X156270301Y-140698327D01*
X156503690Y-140795000D01*
X157194250Y-140795000D01*
X157353000Y-140636250D01*
X157353000Y-139287000D01*
X157607000Y-139287000D01*
X157607000Y-140636250D01*
X157765750Y-140795000D01*
X158456310Y-140795000D01*
X158689699Y-140698327D01*
X158775000Y-140613026D01*
X158860301Y-140698327D01*
X159093690Y-140795000D01*
X159734250Y-140795000D01*
X159893000Y-140636250D01*
X159893000Y-139287000D01*
X160147000Y-139287000D01*
X160147000Y-140636250D01*
X160305750Y-140795000D01*
X160946310Y-140795000D01*
X161179699Y-140698327D01*
X161358327Y-140519698D01*
X161455000Y-140286309D01*
X161455000Y-139445750D01*
X161296250Y-139287000D01*
X160147000Y-139287000D01*
X159893000Y-139287000D01*
X157607000Y-139287000D01*
X157353000Y-139287000D01*
X156153750Y-139287000D01*
X155995000Y-139445750D01*
X152527000Y-139445750D01*
X152527000Y-138033691D01*
X155995000Y-138033691D01*
X155995000Y-138874250D01*
X156153750Y-139033000D01*
X157353000Y-139033000D01*
X157353000Y-137683750D01*
X157607000Y-137683750D01*
X157607000Y-139033000D01*
X159893000Y-139033000D01*
X159893000Y-137683750D01*
X160147000Y-137683750D01*
X160147000Y-139033000D01*
X161296250Y-139033000D01*
X161455000Y-138874250D01*
X161455000Y-138033691D01*
X161358327Y-137800302D01*
X161179699Y-137621673D01*
X160946310Y-137525000D01*
X160305750Y-137525000D01*
X160147000Y-137683750D01*
X159893000Y-137683750D01*
X159734250Y-137525000D01*
X159093690Y-137525000D01*
X158860301Y-137621673D01*
X158775000Y-137706974D01*
X158689699Y-137621673D01*
X158456310Y-137525000D01*
X157765750Y-137525000D01*
X157607000Y-137683750D01*
X157353000Y-137683750D01*
X157194250Y-137525000D01*
X156503690Y-137525000D01*
X156270301Y-137621673D01*
X156091673Y-137800302D01*
X155995000Y-138033691D01*
X152527000Y-138033691D01*
X152527000Y-127381000D01*
X154673560Y-127381000D01*
X154673560Y-129159000D01*
X154717838Y-129394317D01*
X154856910Y-129610441D01*
X155069110Y-129755431D01*
X155321000Y-129806440D01*
X157099000Y-129806440D01*
X157334317Y-129762162D01*
X157550441Y-129623090D01*
X157695431Y-129410890D01*
X157746440Y-129159000D01*
X157746440Y-127381000D01*
X157702162Y-127145683D01*
X157563090Y-126929559D01*
X157350890Y-126784569D01*
X157099000Y-126733560D01*
X155321000Y-126733560D01*
X155085683Y-126777838D01*
X154869559Y-126916910D01*
X154724569Y-127129110D01*
X154673560Y-127381000D01*
X152527000Y-127381000D01*
X152527000Y-116967000D01*
X157365000Y-116967000D01*
X157365000Y-118110000D01*
X157365000Y-118110000D01*
G37*
X157365000Y-118110000D02*
X157470427Y-118640017D01*
X157662606Y-118927633D01*
X157770657Y-119089343D01*
X158635000Y-119953686D01*
X158635000Y-127541380D01*
X158623569Y-127558110D01*
X158572560Y-127810000D01*
X158572560Y-129810000D01*
X158616838Y-130045317D01*
X158755910Y-130261441D01*
X158968110Y-130406431D01*
X159220000Y-130457440D01*
X160820000Y-130457440D01*
X161055317Y-130413162D01*
X161271441Y-130274090D01*
X161316413Y-130208271D01*
X161458480Y-130305341D01*
X161710370Y-130356350D01*
X163409630Y-130356350D01*
X163644947Y-130312072D01*
X163861071Y-130173000D01*
X164006061Y-129960800D01*
X164057070Y-129708910D01*
X164057070Y-129342196D01*
X165477409Y-129342196D01*
X165562467Y-129597539D01*
X166131965Y-129805516D01*
X166737700Y-129779723D01*
X167177533Y-129597539D01*
X167262591Y-129342196D01*
X166370000Y-128449605D01*
X165477409Y-129342196D01*
X164057070Y-129342196D01*
X164057070Y-128031965D01*
X164834484Y-128031965D01*
X164860277Y-128637700D01*
X165042461Y-129077533D01*
X165297804Y-129162591D01*
X166190395Y-128270000D01*
X166549605Y-128270000D01*
X167442196Y-129162591D01*
X167464894Y-129155030D01*
X171285000Y-129155030D01*
X171285000Y-129924970D01*
X171394233Y-130474121D01*
X171705302Y-130939668D01*
X172170849Y-131250737D01*
X172720000Y-131359970D01*
X173269151Y-131250737D01*
X173734698Y-130939668D01*
X173990000Y-130557582D01*
X174245302Y-130939668D01*
X174710849Y-131250737D01*
X175260000Y-131359970D01*
X175809151Y-131250737D01*
X176274698Y-130939668D01*
X176585767Y-130474121D01*
X176695000Y-129924970D01*
X176695000Y-129155030D01*
X176585767Y-128605879D01*
X176274698Y-128140332D01*
X175809151Y-127829263D01*
X175260000Y-127720030D01*
X174710849Y-127829263D01*
X174245302Y-128140332D01*
X173990000Y-128522418D01*
X173734698Y-128140332D01*
X173269151Y-127829263D01*
X172720000Y-127720030D01*
X172170849Y-127829263D01*
X171705302Y-128140332D01*
X171394233Y-128605879D01*
X171285000Y-129155030D01*
X167464894Y-129155030D01*
X167697539Y-129077533D01*
X167905516Y-128508035D01*
X167879723Y-127902300D01*
X167697539Y-127462467D01*
X167442196Y-127377409D01*
X166549605Y-128270000D01*
X166190395Y-128270000D01*
X165297804Y-127377409D01*
X165042461Y-127462467D01*
X164834484Y-128031965D01*
X164057070Y-128031965D01*
X164057070Y-127197804D01*
X165477409Y-127197804D01*
X166370000Y-128090395D01*
X167262591Y-127197804D01*
X167177533Y-126942461D01*
X166608035Y-126734484D01*
X166002300Y-126760277D01*
X165562467Y-126942461D01*
X165477409Y-127197804D01*
X164057070Y-127197804D01*
X164057070Y-126409450D01*
X164012792Y-126174133D01*
X163873720Y-125958009D01*
X163661520Y-125813019D01*
X163409630Y-125762010D01*
X161710370Y-125762010D01*
X161475053Y-125806288D01*
X161405000Y-125851366D01*
X161405000Y-123610000D01*
X170342560Y-123610000D01*
X170342560Y-125310000D01*
X170386838Y-125545317D01*
X170525910Y-125761441D01*
X170738110Y-125906431D01*
X170990000Y-125957440D01*
X172990000Y-125957440D01*
X173225317Y-125913162D01*
X173441441Y-125774090D01*
X173586431Y-125561890D01*
X173637440Y-125310000D01*
X173637440Y-123610000D01*
X173593162Y-123374683D01*
X173454090Y-123158559D01*
X173241890Y-123013569D01*
X172990000Y-122962560D01*
X170990000Y-122962560D01*
X170754683Y-123006838D01*
X170538559Y-123145910D01*
X170393569Y-123358110D01*
X170342560Y-123610000D01*
X161405000Y-123610000D01*
X161405000Y-119380000D01*
X161299573Y-118849983D01*
X160999343Y-118400657D01*
X160135000Y-117536314D01*
X160135000Y-116967000D01*
X171835000Y-116967000D01*
X171835000Y-118110000D01*
X171902367Y-118448675D01*
X172094210Y-118735790D01*
X172381325Y-118927633D01*
X172720000Y-118995000D01*
X176915000Y-118995000D01*
X176915000Y-120383560D01*
X176911000Y-120383560D01*
X176675683Y-120427838D01*
X176459559Y-120566910D01*
X176314569Y-120779110D01*
X176263560Y-121031000D01*
X176263560Y-122809000D01*
X176292454Y-122962560D01*
X174990000Y-122962560D01*
X174754683Y-123006838D01*
X174538559Y-123145910D01*
X174393569Y-123358110D01*
X174342560Y-123610000D01*
X174342560Y-125310000D01*
X174386838Y-125545317D01*
X174525910Y-125761441D01*
X174738110Y-125906431D01*
X174990000Y-125957440D01*
X176915000Y-125957440D01*
X176915000Y-130809995D01*
X176914999Y-130810000D01*
X176952005Y-130996038D01*
X176982367Y-131148675D01*
X177115090Y-131347310D01*
X177174210Y-131435790D01*
X178203421Y-132465000D01*
X164057070Y-132465000D01*
X164057070Y-131911090D01*
X164012792Y-131675773D01*
X163873720Y-131459649D01*
X163661520Y-131314659D01*
X163409630Y-131263650D01*
X161710370Y-131263650D01*
X161475053Y-131307928D01*
X161316968Y-131409653D01*
X161284090Y-131358559D01*
X161071890Y-131213569D01*
X160820000Y-131162560D01*
X159220000Y-131162560D01*
X158984683Y-131206838D01*
X158768559Y-131345910D01*
X158623569Y-131558110D01*
X158572560Y-131810000D01*
X158572560Y-133561680D01*
X158330000Y-133512560D01*
X156630000Y-133512560D01*
X156394683Y-133556838D01*
X156178559Y-133695910D01*
X156033569Y-133908110D01*
X155982560Y-134160000D01*
X155982560Y-136160000D01*
X156026838Y-136395317D01*
X156165910Y-136611441D01*
X156378110Y-136756431D01*
X156630000Y-136807440D01*
X158330000Y-136807440D01*
X158565317Y-136763162D01*
X158777826Y-136626416D01*
X158968110Y-136756431D01*
X159220000Y-136807440D01*
X160820000Y-136807440D01*
X161055317Y-136763162D01*
X161271441Y-136624090D01*
X161416431Y-136411890D01*
X161467440Y-136160000D01*
X161467440Y-135808795D01*
X161710370Y-135857990D01*
X163409630Y-135857990D01*
X163644947Y-135813712D01*
X163861071Y-135674640D01*
X164006061Y-135462440D01*
X164057070Y-135210550D01*
X164057070Y-134235000D01*
X172743421Y-134235000D01*
X172094210Y-134884210D01*
X171902367Y-135171325D01*
X171902367Y-135171326D01*
X171834999Y-135510000D01*
X171835000Y-135510005D01*
X171835000Y-135673670D01*
X171705302Y-135760332D01*
X171394233Y-136225879D01*
X171285000Y-136775030D01*
X171285000Y-137544970D01*
X171394233Y-138094121D01*
X171705302Y-138559668D01*
X172170849Y-138870737D01*
X172720000Y-138979970D01*
X173269151Y-138870737D01*
X173734698Y-138559668D01*
X173990000Y-138177582D01*
X174245302Y-138559668D01*
X174375000Y-138646330D01*
X174375000Y-139699995D01*
X174374999Y-139700000D01*
X174431190Y-139982484D01*
X174442367Y-140038675D01*
X174607830Y-140286309D01*
X174634210Y-140325790D01*
X175904208Y-141595787D01*
X175904210Y-141595790D01*
X176116792Y-141737832D01*
X176191325Y-141787633D01*
X176530000Y-141855001D01*
X176530005Y-141855000D01*
X185420000Y-141855000D01*
X185758675Y-141787633D01*
X186045790Y-141595790D01*
X186146071Y-141445708D01*
X188146028Y-139445750D01*
X194145000Y-139445750D01*
X194145000Y-140286309D01*
X194241673Y-140519698D01*
X194420301Y-140698327D01*
X194653690Y-140795000D01*
X195294250Y-140795000D01*
X195453000Y-140636250D01*
X195453000Y-139287000D01*
X195707000Y-139287000D01*
X195707000Y-140636250D01*
X195865750Y-140795000D01*
X196506310Y-140795000D01*
X196739699Y-140698327D01*
X196825000Y-140613026D01*
X196910301Y-140698327D01*
X197143690Y-140795000D01*
X197834250Y-140795000D01*
X197993000Y-140636250D01*
X197993000Y-139287000D01*
X198247000Y-139287000D01*
X198247000Y-140636250D01*
X198405750Y-140795000D01*
X199096310Y-140795000D01*
X199329699Y-140698327D01*
X199508327Y-140519698D01*
X199605000Y-140286309D01*
X199605000Y-139445750D01*
X199446250Y-139287000D01*
X198247000Y-139287000D01*
X197993000Y-139287000D01*
X195707000Y-139287000D01*
X195453000Y-139287000D01*
X194303750Y-139287000D01*
X194145000Y-139445750D01*
X188146028Y-139445750D01*
X188154276Y-139437502D01*
X190917493Y-139437502D01*
X190917498Y-139437503D01*
X191199982Y-139381312D01*
X191256173Y-139370135D01*
X191543288Y-139178292D01*
X192687888Y-138033691D01*
X194145000Y-138033691D01*
X194145000Y-138874250D01*
X194303750Y-139033000D01*
X195453000Y-139033000D01*
X195453000Y-137683750D01*
X195707000Y-137683750D01*
X195707000Y-139033000D01*
X197993000Y-139033000D01*
X197993000Y-137683750D01*
X198247000Y-137683750D01*
X198247000Y-139033000D01*
X199446250Y-139033000D01*
X199605000Y-138874250D01*
X199605000Y-138033691D01*
X199508327Y-137800302D01*
X199329699Y-137621673D01*
X199096310Y-137525000D01*
X198405750Y-137525000D01*
X198247000Y-137683750D01*
X197993000Y-137683750D01*
X197834250Y-137525000D01*
X197143690Y-137525000D01*
X196910301Y-137621673D01*
X196825000Y-137706974D01*
X196739699Y-137621673D01*
X196506310Y-137525000D01*
X195865750Y-137525000D01*
X195707000Y-137683750D01*
X195453000Y-137683750D01*
X195294250Y-137525000D01*
X194653690Y-137525000D01*
X194420301Y-137621673D01*
X194241673Y-137800302D01*
X194145000Y-138033691D01*
X192687888Y-138033691D01*
X193665787Y-137055792D01*
X193665790Y-137055790D01*
X193726199Y-136965381D01*
X194223597Y-136467983D01*
X194315910Y-136611441D01*
X194528110Y-136756431D01*
X194780000Y-136807440D01*
X196380000Y-136807440D01*
X196615317Y-136763162D01*
X196827826Y-136626416D01*
X197018110Y-136756431D01*
X197270000Y-136807440D01*
X198970000Y-136807440D01*
X199205317Y-136763162D01*
X199421441Y-136624090D01*
X199566431Y-136411890D01*
X199617440Y-136160000D01*
X199617440Y-134160000D01*
X199573162Y-133924683D01*
X199434090Y-133708559D01*
X199221890Y-133563569D01*
X198970000Y-133512560D01*
X197270000Y-133512560D01*
X197034683Y-133556838D01*
X197027440Y-133561499D01*
X197027440Y-131599200D01*
X196983162Y-131363883D01*
X196844090Y-131147759D01*
X196631890Y-131002769D01*
X196380000Y-130951760D01*
X194780000Y-130951760D01*
X194544683Y-130996038D01*
X194328559Y-131135110D01*
X194185395Y-131344638D01*
X194141520Y-131314659D01*
X193889630Y-131263650D01*
X192190370Y-131263650D01*
X191955053Y-131307928D01*
X191738929Y-131447000D01*
X191593939Y-131659200D01*
X191542930Y-131911090D01*
X191542930Y-135210550D01*
X191587208Y-135445867D01*
X191726280Y-135661991D01*
X191938480Y-135806981D01*
X192190370Y-135857990D01*
X192358230Y-135857990D01*
X192353799Y-135864622D01*
X190550918Y-137667502D01*
X187787702Y-137667502D01*
X187787697Y-137667501D01*
X187553993Y-137713988D01*
X187575001Y-137608377D01*
X187575000Y-137608372D01*
X187575000Y-133350005D01*
X187575001Y-133350000D01*
X187507633Y-133011325D01*
X187456655Y-132935031D01*
X187315790Y-132724210D01*
X187315787Y-132724208D01*
X186045790Y-131454210D01*
X185902637Y-131358559D01*
X185758675Y-131262367D01*
X185700207Y-131250737D01*
X185420000Y-131194999D01*
X185419995Y-131195000D01*
X183512567Y-131195000D01*
X183894698Y-130939668D01*
X184205767Y-130474121D01*
X184315000Y-129924970D01*
X184315000Y-129155030D01*
X184205767Y-128605879D01*
X183894698Y-128140332D01*
X183765000Y-128053670D01*
X183765000Y-127381000D01*
X187693560Y-127381000D01*
X187693560Y-129159000D01*
X187737838Y-129394317D01*
X187876910Y-129610441D01*
X188089110Y-129755431D01*
X188341000Y-129806440D01*
X190119000Y-129806440D01*
X190354317Y-129762162D01*
X190570441Y-129623090D01*
X190715431Y-129410890D01*
X190766440Y-129159000D01*
X190766440Y-127381000D01*
X190722162Y-127145683D01*
X190583090Y-126929559D01*
X190370890Y-126784569D01*
X190119000Y-126733560D01*
X188341000Y-126733560D01*
X188105683Y-126777838D01*
X187889559Y-126916910D01*
X187744569Y-127129110D01*
X187693560Y-127381000D01*
X183765000Y-127381000D01*
X183765000Y-125957440D01*
X184610000Y-125957440D01*
X184845317Y-125913162D01*
X185061441Y-125774090D01*
X185206431Y-125561890D01*
X185257440Y-125310000D01*
X185257440Y-123610000D01*
X185213162Y-123374683D01*
X185074090Y-123158559D01*
X184861890Y-123013569D01*
X184610000Y-122962560D01*
X182610000Y-122962560D01*
X182374683Y-123006838D01*
X182158559Y-123145910D01*
X182013569Y-123358110D01*
X181962560Y-123610000D01*
X181962560Y-125310000D01*
X181995000Y-125482404D01*
X181995000Y-128053670D01*
X181865302Y-128140332D01*
X181610000Y-128522418D01*
X181354698Y-128140332D01*
X180889151Y-127829263D01*
X180340000Y-127720030D01*
X179790849Y-127829263D01*
X179325302Y-128140332D01*
X179014233Y-128605879D01*
X178905000Y-129155030D01*
X178905000Y-129924970D01*
X179014233Y-130474121D01*
X179325302Y-130939668D01*
X179707433Y-131195000D01*
X179436579Y-131195000D01*
X178685000Y-130443420D01*
X178685000Y-125957440D01*
X180610000Y-125957440D01*
X180845317Y-125913162D01*
X181061441Y-125774090D01*
X181206431Y-125561890D01*
X181257440Y-125310000D01*
X181257440Y-123610000D01*
X181213162Y-123374683D01*
X181074090Y-123158559D01*
X180861890Y-123013569D01*
X180610000Y-122962560D01*
X179305343Y-122962560D01*
X179336440Y-122809000D01*
X179336440Y-121031000D01*
X179292162Y-120795683D01*
X179153090Y-120579559D01*
X178940890Y-120434569D01*
X178689000Y-120383560D01*
X178685000Y-120383560D01*
X178685000Y-118995000D01*
X184150000Y-118995000D01*
X184488675Y-118927633D01*
X184775790Y-118735790D01*
X184967633Y-118448675D01*
X185035000Y-118110000D01*
X185035000Y-116967000D01*
X194215557Y-116967000D01*
X194310000Y-116985786D01*
X194404443Y-116967000D01*
X195465000Y-116967000D01*
X195465000Y-118806314D01*
X194600657Y-119670657D01*
X194300427Y-120119983D01*
X194195000Y-120650000D01*
X194195000Y-125849560D01*
X194141520Y-125813019D01*
X193889630Y-125762010D01*
X192190370Y-125762010D01*
X191955053Y-125806288D01*
X191738929Y-125945360D01*
X191593939Y-126157560D01*
X191542930Y-126409450D01*
X191542930Y-129708910D01*
X191587208Y-129944227D01*
X191726280Y-130160351D01*
X191938480Y-130305341D01*
X192190370Y-130356350D01*
X193889630Y-130356350D01*
X194124947Y-130312072D01*
X194341071Y-130173000D01*
X194390058Y-130101304D01*
X194528110Y-130195631D01*
X194780000Y-130246640D01*
X196380000Y-130246640D01*
X196615317Y-130202362D01*
X196831441Y-130063290D01*
X196976431Y-129851090D01*
X197027440Y-129599200D01*
X197027440Y-129342196D01*
X198497409Y-129342196D01*
X198582467Y-129597539D01*
X199151965Y-129805516D01*
X199757700Y-129779723D01*
X200197533Y-129597539D01*
X200282591Y-129342196D01*
X199390000Y-128449605D01*
X198497409Y-129342196D01*
X197027440Y-129342196D01*
X197027440Y-128031965D01*
X197854484Y-128031965D01*
X197880277Y-128637700D01*
X198062461Y-129077533D01*
X198317804Y-129162591D01*
X199210395Y-128270000D01*
X199569605Y-128270000D01*
X200462196Y-129162591D01*
X200717539Y-129077533D01*
X200925516Y-128508035D01*
X200899723Y-127902300D01*
X200717539Y-127462467D01*
X200462196Y-127377409D01*
X199569605Y-128270000D01*
X199210395Y-128270000D01*
X198317804Y-127377409D01*
X198062461Y-127462467D01*
X197854484Y-128031965D01*
X197027440Y-128031965D01*
X197027440Y-127599200D01*
X196983162Y-127363883D01*
X196965000Y-127335658D01*
X196965000Y-127197804D01*
X198497409Y-127197804D01*
X199390000Y-128090395D01*
X200282591Y-127197804D01*
X200197533Y-126942461D01*
X199628035Y-126734484D01*
X199022300Y-126760277D01*
X198582467Y-126942461D01*
X198497409Y-127197804D01*
X196965000Y-127197804D01*
X196965000Y-121223686D01*
X197829343Y-120359343D01*
X198129573Y-119910017D01*
X198235000Y-119380000D01*
X198235000Y-116967000D01*
X203073000Y-116967000D01*
X203073000Y-142113000D01*
X152527000Y-142113000D01*
X152527000Y-139445750D01*
X155995000Y-139445750D01*
X155995000Y-140286309D01*
X156091673Y-140519698D01*
X156270301Y-140698327D01*
X156503690Y-140795000D01*
X157194250Y-140795000D01*
X157353000Y-140636250D01*
X157353000Y-139287000D01*
X157607000Y-139287000D01*
X157607000Y-140636250D01*
X157765750Y-140795000D01*
X158456310Y-140795000D01*
X158689699Y-140698327D01*
X158775000Y-140613026D01*
X158860301Y-140698327D01*
X159093690Y-140795000D01*
X159734250Y-140795000D01*
X159893000Y-140636250D01*
X159893000Y-139287000D01*
X160147000Y-139287000D01*
X160147000Y-140636250D01*
X160305750Y-140795000D01*
X160946310Y-140795000D01*
X161179699Y-140698327D01*
X161358327Y-140519698D01*
X161455000Y-140286309D01*
X161455000Y-139445750D01*
X161296250Y-139287000D01*
X160147000Y-139287000D01*
X159893000Y-139287000D01*
X157607000Y-139287000D01*
X157353000Y-139287000D01*
X156153750Y-139287000D01*
X155995000Y-139445750D01*
X152527000Y-139445750D01*
X152527000Y-138033691D01*
X155995000Y-138033691D01*
X155995000Y-138874250D01*
X156153750Y-139033000D01*
X157353000Y-139033000D01*
X157353000Y-137683750D01*
X157607000Y-137683750D01*
X157607000Y-139033000D01*
X159893000Y-139033000D01*
X159893000Y-137683750D01*
X160147000Y-137683750D01*
X160147000Y-139033000D01*
X161296250Y-139033000D01*
X161455000Y-138874250D01*
X161455000Y-138033691D01*
X161358327Y-137800302D01*
X161179699Y-137621673D01*
X160946310Y-137525000D01*
X160305750Y-137525000D01*
X160147000Y-137683750D01*
X159893000Y-137683750D01*
X159734250Y-137525000D01*
X159093690Y-137525000D01*
X158860301Y-137621673D01*
X158775000Y-137706974D01*
X158689699Y-137621673D01*
X158456310Y-137525000D01*
X157765750Y-137525000D01*
X157607000Y-137683750D01*
X157353000Y-137683750D01*
X157194250Y-137525000D01*
X156503690Y-137525000D01*
X156270301Y-137621673D01*
X156091673Y-137800302D01*
X155995000Y-138033691D01*
X152527000Y-138033691D01*
X152527000Y-127381000D01*
X154673560Y-127381000D01*
X154673560Y-129159000D01*
X154717838Y-129394317D01*
X154856910Y-129610441D01*
X155069110Y-129755431D01*
X155321000Y-129806440D01*
X157099000Y-129806440D01*
X157334317Y-129762162D01*
X157550441Y-129623090D01*
X157695431Y-129410890D01*
X157746440Y-129159000D01*
X157746440Y-127381000D01*
X157702162Y-127145683D01*
X157563090Y-126929559D01*
X157350890Y-126784569D01*
X157099000Y-126733560D01*
X155321000Y-126733560D01*
X155085683Y-126777838D01*
X154869559Y-126916910D01*
X154724569Y-127129110D01*
X154673560Y-127381000D01*
X152527000Y-127381000D01*
X152527000Y-116967000D01*
X157365000Y-116967000D01*
X157365000Y-118110000D01*
M02*
