M48
;DRILL file {KiCad 4.0.5+dfsg1-4} date Mon Apr 17 00:41:22 2017
;FORMAT={-:-/ absolute / inch / decimal}
FMAT,2
INCH,TZ
T1C0.031
T2C0.039
T3C0.040
T4C0.047
T5C0.126
%
G90
G05
M72
T1
X6.8Y-5.1
X6.8Y-5.4
X6.9Y-5.1
X6.9Y-5.4
X7.1Y-5.1
X7.1Y-5.4
X7.2Y-5.1
X7.2Y-5.4
T2
X6.15Y-4.5
X6.25Y-4.5
X6.35Y-4.5
X7.65Y-4.51
X7.75Y-4.51
X7.85Y-4.51
T3
X6.15Y-5.05
X6.55Y-5.05
X7.Y-4.4
X7.Y-4.8
X7.45Y-5.05
X7.85Y-5.05
T4
X6.3Y-0.55
X6.5Y-0.55
X6.7Y-0.55
X6.9Y-3.85
X7.1Y-3.85
T5
X5.65Y-0.7
X6.25Y-3.84
X7.55Y-0.7
X7.75Y-3.85
T0
M30
