G04 #@! TF.FileFunction,Soldermask,Bot*
%FSLAX46Y46*%
G04 Gerber Fmt 4.6, Leading zero omitted, Abs format (unit mm)*
G04 Created by KiCad (PCBNEW 4.0.5+dfsg1-4) date Mon Apr 17 13:32:19 2017*
%MOMM*%
%LPD*%
G01*
G04 APERTURE LIST*
%ADD10C,0.100000*%
%ADD11O,1.500000X2.700000*%
%ADD12C,2.178000*%
%ADD13R,2.178000X2.178000*%
%ADD14R,2.400000X2.000000*%
%ADD15R,2.000000X2.400000*%
%ADD16R,2.100000X2.400000*%
%ADD17R,2.400000X2.100000*%
%ADD18R,2.099260X3.699460*%
%ADD19R,2.200000X4.000000*%
%ADD20O,2.200000X4.000000*%
%ADD21O,2.099260X3.900120*%
%ADD22C,6.400000*%
%ADD23C,2.398980*%
%ADD24C,7.400000*%
G04 APERTURE END LIST*
D10*
D11*
X173990000Y-130810000D03*
X176530000Y-130810000D03*
X176530000Y-123190000D03*
X173990000Y-123190000D03*
D12*
X170180000Y-121920000D03*
D13*
X160020000Y-121920000D03*
D12*
X195580000Y-121920000D03*
D13*
X185420000Y-121920000D03*
D11*
X179070000Y-130810000D03*
X181610000Y-130810000D03*
X181610000Y-123190000D03*
X179070000Y-123190000D03*
D14*
X175990000Y-113030000D03*
X171990000Y-113030000D03*
D15*
X163830000Y-126460000D03*
X163830000Y-122460000D03*
X163830000Y-128810000D03*
X163830000Y-132810000D03*
D16*
X166370000Y-128810000D03*
X166370000Y-132810000D03*
D17*
X175990000Y-115570000D03*
X171990000Y-115570000D03*
D18*
X166370000Y-121709180D03*
X166370000Y-127210820D03*
X191770000Y-121709180D03*
X191770000Y-127210820D03*
D15*
X189230000Y-128810000D03*
X189230000Y-132810000D03*
X189230000Y-126460000D03*
X189230000Y-122460000D03*
D16*
X191770000Y-128810000D03*
X191770000Y-132810000D03*
D17*
X183610000Y-113030000D03*
X179610000Y-113030000D03*
X179610000Y-115570000D03*
X183610000Y-115570000D03*
D12*
X177800000Y-109220000D03*
D13*
X177800000Y-119380000D03*
D19*
X182880000Y-78740000D03*
D20*
X187960000Y-78740000D03*
D19*
X167640000Y-78740000D03*
D20*
X172720000Y-78740000D03*
X177800000Y-78740000D03*
D21*
X161290000Y-114300000D03*
X158750000Y-114300000D03*
X163830000Y-114300000D03*
D22*
X161290000Y-97536000D03*
D21*
X194310000Y-114300000D03*
X191770000Y-114300000D03*
X196850000Y-114300000D03*
D22*
X194310000Y-97536000D03*
D23*
X177800000Y-94058740D03*
X177800000Y-104218740D03*
D16*
X172720000Y-89440000D03*
X172720000Y-93440000D03*
D24*
X156210000Y-133350000D03*
X199390000Y-133350000D03*
X199390000Y-74930000D03*
X156210000Y-74930000D03*
M02*
