M48
;DRILL file {KiCad 4.0.5+dfsg1-4} date Thu Apr 27 10:32:33 2017
;FORMAT={-:-/ absolute / inch / decimal}
FMAT,2
INCH,TZ
T1C0.031
T2C0.039
T3C0.040
T4C0.043
T5C0.051
T6C0.126
T7C0.138
%
G90
G05
M72
T1
X6.85Y-4.95
X6.85Y-5.25
X6.95Y-4.95
X6.95Y-5.25
X7.05Y-4.95
X7.05Y-5.25
X7.15Y-4.95
X7.15Y-5.25
T2
X6.7969Y-3.65
X7.1969Y-3.65
T3
X6.45Y-4.8
X6.85Y-4.8
X7.Y-4.3
X7.Y-4.7
X7.15Y-4.8
X7.55Y-4.8
T4
X6.45Y-4.5
X6.55Y-4.5
X6.65Y-4.5
X7.35Y-4.5
X7.45Y-4.5
X7.55Y-4.5
T5
X6.7Y-3.3
X6.9Y-3.3
X7.1Y-3.3
X7.3Y-3.3
T6
X6.55Y-3.95
X7.45Y-3.95
T7
X6.4Y-3.3
X6.4Y-5.25
X7.6Y-3.3
X7.6Y-5.25
T0
M30
