G04 #@! TF.FileFunction,Legend,Bot*
%FSLAX46Y46*%
G04 Gerber Fmt 4.6, Leading zero omitted, Abs format (unit mm)*
G04 Created by KiCad (PCBNEW 4.0.5+dfsg1-4) date Wed Apr 26 14:06:56 2017*
%MOMM*%
%LPD*%
G01*
G04 APERTURE LIST*
%ADD10C,0.100000*%
%ADD11C,0.150000*%
G04 APERTURE END LIST*
D10*
D11*
X172990000Y-112005000D02*
X174990000Y-112005000D01*
X174990000Y-114055000D02*
X172990000Y-114055000D01*
X168665000Y-123460000D02*
X168665000Y-125460000D01*
X166615000Y-125460000D02*
X166615000Y-123460000D01*
X166615000Y-131810000D02*
X166615000Y-129810000D01*
X168665000Y-129810000D02*
X168665000Y-131810000D01*
X171255000Y-131810000D02*
X171255000Y-129810000D01*
X169105000Y-129810000D02*
X169105000Y-131810000D01*
X172990000Y-116645000D02*
X174990000Y-116645000D01*
X174990000Y-114495000D02*
X172990000Y-114495000D01*
X170180000Y-123960420D02*
X170180000Y-123810560D01*
X170180000Y-124808780D02*
X170180000Y-125009440D01*
X170180000Y-123960420D02*
X170929300Y-123960420D01*
X170180000Y-123960420D02*
X169478960Y-123960420D01*
X170180000Y-123960420D02*
X169478960Y-124808780D01*
X169478960Y-124808780D02*
X170881040Y-124808780D01*
X170881040Y-124808780D02*
X170180000Y-123960420D01*
X187960000Y-123960420D02*
X187960000Y-123810560D01*
X187960000Y-124808780D02*
X187960000Y-125009440D01*
X187960000Y-123960420D02*
X188709300Y-123960420D01*
X187960000Y-123960420D02*
X187258960Y-123960420D01*
X187960000Y-123960420D02*
X187258960Y-124808780D01*
X187258960Y-124808780D02*
X188661040Y-124808780D01*
X188661040Y-124808780D02*
X187960000Y-123960420D01*
X184395000Y-131810000D02*
X184395000Y-129810000D01*
X186445000Y-129810000D02*
X186445000Y-131810000D01*
X186445000Y-123460000D02*
X186445000Y-125460000D01*
X184395000Y-125460000D02*
X184395000Y-123460000D01*
X189035000Y-131810000D02*
X189035000Y-129810000D01*
X186885000Y-129810000D02*
X186885000Y-131810000D01*
X180610000Y-114105000D02*
X182610000Y-114105000D01*
X182610000Y-111955000D02*
X180610000Y-111955000D01*
X182610000Y-114495000D02*
X180610000Y-114495000D01*
X180610000Y-116645000D02*
X182610000Y-116645000D01*
X178875000Y-93710000D02*
X178875000Y-91710000D01*
X176725000Y-91710000D02*
X176725000Y-93710000D01*
X176061666Y-111482143D02*
X176109285Y-111529762D01*
X176252142Y-111577381D01*
X176347380Y-111577381D01*
X176490238Y-111529762D01*
X176585476Y-111434524D01*
X176633095Y-111339286D01*
X176680714Y-111148810D01*
X176680714Y-111005952D01*
X176633095Y-110815476D01*
X176585476Y-110720238D01*
X176490238Y-110625000D01*
X176347380Y-110577381D01*
X176252142Y-110577381D01*
X176109285Y-110625000D01*
X176061666Y-110672619D01*
X175156904Y-110577381D02*
X175633095Y-110577381D01*
X175680714Y-111053571D01*
X175633095Y-111005952D01*
X175537857Y-110958333D01*
X175299761Y-110958333D01*
X175204523Y-111005952D01*
X175156904Y-111053571D01*
X175109285Y-111148810D01*
X175109285Y-111386905D01*
X175156904Y-111482143D01*
X175204523Y-111529762D01*
X175299761Y-111577381D01*
X175537857Y-111577381D01*
X175633095Y-111529762D01*
X175680714Y-111482143D01*
X167997143Y-119848334D02*
X168044762Y-119800715D01*
X168092381Y-119657858D01*
X168092381Y-119562620D01*
X168044762Y-119419762D01*
X167949524Y-119324524D01*
X167854286Y-119276905D01*
X167663810Y-119229286D01*
X167520952Y-119229286D01*
X167330476Y-119276905D01*
X167235238Y-119324524D01*
X167140000Y-119419762D01*
X167092381Y-119562620D01*
X167092381Y-119657858D01*
X167140000Y-119800715D01*
X167187619Y-119848334D01*
X168092381Y-120800715D02*
X168092381Y-120229286D01*
X168092381Y-120515000D02*
X167092381Y-120515000D01*
X167235238Y-120419762D01*
X167330476Y-120324524D01*
X167378095Y-120229286D01*
X167997143Y-135088334D02*
X168044762Y-135040715D01*
X168092381Y-134897858D01*
X168092381Y-134802620D01*
X168044762Y-134659762D01*
X167949524Y-134564524D01*
X167854286Y-134516905D01*
X167663810Y-134469286D01*
X167520952Y-134469286D01*
X167330476Y-134516905D01*
X167235238Y-134564524D01*
X167140000Y-134659762D01*
X167092381Y-134802620D01*
X167092381Y-134897858D01*
X167140000Y-135040715D01*
X167187619Y-135088334D01*
X167187619Y-135469286D02*
X167140000Y-135516905D01*
X167092381Y-135612143D01*
X167092381Y-135850239D01*
X167140000Y-135945477D01*
X167187619Y-135993096D01*
X167282857Y-136040715D01*
X167378095Y-136040715D01*
X167520952Y-135993096D01*
X168092381Y-135421667D01*
X168092381Y-136040715D01*
X170632381Y-135088334D02*
X170156190Y-134755000D01*
X170632381Y-134516905D02*
X169632381Y-134516905D01*
X169632381Y-134897858D01*
X169680000Y-134993096D01*
X169727619Y-135040715D01*
X169822857Y-135088334D01*
X169965714Y-135088334D01*
X170060952Y-135040715D01*
X170108571Y-134993096D01*
X170156190Y-134897858D01*
X170156190Y-134516905D01*
X170632381Y-136040715D02*
X170632381Y-135469286D01*
X170632381Y-135755000D02*
X169632381Y-135755000D01*
X169775238Y-135659762D01*
X169870476Y-135564524D01*
X169918095Y-135469286D01*
X175426666Y-117927381D02*
X175760000Y-117451190D01*
X175998095Y-117927381D02*
X175998095Y-116927381D01*
X175617142Y-116927381D01*
X175521904Y-116975000D01*
X175474285Y-117022619D01*
X175426666Y-117117857D01*
X175426666Y-117260714D01*
X175474285Y-117355952D01*
X175521904Y-117403571D01*
X175617142Y-117451190D01*
X175998095Y-117451190D01*
X175093333Y-116927381D02*
X174474285Y-116927381D01*
X174807619Y-117308333D01*
X174664761Y-117308333D01*
X174569523Y-117355952D01*
X174521904Y-117403571D01*
X174474285Y-117498810D01*
X174474285Y-117736905D01*
X174521904Y-117832143D01*
X174569523Y-117879762D01*
X174664761Y-117927381D01*
X174950476Y-117927381D01*
X175045714Y-117879762D01*
X175093333Y-117832143D01*
X170632381Y-118006905D02*
X169632381Y-118006905D01*
X169632381Y-118245000D01*
X169680000Y-118387858D01*
X169775238Y-118483096D01*
X169870476Y-118530715D01*
X170060952Y-118578334D01*
X170203810Y-118578334D01*
X170394286Y-118530715D01*
X170489524Y-118483096D01*
X170584762Y-118387858D01*
X170632381Y-118245000D01*
X170632381Y-118006905D01*
X170632381Y-119530715D02*
X170632381Y-118959286D01*
X170632381Y-119245000D02*
X169632381Y-119245000D01*
X169775238Y-119149762D01*
X169870476Y-119054524D01*
X169918095Y-118959286D01*
X172537381Y-120388095D02*
X171537381Y-120388095D01*
X172537381Y-120959524D02*
X171965952Y-120530952D01*
X171537381Y-120959524D02*
X172108810Y-120388095D01*
X172251667Y-128031905D02*
X172251667Y-128508096D01*
X172537381Y-127936667D02*
X171537381Y-128270000D01*
X172537381Y-128603334D01*
X188412381Y-118006905D02*
X187412381Y-118006905D01*
X187412381Y-118245000D01*
X187460000Y-118387858D01*
X187555238Y-118483096D01*
X187650476Y-118530715D01*
X187840952Y-118578334D01*
X187983810Y-118578334D01*
X188174286Y-118530715D01*
X188269524Y-118483096D01*
X188364762Y-118387858D01*
X188412381Y-118245000D01*
X188412381Y-118006905D01*
X187745714Y-119435477D02*
X188412381Y-119435477D01*
X187364762Y-119197381D02*
X188079048Y-118959286D01*
X188079048Y-119578334D01*
X190262381Y-119118095D02*
X189262381Y-119118095D01*
X190262381Y-119689524D02*
X189690952Y-119260952D01*
X189262381Y-119689524D02*
X189833810Y-119118095D01*
X189976667Y-126761905D02*
X189976667Y-127238096D01*
X190262381Y-126666667D02*
X189262381Y-127000000D01*
X190262381Y-127333334D01*
X185777143Y-135088334D02*
X185824762Y-135040715D01*
X185872381Y-134897858D01*
X185872381Y-134802620D01*
X185824762Y-134659762D01*
X185729524Y-134564524D01*
X185634286Y-134516905D01*
X185443810Y-134469286D01*
X185300952Y-134469286D01*
X185110476Y-134516905D01*
X185015238Y-134564524D01*
X184920000Y-134659762D01*
X184872381Y-134802620D01*
X184872381Y-134897858D01*
X184920000Y-135040715D01*
X184967619Y-135088334D01*
X184872381Y-135421667D02*
X184872381Y-136040715D01*
X185253333Y-135707381D01*
X185253333Y-135850239D01*
X185300952Y-135945477D01*
X185348571Y-135993096D01*
X185443810Y-136040715D01*
X185681905Y-136040715D01*
X185777143Y-135993096D01*
X185824762Y-135945477D01*
X185872381Y-135850239D01*
X185872381Y-135564524D01*
X185824762Y-135469286D01*
X185777143Y-135421667D01*
X185777143Y-120059134D02*
X185824762Y-120011515D01*
X185872381Y-119868658D01*
X185872381Y-119773420D01*
X185824762Y-119630562D01*
X185729524Y-119535324D01*
X185634286Y-119487705D01*
X185443810Y-119440086D01*
X185300952Y-119440086D01*
X185110476Y-119487705D01*
X185015238Y-119535324D01*
X184920000Y-119630562D01*
X184872381Y-119773420D01*
X184872381Y-119868658D01*
X184920000Y-120011515D01*
X184967619Y-120059134D01*
X185205714Y-120916277D02*
X185872381Y-120916277D01*
X184824762Y-120678181D02*
X185539048Y-120440086D01*
X185539048Y-121059134D01*
X188412381Y-135088334D02*
X187936190Y-134755000D01*
X188412381Y-134516905D02*
X187412381Y-134516905D01*
X187412381Y-134897858D01*
X187460000Y-134993096D01*
X187507619Y-135040715D01*
X187602857Y-135088334D01*
X187745714Y-135088334D01*
X187840952Y-135040715D01*
X187888571Y-134993096D01*
X187936190Y-134897858D01*
X187936190Y-134516905D01*
X187745714Y-135945477D02*
X188412381Y-135945477D01*
X187364762Y-135707381D02*
X188079048Y-135469286D01*
X188079048Y-136088334D01*
X184951666Y-111577381D02*
X185285000Y-111101190D01*
X185523095Y-111577381D02*
X185523095Y-110577381D01*
X185142142Y-110577381D01*
X185046904Y-110625000D01*
X184999285Y-110672619D01*
X184951666Y-110767857D01*
X184951666Y-110910714D01*
X184999285Y-111005952D01*
X185046904Y-111053571D01*
X185142142Y-111101190D01*
X185523095Y-111101190D01*
X184046904Y-110577381D02*
X184523095Y-110577381D01*
X184570714Y-111053571D01*
X184523095Y-111005952D01*
X184427857Y-110958333D01*
X184189761Y-110958333D01*
X184094523Y-111005952D01*
X184046904Y-111053571D01*
X183999285Y-111148810D01*
X183999285Y-111386905D01*
X184046904Y-111482143D01*
X184094523Y-111529762D01*
X184189761Y-111577381D01*
X184427857Y-111577381D01*
X184523095Y-111529762D01*
X184570714Y-111482143D01*
X184316666Y-117927381D02*
X184650000Y-117451190D01*
X184888095Y-117927381D02*
X184888095Y-116927381D01*
X184507142Y-116927381D01*
X184411904Y-116975000D01*
X184364285Y-117022619D01*
X184316666Y-117117857D01*
X184316666Y-117260714D01*
X184364285Y-117355952D01*
X184411904Y-117403571D01*
X184507142Y-117451190D01*
X184888095Y-117451190D01*
X183935714Y-117022619D02*
X183888095Y-116975000D01*
X183792857Y-116927381D01*
X183554761Y-116927381D01*
X183459523Y-116975000D01*
X183411904Y-117022619D01*
X183364285Y-117117857D01*
X183364285Y-117213095D01*
X183411904Y-117355952D01*
X183983333Y-117927381D01*
X183364285Y-117927381D01*
X180157381Y-90638334D02*
X179681190Y-90305000D01*
X180157381Y-90066905D02*
X179157381Y-90066905D01*
X179157381Y-90447858D01*
X179205000Y-90543096D01*
X179252619Y-90590715D01*
X179347857Y-90638334D01*
X179490714Y-90638334D01*
X179585952Y-90590715D01*
X179633571Y-90543096D01*
X179681190Y-90447858D01*
X179681190Y-90066905D01*
X179157381Y-91495477D02*
X179157381Y-91305000D01*
X179205000Y-91209762D01*
X179252619Y-91162143D01*
X179395476Y-91066905D01*
X179585952Y-91019286D01*
X179966905Y-91019286D01*
X180062143Y-91066905D01*
X180109762Y-91114524D01*
X180157381Y-91209762D01*
X180157381Y-91400239D01*
X180109762Y-91495477D01*
X180062143Y-91543096D01*
X179966905Y-91590715D01*
X179728810Y-91590715D01*
X179633571Y-91543096D01*
X179585952Y-91495477D01*
X179538333Y-91400239D01*
X179538333Y-91209762D01*
X179585952Y-91114524D01*
X179633571Y-91066905D01*
X179728810Y-91019286D01*
M02*
