%FSLAX45Y45*%
G04 Gerber Fmt 4.5, Leading zero omitted, Abs format (unit mm)*
G04 Created by KiCad (PCBNEW 4.0.5+dfsg1-4) date Mon Apr 17 09:53:25 2017*
%MOMM*%
%LPD*%
G01*
G04 APERTURE LIST*
%ADD10C,0.127000*%
%ADD11C,0.150000*%
%ADD12C,0.200000*%
%ADD13C,0.300000*%
G04 APERTURE END LIST*
D10*
D11*
X15113000Y-14351000D02*
X15113000Y-6985000D01*
X20447000Y-14351000D02*
X15113000Y-14351000D01*
X20447000Y-6985000D02*
X20447000Y-14351000D01*
X15113000Y-6985000D02*
X20447000Y-6985000D01*
D12*
X17232000Y-12914000D02*
X17312000Y-12994000D01*
X17312000Y-12914000D02*
X17232000Y-12994000D01*
X17232000Y-13676000D02*
X17312000Y-13756000D01*
X17312000Y-13676000D02*
X17232000Y-13756000D01*
X17486000Y-12914000D02*
X17566000Y-12994000D01*
X17566000Y-12914000D02*
X17486000Y-12994000D01*
X17486000Y-13676000D02*
X17566000Y-13756000D01*
X17566000Y-13676000D02*
X17486000Y-13756000D01*
X17994000Y-12914000D02*
X18074000Y-12994000D01*
X18074000Y-12914000D02*
X17994000Y-12994000D01*
X17994000Y-13676000D02*
X18074000Y-13756000D01*
X18074000Y-13676000D02*
X17994000Y-13756000D01*
X18248000Y-12914000D02*
X18328000Y-12994000D01*
X18328000Y-12914000D02*
X18248000Y-12994000D01*
X18248000Y-13676000D02*
X18328000Y-13756000D01*
X18328000Y-13676000D02*
X18248000Y-13756000D01*
X15925038Y-11430000D02*
G75*
G03X15925038Y-11430000I-50038J0D01*
G01*
X16179038Y-11430000D02*
G75*
G03X16179038Y-11430000I-50038J0D01*
G01*
X16433038Y-11430000D02*
G75*
G03X16433038Y-11430000I-50038J0D01*
G01*
X19227038Y-11430000D02*
G75*
G03X19227038Y-11430000I-50038J0D01*
G01*
X19481038Y-11430000D02*
G75*
G03X19481038Y-11430000I-50038J0D01*
G01*
X19735038Y-11430000D02*
G75*
G03X19735038Y-11430000I-50038J0D01*
G01*
X15875000Y-12776200D02*
X15875000Y-12877800D01*
X15824200Y-12827000D02*
X15925800Y-12827000D01*
X16891000Y-12776200D02*
X16891000Y-12877800D01*
X16840200Y-12827000D02*
X16941800Y-12827000D01*
X17780000Y-11125200D02*
X17780000Y-11226800D01*
X17729200Y-11176000D02*
X17830800Y-11176000D01*
X17780000Y-12141200D02*
X17780000Y-12242800D01*
X17729200Y-12192000D02*
X17830800Y-12192000D01*
X18669000Y-12776200D02*
X18669000Y-12877800D01*
X18618200Y-12827000D02*
X18719800Y-12827000D01*
X19685000Y-12776200D02*
X19685000Y-12877800D01*
X19634200Y-12827000D02*
X19735800Y-12827000D01*
X16806427Y-7916427D02*
X16806427Y-7831573D01*
X16721573Y-7831573D01*
X16721573Y-7916427D01*
X16806427Y-7916427D01*
X17314427Y-7916427D02*
X17314427Y-7831573D01*
X17229573Y-7831573D01*
X17229573Y-7916427D01*
X17314427Y-7916427D01*
X17822427Y-7916427D02*
X17822427Y-7831573D01*
X17737573Y-7831573D01*
X17737573Y-7916427D01*
X17822427Y-7916427D01*
X18330427Y-7916427D02*
X18330427Y-7831573D01*
X18245573Y-7831573D01*
X18245573Y-7916427D01*
X18330427Y-7916427D01*
X18838427Y-7916427D02*
X18838427Y-7831573D01*
X18753573Y-7831573D01*
X18753573Y-7916427D01*
X18838427Y-7916427D01*
X15557500Y-7589500D02*
X15717500Y-7429500D01*
X15557500Y-7269500D01*
X15397500Y-7429500D01*
X15557500Y-7589500D01*
X15557500Y-14066500D02*
X15717500Y-13906500D01*
X15557500Y-13746500D01*
X15397500Y-13906500D01*
X15557500Y-14066500D01*
X16129000Y-9913600D02*
X16289000Y-9753600D01*
X16129000Y-9593600D01*
X15969000Y-9753600D01*
X16129000Y-9913600D01*
X19431000Y-9913600D02*
X19591000Y-9753600D01*
X19431000Y-9593600D01*
X19271000Y-9753600D01*
X19431000Y-9913600D01*
X20002500Y-7589500D02*
X20162500Y-7429500D01*
X20002500Y-7269500D01*
X19842500Y-7429500D01*
X20002500Y-7589500D01*
X20002500Y-14066500D02*
X20162500Y-13906500D01*
X20002500Y-13746500D01*
X19842500Y-13906500D01*
X20002500Y-14066500D01*
D13*
X15376928Y-14824214D02*
X15376928Y-14524214D01*
X15448357Y-14524214D01*
X15491214Y-14538500D01*
X15519786Y-14567071D01*
X15534071Y-14595643D01*
X15548357Y-14652786D01*
X15548357Y-14695643D01*
X15534071Y-14752786D01*
X15519786Y-14781357D01*
X15491214Y-14809929D01*
X15448357Y-14824214D01*
X15376928Y-14824214D01*
X15676928Y-14824214D02*
X15676928Y-14624214D01*
X15676928Y-14681357D02*
X15691214Y-14652786D01*
X15705500Y-14638500D01*
X15734071Y-14624214D01*
X15762643Y-14624214D01*
X15862643Y-14824214D02*
X15862643Y-14624214D01*
X15862643Y-14524214D02*
X15848357Y-14538500D01*
X15862643Y-14552786D01*
X15876928Y-14538500D01*
X15862643Y-14524214D01*
X15862643Y-14552786D01*
X16048357Y-14824214D02*
X16019786Y-14809929D01*
X16005500Y-14781357D01*
X16005500Y-14524214D01*
X16205500Y-14824214D02*
X16176928Y-14809929D01*
X16162643Y-14781357D01*
X16162643Y-14524214D01*
X16548357Y-14824214D02*
X16548357Y-14524214D01*
X16648357Y-14738500D01*
X16748357Y-14524214D01*
X16748357Y-14824214D01*
X17019786Y-14824214D02*
X17019786Y-14667071D01*
X17005500Y-14638500D01*
X16976929Y-14624214D01*
X16919786Y-14624214D01*
X16891214Y-14638500D01*
X17019786Y-14809929D02*
X16991214Y-14824214D01*
X16919786Y-14824214D01*
X16891214Y-14809929D01*
X16876929Y-14781357D01*
X16876929Y-14752786D01*
X16891214Y-14724214D01*
X16919786Y-14709929D01*
X16991214Y-14709929D01*
X17019786Y-14695643D01*
X17162643Y-14624214D02*
X17162643Y-14924214D01*
X17162643Y-14638500D02*
X17191214Y-14624214D01*
X17248357Y-14624214D01*
X17276929Y-14638500D01*
X17291214Y-14652786D01*
X17305500Y-14681357D01*
X17305500Y-14767071D01*
X17291214Y-14795643D01*
X17276929Y-14809929D01*
X17248357Y-14824214D01*
X17191214Y-14824214D01*
X17162643Y-14809929D01*
X17434071Y-14795643D02*
X17448357Y-14809929D01*
X17434071Y-14824214D01*
X17419786Y-14809929D01*
X17434071Y-14795643D01*
X17434071Y-14824214D01*
X17434071Y-14638500D02*
X17448357Y-14652786D01*
X17434071Y-14667071D01*
X17419786Y-14652786D01*
X17434071Y-14638500D01*
X17434071Y-14667071D01*
X15025500Y-15278500D02*
X15105500Y-15358500D01*
X15105500Y-15278500D02*
X15025500Y-15358500D01*
X15434071Y-15154214D02*
X15462643Y-15154214D01*
X15491214Y-15168500D01*
X15505500Y-15182786D01*
X15519786Y-15211357D01*
X15534071Y-15268500D01*
X15534071Y-15339929D01*
X15519786Y-15397071D01*
X15505500Y-15425643D01*
X15491214Y-15439929D01*
X15462643Y-15454214D01*
X15434071Y-15454214D01*
X15405500Y-15439929D01*
X15391214Y-15425643D01*
X15376928Y-15397071D01*
X15362643Y-15339929D01*
X15362643Y-15268500D01*
X15376928Y-15211357D01*
X15391214Y-15182786D01*
X15405500Y-15168500D01*
X15434071Y-15154214D01*
X15662643Y-15425643D02*
X15676928Y-15439929D01*
X15662643Y-15454214D01*
X15648357Y-15439929D01*
X15662643Y-15425643D01*
X15662643Y-15454214D01*
X15848357Y-15282786D02*
X15819786Y-15268500D01*
X15805500Y-15254214D01*
X15791214Y-15225643D01*
X15791214Y-15211357D01*
X15805500Y-15182786D01*
X15819786Y-15168500D01*
X15848357Y-15154214D01*
X15905500Y-15154214D01*
X15934071Y-15168500D01*
X15948357Y-15182786D01*
X15962643Y-15211357D01*
X15962643Y-15225643D01*
X15948357Y-15254214D01*
X15934071Y-15268500D01*
X15905500Y-15282786D01*
X15848357Y-15282786D01*
X15819786Y-15297071D01*
X15805500Y-15311357D01*
X15791214Y-15339929D01*
X15791214Y-15397071D01*
X15805500Y-15425643D01*
X15819786Y-15439929D01*
X15848357Y-15454214D01*
X15905500Y-15454214D01*
X15934071Y-15439929D01*
X15948357Y-15425643D01*
X15962643Y-15397071D01*
X15962643Y-15339929D01*
X15948357Y-15311357D01*
X15934071Y-15297071D01*
X15905500Y-15282786D01*
X16148357Y-15154214D02*
X16176928Y-15154214D01*
X16205500Y-15168500D01*
X16219786Y-15182786D01*
X16234071Y-15211357D01*
X16248357Y-15268500D01*
X16248357Y-15339929D01*
X16234071Y-15397071D01*
X16219786Y-15425643D01*
X16205500Y-15439929D01*
X16176928Y-15454214D01*
X16148357Y-15454214D01*
X16119786Y-15439929D01*
X16105500Y-15425643D01*
X16091214Y-15397071D01*
X16076928Y-15339929D01*
X16076928Y-15268500D01*
X16091214Y-15211357D01*
X16105500Y-15182786D01*
X16119786Y-15168500D01*
X16148357Y-15154214D01*
X16376928Y-15454214D02*
X16376928Y-15254214D01*
X16376928Y-15282786D02*
X16391214Y-15268500D01*
X16419786Y-15254214D01*
X16462643Y-15254214D01*
X16491214Y-15268500D01*
X16505500Y-15297071D01*
X16505500Y-15454214D01*
X16505500Y-15297071D02*
X16519786Y-15268500D01*
X16548357Y-15254214D01*
X16591214Y-15254214D01*
X16619786Y-15268500D01*
X16634071Y-15297071D01*
X16634071Y-15454214D01*
X16776928Y-15454214D02*
X16776928Y-15254214D01*
X16776928Y-15282786D02*
X16791214Y-15268500D01*
X16819786Y-15254214D01*
X16862643Y-15254214D01*
X16891214Y-15268500D01*
X16905500Y-15297071D01*
X16905500Y-15454214D01*
X16905500Y-15297071D02*
X16919786Y-15268500D01*
X16948357Y-15254214D01*
X16991214Y-15254214D01*
X17019786Y-15268500D01*
X17034071Y-15297071D01*
X17034071Y-15454214D01*
X17619786Y-15139929D02*
X17362643Y-15525643D01*
X18005500Y-15154214D02*
X18034071Y-15154214D01*
X18062643Y-15168500D01*
X18076928Y-15182786D01*
X18091214Y-15211357D01*
X18105500Y-15268500D01*
X18105500Y-15339929D01*
X18091214Y-15397071D01*
X18076928Y-15425643D01*
X18062643Y-15439929D01*
X18034071Y-15454214D01*
X18005500Y-15454214D01*
X17976928Y-15439929D01*
X17962643Y-15425643D01*
X17948357Y-15397071D01*
X17934071Y-15339929D01*
X17934071Y-15268500D01*
X17948357Y-15211357D01*
X17962643Y-15182786D01*
X17976928Y-15168500D01*
X18005500Y-15154214D01*
X18234071Y-15425643D02*
X18248357Y-15439929D01*
X18234071Y-15454214D01*
X18219786Y-15439929D01*
X18234071Y-15425643D01*
X18234071Y-15454214D01*
X18434071Y-15154214D02*
X18462643Y-15154214D01*
X18491214Y-15168500D01*
X18505500Y-15182786D01*
X18519786Y-15211357D01*
X18534071Y-15268500D01*
X18534071Y-15339929D01*
X18519786Y-15397071D01*
X18505500Y-15425643D01*
X18491214Y-15439929D01*
X18462643Y-15454214D01*
X18434071Y-15454214D01*
X18405500Y-15439929D01*
X18391214Y-15425643D01*
X18376928Y-15397071D01*
X18362643Y-15339929D01*
X18362643Y-15268500D01*
X18376928Y-15211357D01*
X18391214Y-15182786D01*
X18405500Y-15168500D01*
X18434071Y-15154214D01*
X18634071Y-15154214D02*
X18819786Y-15154214D01*
X18719786Y-15268500D01*
X18762643Y-15268500D01*
X18791214Y-15282786D01*
X18805500Y-15297071D01*
X18819786Y-15325643D01*
X18819786Y-15397071D01*
X18805500Y-15425643D01*
X18791214Y-15439929D01*
X18762643Y-15454214D01*
X18676928Y-15454214D01*
X18648357Y-15439929D01*
X18634071Y-15425643D01*
X19105500Y-15454214D02*
X18934071Y-15454214D01*
X19019786Y-15454214D02*
X19019786Y-15154214D01*
X18991214Y-15197071D01*
X18962643Y-15225643D01*
X18934071Y-15239929D01*
X19219786Y-15154214D02*
X19219786Y-15211357D01*
X19334071Y-15154214D02*
X19334071Y-15211357D01*
X19776928Y-15568500D02*
X19762643Y-15554214D01*
X19734071Y-15511357D01*
X19719786Y-15482786D01*
X19705500Y-15439929D01*
X19691214Y-15368500D01*
X19691214Y-15311357D01*
X19705500Y-15239929D01*
X19719786Y-15197071D01*
X19734071Y-15168500D01*
X19762643Y-15125643D01*
X19776928Y-15111357D01*
X19934071Y-15282786D02*
X19905500Y-15268500D01*
X19891214Y-15254214D01*
X19876928Y-15225643D01*
X19876928Y-15211357D01*
X19891214Y-15182786D01*
X19905500Y-15168500D01*
X19934071Y-15154214D01*
X19991214Y-15154214D01*
X20019786Y-15168500D01*
X20034071Y-15182786D01*
X20048357Y-15211357D01*
X20048357Y-15225643D01*
X20034071Y-15254214D01*
X20019786Y-15268500D01*
X19991214Y-15282786D01*
X19934071Y-15282786D01*
X19905500Y-15297071D01*
X19891214Y-15311357D01*
X19876928Y-15339929D01*
X19876928Y-15397071D01*
X19891214Y-15425643D01*
X19905500Y-15439929D01*
X19934071Y-15454214D01*
X19991214Y-15454214D01*
X20019786Y-15439929D01*
X20034071Y-15425643D01*
X20048357Y-15397071D01*
X20048357Y-15339929D01*
X20034071Y-15311357D01*
X20019786Y-15297071D01*
X19991214Y-15282786D01*
X20405500Y-15454214D02*
X20405500Y-15154214D01*
X20534071Y-15454214D02*
X20534071Y-15297071D01*
X20519786Y-15268500D01*
X20491214Y-15254214D01*
X20448357Y-15254214D01*
X20419786Y-15268500D01*
X20405500Y-15282786D01*
X20719786Y-15454214D02*
X20691214Y-15439929D01*
X20676928Y-15425643D01*
X20662643Y-15397071D01*
X20662643Y-15311357D01*
X20676928Y-15282786D01*
X20691214Y-15268500D01*
X20719786Y-15254214D01*
X20762643Y-15254214D01*
X20791214Y-15268500D01*
X20805500Y-15282786D01*
X20819786Y-15311357D01*
X20819786Y-15397071D01*
X20805500Y-15425643D01*
X20791214Y-15439929D01*
X20762643Y-15454214D01*
X20719786Y-15454214D01*
X20991214Y-15454214D02*
X20962643Y-15439929D01*
X20948357Y-15411357D01*
X20948357Y-15154214D01*
X21219786Y-15439929D02*
X21191214Y-15454214D01*
X21134071Y-15454214D01*
X21105500Y-15439929D01*
X21091214Y-15411357D01*
X21091214Y-15297071D01*
X21105500Y-15268500D01*
X21134071Y-15254214D01*
X21191214Y-15254214D01*
X21219786Y-15268500D01*
X21234071Y-15297071D01*
X21234071Y-15325643D01*
X21091214Y-15354214D01*
X21348357Y-15439929D02*
X21376929Y-15454214D01*
X21434071Y-15454214D01*
X21462643Y-15439929D01*
X21476929Y-15411357D01*
X21476929Y-15397071D01*
X21462643Y-15368500D01*
X21434071Y-15354214D01*
X21391214Y-15354214D01*
X21362643Y-15339929D01*
X21348357Y-15311357D01*
X21348357Y-15297071D01*
X21362643Y-15268500D01*
X21391214Y-15254214D01*
X21434071Y-15254214D01*
X21462643Y-15268500D01*
X21576928Y-15568500D02*
X21591214Y-15554214D01*
X21619786Y-15511357D01*
X21634071Y-15482786D01*
X21648357Y-15439929D01*
X21662643Y-15368500D01*
X21662643Y-15311357D01*
X21648357Y-15239929D01*
X21634071Y-15197071D01*
X21619786Y-15168500D01*
X21591214Y-15125643D01*
X21576928Y-15111357D01*
X15105500Y-15714500D02*
G75*
G03X15105500Y-15714500I-50038J0D01*
G01*
X15534071Y-15850214D02*
X15362643Y-15850214D01*
X15448357Y-15850214D02*
X15448357Y-15550214D01*
X15419786Y-15593071D01*
X15391214Y-15621643D01*
X15362643Y-15635929D01*
X15662643Y-15821643D02*
X15676928Y-15835929D01*
X15662643Y-15850214D01*
X15648357Y-15835929D01*
X15662643Y-15821643D01*
X15662643Y-15850214D01*
X15862643Y-15550214D02*
X15891214Y-15550214D01*
X15919786Y-15564500D01*
X15934071Y-15578786D01*
X15948357Y-15607357D01*
X15962643Y-15664500D01*
X15962643Y-15735929D01*
X15948357Y-15793071D01*
X15934071Y-15821643D01*
X15919786Y-15835929D01*
X15891214Y-15850214D01*
X15862643Y-15850214D01*
X15834071Y-15835929D01*
X15819786Y-15821643D01*
X15805500Y-15793071D01*
X15791214Y-15735929D01*
X15791214Y-15664500D01*
X15805500Y-15607357D01*
X15819786Y-15578786D01*
X15834071Y-15564500D01*
X15862643Y-15550214D01*
X16148357Y-15550214D02*
X16176928Y-15550214D01*
X16205500Y-15564500D01*
X16219786Y-15578786D01*
X16234071Y-15607357D01*
X16248357Y-15664500D01*
X16248357Y-15735929D01*
X16234071Y-15793071D01*
X16219786Y-15821643D01*
X16205500Y-15835929D01*
X16176928Y-15850214D01*
X16148357Y-15850214D01*
X16119786Y-15835929D01*
X16105500Y-15821643D01*
X16091214Y-15793071D01*
X16076928Y-15735929D01*
X16076928Y-15664500D01*
X16091214Y-15607357D01*
X16105500Y-15578786D01*
X16119786Y-15564500D01*
X16148357Y-15550214D01*
X16376928Y-15850214D02*
X16376928Y-15650214D01*
X16376928Y-15678786D02*
X16391214Y-15664500D01*
X16419786Y-15650214D01*
X16462643Y-15650214D01*
X16491214Y-15664500D01*
X16505500Y-15693071D01*
X16505500Y-15850214D01*
X16505500Y-15693071D02*
X16519786Y-15664500D01*
X16548357Y-15650214D01*
X16591214Y-15650214D01*
X16619786Y-15664500D01*
X16634071Y-15693071D01*
X16634071Y-15850214D01*
X16776928Y-15850214D02*
X16776928Y-15650214D01*
X16776928Y-15678786D02*
X16791214Y-15664500D01*
X16819786Y-15650214D01*
X16862643Y-15650214D01*
X16891214Y-15664500D01*
X16905500Y-15693071D01*
X16905500Y-15850214D01*
X16905500Y-15693071D02*
X16919786Y-15664500D01*
X16948357Y-15650214D01*
X16991214Y-15650214D01*
X17019786Y-15664500D01*
X17034071Y-15693071D01*
X17034071Y-15850214D01*
X17619786Y-15535929D02*
X17362643Y-15921643D01*
X18005500Y-15550214D02*
X18034071Y-15550214D01*
X18062643Y-15564500D01*
X18076928Y-15578786D01*
X18091214Y-15607357D01*
X18105500Y-15664500D01*
X18105500Y-15735929D01*
X18091214Y-15793071D01*
X18076928Y-15821643D01*
X18062643Y-15835929D01*
X18034071Y-15850214D01*
X18005500Y-15850214D01*
X17976928Y-15835929D01*
X17962643Y-15821643D01*
X17948357Y-15793071D01*
X17934071Y-15735929D01*
X17934071Y-15664500D01*
X17948357Y-15607357D01*
X17962643Y-15578786D01*
X17976928Y-15564500D01*
X18005500Y-15550214D01*
X18234071Y-15821643D02*
X18248357Y-15835929D01*
X18234071Y-15850214D01*
X18219786Y-15835929D01*
X18234071Y-15821643D01*
X18234071Y-15850214D01*
X18434071Y-15550214D02*
X18462643Y-15550214D01*
X18491214Y-15564500D01*
X18505500Y-15578786D01*
X18519786Y-15607357D01*
X18534071Y-15664500D01*
X18534071Y-15735929D01*
X18519786Y-15793071D01*
X18505500Y-15821643D01*
X18491214Y-15835929D01*
X18462643Y-15850214D01*
X18434071Y-15850214D01*
X18405500Y-15835929D01*
X18391214Y-15821643D01*
X18376928Y-15793071D01*
X18362643Y-15735929D01*
X18362643Y-15664500D01*
X18376928Y-15607357D01*
X18391214Y-15578786D01*
X18405500Y-15564500D01*
X18434071Y-15550214D01*
X18634071Y-15550214D02*
X18819786Y-15550214D01*
X18719786Y-15664500D01*
X18762643Y-15664500D01*
X18791214Y-15678786D01*
X18805500Y-15693071D01*
X18819786Y-15721643D01*
X18819786Y-15793071D01*
X18805500Y-15821643D01*
X18791214Y-15835929D01*
X18762643Y-15850214D01*
X18676928Y-15850214D01*
X18648357Y-15835929D01*
X18634071Y-15821643D01*
X18962643Y-15850214D02*
X19019786Y-15850214D01*
X19048357Y-15835929D01*
X19062643Y-15821643D01*
X19091214Y-15778786D01*
X19105500Y-15721643D01*
X19105500Y-15607357D01*
X19091214Y-15578786D01*
X19076928Y-15564500D01*
X19048357Y-15550214D01*
X18991214Y-15550214D01*
X18962643Y-15564500D01*
X18948357Y-15578786D01*
X18934071Y-15607357D01*
X18934071Y-15678786D01*
X18948357Y-15707357D01*
X18962643Y-15721643D01*
X18991214Y-15735929D01*
X19048357Y-15735929D01*
X19076928Y-15721643D01*
X19091214Y-15707357D01*
X19105500Y-15678786D01*
X19219786Y-15550214D02*
X19219786Y-15607357D01*
X19334071Y-15550214D02*
X19334071Y-15607357D01*
X19776928Y-15964500D02*
X19762643Y-15950214D01*
X19734071Y-15907357D01*
X19719786Y-15878786D01*
X19705500Y-15835929D01*
X19691214Y-15764500D01*
X19691214Y-15707357D01*
X19705500Y-15635929D01*
X19719786Y-15593071D01*
X19734071Y-15564500D01*
X19762643Y-15521643D01*
X19776928Y-15507357D01*
X20019786Y-15550214D02*
X19962643Y-15550214D01*
X19934071Y-15564500D01*
X19919786Y-15578786D01*
X19891214Y-15621643D01*
X19876928Y-15678786D01*
X19876928Y-15793071D01*
X19891214Y-15821643D01*
X19905500Y-15835929D01*
X19934071Y-15850214D01*
X19991214Y-15850214D01*
X20019786Y-15835929D01*
X20034071Y-15821643D01*
X20048357Y-15793071D01*
X20048357Y-15721643D01*
X20034071Y-15693071D01*
X20019786Y-15678786D01*
X19991214Y-15664500D01*
X19934071Y-15664500D01*
X19905500Y-15678786D01*
X19891214Y-15693071D01*
X19876928Y-15721643D01*
X20405500Y-15850214D02*
X20405500Y-15550214D01*
X20534071Y-15850214D02*
X20534071Y-15693071D01*
X20519786Y-15664500D01*
X20491214Y-15650214D01*
X20448357Y-15650214D01*
X20419786Y-15664500D01*
X20405500Y-15678786D01*
X20719786Y-15850214D02*
X20691214Y-15835929D01*
X20676928Y-15821643D01*
X20662643Y-15793071D01*
X20662643Y-15707357D01*
X20676928Y-15678786D01*
X20691214Y-15664500D01*
X20719786Y-15650214D01*
X20762643Y-15650214D01*
X20791214Y-15664500D01*
X20805500Y-15678786D01*
X20819786Y-15707357D01*
X20819786Y-15793071D01*
X20805500Y-15821643D01*
X20791214Y-15835929D01*
X20762643Y-15850214D01*
X20719786Y-15850214D01*
X20991214Y-15850214D02*
X20962643Y-15835929D01*
X20948357Y-15807357D01*
X20948357Y-15550214D01*
X21219786Y-15835929D02*
X21191214Y-15850214D01*
X21134071Y-15850214D01*
X21105500Y-15835929D01*
X21091214Y-15807357D01*
X21091214Y-15693071D01*
X21105500Y-15664500D01*
X21134071Y-15650214D01*
X21191214Y-15650214D01*
X21219786Y-15664500D01*
X21234071Y-15693071D01*
X21234071Y-15721643D01*
X21091214Y-15750214D01*
X21348357Y-15835929D02*
X21376929Y-15850214D01*
X21434071Y-15850214D01*
X21462643Y-15835929D01*
X21476929Y-15807357D01*
X21476929Y-15793071D01*
X21462643Y-15764500D01*
X21434071Y-15750214D01*
X21391214Y-15750214D01*
X21362643Y-15735929D01*
X21348357Y-15707357D01*
X21348357Y-15693071D01*
X21362643Y-15664500D01*
X21391214Y-15650214D01*
X21434071Y-15650214D01*
X21462643Y-15664500D01*
X21576928Y-15964500D02*
X21591214Y-15950214D01*
X21619786Y-15907357D01*
X21634071Y-15878786D01*
X21648357Y-15835929D01*
X21662643Y-15764500D01*
X21662643Y-15707357D01*
X21648357Y-15635929D01*
X21634071Y-15593071D01*
X21619786Y-15564500D01*
X21591214Y-15521643D01*
X21576928Y-15507357D01*
X15054700Y-16059700D02*
X15054700Y-16161300D01*
X15003900Y-16110500D02*
X15105500Y-16110500D01*
X15534071Y-16246214D02*
X15362643Y-16246214D01*
X15448357Y-16246214D02*
X15448357Y-15946214D01*
X15419786Y-15989071D01*
X15391214Y-16017643D01*
X15362643Y-16031929D01*
X15662643Y-16217643D02*
X15676928Y-16231929D01*
X15662643Y-16246214D01*
X15648357Y-16231929D01*
X15662643Y-16217643D01*
X15662643Y-16246214D01*
X15862643Y-15946214D02*
X15891214Y-15946214D01*
X15919786Y-15960500D01*
X15934071Y-15974786D01*
X15948357Y-16003357D01*
X15962643Y-16060500D01*
X15962643Y-16131929D01*
X15948357Y-16189071D01*
X15934071Y-16217643D01*
X15919786Y-16231929D01*
X15891214Y-16246214D01*
X15862643Y-16246214D01*
X15834071Y-16231929D01*
X15819786Y-16217643D01*
X15805500Y-16189071D01*
X15791214Y-16131929D01*
X15791214Y-16060500D01*
X15805500Y-16003357D01*
X15819786Y-15974786D01*
X15834071Y-15960500D01*
X15862643Y-15946214D01*
X16076928Y-15974786D02*
X16091214Y-15960500D01*
X16119786Y-15946214D01*
X16191214Y-15946214D01*
X16219786Y-15960500D01*
X16234071Y-15974786D01*
X16248357Y-16003357D01*
X16248357Y-16031929D01*
X16234071Y-16074786D01*
X16062643Y-16246214D01*
X16248357Y-16246214D01*
X16376928Y-16246214D02*
X16376928Y-16046214D01*
X16376928Y-16074786D02*
X16391214Y-16060500D01*
X16419786Y-16046214D01*
X16462643Y-16046214D01*
X16491214Y-16060500D01*
X16505500Y-16089071D01*
X16505500Y-16246214D01*
X16505500Y-16089071D02*
X16519786Y-16060500D01*
X16548357Y-16046214D01*
X16591214Y-16046214D01*
X16619786Y-16060500D01*
X16634071Y-16089071D01*
X16634071Y-16246214D01*
X16776928Y-16246214D02*
X16776928Y-16046214D01*
X16776928Y-16074786D02*
X16791214Y-16060500D01*
X16819786Y-16046214D01*
X16862643Y-16046214D01*
X16891214Y-16060500D01*
X16905500Y-16089071D01*
X16905500Y-16246214D01*
X16905500Y-16089071D02*
X16919786Y-16060500D01*
X16948357Y-16046214D01*
X16991214Y-16046214D01*
X17019786Y-16060500D01*
X17034071Y-16089071D01*
X17034071Y-16246214D01*
X17619786Y-15931929D02*
X17362643Y-16317643D01*
X18005500Y-15946214D02*
X18034071Y-15946214D01*
X18062643Y-15960500D01*
X18076928Y-15974786D01*
X18091214Y-16003357D01*
X18105500Y-16060500D01*
X18105500Y-16131929D01*
X18091214Y-16189071D01*
X18076928Y-16217643D01*
X18062643Y-16231929D01*
X18034071Y-16246214D01*
X18005500Y-16246214D01*
X17976928Y-16231929D01*
X17962643Y-16217643D01*
X17948357Y-16189071D01*
X17934071Y-16131929D01*
X17934071Y-16060500D01*
X17948357Y-16003357D01*
X17962643Y-15974786D01*
X17976928Y-15960500D01*
X18005500Y-15946214D01*
X18234071Y-16217643D02*
X18248357Y-16231929D01*
X18234071Y-16246214D01*
X18219786Y-16231929D01*
X18234071Y-16217643D01*
X18234071Y-16246214D01*
X18434071Y-15946214D02*
X18462643Y-15946214D01*
X18491214Y-15960500D01*
X18505500Y-15974786D01*
X18519786Y-16003357D01*
X18534071Y-16060500D01*
X18534071Y-16131929D01*
X18519786Y-16189071D01*
X18505500Y-16217643D01*
X18491214Y-16231929D01*
X18462643Y-16246214D01*
X18434071Y-16246214D01*
X18405500Y-16231929D01*
X18391214Y-16217643D01*
X18376928Y-16189071D01*
X18362643Y-16131929D01*
X18362643Y-16060500D01*
X18376928Y-16003357D01*
X18391214Y-15974786D01*
X18405500Y-15960500D01*
X18434071Y-15946214D01*
X18791214Y-16046214D02*
X18791214Y-16246214D01*
X18719786Y-15931929D02*
X18648357Y-16146214D01*
X18834071Y-16146214D01*
X19005500Y-15946214D02*
X19034071Y-15946214D01*
X19062643Y-15960500D01*
X19076928Y-15974786D01*
X19091214Y-16003357D01*
X19105500Y-16060500D01*
X19105500Y-16131929D01*
X19091214Y-16189071D01*
X19076928Y-16217643D01*
X19062643Y-16231929D01*
X19034071Y-16246214D01*
X19005500Y-16246214D01*
X18976928Y-16231929D01*
X18962643Y-16217643D01*
X18948357Y-16189071D01*
X18934071Y-16131929D01*
X18934071Y-16060500D01*
X18948357Y-16003357D01*
X18962643Y-15974786D01*
X18976928Y-15960500D01*
X19005500Y-15946214D01*
X19219786Y-15946214D02*
X19219786Y-16003357D01*
X19334071Y-15946214D02*
X19334071Y-16003357D01*
X19776928Y-16360500D02*
X19762643Y-16346214D01*
X19734071Y-16303357D01*
X19719786Y-16274786D01*
X19705500Y-16231929D01*
X19691214Y-16160500D01*
X19691214Y-16103357D01*
X19705500Y-16031929D01*
X19719786Y-15989071D01*
X19734071Y-15960500D01*
X19762643Y-15917643D01*
X19776928Y-15903357D01*
X20019786Y-15946214D02*
X19962643Y-15946214D01*
X19934071Y-15960500D01*
X19919786Y-15974786D01*
X19891214Y-16017643D01*
X19876928Y-16074786D01*
X19876928Y-16189071D01*
X19891214Y-16217643D01*
X19905500Y-16231929D01*
X19934071Y-16246214D01*
X19991214Y-16246214D01*
X20019786Y-16231929D01*
X20034071Y-16217643D01*
X20048357Y-16189071D01*
X20048357Y-16117643D01*
X20034071Y-16089071D01*
X20019786Y-16074786D01*
X19991214Y-16060500D01*
X19934071Y-16060500D01*
X19905500Y-16074786D01*
X19891214Y-16089071D01*
X19876928Y-16117643D01*
X20405500Y-16246214D02*
X20405500Y-15946214D01*
X20534071Y-16246214D02*
X20534071Y-16089071D01*
X20519786Y-16060500D01*
X20491214Y-16046214D01*
X20448357Y-16046214D01*
X20419786Y-16060500D01*
X20405500Y-16074786D01*
X20719786Y-16246214D02*
X20691214Y-16231929D01*
X20676928Y-16217643D01*
X20662643Y-16189071D01*
X20662643Y-16103357D01*
X20676928Y-16074786D01*
X20691214Y-16060500D01*
X20719786Y-16046214D01*
X20762643Y-16046214D01*
X20791214Y-16060500D01*
X20805500Y-16074786D01*
X20819786Y-16103357D01*
X20819786Y-16189071D01*
X20805500Y-16217643D01*
X20791214Y-16231929D01*
X20762643Y-16246214D01*
X20719786Y-16246214D01*
X20991214Y-16246214D02*
X20962643Y-16231929D01*
X20948357Y-16203357D01*
X20948357Y-15946214D01*
X21219786Y-16231929D02*
X21191214Y-16246214D01*
X21134071Y-16246214D01*
X21105500Y-16231929D01*
X21091214Y-16203357D01*
X21091214Y-16089071D01*
X21105500Y-16060500D01*
X21134071Y-16046214D01*
X21191214Y-16046214D01*
X21219786Y-16060500D01*
X21234071Y-16089071D01*
X21234071Y-16117643D01*
X21091214Y-16146214D01*
X21348357Y-16231929D02*
X21376929Y-16246214D01*
X21434071Y-16246214D01*
X21462643Y-16231929D01*
X21476929Y-16203357D01*
X21476929Y-16189071D01*
X21462643Y-16160500D01*
X21434071Y-16146214D01*
X21391214Y-16146214D01*
X21362643Y-16131929D01*
X21348357Y-16103357D01*
X21348357Y-16089071D01*
X21362643Y-16060500D01*
X21391214Y-16046214D01*
X21434071Y-16046214D01*
X21462643Y-16060500D01*
X21576928Y-16360500D02*
X21591214Y-16346214D01*
X21619786Y-16303357D01*
X21634071Y-16274786D01*
X21648357Y-16231929D01*
X21662643Y-16160500D01*
X21662643Y-16103357D01*
X21648357Y-16031929D01*
X21634071Y-15989071D01*
X21619786Y-15960500D01*
X21591214Y-15917643D01*
X21576928Y-15903357D01*
X15087927Y-16548927D02*
X15087927Y-16464073D01*
X15003073Y-16464073D01*
X15003073Y-16548927D01*
X15087927Y-16548927D01*
X15534071Y-16642214D02*
X15362643Y-16642214D01*
X15448357Y-16642214D02*
X15448357Y-16342214D01*
X15419786Y-16385071D01*
X15391214Y-16413643D01*
X15362643Y-16427929D01*
X15662643Y-16613643D02*
X15676928Y-16627929D01*
X15662643Y-16642214D01*
X15648357Y-16627929D01*
X15662643Y-16613643D01*
X15662643Y-16642214D01*
X15791214Y-16370786D02*
X15805500Y-16356500D01*
X15834071Y-16342214D01*
X15905500Y-16342214D01*
X15934071Y-16356500D01*
X15948357Y-16370786D01*
X15962643Y-16399357D01*
X15962643Y-16427929D01*
X15948357Y-16470786D01*
X15776928Y-16642214D01*
X15962643Y-16642214D01*
X16148357Y-16342214D02*
X16176928Y-16342214D01*
X16205500Y-16356500D01*
X16219786Y-16370786D01*
X16234071Y-16399357D01*
X16248357Y-16456500D01*
X16248357Y-16527929D01*
X16234071Y-16585071D01*
X16219786Y-16613643D01*
X16205500Y-16627929D01*
X16176928Y-16642214D01*
X16148357Y-16642214D01*
X16119786Y-16627929D01*
X16105500Y-16613643D01*
X16091214Y-16585071D01*
X16076928Y-16527929D01*
X16076928Y-16456500D01*
X16091214Y-16399357D01*
X16105500Y-16370786D01*
X16119786Y-16356500D01*
X16148357Y-16342214D01*
X16376928Y-16642214D02*
X16376928Y-16442214D01*
X16376928Y-16470786D02*
X16391214Y-16456500D01*
X16419786Y-16442214D01*
X16462643Y-16442214D01*
X16491214Y-16456500D01*
X16505500Y-16485071D01*
X16505500Y-16642214D01*
X16505500Y-16485071D02*
X16519786Y-16456500D01*
X16548357Y-16442214D01*
X16591214Y-16442214D01*
X16619786Y-16456500D01*
X16634071Y-16485071D01*
X16634071Y-16642214D01*
X16776928Y-16642214D02*
X16776928Y-16442214D01*
X16776928Y-16470786D02*
X16791214Y-16456500D01*
X16819786Y-16442214D01*
X16862643Y-16442214D01*
X16891214Y-16456500D01*
X16905500Y-16485071D01*
X16905500Y-16642214D01*
X16905500Y-16485071D02*
X16919786Y-16456500D01*
X16948357Y-16442214D01*
X16991214Y-16442214D01*
X17019786Y-16456500D01*
X17034071Y-16485071D01*
X17034071Y-16642214D01*
X17619786Y-16327929D02*
X17362643Y-16713643D01*
X18005500Y-16342214D02*
X18034071Y-16342214D01*
X18062643Y-16356500D01*
X18076928Y-16370786D01*
X18091214Y-16399357D01*
X18105500Y-16456500D01*
X18105500Y-16527929D01*
X18091214Y-16585071D01*
X18076928Y-16613643D01*
X18062643Y-16627929D01*
X18034071Y-16642214D01*
X18005500Y-16642214D01*
X17976928Y-16627929D01*
X17962643Y-16613643D01*
X17948357Y-16585071D01*
X17934071Y-16527929D01*
X17934071Y-16456500D01*
X17948357Y-16399357D01*
X17962643Y-16370786D01*
X17976928Y-16356500D01*
X18005500Y-16342214D01*
X18234071Y-16613643D02*
X18248357Y-16627929D01*
X18234071Y-16642214D01*
X18219786Y-16627929D01*
X18234071Y-16613643D01*
X18234071Y-16642214D01*
X18434071Y-16342214D02*
X18462643Y-16342214D01*
X18491214Y-16356500D01*
X18505500Y-16370786D01*
X18519786Y-16399357D01*
X18534071Y-16456500D01*
X18534071Y-16527929D01*
X18519786Y-16585071D01*
X18505500Y-16613643D01*
X18491214Y-16627929D01*
X18462643Y-16642214D01*
X18434071Y-16642214D01*
X18405500Y-16627929D01*
X18391214Y-16613643D01*
X18376928Y-16585071D01*
X18362643Y-16527929D01*
X18362643Y-16456500D01*
X18376928Y-16399357D01*
X18391214Y-16370786D01*
X18405500Y-16356500D01*
X18434071Y-16342214D01*
X18791214Y-16442214D02*
X18791214Y-16642214D01*
X18719786Y-16327929D02*
X18648357Y-16542214D01*
X18834071Y-16542214D01*
X18919786Y-16342214D02*
X19119786Y-16342214D01*
X18991214Y-16642214D01*
X19219786Y-16342214D02*
X19219786Y-16399357D01*
X19334071Y-16342214D02*
X19334071Y-16399357D01*
X19776928Y-16756500D02*
X19762643Y-16742214D01*
X19734071Y-16699357D01*
X19719786Y-16670786D01*
X19705500Y-16627929D01*
X19691214Y-16556500D01*
X19691214Y-16499357D01*
X19705500Y-16427929D01*
X19719786Y-16385071D01*
X19734071Y-16356500D01*
X19762643Y-16313643D01*
X19776928Y-16299357D01*
X20034071Y-16342214D02*
X19891214Y-16342214D01*
X19876928Y-16485071D01*
X19891214Y-16470786D01*
X19919786Y-16456500D01*
X19991214Y-16456500D01*
X20019786Y-16470786D01*
X20034071Y-16485071D01*
X20048357Y-16513643D01*
X20048357Y-16585071D01*
X20034071Y-16613643D01*
X20019786Y-16627929D01*
X19991214Y-16642214D01*
X19919786Y-16642214D01*
X19891214Y-16627929D01*
X19876928Y-16613643D01*
X20405500Y-16642214D02*
X20405500Y-16342214D01*
X20534071Y-16642214D02*
X20534071Y-16485071D01*
X20519786Y-16456500D01*
X20491214Y-16442214D01*
X20448357Y-16442214D01*
X20419786Y-16456500D01*
X20405500Y-16470786D01*
X20719786Y-16642214D02*
X20691214Y-16627929D01*
X20676928Y-16613643D01*
X20662643Y-16585071D01*
X20662643Y-16499357D01*
X20676928Y-16470786D01*
X20691214Y-16456500D01*
X20719786Y-16442214D01*
X20762643Y-16442214D01*
X20791214Y-16456500D01*
X20805500Y-16470786D01*
X20819786Y-16499357D01*
X20819786Y-16585071D01*
X20805500Y-16613643D01*
X20791214Y-16627929D01*
X20762643Y-16642214D01*
X20719786Y-16642214D01*
X20991214Y-16642214D02*
X20962643Y-16627929D01*
X20948357Y-16599357D01*
X20948357Y-16342214D01*
X21219786Y-16627929D02*
X21191214Y-16642214D01*
X21134071Y-16642214D01*
X21105500Y-16627929D01*
X21091214Y-16599357D01*
X21091214Y-16485071D01*
X21105500Y-16456500D01*
X21134071Y-16442214D01*
X21191214Y-16442214D01*
X21219786Y-16456500D01*
X21234071Y-16485071D01*
X21234071Y-16513643D01*
X21091214Y-16542214D01*
X21348357Y-16627929D02*
X21376929Y-16642214D01*
X21434071Y-16642214D01*
X21462643Y-16627929D01*
X21476929Y-16599357D01*
X21476929Y-16585071D01*
X21462643Y-16556500D01*
X21434071Y-16542214D01*
X21391214Y-16542214D01*
X21362643Y-16527929D01*
X21348357Y-16499357D01*
X21348357Y-16485071D01*
X21362643Y-16456500D01*
X21391214Y-16442214D01*
X21434071Y-16442214D01*
X21462643Y-16456500D01*
X21576928Y-16756500D02*
X21591214Y-16742214D01*
X21619786Y-16699357D01*
X21634071Y-16670786D01*
X21648357Y-16627929D01*
X21662643Y-16556500D01*
X21662643Y-16499357D01*
X21648357Y-16427929D01*
X21634071Y-16385071D01*
X21619786Y-16356500D01*
X21591214Y-16313643D01*
X21576928Y-16299357D01*
X14945500Y-17062500D02*
X15105500Y-16902500D01*
X14945500Y-16742500D01*
X14785500Y-16902500D01*
X14945500Y-17062500D01*
X15348357Y-16738214D02*
X15534071Y-16738214D01*
X15434071Y-16852500D01*
X15476928Y-16852500D01*
X15505500Y-16866786D01*
X15519786Y-16881072D01*
X15534071Y-16909643D01*
X15534071Y-16981072D01*
X15519786Y-17009643D01*
X15505500Y-17023929D01*
X15476928Y-17038214D01*
X15391214Y-17038214D01*
X15362643Y-17023929D01*
X15348357Y-17009643D01*
X15662643Y-17009643D02*
X15676928Y-17023929D01*
X15662643Y-17038214D01*
X15648357Y-17023929D01*
X15662643Y-17009643D01*
X15662643Y-17038214D01*
X15791214Y-16766786D02*
X15805500Y-16752500D01*
X15834071Y-16738214D01*
X15905500Y-16738214D01*
X15934071Y-16752500D01*
X15948357Y-16766786D01*
X15962643Y-16795357D01*
X15962643Y-16823929D01*
X15948357Y-16866786D01*
X15776928Y-17038214D01*
X15962643Y-17038214D01*
X16148357Y-16738214D02*
X16176928Y-16738214D01*
X16205500Y-16752500D01*
X16219786Y-16766786D01*
X16234071Y-16795357D01*
X16248357Y-16852500D01*
X16248357Y-16923929D01*
X16234071Y-16981072D01*
X16219786Y-17009643D01*
X16205500Y-17023929D01*
X16176928Y-17038214D01*
X16148357Y-17038214D01*
X16119786Y-17023929D01*
X16105500Y-17009643D01*
X16091214Y-16981072D01*
X16076928Y-16923929D01*
X16076928Y-16852500D01*
X16091214Y-16795357D01*
X16105500Y-16766786D01*
X16119786Y-16752500D01*
X16148357Y-16738214D01*
X16376928Y-17038214D02*
X16376928Y-16838214D01*
X16376928Y-16866786D02*
X16391214Y-16852500D01*
X16419786Y-16838214D01*
X16462643Y-16838214D01*
X16491214Y-16852500D01*
X16505500Y-16881072D01*
X16505500Y-17038214D01*
X16505500Y-16881072D02*
X16519786Y-16852500D01*
X16548357Y-16838214D01*
X16591214Y-16838214D01*
X16619786Y-16852500D01*
X16634071Y-16881072D01*
X16634071Y-17038214D01*
X16776928Y-17038214D02*
X16776928Y-16838214D01*
X16776928Y-16866786D02*
X16791214Y-16852500D01*
X16819786Y-16838214D01*
X16862643Y-16838214D01*
X16891214Y-16852500D01*
X16905500Y-16881072D01*
X16905500Y-17038214D01*
X16905500Y-16881072D02*
X16919786Y-16852500D01*
X16948357Y-16838214D01*
X16991214Y-16838214D01*
X17019786Y-16852500D01*
X17034071Y-16881072D01*
X17034071Y-17038214D01*
X17619786Y-16723929D02*
X17362643Y-17109643D01*
X18005500Y-16738214D02*
X18034071Y-16738214D01*
X18062643Y-16752500D01*
X18076928Y-16766786D01*
X18091214Y-16795357D01*
X18105500Y-16852500D01*
X18105500Y-16923929D01*
X18091214Y-16981072D01*
X18076928Y-17009643D01*
X18062643Y-17023929D01*
X18034071Y-17038214D01*
X18005500Y-17038214D01*
X17976928Y-17023929D01*
X17962643Y-17009643D01*
X17948357Y-16981072D01*
X17934071Y-16923929D01*
X17934071Y-16852500D01*
X17948357Y-16795357D01*
X17962643Y-16766786D01*
X17976928Y-16752500D01*
X18005500Y-16738214D01*
X18234071Y-17009643D02*
X18248357Y-17023929D01*
X18234071Y-17038214D01*
X18219786Y-17023929D01*
X18234071Y-17009643D01*
X18234071Y-17038214D01*
X18534071Y-17038214D02*
X18362643Y-17038214D01*
X18448357Y-17038214D02*
X18448357Y-16738214D01*
X18419786Y-16781072D01*
X18391214Y-16809643D01*
X18362643Y-16823929D01*
X18648357Y-16766786D02*
X18662643Y-16752500D01*
X18691214Y-16738214D01*
X18762643Y-16738214D01*
X18791214Y-16752500D01*
X18805500Y-16766786D01*
X18819786Y-16795357D01*
X18819786Y-16823929D01*
X18805500Y-16866786D01*
X18634071Y-17038214D01*
X18819786Y-17038214D01*
X19076928Y-16738214D02*
X19019786Y-16738214D01*
X18991214Y-16752500D01*
X18976928Y-16766786D01*
X18948357Y-16809643D01*
X18934071Y-16866786D01*
X18934071Y-16981072D01*
X18948357Y-17009643D01*
X18962643Y-17023929D01*
X18991214Y-17038214D01*
X19048357Y-17038214D01*
X19076928Y-17023929D01*
X19091214Y-17009643D01*
X19105500Y-16981072D01*
X19105500Y-16909643D01*
X19091214Y-16881072D01*
X19076928Y-16866786D01*
X19048357Y-16852500D01*
X18991214Y-16852500D01*
X18962643Y-16866786D01*
X18948357Y-16881072D01*
X18934071Y-16909643D01*
X19219786Y-16738214D02*
X19219786Y-16795357D01*
X19334071Y-16738214D02*
X19334071Y-16795357D01*
X19776928Y-17152500D02*
X19762643Y-17138214D01*
X19734071Y-17095357D01*
X19719786Y-17066786D01*
X19705500Y-17023929D01*
X19691214Y-16952500D01*
X19691214Y-16895357D01*
X19705500Y-16823929D01*
X19719786Y-16781072D01*
X19734071Y-16752500D01*
X19762643Y-16709643D01*
X19776928Y-16695357D01*
X20019786Y-16738214D02*
X19962643Y-16738214D01*
X19934071Y-16752500D01*
X19919786Y-16766786D01*
X19891214Y-16809643D01*
X19876928Y-16866786D01*
X19876928Y-16981072D01*
X19891214Y-17009643D01*
X19905500Y-17023929D01*
X19934071Y-17038214D01*
X19991214Y-17038214D01*
X20019786Y-17023929D01*
X20034071Y-17009643D01*
X20048357Y-16981072D01*
X20048357Y-16909643D01*
X20034071Y-16881072D01*
X20019786Y-16866786D01*
X19991214Y-16852500D01*
X19934071Y-16852500D01*
X19905500Y-16866786D01*
X19891214Y-16881072D01*
X19876928Y-16909643D01*
X20405500Y-17038214D02*
X20405500Y-16738214D01*
X20534071Y-17038214D02*
X20534071Y-16881072D01*
X20519786Y-16852500D01*
X20491214Y-16838214D01*
X20448357Y-16838214D01*
X20419786Y-16852500D01*
X20405500Y-16866786D01*
X20719786Y-17038214D02*
X20691214Y-17023929D01*
X20676928Y-17009643D01*
X20662643Y-16981072D01*
X20662643Y-16895357D01*
X20676928Y-16866786D01*
X20691214Y-16852500D01*
X20719786Y-16838214D01*
X20762643Y-16838214D01*
X20791214Y-16852500D01*
X20805500Y-16866786D01*
X20819786Y-16895357D01*
X20819786Y-16981072D01*
X20805500Y-17009643D01*
X20791214Y-17023929D01*
X20762643Y-17038214D01*
X20719786Y-17038214D01*
X20991214Y-17038214D02*
X20962643Y-17023929D01*
X20948357Y-16995357D01*
X20948357Y-16738214D01*
X21219786Y-17023929D02*
X21191214Y-17038214D01*
X21134071Y-17038214D01*
X21105500Y-17023929D01*
X21091214Y-16995357D01*
X21091214Y-16881072D01*
X21105500Y-16852500D01*
X21134071Y-16838214D01*
X21191214Y-16838214D01*
X21219786Y-16852500D01*
X21234071Y-16881072D01*
X21234071Y-16909643D01*
X21091214Y-16938214D01*
X21348357Y-17023929D02*
X21376929Y-17038214D01*
X21434071Y-17038214D01*
X21462643Y-17023929D01*
X21476929Y-16995357D01*
X21476929Y-16981072D01*
X21462643Y-16952500D01*
X21434071Y-16938214D01*
X21391214Y-16938214D01*
X21362643Y-16923929D01*
X21348357Y-16895357D01*
X21348357Y-16881072D01*
X21362643Y-16852500D01*
X21391214Y-16838214D01*
X21434071Y-16838214D01*
X21462643Y-16852500D01*
X21576928Y-17152500D02*
X21591214Y-17138214D01*
X21619786Y-17095357D01*
X21634071Y-17066786D01*
X21648357Y-17023929D01*
X21662643Y-16952500D01*
X21662643Y-16895357D01*
X21648357Y-16823929D01*
X21634071Y-16781072D01*
X21619786Y-16752500D01*
X21591214Y-16709643D01*
X21576928Y-16695357D01*
M02*
