G04 #@! TF.FileFunction,Copper,L2,Bot,Signal*
%FSLAX46Y46*%
G04 Gerber Fmt 4.6, Leading zero omitted, Abs format (unit mm)*
G04 Created by KiCad (PCBNEW 4.0.5+dfsg1-4) date Tue May 16 19:14:59 2017*
%MOMM*%
%LPD*%
G01*
G04 APERTURE LIST*
%ADD10C,0.100000*%
%ADD11O,1.100000X2.300000*%
%ADD12C,1.778000*%
%ADD13R,1.778000X1.778000*%
%ADD14R,2.000000X1.600000*%
%ADD15R,1.600000X2.000000*%
%ADD16R,1.700000X2.000000*%
%ADD17R,2.000000X1.700000*%
%ADD18R,1.699260X3.299460*%
%ADD19C,1.998980*%
%ADD20C,7.000000*%
%ADD21R,2.000000X4.000000*%
%ADD22O,2.000000X4.000000*%
%ADD23O,2.000000X3.000000*%
%ADD24C,6.000000*%
%ADD25C,1.500000*%
%ADD26C,0.500000*%
%ADD27C,1.000000*%
%ADD28C,0.254000*%
G04 APERTURE END LIST*
D10*
D11*
X173990000Y-133350000D03*
X176530000Y-133350000D03*
X176530000Y-125730000D03*
X173990000Y-125730000D03*
D12*
X173990000Y-121920000D03*
D13*
X163830000Y-121920000D03*
D12*
X191770000Y-121920000D03*
D13*
X181610000Y-121920000D03*
D11*
X179070000Y-133350000D03*
X181610000Y-133350000D03*
X181610000Y-125730000D03*
X179070000Y-125730000D03*
D14*
X175990000Y-113030000D03*
X171990000Y-113030000D03*
D15*
X167640000Y-126460000D03*
X167640000Y-122460000D03*
X167640000Y-128810000D03*
X167640000Y-132810000D03*
D16*
X170180000Y-128810000D03*
X170180000Y-132810000D03*
D17*
X175990000Y-115570000D03*
X171990000Y-115570000D03*
D18*
X170180000Y-121709180D03*
X170180000Y-127210820D03*
X187960000Y-121709180D03*
X187960000Y-127210820D03*
D15*
X185420000Y-128810000D03*
X185420000Y-132810000D03*
X185420000Y-126460000D03*
X185420000Y-122460000D03*
D16*
X187960000Y-128810000D03*
X187960000Y-132810000D03*
D17*
X183610000Y-113030000D03*
X179610000Y-113030000D03*
X179610000Y-115570000D03*
X183610000Y-115570000D03*
D12*
X177800000Y-109220000D03*
D13*
X177800000Y-119380000D03*
D19*
X182801260Y-92710000D03*
X172641260Y-92710000D03*
D16*
X177800000Y-90710000D03*
X177800000Y-94710000D03*
D20*
X162560000Y-133350000D03*
X193040000Y-133350000D03*
X193040000Y-83820000D03*
X162560000Y-83820000D03*
D21*
X170180000Y-83820000D03*
D22*
X175260000Y-83820000D03*
X180340000Y-83820000D03*
X185420000Y-83820000D03*
D23*
X163830000Y-114300000D03*
X166370000Y-114300000D03*
X168910000Y-114300000D03*
D24*
X166370000Y-100330000D03*
D23*
X186690000Y-114300000D03*
X189230000Y-114300000D03*
X191770000Y-114300000D03*
D24*
X189230000Y-100330000D03*
D25*
X171990000Y-113030000D02*
X175800000Y-109220000D01*
X175800000Y-109220000D02*
X177800000Y-109220000D01*
X168910000Y-114300000D02*
X170180000Y-113030000D01*
X170180000Y-113030000D02*
X171990000Y-113030000D01*
D26*
X172720000Y-129540000D02*
X171990000Y-128810000D01*
X171990000Y-128810000D02*
X170180000Y-128810000D01*
X180340000Y-129540000D02*
X172720000Y-129540000D01*
X181610000Y-133350000D02*
X181610000Y-130810000D01*
X181610000Y-130810000D02*
X180340000Y-129540000D01*
X170180000Y-127210820D02*
X168390820Y-127210820D01*
X170390820Y-127000000D02*
X170180000Y-127210820D01*
X167640000Y-126460000D02*
X167640000Y-128810000D01*
X170180000Y-127210820D02*
X170180000Y-128010920D01*
D27*
X167660500Y-127210800D02*
X167640000Y-127190300D01*
D26*
X168390820Y-127210820D02*
X167640000Y-126460000D01*
D25*
X172641260Y-92710000D02*
X170180000Y-92710000D01*
X170180000Y-92710000D02*
X166370000Y-92710000D01*
X170180000Y-83820000D02*
X170180000Y-92710000D01*
X166370000Y-118110000D02*
X167640000Y-119380000D01*
X167640000Y-119380000D02*
X167640000Y-122460000D01*
X166370000Y-114300000D02*
X166370000Y-118110000D01*
X166370000Y-100330000D02*
X166370000Y-92710000D01*
X166370000Y-114300000D02*
X166370000Y-104140000D01*
X166370000Y-104140000D02*
X166370000Y-100330000D01*
X166448740Y-104218740D02*
X166370000Y-104140000D01*
D27*
X169959500Y-121709200D02*
X170180000Y-121709200D01*
X170180000Y-121709180D02*
X168390820Y-121709180D01*
X168390820Y-121709180D02*
X167640000Y-122460000D01*
D26*
X176530000Y-133350000D02*
X176530000Y-135890000D01*
X176530000Y-135890000D02*
X177800000Y-137160000D01*
X177800000Y-137160000D02*
X182303431Y-137160000D01*
X182303431Y-137160000D02*
X183861716Y-135601716D01*
X183861716Y-135601716D02*
X183869999Y-135609999D01*
X183869999Y-135609999D02*
X183869999Y-130560001D01*
X183869999Y-130560001D02*
X185420000Y-129010000D01*
X185420000Y-129010000D02*
X185420000Y-128810000D01*
X185420000Y-126249200D02*
X185420000Y-128810000D01*
X186998380Y-126249200D02*
X187960000Y-127210820D01*
X187960000Y-126249200D02*
X187960000Y-127000000D01*
X187960000Y-127000000D02*
X187960000Y-128810000D01*
X185420000Y-126249200D02*
X186998380Y-126249200D01*
X187749180Y-127210820D02*
X187960000Y-127000000D01*
X185325000Y-128905000D02*
X185420000Y-128810000D01*
X185252000Y-126417200D02*
X185420000Y-126249200D01*
D25*
X182801260Y-92710000D02*
X185420000Y-92710000D01*
X185420000Y-92710000D02*
X189230000Y-92710000D01*
X185420000Y-83820000D02*
X185420000Y-92710000D01*
X189230000Y-114300000D02*
X189230000Y-120439180D01*
X189230000Y-120439180D02*
X187960000Y-121709180D01*
X189230000Y-100330000D02*
X189230000Y-114300000D01*
X189230000Y-92710000D02*
X189230000Y-100330000D01*
X187960000Y-121709180D02*
X187960000Y-120909080D01*
X187710028Y-122249200D02*
X187960000Y-122249200D01*
X185420000Y-122249200D02*
X187419980Y-122249200D01*
X187419980Y-122249200D02*
X187960000Y-121709180D01*
D26*
X177800000Y-119380000D02*
X177800000Y-127635000D01*
X178435000Y-128270000D02*
X181243098Y-128270000D01*
X179070000Y-135255000D02*
X179070000Y-133350000D01*
X177800000Y-127635000D02*
X178435000Y-128270000D01*
X181243098Y-128270000D02*
X182810010Y-129836912D01*
X179705000Y-135890000D02*
X179070000Y-135255000D01*
X182810010Y-129836912D02*
X182810010Y-135018808D01*
X182810010Y-135018808D02*
X181938818Y-135890000D01*
X181938818Y-135890000D02*
X179705000Y-135890000D01*
X177800000Y-115570000D02*
X177800000Y-119380000D01*
X175990000Y-113030000D02*
X175990000Y-115570000D01*
X177800000Y-115570000D02*
X179610000Y-115570000D01*
X179610000Y-113030000D02*
X179610000Y-115570000D01*
X175990000Y-113030000D02*
X179610000Y-113030000D01*
X179070000Y-131445000D02*
X179070000Y-133350000D01*
X178435000Y-130810000D02*
X179070000Y-131445000D01*
X173990000Y-131445000D02*
X174625000Y-130810000D01*
X174625000Y-130810000D02*
X178435000Y-130810000D01*
X173990000Y-133350000D02*
X173990000Y-131445000D01*
X175990000Y-115570000D02*
X177800000Y-115570000D01*
D25*
X175260000Y-84360000D02*
X175260000Y-88020000D01*
X175260000Y-88020000D02*
X177800000Y-90560000D01*
X177800000Y-90560000D02*
X177800000Y-90710000D01*
D26*
X176260999Y-124860999D02*
X176260999Y-124460000D01*
X176260999Y-124460000D02*
X176260999Y-121650999D01*
X163830000Y-121920000D02*
X163830000Y-123309000D01*
X163830000Y-123309000D02*
X164981000Y-124460000D01*
X164981000Y-124460000D02*
X176260999Y-124460000D01*
X163830000Y-121920000D02*
X163830000Y-114300000D01*
X176530000Y-125730000D02*
X176530000Y-125130000D01*
X176530000Y-125130000D02*
X176260999Y-124860999D01*
X176260999Y-121650999D02*
X171990000Y-117380000D01*
X171990000Y-117380000D02*
X171990000Y-115570000D01*
X163830000Y-114800000D02*
X163830000Y-114300000D01*
X173990000Y-125730000D02*
X176530000Y-125730000D01*
X183610000Y-117380000D02*
X181610000Y-119380000D01*
X181610000Y-119380000D02*
X181610000Y-121920000D01*
X183610000Y-115570000D02*
X183610000Y-117380000D01*
X181610000Y-121920000D02*
X181610000Y-125730000D01*
X183610000Y-115570000D02*
X185420000Y-115570000D01*
X185420000Y-115570000D02*
X186690000Y-114300000D01*
X179070000Y-125730000D02*
X181610000Y-125730000D01*
X177800000Y-94710000D02*
X177800000Y-105410000D01*
X181610000Y-111030000D02*
X183610000Y-113030000D01*
X181610000Y-109220000D02*
X181610000Y-111030000D01*
X177800000Y-105410000D02*
X181610000Y-109220000D01*
D28*
G36*
X171019919Y-93095377D02*
X171222295Y-93583958D01*
X171323000Y-93621174D01*
X171323000Y-111582560D01*
X170990000Y-111582560D01*
X170754683Y-111626838D01*
X170745107Y-111633000D01*
X161417000Y-111633000D01*
X161417000Y-102926630D01*
X163952975Y-102926630D01*
X164295566Y-103401277D01*
X165628800Y-103961342D01*
X167074875Y-103968568D01*
X168413639Y-103421854D01*
X168444434Y-103401277D01*
X168787025Y-102926630D01*
X166370000Y-100509605D01*
X163952975Y-102926630D01*
X161417000Y-102926630D01*
X161417000Y-101034875D01*
X162731432Y-101034875D01*
X163278146Y-102373639D01*
X163298723Y-102404434D01*
X163773370Y-102747025D01*
X166190395Y-100330000D01*
X166549605Y-100330000D01*
X168966630Y-102747025D01*
X169441277Y-102404434D01*
X170001342Y-101071200D01*
X170008568Y-99625125D01*
X169461854Y-98286361D01*
X169441277Y-98255566D01*
X168966630Y-97912975D01*
X166549605Y-100330000D01*
X166190395Y-100330000D01*
X163773370Y-97912975D01*
X163298723Y-98255566D01*
X162738658Y-99588800D01*
X162731432Y-101034875D01*
X161417000Y-101034875D01*
X161417000Y-97733370D01*
X163952975Y-97733370D01*
X166370000Y-100150395D01*
X168787025Y-97733370D01*
X168444434Y-97258723D01*
X167111200Y-96698658D01*
X165665125Y-96691432D01*
X164326361Y-97238146D01*
X164295566Y-97258723D01*
X163952975Y-97733370D01*
X161417000Y-97733370D01*
X161417000Y-92837000D01*
X171010352Y-92837000D01*
X171019919Y-93095377D01*
X171019919Y-93095377D01*
G37*
X171019919Y-93095377D02*
X171222295Y-93583958D01*
X171323000Y-93621174D01*
X171323000Y-111582560D01*
X170990000Y-111582560D01*
X170754683Y-111626838D01*
X170745107Y-111633000D01*
X161417000Y-111633000D01*
X161417000Y-102926630D01*
X163952975Y-102926630D01*
X164295566Y-103401277D01*
X165628800Y-103961342D01*
X167074875Y-103968568D01*
X168413639Y-103421854D01*
X168444434Y-103401277D01*
X168787025Y-102926630D01*
X166370000Y-100509605D01*
X163952975Y-102926630D01*
X161417000Y-102926630D01*
X161417000Y-101034875D01*
X162731432Y-101034875D01*
X163278146Y-102373639D01*
X163298723Y-102404434D01*
X163773370Y-102747025D01*
X166190395Y-100330000D01*
X166549605Y-100330000D01*
X168966630Y-102747025D01*
X169441277Y-102404434D01*
X170001342Y-101071200D01*
X170008568Y-99625125D01*
X169461854Y-98286361D01*
X169441277Y-98255566D01*
X168966630Y-97912975D01*
X166549605Y-100330000D01*
X166190395Y-100330000D01*
X163773370Y-97912975D01*
X163298723Y-98255566D01*
X162738658Y-99588800D01*
X162731432Y-101034875D01*
X161417000Y-101034875D01*
X161417000Y-97733370D01*
X163952975Y-97733370D01*
X166370000Y-100150395D01*
X168787025Y-97733370D01*
X168444434Y-97258723D01*
X167111200Y-96698658D01*
X165665125Y-96691432D01*
X164326361Y-97238146D01*
X164295566Y-97258723D01*
X163952975Y-97733370D01*
X161417000Y-97733370D01*
X161417000Y-92837000D01*
X171010352Y-92837000D01*
X171019919Y-93095377D01*
G36*
X194183000Y-111633000D02*
X184934235Y-111633000D01*
X184861890Y-111583569D01*
X184610000Y-111532560D01*
X184277000Y-111532560D01*
X184277000Y-102926630D01*
X186812975Y-102926630D01*
X187155566Y-103401277D01*
X188488800Y-103961342D01*
X189934875Y-103968568D01*
X191273639Y-103421854D01*
X191304434Y-103401277D01*
X191647025Y-102926630D01*
X189230000Y-100509605D01*
X186812975Y-102926630D01*
X184277000Y-102926630D01*
X184277000Y-101034875D01*
X185591432Y-101034875D01*
X186138146Y-102373639D01*
X186158723Y-102404434D01*
X186633370Y-102747025D01*
X189050395Y-100330000D01*
X189409605Y-100330000D01*
X191826630Y-102747025D01*
X192301277Y-102404434D01*
X192861342Y-101071200D01*
X192868568Y-99625125D01*
X192321854Y-98286361D01*
X192301277Y-98255566D01*
X191826630Y-97912975D01*
X189409605Y-100330000D01*
X189050395Y-100330000D01*
X186633370Y-97912975D01*
X186158723Y-98255566D01*
X185598658Y-99588800D01*
X185591432Y-101034875D01*
X184277000Y-101034875D01*
X184277000Y-97733370D01*
X186812975Y-97733370D01*
X189230000Y-100150395D01*
X191647025Y-97733370D01*
X191304434Y-97258723D01*
X189971200Y-96698658D01*
X188525125Y-96691432D01*
X187186361Y-97238146D01*
X187155566Y-97258723D01*
X186812975Y-97733370D01*
X184277000Y-97733370D01*
X184277000Y-93431126D01*
X184446661Y-92974418D01*
X184441573Y-92837000D01*
X194183000Y-92837000D01*
X194183000Y-111633000D01*
X194183000Y-111633000D01*
G37*
X194183000Y-111633000D02*
X184934235Y-111633000D01*
X184861890Y-111583569D01*
X184610000Y-111532560D01*
X184277000Y-111532560D01*
X184277000Y-102926630D01*
X186812975Y-102926630D01*
X187155566Y-103401277D01*
X188488800Y-103961342D01*
X189934875Y-103968568D01*
X191273639Y-103421854D01*
X191304434Y-103401277D01*
X191647025Y-102926630D01*
X189230000Y-100509605D01*
X186812975Y-102926630D01*
X184277000Y-102926630D01*
X184277000Y-101034875D01*
X185591432Y-101034875D01*
X186138146Y-102373639D01*
X186158723Y-102404434D01*
X186633370Y-102747025D01*
X189050395Y-100330000D01*
X189409605Y-100330000D01*
X191826630Y-102747025D01*
X192301277Y-102404434D01*
X192861342Y-101071200D01*
X192868568Y-99625125D01*
X192321854Y-98286361D01*
X192301277Y-98255566D01*
X191826630Y-97912975D01*
X189409605Y-100330000D01*
X189050395Y-100330000D01*
X186633370Y-97912975D01*
X186158723Y-98255566D01*
X185598658Y-99588800D01*
X185591432Y-101034875D01*
X184277000Y-101034875D01*
X184277000Y-97733370D01*
X186812975Y-97733370D01*
X189230000Y-100150395D01*
X191647025Y-97733370D01*
X191304434Y-97258723D01*
X189971200Y-96698658D01*
X188525125Y-96691432D01*
X187186361Y-97238146D01*
X187155566Y-97258723D01*
X186812975Y-97733370D01*
X184277000Y-97733370D01*
X184277000Y-93431126D01*
X184446661Y-92974418D01*
X184441573Y-92837000D01*
X194183000Y-92837000D01*
X194183000Y-111633000D01*
G36*
X172811035Y-113118553D02*
X172838315Y-113076159D01*
X172847000Y-113030000D01*
X172847000Y-112903000D01*
X173466250Y-112903000D01*
X173625000Y-112744250D01*
X173625000Y-112103690D01*
X173528327Y-111870301D01*
X173349698Y-111691673D01*
X173116309Y-111595000D01*
X172847000Y-111595000D01*
X172847000Y-110292196D01*
X176907409Y-110292196D01*
X176992467Y-110547539D01*
X177561965Y-110755516D01*
X178167700Y-110729723D01*
X178607533Y-110547539D01*
X178692591Y-110292196D01*
X177800000Y-109399605D01*
X176907409Y-110292196D01*
X172847000Y-110292196D01*
X172847000Y-108981965D01*
X176264484Y-108981965D01*
X176290277Y-109587700D01*
X176472461Y-110027533D01*
X176727804Y-110112591D01*
X177620395Y-109220000D01*
X177979605Y-109220000D01*
X178872196Y-110112591D01*
X179127539Y-110027533D01*
X179335516Y-109458035D01*
X179309723Y-108852300D01*
X179127539Y-108412467D01*
X178872196Y-108327409D01*
X177979605Y-109220000D01*
X177620395Y-109220000D01*
X176727804Y-108327409D01*
X176472461Y-108412467D01*
X176264484Y-108981965D01*
X172847000Y-108981965D01*
X172847000Y-108147804D01*
X176907409Y-108147804D01*
X177800000Y-109040395D01*
X178692591Y-108147804D01*
X178607533Y-107892461D01*
X178038035Y-107684484D01*
X177432300Y-107710277D01*
X176992467Y-107892461D01*
X176907409Y-108147804D01*
X172847000Y-108147804D01*
X172847000Y-94536670D01*
X173002977Y-94536806D01*
X173674532Y-94259326D01*
X174188780Y-93745974D01*
X174467432Y-93074905D01*
X174468066Y-92348283D01*
X174190586Y-91676728D01*
X173677234Y-91162480D01*
X173006165Y-90883828D01*
X172279543Y-90883194D01*
X171757000Y-91099104D01*
X171757000Y-86431452D01*
X171767939Y-86424413D01*
X171956769Y-86148052D01*
X172023201Y-85820000D01*
X172023201Y-82764616D01*
X173433000Y-82764616D01*
X173433000Y-84875384D01*
X173572072Y-85574547D01*
X173683000Y-85740562D01*
X173683000Y-88020000D01*
X173803042Y-88623492D01*
X174144893Y-89135107D01*
X176106799Y-91097014D01*
X176106799Y-91710000D01*
X176164465Y-92016468D01*
X176345587Y-92297939D01*
X176621948Y-92486769D01*
X176950000Y-92553201D01*
X178650000Y-92553201D01*
X178956468Y-92495535D01*
X179237939Y-92314413D01*
X179426769Y-92038052D01*
X179493201Y-91710000D01*
X179493201Y-89710000D01*
X179435535Y-89403532D01*
X179254413Y-89122061D01*
X178978052Y-88933231D01*
X178650000Y-88866799D01*
X178337014Y-88866799D01*
X176837000Y-87366786D01*
X176837000Y-85740562D01*
X176947928Y-85574547D01*
X177087000Y-84875384D01*
X177087000Y-83947000D01*
X178705000Y-83947000D01*
X178705000Y-84947000D01*
X178878058Y-85563020D01*
X179273683Y-86065922D01*
X179831645Y-86379144D01*
X179959566Y-86410124D01*
X180213000Y-86290777D01*
X180213000Y-83947000D01*
X180467000Y-83947000D01*
X180467000Y-86290777D01*
X180720434Y-86410124D01*
X180848355Y-86379144D01*
X181406317Y-86065922D01*
X181801942Y-85563020D01*
X181975000Y-84947000D01*
X181975000Y-83947000D01*
X180467000Y-83947000D01*
X180213000Y-83947000D01*
X178705000Y-83947000D01*
X177087000Y-83947000D01*
X177087000Y-82764616D01*
X177072755Y-82693000D01*
X178705000Y-82693000D01*
X178705000Y-83693000D01*
X180213000Y-83693000D01*
X180213000Y-81349223D01*
X180467000Y-81349223D01*
X180467000Y-83693000D01*
X181975000Y-83693000D01*
X181975000Y-82693000D01*
X181801942Y-82076980D01*
X181406317Y-81574078D01*
X180848355Y-81260856D01*
X180720434Y-81229876D01*
X180467000Y-81349223D01*
X180213000Y-81349223D01*
X179959566Y-81229876D01*
X179831645Y-81260856D01*
X179273683Y-81574078D01*
X178878058Y-82076980D01*
X178705000Y-82693000D01*
X177072755Y-82693000D01*
X176947928Y-82065453D01*
X176551884Y-81472732D01*
X175959163Y-81076688D01*
X175260000Y-80937616D01*
X174560837Y-81076688D01*
X173968116Y-81472732D01*
X173572072Y-82065453D01*
X173433000Y-82764616D01*
X172023201Y-82764616D01*
X172023201Y-81820000D01*
X171965535Y-81513532D01*
X171784413Y-81232061D01*
X171508052Y-81043231D01*
X171180000Y-80976799D01*
X169180000Y-80976799D01*
X168873532Y-81034465D01*
X168592061Y-81215587D01*
X168403231Y-81491948D01*
X168336799Y-81820000D01*
X168336799Y-85820000D01*
X168394465Y-86126468D01*
X168575587Y-86407939D01*
X168603000Y-86426670D01*
X168603000Y-91133000D01*
X166370000Y-91133000D01*
X165766508Y-91253042D01*
X165676775Y-91313000D01*
X160020000Y-91313000D01*
X159970590Y-91323006D01*
X159928965Y-91351447D01*
X159901685Y-91393841D01*
X159893000Y-91440000D01*
X159893000Y-113030000D01*
X159903006Y-113079410D01*
X159931447Y-113121035D01*
X159973841Y-113148315D01*
X160020000Y-113157000D01*
X162121832Y-113157000D01*
X162003000Y-113754411D01*
X162003000Y-114845589D01*
X162142072Y-115544752D01*
X162538116Y-116137473D01*
X162753000Y-116281054D01*
X162753000Y-120223174D01*
X162634532Y-120245465D01*
X162353061Y-120426587D01*
X162164231Y-120702948D01*
X162097799Y-121031000D01*
X162097799Y-122809000D01*
X162155465Y-123115468D01*
X162336587Y-123396939D01*
X162612948Y-123585769D01*
X162816242Y-123626937D01*
X162834982Y-123721150D01*
X163068446Y-124070554D01*
X164219446Y-125221554D01*
X164568850Y-125455018D01*
X164981000Y-125537000D01*
X165996799Y-125537000D01*
X165996799Y-127460000D01*
X166030936Y-127641424D01*
X165996799Y-127810000D01*
X165996799Y-129810000D01*
X166054465Y-130116468D01*
X166235587Y-130397939D01*
X166511948Y-130586769D01*
X166840000Y-130653201D01*
X168440000Y-130653201D01*
X168746468Y-130595535D01*
X168884646Y-130506620D01*
X169001948Y-130586769D01*
X169330000Y-130653201D01*
X171030000Y-130653201D01*
X171336468Y-130595535D01*
X171617939Y-130414413D01*
X171801969Y-130145077D01*
X171958446Y-130301554D01*
X172307850Y-130535018D01*
X172720000Y-130617000D01*
X173294892Y-130617000D01*
X173228446Y-130683446D01*
X172994982Y-131032850D01*
X172913000Y-131445000D01*
X172913000Y-131892202D01*
X172717818Y-132184313D01*
X172613000Y-132711268D01*
X172613000Y-133988732D01*
X172717818Y-134515687D01*
X173016314Y-134962418D01*
X173463045Y-135260914D01*
X173990000Y-135365732D01*
X174516955Y-135260914D01*
X174963686Y-134962418D01*
X175260000Y-134518953D01*
X175453000Y-134807798D01*
X175453000Y-135890000D01*
X175534982Y-136302150D01*
X175768446Y-136651554D01*
X176149892Y-137033000D01*
X164482949Y-137033000D01*
X164870145Y-136876750D01*
X164934238Y-136833924D01*
X165337707Y-136307312D01*
X162560000Y-133529605D01*
X159782293Y-136307312D01*
X160185762Y-136833924D01*
X160654215Y-137033000D01*
X158877000Y-137033000D01*
X158877000Y-135272949D01*
X159033250Y-135660145D01*
X159076076Y-135724238D01*
X159602688Y-136127707D01*
X162380395Y-133350000D01*
X162739605Y-133350000D01*
X165517312Y-136127707D01*
X166043924Y-135724238D01*
X166606435Y-134400573D01*
X166713690Y-134445000D01*
X167354250Y-134445000D01*
X167513000Y-134286250D01*
X167513000Y-132937000D01*
X167767000Y-132937000D01*
X167767000Y-134286250D01*
X167925750Y-134445000D01*
X168566310Y-134445000D01*
X168799699Y-134348327D01*
X168885000Y-134263026D01*
X168970301Y-134348327D01*
X169203690Y-134445000D01*
X169894250Y-134445000D01*
X170053000Y-134286250D01*
X170053000Y-132937000D01*
X170307000Y-132937000D01*
X170307000Y-134286250D01*
X170465750Y-134445000D01*
X171156310Y-134445000D01*
X171389699Y-134348327D01*
X171568327Y-134169698D01*
X171665000Y-133936309D01*
X171665000Y-133095750D01*
X171506250Y-132937000D01*
X170307000Y-132937000D01*
X170053000Y-132937000D01*
X167767000Y-132937000D01*
X167513000Y-132937000D01*
X167493000Y-132937000D01*
X167493000Y-132683000D01*
X167513000Y-132683000D01*
X167513000Y-131333750D01*
X167767000Y-131333750D01*
X167767000Y-132683000D01*
X170053000Y-132683000D01*
X170053000Y-131333750D01*
X170307000Y-131333750D01*
X170307000Y-132683000D01*
X171506250Y-132683000D01*
X171665000Y-132524250D01*
X171665000Y-131683691D01*
X171568327Y-131450302D01*
X171389699Y-131271673D01*
X171156310Y-131175000D01*
X170465750Y-131175000D01*
X170307000Y-131333750D01*
X170053000Y-131333750D01*
X169894250Y-131175000D01*
X169203690Y-131175000D01*
X168970301Y-131271673D01*
X168885000Y-131356974D01*
X168799699Y-131271673D01*
X168566310Y-131175000D01*
X167925750Y-131175000D01*
X167767000Y-131333750D01*
X167513000Y-131333750D01*
X167354250Y-131175000D01*
X166713690Y-131175000D01*
X166480301Y-131271673D01*
X166301673Y-131450302D01*
X166276706Y-131510577D01*
X166086750Y-131039855D01*
X166043924Y-130975762D01*
X165517312Y-130572293D01*
X162739605Y-133350000D01*
X162380395Y-133350000D01*
X159602688Y-130572293D01*
X159076076Y-130975762D01*
X158877000Y-131444215D01*
X158877000Y-130392688D01*
X159782293Y-130392688D01*
X162560000Y-133170395D01*
X165337707Y-130392688D01*
X164934238Y-129866076D01*
X163420270Y-129222693D01*
X161775334Y-129207654D01*
X160249855Y-129823250D01*
X160185762Y-129866076D01*
X159782293Y-130392688D01*
X158877000Y-130392688D01*
X158877000Y-86777312D01*
X159782293Y-86777312D01*
X160185762Y-87303924D01*
X161699730Y-87947307D01*
X163344666Y-87962346D01*
X164870145Y-87346750D01*
X164934238Y-87303924D01*
X165337707Y-86777312D01*
X162560000Y-83999605D01*
X159782293Y-86777312D01*
X158877000Y-86777312D01*
X158877000Y-85742949D01*
X159033250Y-86130145D01*
X159076076Y-86194238D01*
X159602688Y-86597707D01*
X162380395Y-83820000D01*
X162739605Y-83820000D01*
X165517312Y-86597707D01*
X166043924Y-86194238D01*
X166687307Y-84680270D01*
X166702346Y-83035334D01*
X166086750Y-81509855D01*
X166043924Y-81445762D01*
X165517312Y-81042293D01*
X162739605Y-83820000D01*
X162380395Y-83820000D01*
X159602688Y-81042293D01*
X159076076Y-81445762D01*
X158877000Y-81914215D01*
X158877000Y-80862688D01*
X159782293Y-80862688D01*
X162560000Y-83640395D01*
X165337707Y-80862688D01*
X190262293Y-80862688D01*
X193040000Y-83640395D01*
X195817707Y-80862688D01*
X195414238Y-80336076D01*
X193900270Y-79692693D01*
X192255334Y-79677654D01*
X190729855Y-80293250D01*
X190665762Y-80336076D01*
X190262293Y-80862688D01*
X165337707Y-80862688D01*
X164934238Y-80336076D01*
X163420270Y-79692693D01*
X161775334Y-79677654D01*
X160249855Y-80293250D01*
X160185762Y-80336076D01*
X159782293Y-80862688D01*
X158877000Y-80862688D01*
X158877000Y-79642000D01*
X196723000Y-79642000D01*
X196723000Y-81897051D01*
X196566750Y-81509855D01*
X196523924Y-81445762D01*
X195997312Y-81042293D01*
X193219605Y-83820000D01*
X195997312Y-86597707D01*
X196523924Y-86194238D01*
X196723000Y-85725785D01*
X196723000Y-131427051D01*
X196566750Y-131039855D01*
X196523924Y-130975762D01*
X195997312Y-130572293D01*
X193219605Y-133350000D01*
X195997312Y-136127707D01*
X196523924Y-135724238D01*
X196723000Y-135255785D01*
X196723000Y-137033000D01*
X194962949Y-137033000D01*
X195350145Y-136876750D01*
X195414238Y-136833924D01*
X195817707Y-136307312D01*
X193040000Y-133529605D01*
X190262293Y-136307312D01*
X190665762Y-136833924D01*
X191134215Y-137033000D01*
X183953539Y-137033000D01*
X184581629Y-136404911D01*
X184631553Y-136371553D01*
X184865017Y-136022149D01*
X184946999Y-135609999D01*
X184946999Y-134445000D01*
X185134250Y-134445000D01*
X185293000Y-134286250D01*
X185293000Y-132937000D01*
X185547000Y-132937000D01*
X185547000Y-134286250D01*
X185705750Y-134445000D01*
X186346310Y-134445000D01*
X186579699Y-134348327D01*
X186665000Y-134263026D01*
X186750301Y-134348327D01*
X186983690Y-134445000D01*
X187674250Y-134445000D01*
X187833000Y-134286250D01*
X187833000Y-132937000D01*
X185547000Y-132937000D01*
X185293000Y-132937000D01*
X185273000Y-132937000D01*
X185273000Y-132683000D01*
X185293000Y-132683000D01*
X185293000Y-131333750D01*
X185547000Y-131333750D01*
X185547000Y-132683000D01*
X187833000Y-132683000D01*
X187833000Y-131333750D01*
X188087000Y-131333750D01*
X188087000Y-132683000D01*
X188107000Y-132683000D01*
X188107000Y-132937000D01*
X188087000Y-132937000D01*
X188087000Y-134286250D01*
X188245750Y-134445000D01*
X188936310Y-134445000D01*
X189010488Y-134414274D01*
X189513250Y-135660145D01*
X189556076Y-135724238D01*
X190082688Y-136127707D01*
X192860395Y-133350000D01*
X190082688Y-130572293D01*
X189556076Y-130975762D01*
X189351331Y-131457555D01*
X189348327Y-131450302D01*
X189169699Y-131271673D01*
X188936310Y-131175000D01*
X188245750Y-131175000D01*
X188087000Y-131333750D01*
X187833000Y-131333750D01*
X187674250Y-131175000D01*
X186983690Y-131175000D01*
X186750301Y-131271673D01*
X186665000Y-131356974D01*
X186579699Y-131271673D01*
X186346310Y-131175000D01*
X185705750Y-131175000D01*
X185547000Y-131333750D01*
X185293000Y-131333750D01*
X185134250Y-131175000D01*
X184946999Y-131175000D01*
X184946999Y-131006109D01*
X185299907Y-130653201D01*
X186220000Y-130653201D01*
X186526468Y-130595535D01*
X186664646Y-130506620D01*
X186781948Y-130586769D01*
X187110000Y-130653201D01*
X188810000Y-130653201D01*
X189116468Y-130595535D01*
X189397939Y-130414413D01*
X189412783Y-130392688D01*
X190262293Y-130392688D01*
X193040000Y-133170395D01*
X195817707Y-130392688D01*
X195414238Y-129866076D01*
X193900270Y-129222693D01*
X192255334Y-129207654D01*
X190729855Y-129823250D01*
X190665762Y-129866076D01*
X190262293Y-130392688D01*
X189412783Y-130392688D01*
X189586769Y-130138052D01*
X189653201Y-129810000D01*
X189653201Y-127810000D01*
X189652831Y-127808034D01*
X189652831Y-125561090D01*
X189595165Y-125254622D01*
X189414043Y-124973151D01*
X189137682Y-124784321D01*
X188809630Y-124717889D01*
X187110370Y-124717889D01*
X186803902Y-124775555D01*
X186741727Y-124815564D01*
X186548052Y-124683231D01*
X186220000Y-124616799D01*
X184620000Y-124616799D01*
X184313532Y-124674465D01*
X184032061Y-124855587D01*
X183843231Y-125131948D01*
X183776799Y-125460000D01*
X183776799Y-127460000D01*
X183810936Y-127641424D01*
X183776799Y-127810000D01*
X183776799Y-129130093D01*
X183675693Y-129231199D01*
X183571564Y-129075358D01*
X182137054Y-127640848D01*
X182583686Y-127342418D01*
X182882182Y-126895687D01*
X182987000Y-126368732D01*
X182987000Y-125091268D01*
X182882182Y-124564313D01*
X182687000Y-124272202D01*
X182687000Y-123616826D01*
X182805468Y-123594535D01*
X183086939Y-123413413D01*
X183275769Y-123137052D01*
X183342201Y-122809000D01*
X183342201Y-121031000D01*
X183284535Y-120724532D01*
X183103413Y-120443061D01*
X182827052Y-120254231D01*
X182687000Y-120225870D01*
X182687000Y-119826108D01*
X184371554Y-118141554D01*
X184605018Y-117792150D01*
X184687000Y-117380000D01*
X184687000Y-117248712D01*
X184916468Y-117205535D01*
X185197939Y-117024413D01*
X185386769Y-116748052D01*
X185407232Y-116647000D01*
X185420000Y-116647000D01*
X185832150Y-116565018D01*
X185935066Y-116496252D01*
X185990837Y-116533517D01*
X186690000Y-116672589D01*
X187389163Y-116533517D01*
X187653000Y-116357227D01*
X187653000Y-119216249D01*
X187110370Y-119216249D01*
X186803902Y-119273915D01*
X186522431Y-119455037D01*
X186333601Y-119731398D01*
X186267169Y-120059450D01*
X186267169Y-120626351D01*
X186220000Y-120616799D01*
X184620000Y-120616799D01*
X184313532Y-120674465D01*
X184032061Y-120855587D01*
X183843231Y-121131948D01*
X183776799Y-121460000D01*
X183776799Y-123460000D01*
X183834465Y-123766468D01*
X184015587Y-124047939D01*
X184291948Y-124236769D01*
X184620000Y-124303201D01*
X186220000Y-124303201D01*
X186526468Y-124245535D01*
X186741030Y-124107468D01*
X186782318Y-124135679D01*
X187110370Y-124202111D01*
X188809630Y-124202111D01*
X189116098Y-124144445D01*
X189397569Y-123963323D01*
X189586399Y-123686962D01*
X189652831Y-123358910D01*
X189652831Y-122992196D01*
X190877409Y-122992196D01*
X190962467Y-123247539D01*
X191531965Y-123455516D01*
X192137700Y-123429723D01*
X192577533Y-123247539D01*
X192662591Y-122992196D01*
X191770000Y-122099605D01*
X190877409Y-122992196D01*
X189652831Y-122992196D01*
X189652831Y-122246563D01*
X190244295Y-121655100D01*
X190234484Y-121681965D01*
X190260277Y-122287700D01*
X190442461Y-122727533D01*
X190697804Y-122812591D01*
X191590395Y-121920000D01*
X191949605Y-121920000D01*
X192842196Y-122812591D01*
X193097539Y-122727533D01*
X193305516Y-122158035D01*
X193279723Y-121552300D01*
X193097539Y-121112467D01*
X192842196Y-121027409D01*
X191949605Y-121920000D01*
X191590395Y-121920000D01*
X191576253Y-121905858D01*
X191755858Y-121726253D01*
X191770000Y-121740395D01*
X192662591Y-120847804D01*
X192577533Y-120592461D01*
X192008035Y-120384484D01*
X191402300Y-120410277D01*
X190962467Y-120592461D01*
X190877410Y-120847802D01*
X190762820Y-120733212D01*
X190744961Y-120751071D01*
X190807000Y-120439180D01*
X190807000Y-116103921D01*
X191261645Y-116359144D01*
X191389566Y-116390124D01*
X191643000Y-116270777D01*
X191643000Y-114427000D01*
X191897000Y-114427000D01*
X191897000Y-116270777D01*
X192150434Y-116390124D01*
X192278355Y-116359144D01*
X192836317Y-116045922D01*
X193231942Y-115543020D01*
X193405000Y-114927000D01*
X193405000Y-114427000D01*
X191897000Y-114427000D01*
X191643000Y-114427000D01*
X191623000Y-114427000D01*
X191623000Y-114173000D01*
X191643000Y-114173000D01*
X191643000Y-114153000D01*
X191897000Y-114153000D01*
X191897000Y-114173000D01*
X193405000Y-114173000D01*
X193405000Y-113673000D01*
X193260041Y-113157000D01*
X195580000Y-113157000D01*
X195629410Y-113146994D01*
X195671035Y-113118553D01*
X195698315Y-113076159D01*
X195707000Y-113030000D01*
X195707000Y-91440000D01*
X195696994Y-91390590D01*
X195668553Y-91348965D01*
X195626159Y-91321685D01*
X195580000Y-91313000D01*
X189923225Y-91313000D01*
X189833492Y-91253042D01*
X189230000Y-91133000D01*
X186997000Y-91133000D01*
X186997000Y-86777312D01*
X190262293Y-86777312D01*
X190665762Y-87303924D01*
X192179730Y-87947307D01*
X193824666Y-87962346D01*
X195350145Y-87346750D01*
X195414238Y-87303924D01*
X195817707Y-86777312D01*
X193040000Y-83999605D01*
X190262293Y-86777312D01*
X186997000Y-86777312D01*
X186997000Y-85740562D01*
X187107928Y-85574547D01*
X187247000Y-84875384D01*
X187247000Y-84604666D01*
X188897654Y-84604666D01*
X189513250Y-86130145D01*
X189556076Y-86194238D01*
X190082688Y-86597707D01*
X192860395Y-83820000D01*
X190082688Y-81042293D01*
X189556076Y-81445762D01*
X188912693Y-82959730D01*
X188897654Y-84604666D01*
X187247000Y-84604666D01*
X187247000Y-82764616D01*
X187107928Y-82065453D01*
X186711884Y-81472732D01*
X186119163Y-81076688D01*
X185420000Y-80937616D01*
X184720837Y-81076688D01*
X184128116Y-81472732D01*
X183732072Y-82065453D01*
X183593000Y-82764616D01*
X183593000Y-84875384D01*
X183732072Y-85574547D01*
X183843000Y-85740562D01*
X183843000Y-91133000D01*
X183766238Y-91133000D01*
X183166165Y-90883828D01*
X182439543Y-90883194D01*
X181767988Y-91160674D01*
X181253740Y-91674026D01*
X180975088Y-92345095D01*
X180974454Y-93071717D01*
X181251934Y-93743272D01*
X181765286Y-94257520D01*
X182436355Y-94536172D01*
X182753000Y-94536448D01*
X182753000Y-110649892D01*
X182687000Y-110583892D01*
X182687000Y-109220000D01*
X182605018Y-108807850D01*
X182371554Y-108458446D01*
X178877000Y-104963892D01*
X178877000Y-96510488D01*
X178956468Y-96495535D01*
X179237939Y-96314413D01*
X179426769Y-96038052D01*
X179493201Y-95710000D01*
X179493201Y-93710000D01*
X179435535Y-93403532D01*
X179254413Y-93122061D01*
X178978052Y-92933231D01*
X178650000Y-92866799D01*
X176950000Y-92866799D01*
X176643532Y-92924465D01*
X176362061Y-93105587D01*
X176173231Y-93381948D01*
X176106799Y-93710000D01*
X176106799Y-95710000D01*
X176164465Y-96016468D01*
X176345587Y-96297939D01*
X176621948Y-96486769D01*
X176723000Y-96507232D01*
X176723000Y-105410000D01*
X176804982Y-105822150D01*
X177038446Y-106171554D01*
X180533000Y-109666108D01*
X180533000Y-111030000D01*
X180594026Y-111336799D01*
X178610000Y-111336799D01*
X178303532Y-111394465D01*
X178022061Y-111575587D01*
X177833231Y-111851948D01*
X177812768Y-111953000D01*
X177781080Y-111953000D01*
X177775535Y-111923532D01*
X177594413Y-111642061D01*
X177318052Y-111453231D01*
X176990000Y-111386799D01*
X174990000Y-111386799D01*
X174683532Y-111444465D01*
X174402061Y-111625587D01*
X174213231Y-111901948D01*
X174146799Y-112230000D01*
X174146799Y-113830000D01*
X174204465Y-114136468D01*
X174293380Y-114274646D01*
X174213231Y-114391948D01*
X174146799Y-114720000D01*
X174146799Y-116420000D01*
X174204465Y-116726468D01*
X174385587Y-117007939D01*
X174661948Y-117196769D01*
X174990000Y-117263201D01*
X176723000Y-117263201D01*
X176723000Y-117683174D01*
X176604532Y-117705465D01*
X176323061Y-117886587D01*
X176134231Y-118162948D01*
X176067799Y-118491000D01*
X176067799Y-119934691D01*
X173322130Y-117189022D01*
X173577939Y-117024413D01*
X173766769Y-116748052D01*
X173833201Y-116420000D01*
X173833201Y-114720000D01*
X173775535Y-114413532D01*
X173594413Y-114132061D01*
X173561513Y-114109581D01*
X173625000Y-113956310D01*
X173625000Y-113315750D01*
X173466250Y-113157000D01*
X172720000Y-113157000D01*
X172769410Y-113146994D01*
X172811035Y-113118553D01*
X172811035Y-113118553D01*
G37*
X172811035Y-113118553D02*
X172838315Y-113076159D01*
X172847000Y-113030000D01*
X172847000Y-112903000D01*
X173466250Y-112903000D01*
X173625000Y-112744250D01*
X173625000Y-112103690D01*
X173528327Y-111870301D01*
X173349698Y-111691673D01*
X173116309Y-111595000D01*
X172847000Y-111595000D01*
X172847000Y-110292196D01*
X176907409Y-110292196D01*
X176992467Y-110547539D01*
X177561965Y-110755516D01*
X178167700Y-110729723D01*
X178607533Y-110547539D01*
X178692591Y-110292196D01*
X177800000Y-109399605D01*
X176907409Y-110292196D01*
X172847000Y-110292196D01*
X172847000Y-108981965D01*
X176264484Y-108981965D01*
X176290277Y-109587700D01*
X176472461Y-110027533D01*
X176727804Y-110112591D01*
X177620395Y-109220000D01*
X177979605Y-109220000D01*
X178872196Y-110112591D01*
X179127539Y-110027533D01*
X179335516Y-109458035D01*
X179309723Y-108852300D01*
X179127539Y-108412467D01*
X178872196Y-108327409D01*
X177979605Y-109220000D01*
X177620395Y-109220000D01*
X176727804Y-108327409D01*
X176472461Y-108412467D01*
X176264484Y-108981965D01*
X172847000Y-108981965D01*
X172847000Y-108147804D01*
X176907409Y-108147804D01*
X177800000Y-109040395D01*
X178692591Y-108147804D01*
X178607533Y-107892461D01*
X178038035Y-107684484D01*
X177432300Y-107710277D01*
X176992467Y-107892461D01*
X176907409Y-108147804D01*
X172847000Y-108147804D01*
X172847000Y-94536670D01*
X173002977Y-94536806D01*
X173674532Y-94259326D01*
X174188780Y-93745974D01*
X174467432Y-93074905D01*
X174468066Y-92348283D01*
X174190586Y-91676728D01*
X173677234Y-91162480D01*
X173006165Y-90883828D01*
X172279543Y-90883194D01*
X171757000Y-91099104D01*
X171757000Y-86431452D01*
X171767939Y-86424413D01*
X171956769Y-86148052D01*
X172023201Y-85820000D01*
X172023201Y-82764616D01*
X173433000Y-82764616D01*
X173433000Y-84875384D01*
X173572072Y-85574547D01*
X173683000Y-85740562D01*
X173683000Y-88020000D01*
X173803042Y-88623492D01*
X174144893Y-89135107D01*
X176106799Y-91097014D01*
X176106799Y-91710000D01*
X176164465Y-92016468D01*
X176345587Y-92297939D01*
X176621948Y-92486769D01*
X176950000Y-92553201D01*
X178650000Y-92553201D01*
X178956468Y-92495535D01*
X179237939Y-92314413D01*
X179426769Y-92038052D01*
X179493201Y-91710000D01*
X179493201Y-89710000D01*
X179435535Y-89403532D01*
X179254413Y-89122061D01*
X178978052Y-88933231D01*
X178650000Y-88866799D01*
X178337014Y-88866799D01*
X176837000Y-87366786D01*
X176837000Y-85740562D01*
X176947928Y-85574547D01*
X177087000Y-84875384D01*
X177087000Y-83947000D01*
X178705000Y-83947000D01*
X178705000Y-84947000D01*
X178878058Y-85563020D01*
X179273683Y-86065922D01*
X179831645Y-86379144D01*
X179959566Y-86410124D01*
X180213000Y-86290777D01*
X180213000Y-83947000D01*
X180467000Y-83947000D01*
X180467000Y-86290777D01*
X180720434Y-86410124D01*
X180848355Y-86379144D01*
X181406317Y-86065922D01*
X181801942Y-85563020D01*
X181975000Y-84947000D01*
X181975000Y-83947000D01*
X180467000Y-83947000D01*
X180213000Y-83947000D01*
X178705000Y-83947000D01*
X177087000Y-83947000D01*
X177087000Y-82764616D01*
X177072755Y-82693000D01*
X178705000Y-82693000D01*
X178705000Y-83693000D01*
X180213000Y-83693000D01*
X180213000Y-81349223D01*
X180467000Y-81349223D01*
X180467000Y-83693000D01*
X181975000Y-83693000D01*
X181975000Y-82693000D01*
X181801942Y-82076980D01*
X181406317Y-81574078D01*
X180848355Y-81260856D01*
X180720434Y-81229876D01*
X180467000Y-81349223D01*
X180213000Y-81349223D01*
X179959566Y-81229876D01*
X179831645Y-81260856D01*
X179273683Y-81574078D01*
X178878058Y-82076980D01*
X178705000Y-82693000D01*
X177072755Y-82693000D01*
X176947928Y-82065453D01*
X176551884Y-81472732D01*
X175959163Y-81076688D01*
X175260000Y-80937616D01*
X174560837Y-81076688D01*
X173968116Y-81472732D01*
X173572072Y-82065453D01*
X173433000Y-82764616D01*
X172023201Y-82764616D01*
X172023201Y-81820000D01*
X171965535Y-81513532D01*
X171784413Y-81232061D01*
X171508052Y-81043231D01*
X171180000Y-80976799D01*
X169180000Y-80976799D01*
X168873532Y-81034465D01*
X168592061Y-81215587D01*
X168403231Y-81491948D01*
X168336799Y-81820000D01*
X168336799Y-85820000D01*
X168394465Y-86126468D01*
X168575587Y-86407939D01*
X168603000Y-86426670D01*
X168603000Y-91133000D01*
X166370000Y-91133000D01*
X165766508Y-91253042D01*
X165676775Y-91313000D01*
X160020000Y-91313000D01*
X159970590Y-91323006D01*
X159928965Y-91351447D01*
X159901685Y-91393841D01*
X159893000Y-91440000D01*
X159893000Y-113030000D01*
X159903006Y-113079410D01*
X159931447Y-113121035D01*
X159973841Y-113148315D01*
X160020000Y-113157000D01*
X162121832Y-113157000D01*
X162003000Y-113754411D01*
X162003000Y-114845589D01*
X162142072Y-115544752D01*
X162538116Y-116137473D01*
X162753000Y-116281054D01*
X162753000Y-120223174D01*
X162634532Y-120245465D01*
X162353061Y-120426587D01*
X162164231Y-120702948D01*
X162097799Y-121031000D01*
X162097799Y-122809000D01*
X162155465Y-123115468D01*
X162336587Y-123396939D01*
X162612948Y-123585769D01*
X162816242Y-123626937D01*
X162834982Y-123721150D01*
X163068446Y-124070554D01*
X164219446Y-125221554D01*
X164568850Y-125455018D01*
X164981000Y-125537000D01*
X165996799Y-125537000D01*
X165996799Y-127460000D01*
X166030936Y-127641424D01*
X165996799Y-127810000D01*
X165996799Y-129810000D01*
X166054465Y-130116468D01*
X166235587Y-130397939D01*
X166511948Y-130586769D01*
X166840000Y-130653201D01*
X168440000Y-130653201D01*
X168746468Y-130595535D01*
X168884646Y-130506620D01*
X169001948Y-130586769D01*
X169330000Y-130653201D01*
X171030000Y-130653201D01*
X171336468Y-130595535D01*
X171617939Y-130414413D01*
X171801969Y-130145077D01*
X171958446Y-130301554D01*
X172307850Y-130535018D01*
X172720000Y-130617000D01*
X173294892Y-130617000D01*
X173228446Y-130683446D01*
X172994982Y-131032850D01*
X172913000Y-131445000D01*
X172913000Y-131892202D01*
X172717818Y-132184313D01*
X172613000Y-132711268D01*
X172613000Y-133988732D01*
X172717818Y-134515687D01*
X173016314Y-134962418D01*
X173463045Y-135260914D01*
X173990000Y-135365732D01*
X174516955Y-135260914D01*
X174963686Y-134962418D01*
X175260000Y-134518953D01*
X175453000Y-134807798D01*
X175453000Y-135890000D01*
X175534982Y-136302150D01*
X175768446Y-136651554D01*
X176149892Y-137033000D01*
X164482949Y-137033000D01*
X164870145Y-136876750D01*
X164934238Y-136833924D01*
X165337707Y-136307312D01*
X162560000Y-133529605D01*
X159782293Y-136307312D01*
X160185762Y-136833924D01*
X160654215Y-137033000D01*
X158877000Y-137033000D01*
X158877000Y-135272949D01*
X159033250Y-135660145D01*
X159076076Y-135724238D01*
X159602688Y-136127707D01*
X162380395Y-133350000D01*
X162739605Y-133350000D01*
X165517312Y-136127707D01*
X166043924Y-135724238D01*
X166606435Y-134400573D01*
X166713690Y-134445000D01*
X167354250Y-134445000D01*
X167513000Y-134286250D01*
X167513000Y-132937000D01*
X167767000Y-132937000D01*
X167767000Y-134286250D01*
X167925750Y-134445000D01*
X168566310Y-134445000D01*
X168799699Y-134348327D01*
X168885000Y-134263026D01*
X168970301Y-134348327D01*
X169203690Y-134445000D01*
X169894250Y-134445000D01*
X170053000Y-134286250D01*
X170053000Y-132937000D01*
X170307000Y-132937000D01*
X170307000Y-134286250D01*
X170465750Y-134445000D01*
X171156310Y-134445000D01*
X171389699Y-134348327D01*
X171568327Y-134169698D01*
X171665000Y-133936309D01*
X171665000Y-133095750D01*
X171506250Y-132937000D01*
X170307000Y-132937000D01*
X170053000Y-132937000D01*
X167767000Y-132937000D01*
X167513000Y-132937000D01*
X167493000Y-132937000D01*
X167493000Y-132683000D01*
X167513000Y-132683000D01*
X167513000Y-131333750D01*
X167767000Y-131333750D01*
X167767000Y-132683000D01*
X170053000Y-132683000D01*
X170053000Y-131333750D01*
X170307000Y-131333750D01*
X170307000Y-132683000D01*
X171506250Y-132683000D01*
X171665000Y-132524250D01*
X171665000Y-131683691D01*
X171568327Y-131450302D01*
X171389699Y-131271673D01*
X171156310Y-131175000D01*
X170465750Y-131175000D01*
X170307000Y-131333750D01*
X170053000Y-131333750D01*
X169894250Y-131175000D01*
X169203690Y-131175000D01*
X168970301Y-131271673D01*
X168885000Y-131356974D01*
X168799699Y-131271673D01*
X168566310Y-131175000D01*
X167925750Y-131175000D01*
X167767000Y-131333750D01*
X167513000Y-131333750D01*
X167354250Y-131175000D01*
X166713690Y-131175000D01*
X166480301Y-131271673D01*
X166301673Y-131450302D01*
X166276706Y-131510577D01*
X166086750Y-131039855D01*
X166043924Y-130975762D01*
X165517312Y-130572293D01*
X162739605Y-133350000D01*
X162380395Y-133350000D01*
X159602688Y-130572293D01*
X159076076Y-130975762D01*
X158877000Y-131444215D01*
X158877000Y-130392688D01*
X159782293Y-130392688D01*
X162560000Y-133170395D01*
X165337707Y-130392688D01*
X164934238Y-129866076D01*
X163420270Y-129222693D01*
X161775334Y-129207654D01*
X160249855Y-129823250D01*
X160185762Y-129866076D01*
X159782293Y-130392688D01*
X158877000Y-130392688D01*
X158877000Y-86777312D01*
X159782293Y-86777312D01*
X160185762Y-87303924D01*
X161699730Y-87947307D01*
X163344666Y-87962346D01*
X164870145Y-87346750D01*
X164934238Y-87303924D01*
X165337707Y-86777312D01*
X162560000Y-83999605D01*
X159782293Y-86777312D01*
X158877000Y-86777312D01*
X158877000Y-85742949D01*
X159033250Y-86130145D01*
X159076076Y-86194238D01*
X159602688Y-86597707D01*
X162380395Y-83820000D01*
X162739605Y-83820000D01*
X165517312Y-86597707D01*
X166043924Y-86194238D01*
X166687307Y-84680270D01*
X166702346Y-83035334D01*
X166086750Y-81509855D01*
X166043924Y-81445762D01*
X165517312Y-81042293D01*
X162739605Y-83820000D01*
X162380395Y-83820000D01*
X159602688Y-81042293D01*
X159076076Y-81445762D01*
X158877000Y-81914215D01*
X158877000Y-80862688D01*
X159782293Y-80862688D01*
X162560000Y-83640395D01*
X165337707Y-80862688D01*
X190262293Y-80862688D01*
X193040000Y-83640395D01*
X195817707Y-80862688D01*
X195414238Y-80336076D01*
X193900270Y-79692693D01*
X192255334Y-79677654D01*
X190729855Y-80293250D01*
X190665762Y-80336076D01*
X190262293Y-80862688D01*
X165337707Y-80862688D01*
X164934238Y-80336076D01*
X163420270Y-79692693D01*
X161775334Y-79677654D01*
X160249855Y-80293250D01*
X160185762Y-80336076D01*
X159782293Y-80862688D01*
X158877000Y-80862688D01*
X158877000Y-79642000D01*
X196723000Y-79642000D01*
X196723000Y-81897051D01*
X196566750Y-81509855D01*
X196523924Y-81445762D01*
X195997312Y-81042293D01*
X193219605Y-83820000D01*
X195997312Y-86597707D01*
X196523924Y-86194238D01*
X196723000Y-85725785D01*
X196723000Y-131427051D01*
X196566750Y-131039855D01*
X196523924Y-130975762D01*
X195997312Y-130572293D01*
X193219605Y-133350000D01*
X195997312Y-136127707D01*
X196523924Y-135724238D01*
X196723000Y-135255785D01*
X196723000Y-137033000D01*
X194962949Y-137033000D01*
X195350145Y-136876750D01*
X195414238Y-136833924D01*
X195817707Y-136307312D01*
X193040000Y-133529605D01*
X190262293Y-136307312D01*
X190665762Y-136833924D01*
X191134215Y-137033000D01*
X183953539Y-137033000D01*
X184581629Y-136404911D01*
X184631553Y-136371553D01*
X184865017Y-136022149D01*
X184946999Y-135609999D01*
X184946999Y-134445000D01*
X185134250Y-134445000D01*
X185293000Y-134286250D01*
X185293000Y-132937000D01*
X185547000Y-132937000D01*
X185547000Y-134286250D01*
X185705750Y-134445000D01*
X186346310Y-134445000D01*
X186579699Y-134348327D01*
X186665000Y-134263026D01*
X186750301Y-134348327D01*
X186983690Y-134445000D01*
X187674250Y-134445000D01*
X187833000Y-134286250D01*
X187833000Y-132937000D01*
X185547000Y-132937000D01*
X185293000Y-132937000D01*
X185273000Y-132937000D01*
X185273000Y-132683000D01*
X185293000Y-132683000D01*
X185293000Y-131333750D01*
X185547000Y-131333750D01*
X185547000Y-132683000D01*
X187833000Y-132683000D01*
X187833000Y-131333750D01*
X188087000Y-131333750D01*
X188087000Y-132683000D01*
X188107000Y-132683000D01*
X188107000Y-132937000D01*
X188087000Y-132937000D01*
X188087000Y-134286250D01*
X188245750Y-134445000D01*
X188936310Y-134445000D01*
X189010488Y-134414274D01*
X189513250Y-135660145D01*
X189556076Y-135724238D01*
X190082688Y-136127707D01*
X192860395Y-133350000D01*
X190082688Y-130572293D01*
X189556076Y-130975762D01*
X189351331Y-131457555D01*
X189348327Y-131450302D01*
X189169699Y-131271673D01*
X188936310Y-131175000D01*
X188245750Y-131175000D01*
X188087000Y-131333750D01*
X187833000Y-131333750D01*
X187674250Y-131175000D01*
X186983690Y-131175000D01*
X186750301Y-131271673D01*
X186665000Y-131356974D01*
X186579699Y-131271673D01*
X186346310Y-131175000D01*
X185705750Y-131175000D01*
X185547000Y-131333750D01*
X185293000Y-131333750D01*
X185134250Y-131175000D01*
X184946999Y-131175000D01*
X184946999Y-131006109D01*
X185299907Y-130653201D01*
X186220000Y-130653201D01*
X186526468Y-130595535D01*
X186664646Y-130506620D01*
X186781948Y-130586769D01*
X187110000Y-130653201D01*
X188810000Y-130653201D01*
X189116468Y-130595535D01*
X189397939Y-130414413D01*
X189412783Y-130392688D01*
X190262293Y-130392688D01*
X193040000Y-133170395D01*
X195817707Y-130392688D01*
X195414238Y-129866076D01*
X193900270Y-129222693D01*
X192255334Y-129207654D01*
X190729855Y-129823250D01*
X190665762Y-129866076D01*
X190262293Y-130392688D01*
X189412783Y-130392688D01*
X189586769Y-130138052D01*
X189653201Y-129810000D01*
X189653201Y-127810000D01*
X189652831Y-127808034D01*
X189652831Y-125561090D01*
X189595165Y-125254622D01*
X189414043Y-124973151D01*
X189137682Y-124784321D01*
X188809630Y-124717889D01*
X187110370Y-124717889D01*
X186803902Y-124775555D01*
X186741727Y-124815564D01*
X186548052Y-124683231D01*
X186220000Y-124616799D01*
X184620000Y-124616799D01*
X184313532Y-124674465D01*
X184032061Y-124855587D01*
X183843231Y-125131948D01*
X183776799Y-125460000D01*
X183776799Y-127460000D01*
X183810936Y-127641424D01*
X183776799Y-127810000D01*
X183776799Y-129130093D01*
X183675693Y-129231199D01*
X183571564Y-129075358D01*
X182137054Y-127640848D01*
X182583686Y-127342418D01*
X182882182Y-126895687D01*
X182987000Y-126368732D01*
X182987000Y-125091268D01*
X182882182Y-124564313D01*
X182687000Y-124272202D01*
X182687000Y-123616826D01*
X182805468Y-123594535D01*
X183086939Y-123413413D01*
X183275769Y-123137052D01*
X183342201Y-122809000D01*
X183342201Y-121031000D01*
X183284535Y-120724532D01*
X183103413Y-120443061D01*
X182827052Y-120254231D01*
X182687000Y-120225870D01*
X182687000Y-119826108D01*
X184371554Y-118141554D01*
X184605018Y-117792150D01*
X184687000Y-117380000D01*
X184687000Y-117248712D01*
X184916468Y-117205535D01*
X185197939Y-117024413D01*
X185386769Y-116748052D01*
X185407232Y-116647000D01*
X185420000Y-116647000D01*
X185832150Y-116565018D01*
X185935066Y-116496252D01*
X185990837Y-116533517D01*
X186690000Y-116672589D01*
X187389163Y-116533517D01*
X187653000Y-116357227D01*
X187653000Y-119216249D01*
X187110370Y-119216249D01*
X186803902Y-119273915D01*
X186522431Y-119455037D01*
X186333601Y-119731398D01*
X186267169Y-120059450D01*
X186267169Y-120626351D01*
X186220000Y-120616799D01*
X184620000Y-120616799D01*
X184313532Y-120674465D01*
X184032061Y-120855587D01*
X183843231Y-121131948D01*
X183776799Y-121460000D01*
X183776799Y-123460000D01*
X183834465Y-123766468D01*
X184015587Y-124047939D01*
X184291948Y-124236769D01*
X184620000Y-124303201D01*
X186220000Y-124303201D01*
X186526468Y-124245535D01*
X186741030Y-124107468D01*
X186782318Y-124135679D01*
X187110370Y-124202111D01*
X188809630Y-124202111D01*
X189116098Y-124144445D01*
X189397569Y-123963323D01*
X189586399Y-123686962D01*
X189652831Y-123358910D01*
X189652831Y-122992196D01*
X190877409Y-122992196D01*
X190962467Y-123247539D01*
X191531965Y-123455516D01*
X192137700Y-123429723D01*
X192577533Y-123247539D01*
X192662591Y-122992196D01*
X191770000Y-122099605D01*
X190877409Y-122992196D01*
X189652831Y-122992196D01*
X189652831Y-122246563D01*
X190244295Y-121655100D01*
X190234484Y-121681965D01*
X190260277Y-122287700D01*
X190442461Y-122727533D01*
X190697804Y-122812591D01*
X191590395Y-121920000D01*
X191949605Y-121920000D01*
X192842196Y-122812591D01*
X193097539Y-122727533D01*
X193305516Y-122158035D01*
X193279723Y-121552300D01*
X193097539Y-121112467D01*
X192842196Y-121027409D01*
X191949605Y-121920000D01*
X191590395Y-121920000D01*
X191576253Y-121905858D01*
X191755858Y-121726253D01*
X191770000Y-121740395D01*
X192662591Y-120847804D01*
X192577533Y-120592461D01*
X192008035Y-120384484D01*
X191402300Y-120410277D01*
X190962467Y-120592461D01*
X190877410Y-120847802D01*
X190762820Y-120733212D01*
X190744961Y-120751071D01*
X190807000Y-120439180D01*
X190807000Y-116103921D01*
X191261645Y-116359144D01*
X191389566Y-116390124D01*
X191643000Y-116270777D01*
X191643000Y-114427000D01*
X191897000Y-114427000D01*
X191897000Y-116270777D01*
X192150434Y-116390124D01*
X192278355Y-116359144D01*
X192836317Y-116045922D01*
X193231942Y-115543020D01*
X193405000Y-114927000D01*
X193405000Y-114427000D01*
X191897000Y-114427000D01*
X191643000Y-114427000D01*
X191623000Y-114427000D01*
X191623000Y-114173000D01*
X191643000Y-114173000D01*
X191643000Y-114153000D01*
X191897000Y-114153000D01*
X191897000Y-114173000D01*
X193405000Y-114173000D01*
X193405000Y-113673000D01*
X193260041Y-113157000D01*
X195580000Y-113157000D01*
X195629410Y-113146994D01*
X195671035Y-113118553D01*
X195698315Y-113076159D01*
X195707000Y-113030000D01*
X195707000Y-91440000D01*
X195696994Y-91390590D01*
X195668553Y-91348965D01*
X195626159Y-91321685D01*
X195580000Y-91313000D01*
X189923225Y-91313000D01*
X189833492Y-91253042D01*
X189230000Y-91133000D01*
X186997000Y-91133000D01*
X186997000Y-86777312D01*
X190262293Y-86777312D01*
X190665762Y-87303924D01*
X192179730Y-87947307D01*
X193824666Y-87962346D01*
X195350145Y-87346750D01*
X195414238Y-87303924D01*
X195817707Y-86777312D01*
X193040000Y-83999605D01*
X190262293Y-86777312D01*
X186997000Y-86777312D01*
X186997000Y-85740562D01*
X187107928Y-85574547D01*
X187247000Y-84875384D01*
X187247000Y-84604666D01*
X188897654Y-84604666D01*
X189513250Y-86130145D01*
X189556076Y-86194238D01*
X190082688Y-86597707D01*
X192860395Y-83820000D01*
X190082688Y-81042293D01*
X189556076Y-81445762D01*
X188912693Y-82959730D01*
X188897654Y-84604666D01*
X187247000Y-84604666D01*
X187247000Y-82764616D01*
X187107928Y-82065453D01*
X186711884Y-81472732D01*
X186119163Y-81076688D01*
X185420000Y-80937616D01*
X184720837Y-81076688D01*
X184128116Y-81472732D01*
X183732072Y-82065453D01*
X183593000Y-82764616D01*
X183593000Y-84875384D01*
X183732072Y-85574547D01*
X183843000Y-85740562D01*
X183843000Y-91133000D01*
X183766238Y-91133000D01*
X183166165Y-90883828D01*
X182439543Y-90883194D01*
X181767988Y-91160674D01*
X181253740Y-91674026D01*
X180975088Y-92345095D01*
X180974454Y-93071717D01*
X181251934Y-93743272D01*
X181765286Y-94257520D01*
X182436355Y-94536172D01*
X182753000Y-94536448D01*
X182753000Y-110649892D01*
X182687000Y-110583892D01*
X182687000Y-109220000D01*
X182605018Y-108807850D01*
X182371554Y-108458446D01*
X178877000Y-104963892D01*
X178877000Y-96510488D01*
X178956468Y-96495535D01*
X179237939Y-96314413D01*
X179426769Y-96038052D01*
X179493201Y-95710000D01*
X179493201Y-93710000D01*
X179435535Y-93403532D01*
X179254413Y-93122061D01*
X178978052Y-92933231D01*
X178650000Y-92866799D01*
X176950000Y-92866799D01*
X176643532Y-92924465D01*
X176362061Y-93105587D01*
X176173231Y-93381948D01*
X176106799Y-93710000D01*
X176106799Y-95710000D01*
X176164465Y-96016468D01*
X176345587Y-96297939D01*
X176621948Y-96486769D01*
X176723000Y-96507232D01*
X176723000Y-105410000D01*
X176804982Y-105822150D01*
X177038446Y-106171554D01*
X180533000Y-109666108D01*
X180533000Y-111030000D01*
X180594026Y-111336799D01*
X178610000Y-111336799D01*
X178303532Y-111394465D01*
X178022061Y-111575587D01*
X177833231Y-111851948D01*
X177812768Y-111953000D01*
X177781080Y-111953000D01*
X177775535Y-111923532D01*
X177594413Y-111642061D01*
X177318052Y-111453231D01*
X176990000Y-111386799D01*
X174990000Y-111386799D01*
X174683532Y-111444465D01*
X174402061Y-111625587D01*
X174213231Y-111901948D01*
X174146799Y-112230000D01*
X174146799Y-113830000D01*
X174204465Y-114136468D01*
X174293380Y-114274646D01*
X174213231Y-114391948D01*
X174146799Y-114720000D01*
X174146799Y-116420000D01*
X174204465Y-116726468D01*
X174385587Y-117007939D01*
X174661948Y-117196769D01*
X174990000Y-117263201D01*
X176723000Y-117263201D01*
X176723000Y-117683174D01*
X176604532Y-117705465D01*
X176323061Y-117886587D01*
X176134231Y-118162948D01*
X176067799Y-118491000D01*
X176067799Y-119934691D01*
X173322130Y-117189022D01*
X173577939Y-117024413D01*
X173766769Y-116748052D01*
X173833201Y-116420000D01*
X173833201Y-114720000D01*
X173775535Y-114413532D01*
X173594413Y-114132061D01*
X173561513Y-114109581D01*
X173625000Y-113956310D01*
X173625000Y-113315750D01*
X173466250Y-113157000D01*
X172720000Y-113157000D01*
X172769410Y-113146994D01*
X172811035Y-113118553D01*
G36*
X169037000Y-114173000D02*
X169057000Y-114173000D01*
X169057000Y-114427000D01*
X169037000Y-114427000D01*
X169037000Y-116270777D01*
X169290434Y-116390124D01*
X169418355Y-116359144D01*
X169976317Y-116045922D01*
X170146799Y-115829212D01*
X170146799Y-116420000D01*
X170204465Y-116726468D01*
X170385587Y-117007939D01*
X170661948Y-117196769D01*
X170913000Y-117247608D01*
X170913000Y-117380000D01*
X170994982Y-117792150D01*
X171228446Y-118141554D01*
X173533819Y-120446927D01*
X173182467Y-120592461D01*
X173097409Y-120847804D01*
X173990000Y-121740395D01*
X174004143Y-121726253D01*
X174183748Y-121905858D01*
X174169605Y-121920000D01*
X175062196Y-122812591D01*
X175183999Y-122772017D01*
X175183999Y-123383000D01*
X174470500Y-123383000D01*
X174797533Y-123247539D01*
X174882591Y-122992196D01*
X173990000Y-122099605D01*
X173097409Y-122992196D01*
X173182467Y-123247539D01*
X173553396Y-123383000D01*
X171867953Y-123383000D01*
X171872831Y-123358910D01*
X171872831Y-121681965D01*
X172454484Y-121681965D01*
X172480277Y-122287700D01*
X172662461Y-122727533D01*
X172917804Y-122812591D01*
X173810395Y-121920000D01*
X172917804Y-121027409D01*
X172662461Y-121112467D01*
X172454484Y-121681965D01*
X171872831Y-121681965D01*
X171872831Y-120059450D01*
X171815165Y-119752982D01*
X171634043Y-119471511D01*
X171357682Y-119282681D01*
X171029630Y-119216249D01*
X169330370Y-119216249D01*
X169189693Y-119242719D01*
X169096958Y-118776508D01*
X168991344Y-118618446D01*
X168755107Y-118264892D01*
X167947000Y-117456786D01*
X167947000Y-116103921D01*
X168401645Y-116359144D01*
X168529566Y-116390124D01*
X168783000Y-116270777D01*
X168783000Y-114427000D01*
X168763000Y-114427000D01*
X168763000Y-114173000D01*
X168783000Y-114173000D01*
X168783000Y-114153000D01*
X169037000Y-114153000D01*
X169037000Y-114173000D01*
X169037000Y-114173000D01*
G37*
X169037000Y-114173000D02*
X169057000Y-114173000D01*
X169057000Y-114427000D01*
X169037000Y-114427000D01*
X169037000Y-116270777D01*
X169290434Y-116390124D01*
X169418355Y-116359144D01*
X169976317Y-116045922D01*
X170146799Y-115829212D01*
X170146799Y-116420000D01*
X170204465Y-116726468D01*
X170385587Y-117007939D01*
X170661948Y-117196769D01*
X170913000Y-117247608D01*
X170913000Y-117380000D01*
X170994982Y-117792150D01*
X171228446Y-118141554D01*
X173533819Y-120446927D01*
X173182467Y-120592461D01*
X173097409Y-120847804D01*
X173990000Y-121740395D01*
X174004143Y-121726253D01*
X174183748Y-121905858D01*
X174169605Y-121920000D01*
X175062196Y-122812591D01*
X175183999Y-122772017D01*
X175183999Y-123383000D01*
X174470500Y-123383000D01*
X174797533Y-123247539D01*
X174882591Y-122992196D01*
X173990000Y-122099605D01*
X173097409Y-122992196D01*
X173182467Y-123247539D01*
X173553396Y-123383000D01*
X171867953Y-123383000D01*
X171872831Y-123358910D01*
X171872831Y-121681965D01*
X172454484Y-121681965D01*
X172480277Y-122287700D01*
X172662461Y-122727533D01*
X172917804Y-122812591D01*
X173810395Y-121920000D01*
X172917804Y-121027409D01*
X172662461Y-121112467D01*
X172454484Y-121681965D01*
X171872831Y-121681965D01*
X171872831Y-120059450D01*
X171815165Y-119752982D01*
X171634043Y-119471511D01*
X171357682Y-119282681D01*
X171029630Y-119216249D01*
X169330370Y-119216249D01*
X169189693Y-119242719D01*
X169096958Y-118776508D01*
X168991344Y-118618446D01*
X168755107Y-118264892D01*
X167947000Y-117456786D01*
X167947000Y-116103921D01*
X168401645Y-116359144D01*
X168529566Y-116390124D01*
X168783000Y-116270777D01*
X168783000Y-114427000D01*
X168763000Y-114427000D01*
X168763000Y-114173000D01*
X168783000Y-114173000D01*
X168783000Y-114153000D01*
X169037000Y-114153000D01*
X169037000Y-114173000D01*
M02*
