%FSLAX45Y45*%
G04 Gerber Fmt 4.5, Leading zero omitted, Abs format (unit mm)*
G04 Created by KiCad (PCBNEW 4.0.5+dfsg1-4) date Sat Apr 22 17:13:23 2017*
%MOMM*%
%LPD*%
G01*
G04 APERTURE LIST*
%ADD10C,0.127000*%
%ADD11C,0.150000*%
%ADD12C,0.200000*%
%ADD13C,0.300000*%
G04 APERTURE END LIST*
D10*
D11*
X15748000Y-13843000D02*
X15748000Y-7874000D01*
X19812000Y-13843000D02*
X15748000Y-13843000D01*
X19812000Y-7874000D02*
X19812000Y-13843000D01*
X15748000Y-7874000D02*
X19812000Y-7874000D01*
D12*
X17359000Y-12533000D02*
X17439000Y-12613000D01*
X17439000Y-12533000D02*
X17359000Y-12613000D01*
X17359000Y-13295000D02*
X17439000Y-13375000D01*
X17439000Y-13295000D02*
X17359000Y-13375000D01*
X17613000Y-12533000D02*
X17693000Y-12613000D01*
X17693000Y-12533000D02*
X17613000Y-12613000D01*
X17613000Y-13295000D02*
X17693000Y-13375000D01*
X17693000Y-13295000D02*
X17613000Y-13375000D01*
X17867000Y-12533000D02*
X17947000Y-12613000D01*
X17947000Y-12533000D02*
X17867000Y-12613000D01*
X17867000Y-13295000D02*
X17947000Y-13375000D01*
X17947000Y-13295000D02*
X17867000Y-13375000D01*
X18121000Y-12533000D02*
X18201000Y-12613000D01*
X18201000Y-12533000D02*
X18121000Y-12613000D01*
X18121000Y-13295000D02*
X18201000Y-13375000D01*
X18201000Y-13295000D02*
X18121000Y-13375000D01*
X16433000Y-11430000D02*
G75*
G03X16433000Y-11430000I-50000J0D01*
G01*
X16687000Y-11430000D02*
G75*
G03X16687000Y-11430000I-50000J0D01*
G01*
X16941000Y-11430000D02*
G75*
G03X16941000Y-11430000I-50000J0D01*
G01*
X18719000Y-11430000D02*
G75*
G03X18719000Y-11430000I-50000J0D01*
G01*
X18973000Y-11430000D02*
G75*
G03X18973000Y-11430000I-50000J0D01*
G01*
X19227000Y-11430000D02*
G75*
G03X19227000Y-11430000I-50000J0D01*
G01*
X17264126Y-9220962D02*
X17264126Y-9321038D01*
X17214088Y-9271000D02*
X17314164Y-9271000D01*
X18280126Y-9220962D02*
X18280126Y-9321038D01*
X18230088Y-9271000D02*
X18330164Y-9271000D01*
X16418921Y-12227921D02*
X16418921Y-12156079D01*
X16347079Y-12156079D01*
X16347079Y-12227921D01*
X16418921Y-12227921D01*
X17434921Y-12227921D02*
X17434921Y-12156079D01*
X17363079Y-12156079D01*
X17363079Y-12227921D01*
X17434921Y-12227921D01*
X17815921Y-10957921D02*
X17815921Y-10886079D01*
X17744079Y-10886079D01*
X17744079Y-10957921D01*
X17815921Y-10957921D01*
X17815921Y-11973921D02*
X17815921Y-11902079D01*
X17744079Y-11902079D01*
X17744079Y-11973921D01*
X17815921Y-11973921D01*
X18196921Y-12227921D02*
X18196921Y-12156079D01*
X18125079Y-12156079D01*
X18125079Y-12227921D01*
X18196921Y-12227921D01*
X19212921Y-12227921D02*
X19212921Y-12156079D01*
X19141079Y-12156079D01*
X19141079Y-12227921D01*
X19212921Y-12227921D01*
X17018000Y-8442000D02*
X17078000Y-8382000D01*
X17018000Y-8322000D01*
X16958000Y-8382000D01*
X17018000Y-8442000D01*
X17526000Y-8442000D02*
X17586000Y-8382000D01*
X17526000Y-8322000D01*
X17466000Y-8382000D01*
X17526000Y-8442000D01*
X18034000Y-8442000D02*
X18094000Y-8382000D01*
X18034000Y-8322000D01*
X17974000Y-8382000D01*
X18034000Y-8442000D01*
X18542000Y-8442000D02*
X18602000Y-8382000D01*
X18542000Y-8322000D01*
X18482000Y-8382000D01*
X18542000Y-8442000D01*
X16477000Y-9873000D02*
X16797000Y-10193000D01*
X16797000Y-9873000D02*
X16477000Y-10193000D01*
X16797000Y-10033000D02*
G75*
G03X16797000Y-10033000I-160000J0D01*
G01*
X18763000Y-9873000D02*
X19083000Y-10193000D01*
X19083000Y-9873000D02*
X18763000Y-10193000D01*
X19083000Y-10033000D02*
G75*
G03X19083000Y-10033000I-160000J0D01*
G01*
X16081000Y-8080000D02*
X16431000Y-8430000D01*
X16431000Y-8080000D02*
X16081000Y-8430000D01*
X16256000Y-8080000D02*
X16256000Y-8430000D01*
X16081000Y-8255000D02*
X16431000Y-8255000D01*
X16081000Y-13160000D02*
X16431000Y-13510000D01*
X16431000Y-13160000D02*
X16081000Y-13510000D01*
X16256000Y-13160000D02*
X16256000Y-13510000D01*
X16081000Y-13335000D02*
X16431000Y-13335000D01*
X19129000Y-8207000D02*
X19479000Y-8557000D01*
X19479000Y-8207000D02*
X19129000Y-8557000D01*
X19304000Y-8207000D02*
X19304000Y-8557000D01*
X19129000Y-8382000D02*
X19479000Y-8382000D01*
X19129000Y-13160000D02*
X19479000Y-13510000D01*
X19479000Y-13160000D02*
X19129000Y-13510000D01*
X19304000Y-13160000D02*
X19304000Y-13510000D01*
X19129000Y-13335000D02*
X19479000Y-13335000D01*
D13*
X16011928Y-14316214D02*
X16011928Y-14016214D01*
X16083357Y-14016214D01*
X16126214Y-14030500D01*
X16154786Y-14059071D01*
X16169071Y-14087643D01*
X16183357Y-14144786D01*
X16183357Y-14187643D01*
X16169071Y-14244786D01*
X16154786Y-14273357D01*
X16126214Y-14301929D01*
X16083357Y-14316214D01*
X16011928Y-14316214D01*
X16311928Y-14316214D02*
X16311928Y-14116214D01*
X16311928Y-14173357D02*
X16326214Y-14144786D01*
X16340500Y-14130500D01*
X16369071Y-14116214D01*
X16397643Y-14116214D01*
X16497643Y-14316214D02*
X16497643Y-14116214D01*
X16497643Y-14016214D02*
X16483357Y-14030500D01*
X16497643Y-14044786D01*
X16511928Y-14030500D01*
X16497643Y-14016214D01*
X16497643Y-14044786D01*
X16683357Y-14316214D02*
X16654786Y-14301929D01*
X16640500Y-14273357D01*
X16640500Y-14016214D01*
X16840500Y-14316214D02*
X16811929Y-14301929D01*
X16797643Y-14273357D01*
X16797643Y-14016214D01*
X17183357Y-14316214D02*
X17183357Y-14016214D01*
X17283357Y-14230500D01*
X17383357Y-14016214D01*
X17383357Y-14316214D01*
X17654786Y-14316214D02*
X17654786Y-14159071D01*
X17640500Y-14130500D01*
X17611929Y-14116214D01*
X17554786Y-14116214D01*
X17526214Y-14130500D01*
X17654786Y-14301929D02*
X17626214Y-14316214D01*
X17554786Y-14316214D01*
X17526214Y-14301929D01*
X17511929Y-14273357D01*
X17511929Y-14244786D01*
X17526214Y-14216214D01*
X17554786Y-14201929D01*
X17626214Y-14201929D01*
X17654786Y-14187643D01*
X17797643Y-14116214D02*
X17797643Y-14416214D01*
X17797643Y-14130500D02*
X17826214Y-14116214D01*
X17883357Y-14116214D01*
X17911929Y-14130500D01*
X17926214Y-14144786D01*
X17940500Y-14173357D01*
X17940500Y-14259071D01*
X17926214Y-14287643D01*
X17911929Y-14301929D01*
X17883357Y-14316214D01*
X17826214Y-14316214D01*
X17797643Y-14301929D01*
X18069071Y-14287643D02*
X18083357Y-14301929D01*
X18069071Y-14316214D01*
X18054786Y-14301929D01*
X18069071Y-14287643D01*
X18069071Y-14316214D01*
X18069071Y-14130500D02*
X18083357Y-14144786D01*
X18069071Y-14159071D01*
X18054786Y-14144786D01*
X18069071Y-14130500D01*
X18069071Y-14159071D01*
X15660500Y-14770500D02*
X15740500Y-14850500D01*
X15740500Y-14770500D02*
X15660500Y-14850500D01*
X16069071Y-14646214D02*
X16097643Y-14646214D01*
X16126214Y-14660500D01*
X16140500Y-14674786D01*
X16154786Y-14703357D01*
X16169071Y-14760500D01*
X16169071Y-14831929D01*
X16154786Y-14889071D01*
X16140500Y-14917643D01*
X16126214Y-14931929D01*
X16097643Y-14946214D01*
X16069071Y-14946214D01*
X16040500Y-14931929D01*
X16026214Y-14917643D01*
X16011928Y-14889071D01*
X15997643Y-14831929D01*
X15997643Y-14760500D01*
X16011928Y-14703357D01*
X16026214Y-14674786D01*
X16040500Y-14660500D01*
X16069071Y-14646214D01*
X16297643Y-14917643D02*
X16311928Y-14931929D01*
X16297643Y-14946214D01*
X16283357Y-14931929D01*
X16297643Y-14917643D01*
X16297643Y-14946214D01*
X16483357Y-14774786D02*
X16454786Y-14760500D01*
X16440500Y-14746214D01*
X16426214Y-14717643D01*
X16426214Y-14703357D01*
X16440500Y-14674786D01*
X16454786Y-14660500D01*
X16483357Y-14646214D01*
X16540500Y-14646214D01*
X16569071Y-14660500D01*
X16583357Y-14674786D01*
X16597643Y-14703357D01*
X16597643Y-14717643D01*
X16583357Y-14746214D01*
X16569071Y-14760500D01*
X16540500Y-14774786D01*
X16483357Y-14774786D01*
X16454786Y-14789071D01*
X16440500Y-14803357D01*
X16426214Y-14831929D01*
X16426214Y-14889071D01*
X16440500Y-14917643D01*
X16454786Y-14931929D01*
X16483357Y-14946214D01*
X16540500Y-14946214D01*
X16569071Y-14931929D01*
X16583357Y-14917643D01*
X16597643Y-14889071D01*
X16597643Y-14831929D01*
X16583357Y-14803357D01*
X16569071Y-14789071D01*
X16540500Y-14774786D01*
X16783357Y-14646214D02*
X16811929Y-14646214D01*
X16840500Y-14660500D01*
X16854786Y-14674786D01*
X16869071Y-14703357D01*
X16883357Y-14760500D01*
X16883357Y-14831929D01*
X16869071Y-14889071D01*
X16854786Y-14917643D01*
X16840500Y-14931929D01*
X16811929Y-14946214D01*
X16783357Y-14946214D01*
X16754786Y-14931929D01*
X16740500Y-14917643D01*
X16726214Y-14889071D01*
X16711928Y-14831929D01*
X16711928Y-14760500D01*
X16726214Y-14703357D01*
X16740500Y-14674786D01*
X16754786Y-14660500D01*
X16783357Y-14646214D01*
X17011929Y-14946214D02*
X17011929Y-14746214D01*
X17011929Y-14774786D02*
X17026214Y-14760500D01*
X17054786Y-14746214D01*
X17097643Y-14746214D01*
X17126214Y-14760500D01*
X17140500Y-14789071D01*
X17140500Y-14946214D01*
X17140500Y-14789071D02*
X17154786Y-14760500D01*
X17183357Y-14746214D01*
X17226214Y-14746214D01*
X17254786Y-14760500D01*
X17269071Y-14789071D01*
X17269071Y-14946214D01*
X17411929Y-14946214D02*
X17411929Y-14746214D01*
X17411929Y-14774786D02*
X17426214Y-14760500D01*
X17454786Y-14746214D01*
X17497643Y-14746214D01*
X17526214Y-14760500D01*
X17540500Y-14789071D01*
X17540500Y-14946214D01*
X17540500Y-14789071D02*
X17554786Y-14760500D01*
X17583357Y-14746214D01*
X17626214Y-14746214D01*
X17654786Y-14760500D01*
X17669071Y-14789071D01*
X17669071Y-14946214D01*
X18254786Y-14631929D02*
X17997643Y-15017643D01*
X18640500Y-14646214D02*
X18669071Y-14646214D01*
X18697643Y-14660500D01*
X18711928Y-14674786D01*
X18726214Y-14703357D01*
X18740500Y-14760500D01*
X18740500Y-14831929D01*
X18726214Y-14889071D01*
X18711928Y-14917643D01*
X18697643Y-14931929D01*
X18669071Y-14946214D01*
X18640500Y-14946214D01*
X18611928Y-14931929D01*
X18597643Y-14917643D01*
X18583357Y-14889071D01*
X18569071Y-14831929D01*
X18569071Y-14760500D01*
X18583357Y-14703357D01*
X18597643Y-14674786D01*
X18611928Y-14660500D01*
X18640500Y-14646214D01*
X18869071Y-14917643D02*
X18883357Y-14931929D01*
X18869071Y-14946214D01*
X18854786Y-14931929D01*
X18869071Y-14917643D01*
X18869071Y-14946214D01*
X19069071Y-14646214D02*
X19097643Y-14646214D01*
X19126214Y-14660500D01*
X19140500Y-14674786D01*
X19154786Y-14703357D01*
X19169071Y-14760500D01*
X19169071Y-14831929D01*
X19154786Y-14889071D01*
X19140500Y-14917643D01*
X19126214Y-14931929D01*
X19097643Y-14946214D01*
X19069071Y-14946214D01*
X19040500Y-14931929D01*
X19026214Y-14917643D01*
X19011928Y-14889071D01*
X18997643Y-14831929D01*
X18997643Y-14760500D01*
X19011928Y-14703357D01*
X19026214Y-14674786D01*
X19040500Y-14660500D01*
X19069071Y-14646214D01*
X19269071Y-14646214D02*
X19454786Y-14646214D01*
X19354786Y-14760500D01*
X19397643Y-14760500D01*
X19426214Y-14774786D01*
X19440500Y-14789071D01*
X19454786Y-14817643D01*
X19454786Y-14889071D01*
X19440500Y-14917643D01*
X19426214Y-14931929D01*
X19397643Y-14946214D01*
X19311928Y-14946214D01*
X19283357Y-14931929D01*
X19269071Y-14917643D01*
X19740500Y-14946214D02*
X19569071Y-14946214D01*
X19654786Y-14946214D02*
X19654786Y-14646214D01*
X19626214Y-14689071D01*
X19597643Y-14717643D01*
X19569071Y-14731929D01*
X19854786Y-14646214D02*
X19854786Y-14703357D01*
X19969071Y-14646214D02*
X19969071Y-14703357D01*
X20411928Y-15060500D02*
X20397643Y-15046214D01*
X20369071Y-15003357D01*
X20354786Y-14974786D01*
X20340500Y-14931929D01*
X20326214Y-14860500D01*
X20326214Y-14803357D01*
X20340500Y-14731929D01*
X20354786Y-14689071D01*
X20369071Y-14660500D01*
X20397643Y-14617643D01*
X20411928Y-14603357D01*
X20569071Y-14774786D02*
X20540500Y-14760500D01*
X20526214Y-14746214D01*
X20511928Y-14717643D01*
X20511928Y-14703357D01*
X20526214Y-14674786D01*
X20540500Y-14660500D01*
X20569071Y-14646214D01*
X20626214Y-14646214D01*
X20654786Y-14660500D01*
X20669071Y-14674786D01*
X20683357Y-14703357D01*
X20683357Y-14717643D01*
X20669071Y-14746214D01*
X20654786Y-14760500D01*
X20626214Y-14774786D01*
X20569071Y-14774786D01*
X20540500Y-14789071D01*
X20526214Y-14803357D01*
X20511928Y-14831929D01*
X20511928Y-14889071D01*
X20526214Y-14917643D01*
X20540500Y-14931929D01*
X20569071Y-14946214D01*
X20626214Y-14946214D01*
X20654786Y-14931929D01*
X20669071Y-14917643D01*
X20683357Y-14889071D01*
X20683357Y-14831929D01*
X20669071Y-14803357D01*
X20654786Y-14789071D01*
X20626214Y-14774786D01*
X21040500Y-14946214D02*
X21040500Y-14646214D01*
X21169071Y-14946214D02*
X21169071Y-14789071D01*
X21154786Y-14760500D01*
X21126214Y-14746214D01*
X21083357Y-14746214D01*
X21054786Y-14760500D01*
X21040500Y-14774786D01*
X21354786Y-14946214D02*
X21326214Y-14931929D01*
X21311928Y-14917643D01*
X21297643Y-14889071D01*
X21297643Y-14803357D01*
X21311928Y-14774786D01*
X21326214Y-14760500D01*
X21354786Y-14746214D01*
X21397643Y-14746214D01*
X21426214Y-14760500D01*
X21440500Y-14774786D01*
X21454786Y-14803357D01*
X21454786Y-14889071D01*
X21440500Y-14917643D01*
X21426214Y-14931929D01*
X21397643Y-14946214D01*
X21354786Y-14946214D01*
X21626214Y-14946214D02*
X21597643Y-14931929D01*
X21583357Y-14903357D01*
X21583357Y-14646214D01*
X21854786Y-14931929D02*
X21826214Y-14946214D01*
X21769071Y-14946214D01*
X21740500Y-14931929D01*
X21726214Y-14903357D01*
X21726214Y-14789071D01*
X21740500Y-14760500D01*
X21769071Y-14746214D01*
X21826214Y-14746214D01*
X21854786Y-14760500D01*
X21869071Y-14789071D01*
X21869071Y-14817643D01*
X21726214Y-14846214D01*
X21983357Y-14931929D02*
X22011929Y-14946214D01*
X22069071Y-14946214D01*
X22097643Y-14931929D01*
X22111929Y-14903357D01*
X22111929Y-14889071D01*
X22097643Y-14860500D01*
X22069071Y-14846214D01*
X22026214Y-14846214D01*
X21997643Y-14831929D01*
X21983357Y-14803357D01*
X21983357Y-14789071D01*
X21997643Y-14760500D01*
X22026214Y-14746214D01*
X22069071Y-14746214D01*
X22097643Y-14760500D01*
X22211928Y-15060500D02*
X22226214Y-15046214D01*
X22254786Y-15003357D01*
X22269071Y-14974786D01*
X22283357Y-14931929D01*
X22297643Y-14860500D01*
X22297643Y-14803357D01*
X22283357Y-14731929D01*
X22269071Y-14689071D01*
X22254786Y-14660500D01*
X22226214Y-14617643D01*
X22211928Y-14603357D01*
X15740500Y-15206500D02*
G75*
G03X15740500Y-15206500I-50000J0D01*
G01*
X16169071Y-15342214D02*
X15997643Y-15342214D01*
X16083357Y-15342214D02*
X16083357Y-15042214D01*
X16054786Y-15085071D01*
X16026214Y-15113643D01*
X15997643Y-15127929D01*
X16297643Y-15313643D02*
X16311928Y-15327929D01*
X16297643Y-15342214D01*
X16283357Y-15327929D01*
X16297643Y-15313643D01*
X16297643Y-15342214D01*
X16497643Y-15042214D02*
X16526214Y-15042214D01*
X16554786Y-15056500D01*
X16569071Y-15070786D01*
X16583357Y-15099357D01*
X16597643Y-15156500D01*
X16597643Y-15227929D01*
X16583357Y-15285071D01*
X16569071Y-15313643D01*
X16554786Y-15327929D01*
X16526214Y-15342214D01*
X16497643Y-15342214D01*
X16469071Y-15327929D01*
X16454786Y-15313643D01*
X16440500Y-15285071D01*
X16426214Y-15227929D01*
X16426214Y-15156500D01*
X16440500Y-15099357D01*
X16454786Y-15070786D01*
X16469071Y-15056500D01*
X16497643Y-15042214D01*
X16783357Y-15042214D02*
X16811929Y-15042214D01*
X16840500Y-15056500D01*
X16854786Y-15070786D01*
X16869071Y-15099357D01*
X16883357Y-15156500D01*
X16883357Y-15227929D01*
X16869071Y-15285071D01*
X16854786Y-15313643D01*
X16840500Y-15327929D01*
X16811929Y-15342214D01*
X16783357Y-15342214D01*
X16754786Y-15327929D01*
X16740500Y-15313643D01*
X16726214Y-15285071D01*
X16711928Y-15227929D01*
X16711928Y-15156500D01*
X16726214Y-15099357D01*
X16740500Y-15070786D01*
X16754786Y-15056500D01*
X16783357Y-15042214D01*
X17011929Y-15342214D02*
X17011929Y-15142214D01*
X17011929Y-15170786D02*
X17026214Y-15156500D01*
X17054786Y-15142214D01*
X17097643Y-15142214D01*
X17126214Y-15156500D01*
X17140500Y-15185071D01*
X17140500Y-15342214D01*
X17140500Y-15185071D02*
X17154786Y-15156500D01*
X17183357Y-15142214D01*
X17226214Y-15142214D01*
X17254786Y-15156500D01*
X17269071Y-15185071D01*
X17269071Y-15342214D01*
X17411929Y-15342214D02*
X17411929Y-15142214D01*
X17411929Y-15170786D02*
X17426214Y-15156500D01*
X17454786Y-15142214D01*
X17497643Y-15142214D01*
X17526214Y-15156500D01*
X17540500Y-15185071D01*
X17540500Y-15342214D01*
X17540500Y-15185071D02*
X17554786Y-15156500D01*
X17583357Y-15142214D01*
X17626214Y-15142214D01*
X17654786Y-15156500D01*
X17669071Y-15185071D01*
X17669071Y-15342214D01*
X18254786Y-15027929D02*
X17997643Y-15413643D01*
X18640500Y-15042214D02*
X18669071Y-15042214D01*
X18697643Y-15056500D01*
X18711928Y-15070786D01*
X18726214Y-15099357D01*
X18740500Y-15156500D01*
X18740500Y-15227929D01*
X18726214Y-15285071D01*
X18711928Y-15313643D01*
X18697643Y-15327929D01*
X18669071Y-15342214D01*
X18640500Y-15342214D01*
X18611928Y-15327929D01*
X18597643Y-15313643D01*
X18583357Y-15285071D01*
X18569071Y-15227929D01*
X18569071Y-15156500D01*
X18583357Y-15099357D01*
X18597643Y-15070786D01*
X18611928Y-15056500D01*
X18640500Y-15042214D01*
X18869071Y-15313643D02*
X18883357Y-15327929D01*
X18869071Y-15342214D01*
X18854786Y-15327929D01*
X18869071Y-15313643D01*
X18869071Y-15342214D01*
X19069071Y-15042214D02*
X19097643Y-15042214D01*
X19126214Y-15056500D01*
X19140500Y-15070786D01*
X19154786Y-15099357D01*
X19169071Y-15156500D01*
X19169071Y-15227929D01*
X19154786Y-15285071D01*
X19140500Y-15313643D01*
X19126214Y-15327929D01*
X19097643Y-15342214D01*
X19069071Y-15342214D01*
X19040500Y-15327929D01*
X19026214Y-15313643D01*
X19011928Y-15285071D01*
X18997643Y-15227929D01*
X18997643Y-15156500D01*
X19011928Y-15099357D01*
X19026214Y-15070786D01*
X19040500Y-15056500D01*
X19069071Y-15042214D01*
X19269071Y-15042214D02*
X19454786Y-15042214D01*
X19354786Y-15156500D01*
X19397643Y-15156500D01*
X19426214Y-15170786D01*
X19440500Y-15185071D01*
X19454786Y-15213643D01*
X19454786Y-15285071D01*
X19440500Y-15313643D01*
X19426214Y-15327929D01*
X19397643Y-15342214D01*
X19311928Y-15342214D01*
X19283357Y-15327929D01*
X19269071Y-15313643D01*
X19597643Y-15342214D02*
X19654786Y-15342214D01*
X19683357Y-15327929D01*
X19697643Y-15313643D01*
X19726214Y-15270786D01*
X19740500Y-15213643D01*
X19740500Y-15099357D01*
X19726214Y-15070786D01*
X19711928Y-15056500D01*
X19683357Y-15042214D01*
X19626214Y-15042214D01*
X19597643Y-15056500D01*
X19583357Y-15070786D01*
X19569071Y-15099357D01*
X19569071Y-15170786D01*
X19583357Y-15199357D01*
X19597643Y-15213643D01*
X19626214Y-15227929D01*
X19683357Y-15227929D01*
X19711928Y-15213643D01*
X19726214Y-15199357D01*
X19740500Y-15170786D01*
X19854786Y-15042214D02*
X19854786Y-15099357D01*
X19969071Y-15042214D02*
X19969071Y-15099357D01*
X20411928Y-15456500D02*
X20397643Y-15442214D01*
X20369071Y-15399357D01*
X20354786Y-15370786D01*
X20340500Y-15327929D01*
X20326214Y-15256500D01*
X20326214Y-15199357D01*
X20340500Y-15127929D01*
X20354786Y-15085071D01*
X20369071Y-15056500D01*
X20397643Y-15013643D01*
X20411928Y-14999357D01*
X20654786Y-15042214D02*
X20597643Y-15042214D01*
X20569071Y-15056500D01*
X20554786Y-15070786D01*
X20526214Y-15113643D01*
X20511928Y-15170786D01*
X20511928Y-15285071D01*
X20526214Y-15313643D01*
X20540500Y-15327929D01*
X20569071Y-15342214D01*
X20626214Y-15342214D01*
X20654786Y-15327929D01*
X20669071Y-15313643D01*
X20683357Y-15285071D01*
X20683357Y-15213643D01*
X20669071Y-15185071D01*
X20654786Y-15170786D01*
X20626214Y-15156500D01*
X20569071Y-15156500D01*
X20540500Y-15170786D01*
X20526214Y-15185071D01*
X20511928Y-15213643D01*
X21040500Y-15342214D02*
X21040500Y-15042214D01*
X21169071Y-15342214D02*
X21169071Y-15185071D01*
X21154786Y-15156500D01*
X21126214Y-15142214D01*
X21083357Y-15142214D01*
X21054786Y-15156500D01*
X21040500Y-15170786D01*
X21354786Y-15342214D02*
X21326214Y-15327929D01*
X21311928Y-15313643D01*
X21297643Y-15285071D01*
X21297643Y-15199357D01*
X21311928Y-15170786D01*
X21326214Y-15156500D01*
X21354786Y-15142214D01*
X21397643Y-15142214D01*
X21426214Y-15156500D01*
X21440500Y-15170786D01*
X21454786Y-15199357D01*
X21454786Y-15285071D01*
X21440500Y-15313643D01*
X21426214Y-15327929D01*
X21397643Y-15342214D01*
X21354786Y-15342214D01*
X21626214Y-15342214D02*
X21597643Y-15327929D01*
X21583357Y-15299357D01*
X21583357Y-15042214D01*
X21854786Y-15327929D02*
X21826214Y-15342214D01*
X21769071Y-15342214D01*
X21740500Y-15327929D01*
X21726214Y-15299357D01*
X21726214Y-15185071D01*
X21740500Y-15156500D01*
X21769071Y-15142214D01*
X21826214Y-15142214D01*
X21854786Y-15156500D01*
X21869071Y-15185071D01*
X21869071Y-15213643D01*
X21726214Y-15242214D01*
X21983357Y-15327929D02*
X22011929Y-15342214D01*
X22069071Y-15342214D01*
X22097643Y-15327929D01*
X22111929Y-15299357D01*
X22111929Y-15285071D01*
X22097643Y-15256500D01*
X22069071Y-15242214D01*
X22026214Y-15242214D01*
X21997643Y-15227929D01*
X21983357Y-15199357D01*
X21983357Y-15185071D01*
X21997643Y-15156500D01*
X22026214Y-15142214D01*
X22069071Y-15142214D01*
X22097643Y-15156500D01*
X22211928Y-15456500D02*
X22226214Y-15442214D01*
X22254786Y-15399357D01*
X22269071Y-15370786D01*
X22283357Y-15327929D01*
X22297643Y-15256500D01*
X22297643Y-15199357D01*
X22283357Y-15127929D01*
X22269071Y-15085071D01*
X22254786Y-15056500D01*
X22226214Y-15013643D01*
X22211928Y-14999357D01*
X15690462Y-15552462D02*
X15690462Y-15652538D01*
X15640424Y-15602500D02*
X15740500Y-15602500D01*
X16169071Y-15738214D02*
X15997643Y-15738214D01*
X16083357Y-15738214D02*
X16083357Y-15438214D01*
X16054786Y-15481071D01*
X16026214Y-15509643D01*
X15997643Y-15523929D01*
X16297643Y-15709643D02*
X16311928Y-15723929D01*
X16297643Y-15738214D01*
X16283357Y-15723929D01*
X16297643Y-15709643D01*
X16297643Y-15738214D01*
X16497643Y-15438214D02*
X16526214Y-15438214D01*
X16554786Y-15452500D01*
X16569071Y-15466786D01*
X16583357Y-15495357D01*
X16597643Y-15552500D01*
X16597643Y-15623929D01*
X16583357Y-15681071D01*
X16569071Y-15709643D01*
X16554786Y-15723929D01*
X16526214Y-15738214D01*
X16497643Y-15738214D01*
X16469071Y-15723929D01*
X16454786Y-15709643D01*
X16440500Y-15681071D01*
X16426214Y-15623929D01*
X16426214Y-15552500D01*
X16440500Y-15495357D01*
X16454786Y-15466786D01*
X16469071Y-15452500D01*
X16497643Y-15438214D01*
X16783357Y-15438214D02*
X16811929Y-15438214D01*
X16840500Y-15452500D01*
X16854786Y-15466786D01*
X16869071Y-15495357D01*
X16883357Y-15552500D01*
X16883357Y-15623929D01*
X16869071Y-15681071D01*
X16854786Y-15709643D01*
X16840500Y-15723929D01*
X16811929Y-15738214D01*
X16783357Y-15738214D01*
X16754786Y-15723929D01*
X16740500Y-15709643D01*
X16726214Y-15681071D01*
X16711928Y-15623929D01*
X16711928Y-15552500D01*
X16726214Y-15495357D01*
X16740500Y-15466786D01*
X16754786Y-15452500D01*
X16783357Y-15438214D01*
X17011929Y-15738214D02*
X17011929Y-15538214D01*
X17011929Y-15566786D02*
X17026214Y-15552500D01*
X17054786Y-15538214D01*
X17097643Y-15538214D01*
X17126214Y-15552500D01*
X17140500Y-15581071D01*
X17140500Y-15738214D01*
X17140500Y-15581071D02*
X17154786Y-15552500D01*
X17183357Y-15538214D01*
X17226214Y-15538214D01*
X17254786Y-15552500D01*
X17269071Y-15581071D01*
X17269071Y-15738214D01*
X17411929Y-15738214D02*
X17411929Y-15538214D01*
X17411929Y-15566786D02*
X17426214Y-15552500D01*
X17454786Y-15538214D01*
X17497643Y-15538214D01*
X17526214Y-15552500D01*
X17540500Y-15581071D01*
X17540500Y-15738214D01*
X17540500Y-15581071D02*
X17554786Y-15552500D01*
X17583357Y-15538214D01*
X17626214Y-15538214D01*
X17654786Y-15552500D01*
X17669071Y-15581071D01*
X17669071Y-15738214D01*
X18254786Y-15423929D02*
X17997643Y-15809643D01*
X18640500Y-15438214D02*
X18669071Y-15438214D01*
X18697643Y-15452500D01*
X18711928Y-15466786D01*
X18726214Y-15495357D01*
X18740500Y-15552500D01*
X18740500Y-15623929D01*
X18726214Y-15681071D01*
X18711928Y-15709643D01*
X18697643Y-15723929D01*
X18669071Y-15738214D01*
X18640500Y-15738214D01*
X18611928Y-15723929D01*
X18597643Y-15709643D01*
X18583357Y-15681071D01*
X18569071Y-15623929D01*
X18569071Y-15552500D01*
X18583357Y-15495357D01*
X18597643Y-15466786D01*
X18611928Y-15452500D01*
X18640500Y-15438214D01*
X18869071Y-15709643D02*
X18883357Y-15723929D01*
X18869071Y-15738214D01*
X18854786Y-15723929D01*
X18869071Y-15709643D01*
X18869071Y-15738214D01*
X19069071Y-15438214D02*
X19097643Y-15438214D01*
X19126214Y-15452500D01*
X19140500Y-15466786D01*
X19154786Y-15495357D01*
X19169071Y-15552500D01*
X19169071Y-15623929D01*
X19154786Y-15681071D01*
X19140500Y-15709643D01*
X19126214Y-15723929D01*
X19097643Y-15738214D01*
X19069071Y-15738214D01*
X19040500Y-15723929D01*
X19026214Y-15709643D01*
X19011928Y-15681071D01*
X18997643Y-15623929D01*
X18997643Y-15552500D01*
X19011928Y-15495357D01*
X19026214Y-15466786D01*
X19040500Y-15452500D01*
X19069071Y-15438214D01*
X19269071Y-15438214D02*
X19454786Y-15438214D01*
X19354786Y-15552500D01*
X19397643Y-15552500D01*
X19426214Y-15566786D01*
X19440500Y-15581071D01*
X19454786Y-15609643D01*
X19454786Y-15681071D01*
X19440500Y-15709643D01*
X19426214Y-15723929D01*
X19397643Y-15738214D01*
X19311928Y-15738214D01*
X19283357Y-15723929D01*
X19269071Y-15709643D01*
X19597643Y-15738214D02*
X19654786Y-15738214D01*
X19683357Y-15723929D01*
X19697643Y-15709643D01*
X19726214Y-15666786D01*
X19740500Y-15609643D01*
X19740500Y-15495357D01*
X19726214Y-15466786D01*
X19711928Y-15452500D01*
X19683357Y-15438214D01*
X19626214Y-15438214D01*
X19597643Y-15452500D01*
X19583357Y-15466786D01*
X19569071Y-15495357D01*
X19569071Y-15566786D01*
X19583357Y-15595357D01*
X19597643Y-15609643D01*
X19626214Y-15623929D01*
X19683357Y-15623929D01*
X19711928Y-15609643D01*
X19726214Y-15595357D01*
X19740500Y-15566786D01*
X19854786Y-15438214D02*
X19854786Y-15495357D01*
X19969071Y-15438214D02*
X19969071Y-15495357D01*
X20411928Y-15852500D02*
X20397643Y-15838214D01*
X20369071Y-15795357D01*
X20354786Y-15766786D01*
X20340500Y-15723929D01*
X20326214Y-15652500D01*
X20326214Y-15595357D01*
X20340500Y-15523929D01*
X20354786Y-15481071D01*
X20369071Y-15452500D01*
X20397643Y-15409643D01*
X20411928Y-15395357D01*
X20511928Y-15466786D02*
X20526214Y-15452500D01*
X20554786Y-15438214D01*
X20626214Y-15438214D01*
X20654786Y-15452500D01*
X20669071Y-15466786D01*
X20683357Y-15495357D01*
X20683357Y-15523929D01*
X20669071Y-15566786D01*
X20497643Y-15738214D01*
X20683357Y-15738214D01*
X21040500Y-15738214D02*
X21040500Y-15438214D01*
X21169071Y-15738214D02*
X21169071Y-15581071D01*
X21154786Y-15552500D01*
X21126214Y-15538214D01*
X21083357Y-15538214D01*
X21054786Y-15552500D01*
X21040500Y-15566786D01*
X21354786Y-15738214D02*
X21326214Y-15723929D01*
X21311928Y-15709643D01*
X21297643Y-15681071D01*
X21297643Y-15595357D01*
X21311928Y-15566786D01*
X21326214Y-15552500D01*
X21354786Y-15538214D01*
X21397643Y-15538214D01*
X21426214Y-15552500D01*
X21440500Y-15566786D01*
X21454786Y-15595357D01*
X21454786Y-15681071D01*
X21440500Y-15709643D01*
X21426214Y-15723929D01*
X21397643Y-15738214D01*
X21354786Y-15738214D01*
X21626214Y-15738214D02*
X21597643Y-15723929D01*
X21583357Y-15695357D01*
X21583357Y-15438214D01*
X21854786Y-15723929D02*
X21826214Y-15738214D01*
X21769071Y-15738214D01*
X21740500Y-15723929D01*
X21726214Y-15695357D01*
X21726214Y-15581071D01*
X21740500Y-15552500D01*
X21769071Y-15538214D01*
X21826214Y-15538214D01*
X21854786Y-15552500D01*
X21869071Y-15581071D01*
X21869071Y-15609643D01*
X21726214Y-15638214D01*
X21983357Y-15723929D02*
X22011929Y-15738214D01*
X22069071Y-15738214D01*
X22097643Y-15723929D01*
X22111929Y-15695357D01*
X22111929Y-15681071D01*
X22097643Y-15652500D01*
X22069071Y-15638214D01*
X22026214Y-15638214D01*
X21997643Y-15623929D01*
X21983357Y-15595357D01*
X21983357Y-15581071D01*
X21997643Y-15552500D01*
X22026214Y-15538214D01*
X22069071Y-15538214D01*
X22097643Y-15552500D01*
X22211928Y-15852500D02*
X22226214Y-15838214D01*
X22254786Y-15795357D01*
X22269071Y-15766786D01*
X22283357Y-15723929D01*
X22297643Y-15652500D01*
X22297643Y-15595357D01*
X22283357Y-15523929D01*
X22269071Y-15481071D01*
X22254786Y-15452500D01*
X22226214Y-15409643D01*
X22211928Y-15395357D01*
X15725621Y-16034421D02*
X15725621Y-15962579D01*
X15653778Y-15962579D01*
X15653778Y-16034421D01*
X15725621Y-16034421D01*
X16169071Y-16134214D02*
X15997643Y-16134214D01*
X16083357Y-16134214D02*
X16083357Y-15834214D01*
X16054786Y-15877071D01*
X16026214Y-15905643D01*
X15997643Y-15919929D01*
X16297643Y-16105643D02*
X16311928Y-16119929D01*
X16297643Y-16134214D01*
X16283357Y-16119929D01*
X16297643Y-16105643D01*
X16297643Y-16134214D01*
X16497643Y-15834214D02*
X16526214Y-15834214D01*
X16554786Y-15848500D01*
X16569071Y-15862786D01*
X16583357Y-15891357D01*
X16597643Y-15948500D01*
X16597643Y-16019929D01*
X16583357Y-16077071D01*
X16569071Y-16105643D01*
X16554786Y-16119929D01*
X16526214Y-16134214D01*
X16497643Y-16134214D01*
X16469071Y-16119929D01*
X16454786Y-16105643D01*
X16440500Y-16077071D01*
X16426214Y-16019929D01*
X16426214Y-15948500D01*
X16440500Y-15891357D01*
X16454786Y-15862786D01*
X16469071Y-15848500D01*
X16497643Y-15834214D01*
X16711928Y-15862786D02*
X16726214Y-15848500D01*
X16754786Y-15834214D01*
X16826214Y-15834214D01*
X16854786Y-15848500D01*
X16869071Y-15862786D01*
X16883357Y-15891357D01*
X16883357Y-15919929D01*
X16869071Y-15962786D01*
X16697643Y-16134214D01*
X16883357Y-16134214D01*
X17011929Y-16134214D02*
X17011929Y-15934214D01*
X17011929Y-15962786D02*
X17026214Y-15948500D01*
X17054786Y-15934214D01*
X17097643Y-15934214D01*
X17126214Y-15948500D01*
X17140500Y-15977071D01*
X17140500Y-16134214D01*
X17140500Y-15977071D02*
X17154786Y-15948500D01*
X17183357Y-15934214D01*
X17226214Y-15934214D01*
X17254786Y-15948500D01*
X17269071Y-15977071D01*
X17269071Y-16134214D01*
X17411929Y-16134214D02*
X17411929Y-15934214D01*
X17411929Y-15962786D02*
X17426214Y-15948500D01*
X17454786Y-15934214D01*
X17497643Y-15934214D01*
X17526214Y-15948500D01*
X17540500Y-15977071D01*
X17540500Y-16134214D01*
X17540500Y-15977071D02*
X17554786Y-15948500D01*
X17583357Y-15934214D01*
X17626214Y-15934214D01*
X17654786Y-15948500D01*
X17669071Y-15977071D01*
X17669071Y-16134214D01*
X18254786Y-15819929D02*
X17997643Y-16205643D01*
X18640500Y-15834214D02*
X18669071Y-15834214D01*
X18697643Y-15848500D01*
X18711928Y-15862786D01*
X18726214Y-15891357D01*
X18740500Y-15948500D01*
X18740500Y-16019929D01*
X18726214Y-16077071D01*
X18711928Y-16105643D01*
X18697643Y-16119929D01*
X18669071Y-16134214D01*
X18640500Y-16134214D01*
X18611928Y-16119929D01*
X18597643Y-16105643D01*
X18583357Y-16077071D01*
X18569071Y-16019929D01*
X18569071Y-15948500D01*
X18583357Y-15891357D01*
X18597643Y-15862786D01*
X18611928Y-15848500D01*
X18640500Y-15834214D01*
X18869071Y-16105643D02*
X18883357Y-16119929D01*
X18869071Y-16134214D01*
X18854786Y-16119929D01*
X18869071Y-16105643D01*
X18869071Y-16134214D01*
X19069071Y-15834214D02*
X19097643Y-15834214D01*
X19126214Y-15848500D01*
X19140500Y-15862786D01*
X19154786Y-15891357D01*
X19169071Y-15948500D01*
X19169071Y-16019929D01*
X19154786Y-16077071D01*
X19140500Y-16105643D01*
X19126214Y-16119929D01*
X19097643Y-16134214D01*
X19069071Y-16134214D01*
X19040500Y-16119929D01*
X19026214Y-16105643D01*
X19011928Y-16077071D01*
X18997643Y-16019929D01*
X18997643Y-15948500D01*
X19011928Y-15891357D01*
X19026214Y-15862786D01*
X19040500Y-15848500D01*
X19069071Y-15834214D01*
X19426214Y-15934214D02*
X19426214Y-16134214D01*
X19354786Y-15819929D02*
X19283357Y-16034214D01*
X19469071Y-16034214D01*
X19640500Y-15834214D02*
X19669071Y-15834214D01*
X19697643Y-15848500D01*
X19711928Y-15862786D01*
X19726214Y-15891357D01*
X19740500Y-15948500D01*
X19740500Y-16019929D01*
X19726214Y-16077071D01*
X19711928Y-16105643D01*
X19697643Y-16119929D01*
X19669071Y-16134214D01*
X19640500Y-16134214D01*
X19611928Y-16119929D01*
X19597643Y-16105643D01*
X19583357Y-16077071D01*
X19569071Y-16019929D01*
X19569071Y-15948500D01*
X19583357Y-15891357D01*
X19597643Y-15862786D01*
X19611928Y-15848500D01*
X19640500Y-15834214D01*
X19854786Y-15834214D02*
X19854786Y-15891357D01*
X19969071Y-15834214D02*
X19969071Y-15891357D01*
X20411928Y-16248500D02*
X20397643Y-16234214D01*
X20369071Y-16191357D01*
X20354786Y-16162786D01*
X20340500Y-16119929D01*
X20326214Y-16048500D01*
X20326214Y-15991357D01*
X20340500Y-15919929D01*
X20354786Y-15877071D01*
X20369071Y-15848500D01*
X20397643Y-15805643D01*
X20411928Y-15791357D01*
X20654786Y-15834214D02*
X20597643Y-15834214D01*
X20569071Y-15848500D01*
X20554786Y-15862786D01*
X20526214Y-15905643D01*
X20511928Y-15962786D01*
X20511928Y-16077071D01*
X20526214Y-16105643D01*
X20540500Y-16119929D01*
X20569071Y-16134214D01*
X20626214Y-16134214D01*
X20654786Y-16119929D01*
X20669071Y-16105643D01*
X20683357Y-16077071D01*
X20683357Y-16005643D01*
X20669071Y-15977071D01*
X20654786Y-15962786D01*
X20626214Y-15948500D01*
X20569071Y-15948500D01*
X20540500Y-15962786D01*
X20526214Y-15977071D01*
X20511928Y-16005643D01*
X21040500Y-16134214D02*
X21040500Y-15834214D01*
X21169071Y-16134214D02*
X21169071Y-15977071D01*
X21154786Y-15948500D01*
X21126214Y-15934214D01*
X21083357Y-15934214D01*
X21054786Y-15948500D01*
X21040500Y-15962786D01*
X21354786Y-16134214D02*
X21326214Y-16119929D01*
X21311928Y-16105643D01*
X21297643Y-16077071D01*
X21297643Y-15991357D01*
X21311928Y-15962786D01*
X21326214Y-15948500D01*
X21354786Y-15934214D01*
X21397643Y-15934214D01*
X21426214Y-15948500D01*
X21440500Y-15962786D01*
X21454786Y-15991357D01*
X21454786Y-16077071D01*
X21440500Y-16105643D01*
X21426214Y-16119929D01*
X21397643Y-16134214D01*
X21354786Y-16134214D01*
X21626214Y-16134214D02*
X21597643Y-16119929D01*
X21583357Y-16091357D01*
X21583357Y-15834214D01*
X21854786Y-16119929D02*
X21826214Y-16134214D01*
X21769071Y-16134214D01*
X21740500Y-16119929D01*
X21726214Y-16091357D01*
X21726214Y-15977071D01*
X21740500Y-15948500D01*
X21769071Y-15934214D01*
X21826214Y-15934214D01*
X21854786Y-15948500D01*
X21869071Y-15977071D01*
X21869071Y-16005643D01*
X21726214Y-16034214D01*
X21983357Y-16119929D02*
X22011929Y-16134214D01*
X22069071Y-16134214D01*
X22097643Y-16119929D01*
X22111929Y-16091357D01*
X22111929Y-16077071D01*
X22097643Y-16048500D01*
X22069071Y-16034214D01*
X22026214Y-16034214D01*
X21997643Y-16019929D01*
X21983357Y-15991357D01*
X21983357Y-15977071D01*
X21997643Y-15948500D01*
X22026214Y-15934214D01*
X22069071Y-15934214D01*
X22097643Y-15948500D01*
X22211928Y-16248500D02*
X22226214Y-16234214D01*
X22254786Y-16191357D01*
X22269071Y-16162786D01*
X22283357Y-16119929D01*
X22297643Y-16048500D01*
X22297643Y-15991357D01*
X22283357Y-15919929D01*
X22269071Y-15877071D01*
X22254786Y-15848500D01*
X22226214Y-15805643D01*
X22211928Y-15791357D01*
X15680500Y-16454500D02*
X15740500Y-16394500D01*
X15680500Y-16334500D01*
X15620500Y-16394500D01*
X15680500Y-16454500D01*
X16169071Y-16530214D02*
X15997643Y-16530214D01*
X16083357Y-16530214D02*
X16083357Y-16230214D01*
X16054786Y-16273071D01*
X16026214Y-16301643D01*
X15997643Y-16315929D01*
X16297643Y-16501643D02*
X16311928Y-16515929D01*
X16297643Y-16530214D01*
X16283357Y-16515929D01*
X16297643Y-16501643D01*
X16297643Y-16530214D01*
X16426214Y-16258786D02*
X16440500Y-16244500D01*
X16469071Y-16230214D01*
X16540500Y-16230214D01*
X16569071Y-16244500D01*
X16583357Y-16258786D01*
X16597643Y-16287357D01*
X16597643Y-16315929D01*
X16583357Y-16358786D01*
X16411928Y-16530214D01*
X16597643Y-16530214D01*
X16783357Y-16230214D02*
X16811929Y-16230214D01*
X16840500Y-16244500D01*
X16854786Y-16258786D01*
X16869071Y-16287357D01*
X16883357Y-16344500D01*
X16883357Y-16415929D01*
X16869071Y-16473071D01*
X16854786Y-16501643D01*
X16840500Y-16515929D01*
X16811929Y-16530214D01*
X16783357Y-16530214D01*
X16754786Y-16515929D01*
X16740500Y-16501643D01*
X16726214Y-16473071D01*
X16711928Y-16415929D01*
X16711928Y-16344500D01*
X16726214Y-16287357D01*
X16740500Y-16258786D01*
X16754786Y-16244500D01*
X16783357Y-16230214D01*
X17011929Y-16530214D02*
X17011929Y-16330214D01*
X17011929Y-16358786D02*
X17026214Y-16344500D01*
X17054786Y-16330214D01*
X17097643Y-16330214D01*
X17126214Y-16344500D01*
X17140500Y-16373071D01*
X17140500Y-16530214D01*
X17140500Y-16373071D02*
X17154786Y-16344500D01*
X17183357Y-16330214D01*
X17226214Y-16330214D01*
X17254786Y-16344500D01*
X17269071Y-16373071D01*
X17269071Y-16530214D01*
X17411929Y-16530214D02*
X17411929Y-16330214D01*
X17411929Y-16358786D02*
X17426214Y-16344500D01*
X17454786Y-16330214D01*
X17497643Y-16330214D01*
X17526214Y-16344500D01*
X17540500Y-16373071D01*
X17540500Y-16530214D01*
X17540500Y-16373071D02*
X17554786Y-16344500D01*
X17583357Y-16330214D01*
X17626214Y-16330214D01*
X17654786Y-16344500D01*
X17669071Y-16373071D01*
X17669071Y-16530214D01*
X18254786Y-16215929D02*
X17997643Y-16601643D01*
X18640500Y-16230214D02*
X18669071Y-16230214D01*
X18697643Y-16244500D01*
X18711928Y-16258786D01*
X18726214Y-16287357D01*
X18740500Y-16344500D01*
X18740500Y-16415929D01*
X18726214Y-16473071D01*
X18711928Y-16501643D01*
X18697643Y-16515929D01*
X18669071Y-16530214D01*
X18640500Y-16530214D01*
X18611928Y-16515929D01*
X18597643Y-16501643D01*
X18583357Y-16473071D01*
X18569071Y-16415929D01*
X18569071Y-16344500D01*
X18583357Y-16287357D01*
X18597643Y-16258786D01*
X18611928Y-16244500D01*
X18640500Y-16230214D01*
X18869071Y-16501643D02*
X18883357Y-16515929D01*
X18869071Y-16530214D01*
X18854786Y-16515929D01*
X18869071Y-16501643D01*
X18869071Y-16530214D01*
X19069071Y-16230214D02*
X19097643Y-16230214D01*
X19126214Y-16244500D01*
X19140500Y-16258786D01*
X19154786Y-16287357D01*
X19169071Y-16344500D01*
X19169071Y-16415929D01*
X19154786Y-16473071D01*
X19140500Y-16501643D01*
X19126214Y-16515929D01*
X19097643Y-16530214D01*
X19069071Y-16530214D01*
X19040500Y-16515929D01*
X19026214Y-16501643D01*
X19011928Y-16473071D01*
X18997643Y-16415929D01*
X18997643Y-16344500D01*
X19011928Y-16287357D01*
X19026214Y-16258786D01*
X19040500Y-16244500D01*
X19069071Y-16230214D01*
X19426214Y-16330214D02*
X19426214Y-16530214D01*
X19354786Y-16215929D02*
X19283357Y-16430214D01*
X19469071Y-16430214D01*
X19554786Y-16230214D02*
X19754786Y-16230214D01*
X19626214Y-16530214D01*
X19854786Y-16230214D02*
X19854786Y-16287357D01*
X19969071Y-16230214D02*
X19969071Y-16287357D01*
X20411928Y-16644500D02*
X20397643Y-16630214D01*
X20369071Y-16587357D01*
X20354786Y-16558786D01*
X20340500Y-16515929D01*
X20326214Y-16444500D01*
X20326214Y-16387357D01*
X20340500Y-16315929D01*
X20354786Y-16273071D01*
X20369071Y-16244500D01*
X20397643Y-16201643D01*
X20411928Y-16187357D01*
X20654786Y-16330214D02*
X20654786Y-16530214D01*
X20583357Y-16215929D02*
X20511928Y-16430214D01*
X20697643Y-16430214D01*
X21040500Y-16530214D02*
X21040500Y-16230214D01*
X21169071Y-16530214D02*
X21169071Y-16373071D01*
X21154786Y-16344500D01*
X21126214Y-16330214D01*
X21083357Y-16330214D01*
X21054786Y-16344500D01*
X21040500Y-16358786D01*
X21354786Y-16530214D02*
X21326214Y-16515929D01*
X21311928Y-16501643D01*
X21297643Y-16473071D01*
X21297643Y-16387357D01*
X21311928Y-16358786D01*
X21326214Y-16344500D01*
X21354786Y-16330214D01*
X21397643Y-16330214D01*
X21426214Y-16344500D01*
X21440500Y-16358786D01*
X21454786Y-16387357D01*
X21454786Y-16473071D01*
X21440500Y-16501643D01*
X21426214Y-16515929D01*
X21397643Y-16530214D01*
X21354786Y-16530214D01*
X21626214Y-16530214D02*
X21597643Y-16515929D01*
X21583357Y-16487357D01*
X21583357Y-16230214D01*
X21854786Y-16515929D02*
X21826214Y-16530214D01*
X21769071Y-16530214D01*
X21740500Y-16515929D01*
X21726214Y-16487357D01*
X21726214Y-16373071D01*
X21740500Y-16344500D01*
X21769071Y-16330214D01*
X21826214Y-16330214D01*
X21854786Y-16344500D01*
X21869071Y-16373071D01*
X21869071Y-16401643D01*
X21726214Y-16430214D01*
X21983357Y-16515929D02*
X22011929Y-16530214D01*
X22069071Y-16530214D01*
X22097643Y-16515929D01*
X22111929Y-16487357D01*
X22111929Y-16473071D01*
X22097643Y-16444500D01*
X22069071Y-16430214D01*
X22026214Y-16430214D01*
X21997643Y-16415929D01*
X21983357Y-16387357D01*
X21983357Y-16373071D01*
X21997643Y-16344500D01*
X22026214Y-16330214D01*
X22069071Y-16330214D01*
X22097643Y-16344500D01*
X22211928Y-16644500D02*
X22226214Y-16630214D01*
X22254786Y-16587357D01*
X22269071Y-16558786D01*
X22283357Y-16515929D01*
X22297643Y-16444500D01*
X22297643Y-16387357D01*
X22283357Y-16315929D01*
X22269071Y-16273071D01*
X22254786Y-16244500D01*
X22226214Y-16201643D01*
X22211928Y-16187357D01*
X15420500Y-16630500D02*
X15740500Y-16950500D01*
X15740500Y-16630500D02*
X15420500Y-16950500D01*
X15740500Y-16790500D02*
G75*
G03X15740500Y-16790500I-160000J0D01*
G01*
X15983357Y-16626214D02*
X16169071Y-16626214D01*
X16069071Y-16740500D01*
X16111928Y-16740500D01*
X16140500Y-16754786D01*
X16154786Y-16769071D01*
X16169071Y-16797643D01*
X16169071Y-16869072D01*
X16154786Y-16897643D01*
X16140500Y-16911929D01*
X16111928Y-16926214D01*
X16026214Y-16926214D01*
X15997643Y-16911929D01*
X15983357Y-16897643D01*
X16297643Y-16897643D02*
X16311928Y-16911929D01*
X16297643Y-16926214D01*
X16283357Y-16911929D01*
X16297643Y-16897643D01*
X16297643Y-16926214D01*
X16426214Y-16654786D02*
X16440500Y-16640500D01*
X16469071Y-16626214D01*
X16540500Y-16626214D01*
X16569071Y-16640500D01*
X16583357Y-16654786D01*
X16597643Y-16683357D01*
X16597643Y-16711929D01*
X16583357Y-16754786D01*
X16411928Y-16926214D01*
X16597643Y-16926214D01*
X16783357Y-16626214D02*
X16811929Y-16626214D01*
X16840500Y-16640500D01*
X16854786Y-16654786D01*
X16869071Y-16683357D01*
X16883357Y-16740500D01*
X16883357Y-16811929D01*
X16869071Y-16869072D01*
X16854786Y-16897643D01*
X16840500Y-16911929D01*
X16811929Y-16926214D01*
X16783357Y-16926214D01*
X16754786Y-16911929D01*
X16740500Y-16897643D01*
X16726214Y-16869072D01*
X16711928Y-16811929D01*
X16711928Y-16740500D01*
X16726214Y-16683357D01*
X16740500Y-16654786D01*
X16754786Y-16640500D01*
X16783357Y-16626214D01*
X17011929Y-16926214D02*
X17011929Y-16726214D01*
X17011929Y-16754786D02*
X17026214Y-16740500D01*
X17054786Y-16726214D01*
X17097643Y-16726214D01*
X17126214Y-16740500D01*
X17140500Y-16769071D01*
X17140500Y-16926214D01*
X17140500Y-16769071D02*
X17154786Y-16740500D01*
X17183357Y-16726214D01*
X17226214Y-16726214D01*
X17254786Y-16740500D01*
X17269071Y-16769071D01*
X17269071Y-16926214D01*
X17411929Y-16926214D02*
X17411929Y-16726214D01*
X17411929Y-16754786D02*
X17426214Y-16740500D01*
X17454786Y-16726214D01*
X17497643Y-16726214D01*
X17526214Y-16740500D01*
X17540500Y-16769071D01*
X17540500Y-16926214D01*
X17540500Y-16769071D02*
X17554786Y-16740500D01*
X17583357Y-16726214D01*
X17626214Y-16726214D01*
X17654786Y-16740500D01*
X17669071Y-16769071D01*
X17669071Y-16926214D01*
X18254786Y-16611929D02*
X17997643Y-16997643D01*
X18640500Y-16626214D02*
X18669071Y-16626214D01*
X18697643Y-16640500D01*
X18711928Y-16654786D01*
X18726214Y-16683357D01*
X18740500Y-16740500D01*
X18740500Y-16811929D01*
X18726214Y-16869072D01*
X18711928Y-16897643D01*
X18697643Y-16911929D01*
X18669071Y-16926214D01*
X18640500Y-16926214D01*
X18611928Y-16911929D01*
X18597643Y-16897643D01*
X18583357Y-16869072D01*
X18569071Y-16811929D01*
X18569071Y-16740500D01*
X18583357Y-16683357D01*
X18597643Y-16654786D01*
X18611928Y-16640500D01*
X18640500Y-16626214D01*
X18869071Y-16897643D02*
X18883357Y-16911929D01*
X18869071Y-16926214D01*
X18854786Y-16911929D01*
X18869071Y-16897643D01*
X18869071Y-16926214D01*
X19169071Y-16926214D02*
X18997643Y-16926214D01*
X19083357Y-16926214D02*
X19083357Y-16626214D01*
X19054786Y-16669071D01*
X19026214Y-16697643D01*
X18997643Y-16711929D01*
X19283357Y-16654786D02*
X19297643Y-16640500D01*
X19326214Y-16626214D01*
X19397643Y-16626214D01*
X19426214Y-16640500D01*
X19440500Y-16654786D01*
X19454786Y-16683357D01*
X19454786Y-16711929D01*
X19440500Y-16754786D01*
X19269071Y-16926214D01*
X19454786Y-16926214D01*
X19711928Y-16626214D02*
X19654786Y-16626214D01*
X19626214Y-16640500D01*
X19611928Y-16654786D01*
X19583357Y-16697643D01*
X19569071Y-16754786D01*
X19569071Y-16869072D01*
X19583357Y-16897643D01*
X19597643Y-16911929D01*
X19626214Y-16926214D01*
X19683357Y-16926214D01*
X19711928Y-16911929D01*
X19726214Y-16897643D01*
X19740500Y-16869072D01*
X19740500Y-16797643D01*
X19726214Y-16769071D01*
X19711928Y-16754786D01*
X19683357Y-16740500D01*
X19626214Y-16740500D01*
X19597643Y-16754786D01*
X19583357Y-16769071D01*
X19569071Y-16797643D01*
X19854786Y-16626214D02*
X19854786Y-16683357D01*
X19969071Y-16626214D02*
X19969071Y-16683357D01*
X20411928Y-17040500D02*
X20397643Y-17026214D01*
X20369071Y-16983357D01*
X20354786Y-16954786D01*
X20340500Y-16911929D01*
X20326214Y-16840500D01*
X20326214Y-16783357D01*
X20340500Y-16711929D01*
X20354786Y-16669071D01*
X20369071Y-16640500D01*
X20397643Y-16597643D01*
X20411928Y-16583357D01*
X20511928Y-16654786D02*
X20526214Y-16640500D01*
X20554786Y-16626214D01*
X20626214Y-16626214D01*
X20654786Y-16640500D01*
X20669071Y-16654786D01*
X20683357Y-16683357D01*
X20683357Y-16711929D01*
X20669071Y-16754786D01*
X20497643Y-16926214D01*
X20683357Y-16926214D01*
X21040500Y-16926214D02*
X21040500Y-16626214D01*
X21169071Y-16926214D02*
X21169071Y-16769071D01*
X21154786Y-16740500D01*
X21126214Y-16726214D01*
X21083357Y-16726214D01*
X21054786Y-16740500D01*
X21040500Y-16754786D01*
X21354786Y-16926214D02*
X21326214Y-16911929D01*
X21311928Y-16897643D01*
X21297643Y-16869072D01*
X21297643Y-16783357D01*
X21311928Y-16754786D01*
X21326214Y-16740500D01*
X21354786Y-16726214D01*
X21397643Y-16726214D01*
X21426214Y-16740500D01*
X21440500Y-16754786D01*
X21454786Y-16783357D01*
X21454786Y-16869072D01*
X21440500Y-16897643D01*
X21426214Y-16911929D01*
X21397643Y-16926214D01*
X21354786Y-16926214D01*
X21626214Y-16926214D02*
X21597643Y-16911929D01*
X21583357Y-16883357D01*
X21583357Y-16626214D01*
X21854786Y-16911929D02*
X21826214Y-16926214D01*
X21769071Y-16926214D01*
X21740500Y-16911929D01*
X21726214Y-16883357D01*
X21726214Y-16769071D01*
X21740500Y-16740500D01*
X21769071Y-16726214D01*
X21826214Y-16726214D01*
X21854786Y-16740500D01*
X21869071Y-16769071D01*
X21869071Y-16797643D01*
X21726214Y-16826214D01*
X21983357Y-16911929D02*
X22011929Y-16926214D01*
X22069071Y-16926214D01*
X22097643Y-16911929D01*
X22111929Y-16883357D01*
X22111929Y-16869072D01*
X22097643Y-16840500D01*
X22069071Y-16826214D01*
X22026214Y-16826214D01*
X21997643Y-16811929D01*
X21983357Y-16783357D01*
X21983357Y-16769071D01*
X21997643Y-16740500D01*
X22026214Y-16726214D01*
X22069071Y-16726214D01*
X22097643Y-16740500D01*
X22211928Y-17040500D02*
X22226214Y-17026214D01*
X22254786Y-16983357D01*
X22269071Y-16954786D01*
X22283357Y-16911929D01*
X22297643Y-16840500D01*
X22297643Y-16783357D01*
X22283357Y-16711929D01*
X22269071Y-16669071D01*
X22254786Y-16640500D01*
X22226214Y-16597643D01*
X22211928Y-16583357D01*
X15390500Y-17065500D02*
X15740500Y-17415500D01*
X15740500Y-17065500D02*
X15390500Y-17415500D01*
X15565500Y-17065500D02*
X15565500Y-17415500D01*
X15390500Y-17240500D02*
X15740500Y-17240500D01*
X15983357Y-17076214D02*
X16169071Y-17076214D01*
X16069071Y-17190500D01*
X16111928Y-17190500D01*
X16140500Y-17204786D01*
X16154786Y-17219072D01*
X16169071Y-17247643D01*
X16169071Y-17319072D01*
X16154786Y-17347643D01*
X16140500Y-17361929D01*
X16111928Y-17376214D01*
X16026214Y-17376214D01*
X15997643Y-17361929D01*
X15983357Y-17347643D01*
X16297643Y-17347643D02*
X16311928Y-17361929D01*
X16297643Y-17376214D01*
X16283357Y-17361929D01*
X16297643Y-17347643D01*
X16297643Y-17376214D01*
X16583357Y-17076214D02*
X16440500Y-17076214D01*
X16426214Y-17219072D01*
X16440500Y-17204786D01*
X16469071Y-17190500D01*
X16540500Y-17190500D01*
X16569071Y-17204786D01*
X16583357Y-17219072D01*
X16597643Y-17247643D01*
X16597643Y-17319072D01*
X16583357Y-17347643D01*
X16569071Y-17361929D01*
X16540500Y-17376214D01*
X16469071Y-17376214D01*
X16440500Y-17361929D01*
X16426214Y-17347643D01*
X16783357Y-17076214D02*
X16811929Y-17076214D01*
X16840500Y-17090500D01*
X16854786Y-17104786D01*
X16869071Y-17133357D01*
X16883357Y-17190500D01*
X16883357Y-17261929D01*
X16869071Y-17319072D01*
X16854786Y-17347643D01*
X16840500Y-17361929D01*
X16811929Y-17376214D01*
X16783357Y-17376214D01*
X16754786Y-17361929D01*
X16740500Y-17347643D01*
X16726214Y-17319072D01*
X16711928Y-17261929D01*
X16711928Y-17190500D01*
X16726214Y-17133357D01*
X16740500Y-17104786D01*
X16754786Y-17090500D01*
X16783357Y-17076214D01*
X17011929Y-17376214D02*
X17011929Y-17176214D01*
X17011929Y-17204786D02*
X17026214Y-17190500D01*
X17054786Y-17176214D01*
X17097643Y-17176214D01*
X17126214Y-17190500D01*
X17140500Y-17219072D01*
X17140500Y-17376214D01*
X17140500Y-17219072D02*
X17154786Y-17190500D01*
X17183357Y-17176214D01*
X17226214Y-17176214D01*
X17254786Y-17190500D01*
X17269071Y-17219072D01*
X17269071Y-17376214D01*
X17411929Y-17376214D02*
X17411929Y-17176214D01*
X17411929Y-17204786D02*
X17426214Y-17190500D01*
X17454786Y-17176214D01*
X17497643Y-17176214D01*
X17526214Y-17190500D01*
X17540500Y-17219072D01*
X17540500Y-17376214D01*
X17540500Y-17219072D02*
X17554786Y-17190500D01*
X17583357Y-17176214D01*
X17626214Y-17176214D01*
X17654786Y-17190500D01*
X17669071Y-17219072D01*
X17669071Y-17376214D01*
X18254786Y-17061929D02*
X17997643Y-17447643D01*
X18640500Y-17076214D02*
X18669071Y-17076214D01*
X18697643Y-17090500D01*
X18711928Y-17104786D01*
X18726214Y-17133357D01*
X18740500Y-17190500D01*
X18740500Y-17261929D01*
X18726214Y-17319072D01*
X18711928Y-17347643D01*
X18697643Y-17361929D01*
X18669071Y-17376214D01*
X18640500Y-17376214D01*
X18611928Y-17361929D01*
X18597643Y-17347643D01*
X18583357Y-17319072D01*
X18569071Y-17261929D01*
X18569071Y-17190500D01*
X18583357Y-17133357D01*
X18597643Y-17104786D01*
X18611928Y-17090500D01*
X18640500Y-17076214D01*
X18869071Y-17347643D02*
X18883357Y-17361929D01*
X18869071Y-17376214D01*
X18854786Y-17361929D01*
X18869071Y-17347643D01*
X18869071Y-17376214D01*
X19169071Y-17376214D02*
X18997643Y-17376214D01*
X19083357Y-17376214D02*
X19083357Y-17076214D01*
X19054786Y-17119072D01*
X19026214Y-17147643D01*
X18997643Y-17161929D01*
X19269071Y-17076214D02*
X19454786Y-17076214D01*
X19354786Y-17190500D01*
X19397643Y-17190500D01*
X19426214Y-17204786D01*
X19440500Y-17219072D01*
X19454786Y-17247643D01*
X19454786Y-17319072D01*
X19440500Y-17347643D01*
X19426214Y-17361929D01*
X19397643Y-17376214D01*
X19311928Y-17376214D01*
X19283357Y-17361929D01*
X19269071Y-17347643D01*
X19626214Y-17204786D02*
X19597643Y-17190500D01*
X19583357Y-17176214D01*
X19569071Y-17147643D01*
X19569071Y-17133357D01*
X19583357Y-17104786D01*
X19597643Y-17090500D01*
X19626214Y-17076214D01*
X19683357Y-17076214D01*
X19711928Y-17090500D01*
X19726214Y-17104786D01*
X19740500Y-17133357D01*
X19740500Y-17147643D01*
X19726214Y-17176214D01*
X19711928Y-17190500D01*
X19683357Y-17204786D01*
X19626214Y-17204786D01*
X19597643Y-17219072D01*
X19583357Y-17233357D01*
X19569071Y-17261929D01*
X19569071Y-17319072D01*
X19583357Y-17347643D01*
X19597643Y-17361929D01*
X19626214Y-17376214D01*
X19683357Y-17376214D01*
X19711928Y-17361929D01*
X19726214Y-17347643D01*
X19740500Y-17319072D01*
X19740500Y-17261929D01*
X19726214Y-17233357D01*
X19711928Y-17219072D01*
X19683357Y-17204786D01*
X19854786Y-17076214D02*
X19854786Y-17133357D01*
X19969071Y-17076214D02*
X19969071Y-17133357D01*
X20411928Y-17490500D02*
X20397643Y-17476214D01*
X20369071Y-17433357D01*
X20354786Y-17404786D01*
X20340500Y-17361929D01*
X20326214Y-17290500D01*
X20326214Y-17233357D01*
X20340500Y-17161929D01*
X20354786Y-17119072D01*
X20369071Y-17090500D01*
X20397643Y-17047643D01*
X20411928Y-17033357D01*
X20654786Y-17176214D02*
X20654786Y-17376214D01*
X20583357Y-17061929D02*
X20511928Y-17276214D01*
X20697643Y-17276214D01*
X21040500Y-17376214D02*
X21040500Y-17076214D01*
X21169071Y-17376214D02*
X21169071Y-17219072D01*
X21154786Y-17190500D01*
X21126214Y-17176214D01*
X21083357Y-17176214D01*
X21054786Y-17190500D01*
X21040500Y-17204786D01*
X21354786Y-17376214D02*
X21326214Y-17361929D01*
X21311928Y-17347643D01*
X21297643Y-17319072D01*
X21297643Y-17233357D01*
X21311928Y-17204786D01*
X21326214Y-17190500D01*
X21354786Y-17176214D01*
X21397643Y-17176214D01*
X21426214Y-17190500D01*
X21440500Y-17204786D01*
X21454786Y-17233357D01*
X21454786Y-17319072D01*
X21440500Y-17347643D01*
X21426214Y-17361929D01*
X21397643Y-17376214D01*
X21354786Y-17376214D01*
X21626214Y-17376214D02*
X21597643Y-17361929D01*
X21583357Y-17333357D01*
X21583357Y-17076214D01*
X21854786Y-17361929D02*
X21826214Y-17376214D01*
X21769071Y-17376214D01*
X21740500Y-17361929D01*
X21726214Y-17333357D01*
X21726214Y-17219072D01*
X21740500Y-17190500D01*
X21769071Y-17176214D01*
X21826214Y-17176214D01*
X21854786Y-17190500D01*
X21869071Y-17219072D01*
X21869071Y-17247643D01*
X21726214Y-17276214D01*
X21983357Y-17361929D02*
X22011929Y-17376214D01*
X22069071Y-17376214D01*
X22097643Y-17361929D01*
X22111929Y-17333357D01*
X22111929Y-17319072D01*
X22097643Y-17290500D01*
X22069071Y-17276214D01*
X22026214Y-17276214D01*
X21997643Y-17261929D01*
X21983357Y-17233357D01*
X21983357Y-17219072D01*
X21997643Y-17190500D01*
X22026214Y-17176214D01*
X22069071Y-17176214D01*
X22097643Y-17190500D01*
X22211928Y-17490500D02*
X22226214Y-17476214D01*
X22254786Y-17433357D01*
X22269071Y-17404786D01*
X22283357Y-17361929D01*
X22297643Y-17290500D01*
X22297643Y-17233357D01*
X22283357Y-17161929D01*
X22269071Y-17119072D01*
X22254786Y-17090500D01*
X22226214Y-17047643D01*
X22211928Y-17033357D01*
M02*
