G04 #@! TF.FileFunction,Copper,L2,Bot,Signal*
%FSLAX46Y46*%
G04 Gerber Fmt 4.6, Leading zero omitted, Abs format (unit mm)*
G04 Created by KiCad (PCBNEW 4.0.5+dfsg1-4) date Sun Apr 16 21:16:24 2017*
%MOMM*%
%LPD*%
G01*
G04 APERTURE LIST*
%ADD10C,0.100000*%
%ADD11R,2.000000X1.600000*%
%ADD12C,1.778000*%
%ADD13R,1.778000X1.778000*%
%ADD14R,1.800000X3.600000*%
%ADD15O,1.800000X3.600000*%
%ADD16R,1.600000X2.000000*%
%ADD17R,2.000000X1.700000*%
%ADD18R,1.700000X2.000000*%
%ADD19R,1.600000X2.600000*%
%ADD20O,1.699260X3.500120*%
%ADD21O,2.300000X1.600000*%
%ADD22R,1.699260X3.299460*%
%ADD23C,1.000000*%
%ADD24C,0.500000*%
%ADD25C,0.254000*%
G04 APERTURE END LIST*
D10*
D11*
X163290000Y-45720000D03*
X159290000Y-45720000D03*
D12*
X158750000Y-55880000D03*
D13*
X148590000Y-55880000D03*
D12*
X182880000Y-72390000D03*
D13*
X172720000Y-72390000D03*
D12*
X190500000Y-69850000D03*
D13*
X190500000Y-59690000D03*
D14*
X182880000Y-40640000D03*
D15*
X187960000Y-40640000D03*
D14*
X156210000Y-40640000D03*
D15*
X161290000Y-40640000D03*
X166370000Y-40640000D03*
D16*
X152400000Y-64230000D03*
X152400000Y-60230000D03*
D11*
X151860000Y-71120000D03*
X147860000Y-71120000D03*
D16*
X182880000Y-64040000D03*
X182880000Y-68040000D03*
X185420000Y-60209200D03*
X185420000Y-56209200D03*
D17*
X151860000Y-68580000D03*
X147860000Y-68580000D03*
D18*
X144780000Y-60960000D03*
X144780000Y-56960000D03*
X170180000Y-67405000D03*
X170180000Y-63405000D03*
D17*
X162020000Y-58420000D03*
X158020000Y-58420000D03*
D18*
X180340000Y-64040000D03*
X180340000Y-68040000D03*
X172720000Y-62960000D03*
X172720000Y-58960000D03*
X190500000Y-51340000D03*
X190500000Y-55340000D03*
D19*
X189230000Y-62970000D03*
X189230000Y-66570000D03*
D20*
X153670000Y-52070000D03*
X151130000Y-52070000D03*
X156210000Y-52070000D03*
D21*
X158750000Y-69850000D03*
X158750000Y-72390000D03*
X166370000Y-72390000D03*
X166370000Y-69850000D03*
X166370000Y-64770000D03*
X166370000Y-62230000D03*
X158750000Y-62230000D03*
X158750000Y-64770000D03*
D20*
X175260000Y-52070000D03*
X172720000Y-52070000D03*
X177800000Y-52070000D03*
D22*
X154940000Y-59479180D03*
X154940000Y-64980820D03*
X182880000Y-55669180D03*
X182880000Y-61170820D03*
D23*
X158750000Y-52760370D02*
X158750000Y-55880000D01*
X156210000Y-52070000D02*
X158059630Y-52070000D01*
X158059630Y-52070000D02*
X158750000Y-52760370D01*
D24*
X154940000Y-68580000D02*
X152400000Y-68580000D01*
X152400000Y-68580000D02*
X151860000Y-69120000D01*
X151860000Y-69120000D02*
X151860000Y-71120000D01*
X156210000Y-72390000D02*
X154940000Y-71120000D01*
X158750000Y-72390000D02*
X156210000Y-72390000D01*
X154940000Y-71120000D02*
X154940000Y-68580000D01*
D23*
X152420500Y-64980800D02*
X152400000Y-64960300D01*
X154940000Y-64980800D02*
X152420500Y-64980800D01*
D24*
X154940000Y-64980800D02*
X154940000Y-68580000D01*
D23*
X154940000Y-45720000D02*
X156210000Y-45720000D01*
X156210000Y-45720000D02*
X159290000Y-45720000D01*
X156210000Y-44649700D02*
X156210000Y-45720000D01*
X153670000Y-46990000D02*
X154940000Y-45720000D01*
X153670000Y-52070000D02*
X153670000Y-46990000D01*
X154940000Y-59479180D02*
X153150820Y-59479180D01*
X153150820Y-59479180D02*
X152400000Y-60230000D01*
X153670000Y-52070000D02*
X153670000Y-58960000D01*
X153670000Y-58960000D02*
X154200300Y-58960000D01*
X154719500Y-59479200D02*
X154940000Y-59479200D01*
X154200300Y-58960000D02*
X154719500Y-59479200D01*
X156210000Y-44649700D02*
X156210000Y-40640000D01*
D24*
X182880000Y-64040000D02*
X180340000Y-64040000D01*
X182880000Y-61170820D02*
X182880000Y-64040000D01*
X182880000Y-61170820D02*
X182581977Y-60872797D01*
X168020000Y-62230000D02*
X166370000Y-62230000D01*
X182581977Y-60872797D02*
X169377203Y-60872797D01*
X169377203Y-60872797D02*
X168020000Y-62230000D01*
X182880000Y-61170820D02*
X184458380Y-61170820D01*
X184458380Y-61170820D02*
X185420000Y-60209200D01*
D23*
X163290000Y-45720000D02*
X166370000Y-45720000D01*
X166370000Y-45720000D02*
X175260000Y-45720000D01*
X166370000Y-40640000D02*
X166370000Y-45720000D01*
X175260000Y-52070000D02*
X175260000Y-45720000D01*
X182880000Y-45720000D02*
X182880000Y-50800000D01*
X175260000Y-45720000D02*
X182880000Y-45720000D01*
X182880000Y-50800000D02*
X182880000Y-55669180D01*
X185420000Y-56209200D02*
X183420020Y-56209200D01*
X183420020Y-56209200D02*
X182880000Y-55669180D01*
D24*
X170180000Y-67405000D02*
X162560000Y-67405000D01*
X162560000Y-67405000D02*
X162560000Y-67310000D01*
X177800000Y-73660000D02*
X177430999Y-74029001D01*
X177430999Y-74029001D02*
X162929001Y-74029001D01*
X177800000Y-67379998D02*
X177800000Y-73660000D01*
X184860000Y-66040000D02*
X179139998Y-66040000D01*
X179139998Y-66040000D02*
X177800000Y-67379998D01*
X189230000Y-62970000D02*
X187930000Y-62970000D01*
X187930000Y-62970000D02*
X184860000Y-66040000D01*
X162560000Y-69850000D02*
X162560000Y-73660000D01*
X162560000Y-73660000D02*
X162929001Y-74029001D01*
X162560000Y-69850000D02*
X162560000Y-67310000D01*
X162560000Y-67310000D02*
X162560000Y-64770000D01*
X162655000Y-67405000D02*
X162560000Y-67310000D01*
X162560000Y-64770000D02*
X162560000Y-58960000D01*
X162560000Y-58960000D02*
X162020000Y-58420000D01*
X158750000Y-69850000D02*
X162560000Y-69850000D01*
X162560000Y-64770000D02*
X166370000Y-64770000D01*
X190500000Y-59690000D02*
X190500000Y-61700000D01*
X190500000Y-61700000D02*
X189230000Y-62970000D01*
X190500000Y-55340000D02*
X190500000Y-59690000D01*
X158020000Y-58420000D02*
X158020000Y-61500000D01*
X158020000Y-61500000D02*
X158750000Y-62230000D01*
X148590000Y-60960000D02*
X149860000Y-62230000D01*
X158750000Y-62230000D02*
X149860000Y-62230000D01*
X148590000Y-58420000D02*
X148590000Y-55880000D01*
X148590000Y-58420000D02*
X148590000Y-60960000D01*
X144780000Y-60960000D02*
X148590000Y-60960000D01*
X170180000Y-63405000D02*
X172275000Y-63405000D01*
X172275000Y-63405000D02*
X172720000Y-62960000D01*
X166370000Y-72390000D02*
X174045000Y-72390000D01*
X174045000Y-72390000D02*
X175170302Y-71264698D01*
X173990000Y-62960000D02*
X172720000Y-62960000D01*
X175170302Y-71264698D02*
X175170302Y-64140302D01*
X175170302Y-64140302D02*
X173990000Y-62960000D01*
X172720000Y-72390000D02*
X166370000Y-72390000D01*
X161290000Y-40640000D02*
X161290000Y-38100000D01*
X187960000Y-38100000D02*
X187960000Y-40640000D01*
X186690000Y-36830000D02*
X187960000Y-38100000D01*
X162560000Y-36830000D02*
X186690000Y-36830000D01*
X161290000Y-38100000D02*
X162560000Y-36830000D01*
X187960000Y-40640000D02*
X190500000Y-43180000D01*
X190500000Y-43180000D02*
X190500000Y-51340000D01*
D23*
X151130000Y-52070000D02*
X146050000Y-52070000D01*
X146050000Y-52070000D02*
X144780000Y-53340000D01*
X144780000Y-53340000D02*
X144780000Y-56960000D01*
D24*
X172720000Y-52070000D02*
X172720000Y-54610000D01*
X172720000Y-58960000D02*
X172720000Y-54610000D01*
D25*
G36*
X160664210Y-37474210D02*
X160472367Y-37761325D01*
X160472367Y-37761326D01*
X160404999Y-38100000D01*
X160405000Y-38100005D01*
X160405000Y-38472978D01*
X160204591Y-38606887D01*
X159871845Y-39104877D01*
X159755000Y-39692296D01*
X159755000Y-41587704D01*
X159871845Y-42175123D01*
X160204591Y-42673113D01*
X160702581Y-43005859D01*
X161290000Y-43122704D01*
X161877419Y-43005859D01*
X162375409Y-42673113D01*
X162708155Y-42175123D01*
X162825000Y-41587704D01*
X162825000Y-39692296D01*
X162708155Y-39104877D01*
X162375409Y-38606887D01*
X162175000Y-38472978D01*
X162175000Y-38466580D01*
X162926579Y-37715000D01*
X186323420Y-37715000D01*
X187075000Y-38466579D01*
X187075000Y-38472978D01*
X186874591Y-38606887D01*
X186541845Y-39104877D01*
X186425000Y-39692296D01*
X186425000Y-41587704D01*
X186541845Y-42175123D01*
X186874591Y-42673113D01*
X187372581Y-43005859D01*
X187960000Y-43122704D01*
X188547419Y-43005859D01*
X188863249Y-42794828D01*
X189615000Y-43546579D01*
X189615000Y-49699146D01*
X189414683Y-49736838D01*
X189198559Y-49875910D01*
X189053569Y-50088110D01*
X189002560Y-50340000D01*
X189002560Y-52340000D01*
X189046838Y-52575317D01*
X189185910Y-52791441D01*
X189398110Y-52936431D01*
X189650000Y-52987440D01*
X191350000Y-52987440D01*
X191585317Y-52943162D01*
X191801441Y-52804090D01*
X191946431Y-52591890D01*
X191997440Y-52340000D01*
X191997440Y-50340000D01*
X191953162Y-50104683D01*
X191814090Y-49888559D01*
X191601890Y-49743569D01*
X191385000Y-49699648D01*
X191385000Y-43180000D01*
X191317633Y-42841325D01*
X191125790Y-42554210D01*
X191125787Y-42554208D01*
X189495000Y-40923420D01*
X189495000Y-39692296D01*
X189378155Y-39104877D01*
X189045409Y-38606887D01*
X188845000Y-38472978D01*
X188845000Y-38100005D01*
X188845001Y-38100000D01*
X188777633Y-37761325D01*
X188746680Y-37715000D01*
X188585790Y-37474210D01*
X188585787Y-37474208D01*
X187381580Y-36270000D01*
X192330000Y-36270000D01*
X192330000Y-75490000D01*
X142950000Y-75490000D01*
X142950000Y-71405750D01*
X146225000Y-71405750D01*
X146225000Y-72046310D01*
X146321673Y-72279699D01*
X146500302Y-72458327D01*
X146733691Y-72555000D01*
X147574250Y-72555000D01*
X147733000Y-72396250D01*
X147733000Y-71247000D01*
X147987000Y-71247000D01*
X147987000Y-72396250D01*
X148145750Y-72555000D01*
X148986309Y-72555000D01*
X149219698Y-72458327D01*
X149398327Y-72279699D01*
X149495000Y-72046310D01*
X149495000Y-71405750D01*
X149336250Y-71247000D01*
X147987000Y-71247000D01*
X147733000Y-71247000D01*
X146383750Y-71247000D01*
X146225000Y-71405750D01*
X142950000Y-71405750D01*
X142950000Y-68865750D01*
X146225000Y-68865750D01*
X146225000Y-69556310D01*
X146321673Y-69789699D01*
X146406974Y-69875000D01*
X146321673Y-69960301D01*
X146225000Y-70193690D01*
X146225000Y-70834250D01*
X146383750Y-70993000D01*
X147733000Y-70993000D01*
X147733000Y-68707000D01*
X147987000Y-68707000D01*
X147987000Y-70993000D01*
X149336250Y-70993000D01*
X149495000Y-70834250D01*
X149495000Y-70193690D01*
X149398327Y-69960301D01*
X149313026Y-69875000D01*
X149398327Y-69789699D01*
X149495000Y-69556310D01*
X149495000Y-68865750D01*
X149336250Y-68707000D01*
X147987000Y-68707000D01*
X147733000Y-68707000D01*
X146383750Y-68707000D01*
X146225000Y-68865750D01*
X142950000Y-68865750D01*
X142950000Y-67603690D01*
X146225000Y-67603690D01*
X146225000Y-68294250D01*
X146383750Y-68453000D01*
X147733000Y-68453000D01*
X147733000Y-67253750D01*
X147987000Y-67253750D01*
X147987000Y-68453000D01*
X149336250Y-68453000D01*
X149495000Y-68294250D01*
X149495000Y-67603690D01*
X149398327Y-67370301D01*
X149219698Y-67191673D01*
X148986309Y-67095000D01*
X148145750Y-67095000D01*
X147987000Y-67253750D01*
X147733000Y-67253750D01*
X147574250Y-67095000D01*
X146733691Y-67095000D01*
X146500302Y-67191673D01*
X146321673Y-67370301D01*
X146225000Y-67603690D01*
X142950000Y-67603690D01*
X142950000Y-55960000D01*
X143282560Y-55960000D01*
X143282560Y-57960000D01*
X143326838Y-58195317D01*
X143465910Y-58411441D01*
X143678110Y-58556431D01*
X143930000Y-58607440D01*
X145630000Y-58607440D01*
X145865317Y-58563162D01*
X146081441Y-58424090D01*
X146226431Y-58211890D01*
X146277440Y-57960000D01*
X146277440Y-55960000D01*
X146233162Y-55724683D01*
X146094090Y-55508559D01*
X145915000Y-55386192D01*
X145915000Y-53810132D01*
X146520132Y-53205000D01*
X149682735Y-53205000D01*
X149758381Y-53585299D01*
X150080208Y-54066948D01*
X150561857Y-54388775D01*
X151130000Y-54501786D01*
X151698143Y-54388775D01*
X152179792Y-54066948D01*
X152400000Y-53737383D01*
X152535000Y-53939425D01*
X152535000Y-58551834D01*
X152489016Y-58582560D01*
X151600000Y-58582560D01*
X151364683Y-58626838D01*
X151148559Y-58765910D01*
X151003569Y-58978110D01*
X150952560Y-59230000D01*
X150952560Y-61230000D01*
X150974199Y-61345000D01*
X150226579Y-61345000D01*
X149475000Y-60593420D01*
X149475000Y-57416440D01*
X149479000Y-57416440D01*
X149714317Y-57372162D01*
X149930441Y-57233090D01*
X150075431Y-57020890D01*
X150126440Y-56769000D01*
X150126440Y-54991000D01*
X150082162Y-54755683D01*
X149943090Y-54539559D01*
X149730890Y-54394569D01*
X149479000Y-54343560D01*
X147701000Y-54343560D01*
X147465683Y-54387838D01*
X147249559Y-54526910D01*
X147104569Y-54739110D01*
X147053560Y-54991000D01*
X147053560Y-56769000D01*
X147097838Y-57004317D01*
X147236910Y-57220441D01*
X147449110Y-57365431D01*
X147701000Y-57416440D01*
X147705000Y-57416440D01*
X147705000Y-60075000D01*
X146277440Y-60075000D01*
X146277440Y-59960000D01*
X146233162Y-59724683D01*
X146094090Y-59508559D01*
X145881890Y-59363569D01*
X145630000Y-59312560D01*
X143930000Y-59312560D01*
X143694683Y-59356838D01*
X143478559Y-59495910D01*
X143333569Y-59708110D01*
X143282560Y-59960000D01*
X143282560Y-61960000D01*
X143326838Y-62195317D01*
X143465910Y-62411441D01*
X143678110Y-62556431D01*
X143930000Y-62607440D01*
X145630000Y-62607440D01*
X145865317Y-62563162D01*
X146081441Y-62424090D01*
X146226431Y-62211890D01*
X146277440Y-61960000D01*
X146277440Y-61845000D01*
X148223420Y-61845000D01*
X149234208Y-62855787D01*
X149234210Y-62855790D01*
X149509901Y-63040000D01*
X149521325Y-63047633D01*
X149860000Y-63115001D01*
X149860005Y-63115000D01*
X150975848Y-63115000D01*
X150952560Y-63230000D01*
X150952560Y-65230000D01*
X150996838Y-65465317D01*
X151135910Y-65681441D01*
X151348110Y-65826431D01*
X151600000Y-65877440D01*
X151758726Y-65877440D01*
X151986154Y-66029403D01*
X152420500Y-66115800D01*
X153442930Y-66115800D01*
X153442930Y-66630550D01*
X153487208Y-66865867D01*
X153626280Y-67081991D01*
X153838480Y-67226981D01*
X154055000Y-67270827D01*
X154055000Y-67695000D01*
X153500854Y-67695000D01*
X153463162Y-67494683D01*
X153324090Y-67278559D01*
X153111890Y-67133569D01*
X152860000Y-67082560D01*
X150860000Y-67082560D01*
X150624683Y-67126838D01*
X150408559Y-67265910D01*
X150263569Y-67478110D01*
X150212560Y-67730000D01*
X150212560Y-69430000D01*
X150256838Y-69665317D01*
X150393584Y-69877826D01*
X150263569Y-70068110D01*
X150212560Y-70320000D01*
X150212560Y-71920000D01*
X150256838Y-72155317D01*
X150395910Y-72371441D01*
X150608110Y-72516431D01*
X150860000Y-72567440D01*
X152860000Y-72567440D01*
X153095317Y-72523162D01*
X153311441Y-72384090D01*
X153456431Y-72171890D01*
X153507440Y-71920000D01*
X153507440Y-70320000D01*
X153463162Y-70084683D01*
X153326416Y-69872174D01*
X153456431Y-69681890D01*
X153500352Y-69465000D01*
X154055000Y-69465000D01*
X154055000Y-71119995D01*
X154054999Y-71120000D01*
X154094346Y-71317804D01*
X154122367Y-71458675D01*
X154205082Y-71582467D01*
X154314210Y-71745790D01*
X155584208Y-73015787D01*
X155584210Y-73015790D01*
X155856209Y-73197533D01*
X155871325Y-73207633D01*
X156210000Y-73275001D01*
X156210005Y-73275000D01*
X157263670Y-73275000D01*
X157350332Y-73404698D01*
X157815879Y-73715767D01*
X158365030Y-73825000D01*
X159134970Y-73825000D01*
X159684121Y-73715767D01*
X160149668Y-73404698D01*
X160460737Y-72939151D01*
X160569970Y-72390000D01*
X160460737Y-71840849D01*
X160149668Y-71375302D01*
X159767582Y-71120000D01*
X160149668Y-70864698D01*
X160236330Y-70735000D01*
X161675000Y-70735000D01*
X161675000Y-73659995D01*
X161674999Y-73660000D01*
X161717852Y-73875431D01*
X161742367Y-73998675D01*
X161934210Y-74285790D01*
X162303209Y-74654788D01*
X162303211Y-74654791D01*
X162590326Y-74846634D01*
X162929001Y-74914002D01*
X162929006Y-74914001D01*
X177430994Y-74914001D01*
X177430999Y-74914002D01*
X177713483Y-74857811D01*
X177769674Y-74846634D01*
X178056789Y-74654791D01*
X178056790Y-74654790D01*
X178425787Y-74285792D01*
X178425790Y-74285790D01*
X178617633Y-73998675D01*
X178632002Y-73926440D01*
X178685001Y-73660000D01*
X178685000Y-73659995D01*
X178685000Y-73462196D01*
X181987409Y-73462196D01*
X182072467Y-73717539D01*
X182641965Y-73925516D01*
X183247700Y-73899723D01*
X183687533Y-73717539D01*
X183772591Y-73462196D01*
X182880000Y-72569605D01*
X181987409Y-73462196D01*
X178685000Y-73462196D01*
X178685000Y-72151965D01*
X181344484Y-72151965D01*
X181370277Y-72757700D01*
X181552461Y-73197533D01*
X181807804Y-73282591D01*
X182700395Y-72390000D01*
X183059605Y-72390000D01*
X183952196Y-73282591D01*
X184207539Y-73197533D01*
X184415516Y-72628035D01*
X184389723Y-72022300D01*
X184207539Y-71582467D01*
X183952196Y-71497409D01*
X183059605Y-72390000D01*
X182700395Y-72390000D01*
X181807804Y-71497409D01*
X181552461Y-71582467D01*
X181344484Y-72151965D01*
X178685000Y-72151965D01*
X178685000Y-71317804D01*
X181987409Y-71317804D01*
X182880000Y-72210395D01*
X183772591Y-71317804D01*
X183687533Y-71062461D01*
X183303450Y-70922196D01*
X189607409Y-70922196D01*
X189692467Y-71177539D01*
X190261965Y-71385516D01*
X190867700Y-71359723D01*
X191307533Y-71177539D01*
X191392591Y-70922196D01*
X190500000Y-70029605D01*
X189607409Y-70922196D01*
X183303450Y-70922196D01*
X183118035Y-70854484D01*
X182512300Y-70880277D01*
X182072467Y-71062461D01*
X181987409Y-71317804D01*
X178685000Y-71317804D01*
X178685000Y-68325750D01*
X178855000Y-68325750D01*
X178855000Y-69166309D01*
X178951673Y-69399698D01*
X179130301Y-69578327D01*
X179363690Y-69675000D01*
X180054250Y-69675000D01*
X180213000Y-69516250D01*
X180213000Y-68167000D01*
X180467000Y-68167000D01*
X180467000Y-69516250D01*
X180625750Y-69675000D01*
X181316310Y-69675000D01*
X181549699Y-69578327D01*
X181635000Y-69493026D01*
X181720301Y-69578327D01*
X181953690Y-69675000D01*
X182594250Y-69675000D01*
X182753000Y-69516250D01*
X182753000Y-68167000D01*
X183007000Y-68167000D01*
X183007000Y-69516250D01*
X183165750Y-69675000D01*
X183806310Y-69675000D01*
X183958489Y-69611965D01*
X188964484Y-69611965D01*
X188990277Y-70217700D01*
X189172461Y-70657533D01*
X189427804Y-70742591D01*
X190320395Y-69850000D01*
X190679605Y-69850000D01*
X191572196Y-70742591D01*
X191827539Y-70657533D01*
X192035516Y-70088035D01*
X192009723Y-69482300D01*
X191827539Y-69042467D01*
X191572196Y-68957409D01*
X190679605Y-69850000D01*
X190320395Y-69850000D01*
X189427804Y-68957409D01*
X189172461Y-69042467D01*
X188964484Y-69611965D01*
X183958489Y-69611965D01*
X184039699Y-69578327D01*
X184218327Y-69399698D01*
X184315000Y-69166309D01*
X184315000Y-68325750D01*
X184156250Y-68167000D01*
X183007000Y-68167000D01*
X182753000Y-68167000D01*
X180467000Y-68167000D01*
X180213000Y-68167000D01*
X179013750Y-68167000D01*
X178855000Y-68325750D01*
X178685000Y-68325750D01*
X178685000Y-67746578D01*
X178855000Y-67576578D01*
X178855000Y-67754250D01*
X179013750Y-67913000D01*
X180213000Y-67913000D01*
X180213000Y-67893000D01*
X180467000Y-67893000D01*
X180467000Y-67913000D01*
X182753000Y-67913000D01*
X182753000Y-67893000D01*
X183007000Y-67893000D01*
X183007000Y-67913000D01*
X184156250Y-67913000D01*
X184315000Y-67754250D01*
X184315000Y-66925000D01*
X184859995Y-66925000D01*
X184860000Y-66925001D01*
X185157280Y-66865867D01*
X185198675Y-66857633D01*
X185201493Y-66855750D01*
X187795000Y-66855750D01*
X187795000Y-67996309D01*
X187891673Y-68229698D01*
X188070301Y-68408327D01*
X188303690Y-68505000D01*
X188944250Y-68505000D01*
X189103000Y-68346250D01*
X189103000Y-66697000D01*
X189357000Y-66697000D01*
X189357000Y-68346250D01*
X189515750Y-68505000D01*
X189734622Y-68505000D01*
X189692467Y-68522461D01*
X189607409Y-68777804D01*
X190500000Y-69670395D01*
X191392591Y-68777804D01*
X191307533Y-68522461D01*
X190738035Y-68314484D01*
X190472223Y-68325803D01*
X190568327Y-68229698D01*
X190665000Y-67996309D01*
X190665000Y-66855750D01*
X190506250Y-66697000D01*
X189357000Y-66697000D01*
X189103000Y-66697000D01*
X187953750Y-66697000D01*
X187795000Y-66855750D01*
X185201493Y-66855750D01*
X185485790Y-66665790D01*
X187798241Y-64353338D01*
X187826838Y-64505317D01*
X187965910Y-64721441D01*
X188034006Y-64767969D01*
X187891673Y-64910302D01*
X187795000Y-65143691D01*
X187795000Y-66284250D01*
X187953750Y-66443000D01*
X189103000Y-66443000D01*
X189103000Y-66423000D01*
X189357000Y-66423000D01*
X189357000Y-66443000D01*
X190506250Y-66443000D01*
X190665000Y-66284250D01*
X190665000Y-65143691D01*
X190568327Y-64910302D01*
X190427090Y-64769064D01*
X190481441Y-64734090D01*
X190626431Y-64521890D01*
X190677440Y-64270000D01*
X190677440Y-62774139D01*
X191125787Y-62325792D01*
X191125790Y-62325790D01*
X191317633Y-62038675D01*
X191349705Y-61877440D01*
X191385001Y-61700000D01*
X191385000Y-61699995D01*
X191385000Y-61226440D01*
X191389000Y-61226440D01*
X191624317Y-61182162D01*
X191840441Y-61043090D01*
X191985431Y-60830890D01*
X192036440Y-60579000D01*
X192036440Y-58801000D01*
X191992162Y-58565683D01*
X191853090Y-58349559D01*
X191640890Y-58204569D01*
X191389000Y-58153560D01*
X191385000Y-58153560D01*
X191385000Y-56980854D01*
X191585317Y-56943162D01*
X191801441Y-56804090D01*
X191946431Y-56591890D01*
X191997440Y-56340000D01*
X191997440Y-54340000D01*
X191953162Y-54104683D01*
X191814090Y-53888559D01*
X191601890Y-53743569D01*
X191350000Y-53692560D01*
X189650000Y-53692560D01*
X189414683Y-53736838D01*
X189198559Y-53875910D01*
X189053569Y-54088110D01*
X189002560Y-54340000D01*
X189002560Y-56340000D01*
X189046838Y-56575317D01*
X189185910Y-56791441D01*
X189398110Y-56936431D01*
X189615000Y-56980352D01*
X189615000Y-58153560D01*
X189611000Y-58153560D01*
X189375683Y-58197838D01*
X189159559Y-58336910D01*
X189014569Y-58549110D01*
X188963560Y-58801000D01*
X188963560Y-60579000D01*
X189007838Y-60814317D01*
X189141839Y-61022560D01*
X188430000Y-61022560D01*
X188194683Y-61066838D01*
X187978559Y-61205910D01*
X187833569Y-61418110D01*
X187782560Y-61670000D01*
X187782560Y-62114327D01*
X187647516Y-62141190D01*
X187591325Y-62152367D01*
X187304210Y-62344210D01*
X187304208Y-62344213D01*
X184493420Y-65155000D01*
X184304152Y-65155000D01*
X184327440Y-65040000D01*
X184327440Y-63065630D01*
X184377070Y-62820550D01*
X184377070Y-62055820D01*
X184458375Y-62055820D01*
X184458380Y-62055821D01*
X184740864Y-61999630D01*
X184797055Y-61988453D01*
X184994328Y-61856640D01*
X186220000Y-61856640D01*
X186455317Y-61812362D01*
X186671441Y-61673290D01*
X186816431Y-61461090D01*
X186867440Y-61209200D01*
X186867440Y-59209200D01*
X186823162Y-58973883D01*
X186684090Y-58757759D01*
X186471890Y-58612769D01*
X186220000Y-58561760D01*
X184620000Y-58561760D01*
X184384683Y-58606038D01*
X184168559Y-58745110D01*
X184025395Y-58954638D01*
X183981520Y-58924659D01*
X183729630Y-58873650D01*
X182030370Y-58873650D01*
X181795053Y-58917928D01*
X181578929Y-59057000D01*
X181433939Y-59269200D01*
X181382930Y-59521090D01*
X181382930Y-59987797D01*
X174211811Y-59987797D01*
X174217440Y-59960000D01*
X174217440Y-57960000D01*
X174173162Y-57724683D01*
X174034090Y-57508559D01*
X173821890Y-57363569D01*
X173605000Y-57319648D01*
X173605000Y-54177058D01*
X173769792Y-54066948D01*
X173990000Y-53737383D01*
X174210208Y-54066948D01*
X174691857Y-54388775D01*
X175260000Y-54501786D01*
X175828143Y-54388775D01*
X176309792Y-54066948D01*
X176535516Y-53729127D01*
X176840011Y-54110024D01*
X177349190Y-54390649D01*
X177443168Y-54411540D01*
X177673000Y-54290214D01*
X177673000Y-52197000D01*
X177927000Y-52197000D01*
X177927000Y-54290214D01*
X178156832Y-54411540D01*
X178250810Y-54390649D01*
X178759989Y-54110024D01*
X179123018Y-53655906D01*
X179284630Y-53097430D01*
X179284630Y-52197000D01*
X177927000Y-52197000D01*
X177673000Y-52197000D01*
X177653000Y-52197000D01*
X177653000Y-51943000D01*
X177673000Y-51943000D01*
X177673000Y-49849786D01*
X177927000Y-49849786D01*
X177927000Y-51943000D01*
X179284630Y-51943000D01*
X179284630Y-51042570D01*
X179123018Y-50484094D01*
X178759989Y-50029976D01*
X178250810Y-49749351D01*
X178156832Y-49728460D01*
X177927000Y-49849786D01*
X177673000Y-49849786D01*
X177443168Y-49728460D01*
X177349190Y-49749351D01*
X176840011Y-50029976D01*
X176535516Y-50410873D01*
X176395000Y-50200575D01*
X176395000Y-46855000D01*
X181745000Y-46855000D01*
X181745000Y-53448496D01*
X181578929Y-53555360D01*
X181433939Y-53767560D01*
X181382930Y-54019450D01*
X181382930Y-57318910D01*
X181427208Y-57554227D01*
X181566280Y-57770351D01*
X181778480Y-57915341D01*
X182030370Y-57966350D01*
X183729630Y-57966350D01*
X183964947Y-57922072D01*
X184181071Y-57783000D01*
X184230058Y-57711304D01*
X184368110Y-57805631D01*
X184620000Y-57856640D01*
X186220000Y-57856640D01*
X186455317Y-57812362D01*
X186671441Y-57673290D01*
X186816431Y-57461090D01*
X186867440Y-57209200D01*
X186867440Y-55209200D01*
X186823162Y-54973883D01*
X186684090Y-54757759D01*
X186471890Y-54612769D01*
X186220000Y-54561760D01*
X184620000Y-54561760D01*
X184384683Y-54606038D01*
X184377070Y-54610937D01*
X184377070Y-54019450D01*
X184332792Y-53784133D01*
X184193720Y-53568009D01*
X184015000Y-53445895D01*
X184015000Y-45720000D01*
X183928603Y-45285654D01*
X183682566Y-44917434D01*
X183314346Y-44671397D01*
X182880000Y-44585000D01*
X167505000Y-44585000D01*
X167505000Y-42598895D01*
X167788155Y-42175123D01*
X167905000Y-41587704D01*
X167905000Y-40925750D01*
X181345000Y-40925750D01*
X181345000Y-42566310D01*
X181441673Y-42799699D01*
X181620302Y-42978327D01*
X181853691Y-43075000D01*
X182594250Y-43075000D01*
X182753000Y-42916250D01*
X182753000Y-40767000D01*
X183007000Y-40767000D01*
X183007000Y-42916250D01*
X183165750Y-43075000D01*
X183906309Y-43075000D01*
X184139698Y-42978327D01*
X184318327Y-42799699D01*
X184415000Y-42566310D01*
X184415000Y-40925750D01*
X184256250Y-40767000D01*
X183007000Y-40767000D01*
X182753000Y-40767000D01*
X181503750Y-40767000D01*
X181345000Y-40925750D01*
X167905000Y-40925750D01*
X167905000Y-39692296D01*
X167788155Y-39104877D01*
X167526773Y-38713690D01*
X181345000Y-38713690D01*
X181345000Y-40354250D01*
X181503750Y-40513000D01*
X182753000Y-40513000D01*
X182753000Y-38363750D01*
X183007000Y-38363750D01*
X183007000Y-40513000D01*
X184256250Y-40513000D01*
X184415000Y-40354250D01*
X184415000Y-38713690D01*
X184318327Y-38480301D01*
X184139698Y-38301673D01*
X183906309Y-38205000D01*
X183165750Y-38205000D01*
X183007000Y-38363750D01*
X182753000Y-38363750D01*
X182594250Y-38205000D01*
X181853691Y-38205000D01*
X181620302Y-38301673D01*
X181441673Y-38480301D01*
X181345000Y-38713690D01*
X167526773Y-38713690D01*
X167455409Y-38606887D01*
X166957419Y-38274141D01*
X166370000Y-38157296D01*
X165782581Y-38274141D01*
X165284591Y-38606887D01*
X164951845Y-39104877D01*
X164835000Y-39692296D01*
X164835000Y-41587704D01*
X164951845Y-42175123D01*
X165235000Y-42598895D01*
X165235000Y-44585000D01*
X164829018Y-44585000D01*
X164754090Y-44468559D01*
X164541890Y-44323569D01*
X164290000Y-44272560D01*
X162290000Y-44272560D01*
X162054683Y-44316838D01*
X161838559Y-44455910D01*
X161693569Y-44668110D01*
X161642560Y-44920000D01*
X161642560Y-46520000D01*
X161686838Y-46755317D01*
X161825910Y-46971441D01*
X162038110Y-47116431D01*
X162290000Y-47167440D01*
X164290000Y-47167440D01*
X164525317Y-47123162D01*
X164741441Y-46984090D01*
X164829644Y-46855000D01*
X174125000Y-46855000D01*
X174125000Y-50200575D01*
X173990000Y-50402617D01*
X173769792Y-50073052D01*
X173288143Y-49751225D01*
X172720000Y-49638214D01*
X172151857Y-49751225D01*
X171670208Y-50073052D01*
X171348381Y-50554701D01*
X171235370Y-51122844D01*
X171235370Y-53017156D01*
X171348381Y-53585299D01*
X171670208Y-54066948D01*
X171835000Y-54177058D01*
X171835000Y-57319146D01*
X171634683Y-57356838D01*
X171418559Y-57495910D01*
X171273569Y-57708110D01*
X171222560Y-57960000D01*
X171222560Y-59960000D01*
X171227790Y-59987797D01*
X169377208Y-59987797D01*
X169377203Y-59987796D01*
X169094719Y-60043987D01*
X169038528Y-60055164D01*
X168751413Y-60247007D01*
X168751411Y-60247010D01*
X167775055Y-61223365D01*
X167769668Y-61215302D01*
X167304121Y-60904233D01*
X166754970Y-60795000D01*
X165985030Y-60795000D01*
X165435879Y-60904233D01*
X164970332Y-61215302D01*
X164659263Y-61680849D01*
X164550030Y-62230000D01*
X164659263Y-62779151D01*
X164970332Y-63244698D01*
X165352418Y-63500000D01*
X164970332Y-63755302D01*
X164883670Y-63885000D01*
X163445000Y-63885000D01*
X163445000Y-59751104D01*
X163471441Y-59734090D01*
X163616431Y-59521890D01*
X163667440Y-59270000D01*
X163667440Y-57570000D01*
X163623162Y-57334683D01*
X163484090Y-57118559D01*
X163271890Y-56973569D01*
X163020000Y-56922560D01*
X161020000Y-56922560D01*
X160784683Y-56966838D01*
X160568559Y-57105910D01*
X160423569Y-57318110D01*
X160372560Y-57570000D01*
X160372560Y-59270000D01*
X160416838Y-59505317D01*
X160555910Y-59721441D01*
X160768110Y-59866431D01*
X161020000Y-59917440D01*
X161675000Y-59917440D01*
X161675000Y-67309995D01*
X161674999Y-67310000D01*
X161675000Y-67310005D01*
X161675000Y-68965000D01*
X160236330Y-68965000D01*
X160149668Y-68835302D01*
X159684121Y-68524233D01*
X159134970Y-68415000D01*
X158365030Y-68415000D01*
X157815879Y-68524233D01*
X157350332Y-68835302D01*
X157039263Y-69300849D01*
X156930030Y-69850000D01*
X157039263Y-70399151D01*
X157350332Y-70864698D01*
X157732418Y-71120000D01*
X157350332Y-71375302D01*
X157263670Y-71505000D01*
X156576579Y-71505000D01*
X155825000Y-70753420D01*
X155825000Y-67271335D01*
X156024947Y-67233712D01*
X156241071Y-67094640D01*
X156386061Y-66882440D01*
X156437070Y-66630550D01*
X156437070Y-63331090D01*
X156396410Y-63115000D01*
X157263670Y-63115000D01*
X157350332Y-63244698D01*
X157732418Y-63500000D01*
X157350332Y-63755302D01*
X157039263Y-64220849D01*
X156930030Y-64770000D01*
X157039263Y-65319151D01*
X157350332Y-65784698D01*
X157815879Y-66095767D01*
X158365030Y-66205000D01*
X159134970Y-66205000D01*
X159684121Y-66095767D01*
X160149668Y-65784698D01*
X160460737Y-65319151D01*
X160569970Y-64770000D01*
X160460737Y-64220849D01*
X160149668Y-63755302D01*
X159767582Y-63500000D01*
X160149668Y-63244698D01*
X160460737Y-62779151D01*
X160569970Y-62230000D01*
X160460737Y-61680849D01*
X160149668Y-61215302D01*
X159684121Y-60904233D01*
X159134970Y-60795000D01*
X158905000Y-60795000D01*
X158905000Y-59917440D01*
X159020000Y-59917440D01*
X159255317Y-59873162D01*
X159471441Y-59734090D01*
X159616431Y-59521890D01*
X159667440Y-59270000D01*
X159667440Y-57570000D01*
X159623162Y-57334683D01*
X159544753Y-57212832D01*
X159557533Y-57207539D01*
X159642591Y-56952196D01*
X158750000Y-56059605D01*
X158735858Y-56073748D01*
X158556253Y-55894143D01*
X158570395Y-55880000D01*
X158929605Y-55880000D01*
X159822196Y-56772591D01*
X160077539Y-56687533D01*
X160285516Y-56118035D01*
X160259723Y-55512300D01*
X160077539Y-55072467D01*
X159822196Y-54987409D01*
X158929605Y-55880000D01*
X158570395Y-55880000D01*
X157677804Y-54987409D01*
X157422461Y-55072467D01*
X157214484Y-55641965D01*
X157240277Y-56247700D01*
X157422461Y-56687533D01*
X157677802Y-56772590D01*
X157563212Y-56887180D01*
X157598592Y-56922560D01*
X157020000Y-56922560D01*
X156784683Y-56966838D01*
X156568559Y-57105910D01*
X156423569Y-57318110D01*
X156373686Y-57564441D01*
X156253720Y-57378009D01*
X156041520Y-57233019D01*
X155789630Y-57182010D01*
X154805000Y-57182010D01*
X154805000Y-55980546D01*
X154852367Y-56218675D01*
X155044210Y-56505790D01*
X155331325Y-56697633D01*
X155670000Y-56765000D01*
X155820000Y-56765000D01*
X156158675Y-56697633D01*
X156445790Y-56505790D01*
X156637633Y-56218675D01*
X156705000Y-55880000D01*
X156637633Y-55541325D01*
X156445790Y-55254210D01*
X156158675Y-55062367D01*
X155820000Y-54995000D01*
X155670000Y-54995000D01*
X155331325Y-55062367D01*
X155044210Y-55254210D01*
X154852367Y-55541325D01*
X154805000Y-55779454D01*
X154805000Y-54807804D01*
X157857409Y-54807804D01*
X158750000Y-55700395D01*
X159642591Y-54807804D01*
X159557533Y-54552461D01*
X158988035Y-54344484D01*
X158382300Y-54370277D01*
X157942467Y-54552461D01*
X157857409Y-54807804D01*
X154805000Y-54807804D01*
X154805000Y-53939425D01*
X154945516Y-53729127D01*
X155250011Y-54110024D01*
X155759190Y-54390649D01*
X155853168Y-54411540D01*
X156083000Y-54290214D01*
X156083000Y-52197000D01*
X156337000Y-52197000D01*
X156337000Y-54290214D01*
X156566832Y-54411540D01*
X156660810Y-54390649D01*
X157169989Y-54110024D01*
X157533018Y-53655906D01*
X157694630Y-53097430D01*
X157694630Y-52197000D01*
X156337000Y-52197000D01*
X156083000Y-52197000D01*
X156063000Y-52197000D01*
X156063000Y-51943000D01*
X156083000Y-51943000D01*
X156083000Y-49849786D01*
X156337000Y-49849786D01*
X156337000Y-51943000D01*
X157694630Y-51943000D01*
X157694630Y-51042570D01*
X157533018Y-50484094D01*
X157169989Y-50029976D01*
X156660810Y-49749351D01*
X156566832Y-49728460D01*
X156337000Y-49849786D01*
X156083000Y-49849786D01*
X155853168Y-49728460D01*
X155759190Y-49749351D01*
X155250011Y-50029976D01*
X154945516Y-50410873D01*
X154805000Y-50200575D01*
X154805000Y-47460132D01*
X155410132Y-46855000D01*
X157750982Y-46855000D01*
X157825910Y-46971441D01*
X158038110Y-47116431D01*
X158290000Y-47167440D01*
X160290000Y-47167440D01*
X160525317Y-47123162D01*
X160741441Y-46984090D01*
X160886431Y-46771890D01*
X160937440Y-46520000D01*
X160937440Y-44920000D01*
X160893162Y-44684683D01*
X160754090Y-44468559D01*
X160541890Y-44323569D01*
X160290000Y-44272560D01*
X158290000Y-44272560D01*
X158054683Y-44316838D01*
X157838559Y-44455910D01*
X157750356Y-44585000D01*
X157345000Y-44585000D01*
X157345000Y-43043222D01*
X157345317Y-43043162D01*
X157561441Y-42904090D01*
X157706431Y-42691890D01*
X157757440Y-42440000D01*
X157757440Y-38840000D01*
X157713162Y-38604683D01*
X157574090Y-38388559D01*
X157361890Y-38243569D01*
X157110000Y-38192560D01*
X155310000Y-38192560D01*
X155074683Y-38236838D01*
X154858559Y-38375910D01*
X154713569Y-38588110D01*
X154662560Y-38840000D01*
X154662560Y-42440000D01*
X154706838Y-42675317D01*
X154845910Y-42891441D01*
X155058110Y-43036431D01*
X155075000Y-43039851D01*
X155075000Y-44585000D01*
X154940000Y-44585000D01*
X154505654Y-44671397D01*
X154137434Y-44917434D01*
X152867434Y-46187434D01*
X152621397Y-46555654D01*
X152535000Y-46990000D01*
X152535000Y-50200575D01*
X152400000Y-50402617D01*
X152179792Y-50073052D01*
X151698143Y-49751225D01*
X151130000Y-49638214D01*
X150561857Y-49751225D01*
X150080208Y-50073052D01*
X149758381Y-50554701D01*
X149682735Y-50935000D01*
X146050000Y-50935000D01*
X145615654Y-51021397D01*
X145370805Y-51185000D01*
X145247434Y-51267434D01*
X143977434Y-52537434D01*
X143731397Y-52905654D01*
X143645000Y-53340000D01*
X143645000Y-55388808D01*
X143478559Y-55495910D01*
X143333569Y-55708110D01*
X143282560Y-55960000D01*
X142950000Y-55960000D01*
X142950000Y-36270000D01*
X161868421Y-36270000D01*
X160664210Y-37474210D01*
X160664210Y-37474210D01*
G37*
X160664210Y-37474210D02*
X160472367Y-37761325D01*
X160472367Y-37761326D01*
X160404999Y-38100000D01*
X160405000Y-38100005D01*
X160405000Y-38472978D01*
X160204591Y-38606887D01*
X159871845Y-39104877D01*
X159755000Y-39692296D01*
X159755000Y-41587704D01*
X159871845Y-42175123D01*
X160204591Y-42673113D01*
X160702581Y-43005859D01*
X161290000Y-43122704D01*
X161877419Y-43005859D01*
X162375409Y-42673113D01*
X162708155Y-42175123D01*
X162825000Y-41587704D01*
X162825000Y-39692296D01*
X162708155Y-39104877D01*
X162375409Y-38606887D01*
X162175000Y-38472978D01*
X162175000Y-38466580D01*
X162926579Y-37715000D01*
X186323420Y-37715000D01*
X187075000Y-38466579D01*
X187075000Y-38472978D01*
X186874591Y-38606887D01*
X186541845Y-39104877D01*
X186425000Y-39692296D01*
X186425000Y-41587704D01*
X186541845Y-42175123D01*
X186874591Y-42673113D01*
X187372581Y-43005859D01*
X187960000Y-43122704D01*
X188547419Y-43005859D01*
X188863249Y-42794828D01*
X189615000Y-43546579D01*
X189615000Y-49699146D01*
X189414683Y-49736838D01*
X189198559Y-49875910D01*
X189053569Y-50088110D01*
X189002560Y-50340000D01*
X189002560Y-52340000D01*
X189046838Y-52575317D01*
X189185910Y-52791441D01*
X189398110Y-52936431D01*
X189650000Y-52987440D01*
X191350000Y-52987440D01*
X191585317Y-52943162D01*
X191801441Y-52804090D01*
X191946431Y-52591890D01*
X191997440Y-52340000D01*
X191997440Y-50340000D01*
X191953162Y-50104683D01*
X191814090Y-49888559D01*
X191601890Y-49743569D01*
X191385000Y-49699648D01*
X191385000Y-43180000D01*
X191317633Y-42841325D01*
X191125790Y-42554210D01*
X191125787Y-42554208D01*
X189495000Y-40923420D01*
X189495000Y-39692296D01*
X189378155Y-39104877D01*
X189045409Y-38606887D01*
X188845000Y-38472978D01*
X188845000Y-38100005D01*
X188845001Y-38100000D01*
X188777633Y-37761325D01*
X188746680Y-37715000D01*
X188585790Y-37474210D01*
X188585787Y-37474208D01*
X187381580Y-36270000D01*
X192330000Y-36270000D01*
X192330000Y-75490000D01*
X142950000Y-75490000D01*
X142950000Y-71405750D01*
X146225000Y-71405750D01*
X146225000Y-72046310D01*
X146321673Y-72279699D01*
X146500302Y-72458327D01*
X146733691Y-72555000D01*
X147574250Y-72555000D01*
X147733000Y-72396250D01*
X147733000Y-71247000D01*
X147987000Y-71247000D01*
X147987000Y-72396250D01*
X148145750Y-72555000D01*
X148986309Y-72555000D01*
X149219698Y-72458327D01*
X149398327Y-72279699D01*
X149495000Y-72046310D01*
X149495000Y-71405750D01*
X149336250Y-71247000D01*
X147987000Y-71247000D01*
X147733000Y-71247000D01*
X146383750Y-71247000D01*
X146225000Y-71405750D01*
X142950000Y-71405750D01*
X142950000Y-68865750D01*
X146225000Y-68865750D01*
X146225000Y-69556310D01*
X146321673Y-69789699D01*
X146406974Y-69875000D01*
X146321673Y-69960301D01*
X146225000Y-70193690D01*
X146225000Y-70834250D01*
X146383750Y-70993000D01*
X147733000Y-70993000D01*
X147733000Y-68707000D01*
X147987000Y-68707000D01*
X147987000Y-70993000D01*
X149336250Y-70993000D01*
X149495000Y-70834250D01*
X149495000Y-70193690D01*
X149398327Y-69960301D01*
X149313026Y-69875000D01*
X149398327Y-69789699D01*
X149495000Y-69556310D01*
X149495000Y-68865750D01*
X149336250Y-68707000D01*
X147987000Y-68707000D01*
X147733000Y-68707000D01*
X146383750Y-68707000D01*
X146225000Y-68865750D01*
X142950000Y-68865750D01*
X142950000Y-67603690D01*
X146225000Y-67603690D01*
X146225000Y-68294250D01*
X146383750Y-68453000D01*
X147733000Y-68453000D01*
X147733000Y-67253750D01*
X147987000Y-67253750D01*
X147987000Y-68453000D01*
X149336250Y-68453000D01*
X149495000Y-68294250D01*
X149495000Y-67603690D01*
X149398327Y-67370301D01*
X149219698Y-67191673D01*
X148986309Y-67095000D01*
X148145750Y-67095000D01*
X147987000Y-67253750D01*
X147733000Y-67253750D01*
X147574250Y-67095000D01*
X146733691Y-67095000D01*
X146500302Y-67191673D01*
X146321673Y-67370301D01*
X146225000Y-67603690D01*
X142950000Y-67603690D01*
X142950000Y-55960000D01*
X143282560Y-55960000D01*
X143282560Y-57960000D01*
X143326838Y-58195317D01*
X143465910Y-58411441D01*
X143678110Y-58556431D01*
X143930000Y-58607440D01*
X145630000Y-58607440D01*
X145865317Y-58563162D01*
X146081441Y-58424090D01*
X146226431Y-58211890D01*
X146277440Y-57960000D01*
X146277440Y-55960000D01*
X146233162Y-55724683D01*
X146094090Y-55508559D01*
X145915000Y-55386192D01*
X145915000Y-53810132D01*
X146520132Y-53205000D01*
X149682735Y-53205000D01*
X149758381Y-53585299D01*
X150080208Y-54066948D01*
X150561857Y-54388775D01*
X151130000Y-54501786D01*
X151698143Y-54388775D01*
X152179792Y-54066948D01*
X152400000Y-53737383D01*
X152535000Y-53939425D01*
X152535000Y-58551834D01*
X152489016Y-58582560D01*
X151600000Y-58582560D01*
X151364683Y-58626838D01*
X151148559Y-58765910D01*
X151003569Y-58978110D01*
X150952560Y-59230000D01*
X150952560Y-61230000D01*
X150974199Y-61345000D01*
X150226579Y-61345000D01*
X149475000Y-60593420D01*
X149475000Y-57416440D01*
X149479000Y-57416440D01*
X149714317Y-57372162D01*
X149930441Y-57233090D01*
X150075431Y-57020890D01*
X150126440Y-56769000D01*
X150126440Y-54991000D01*
X150082162Y-54755683D01*
X149943090Y-54539559D01*
X149730890Y-54394569D01*
X149479000Y-54343560D01*
X147701000Y-54343560D01*
X147465683Y-54387838D01*
X147249559Y-54526910D01*
X147104569Y-54739110D01*
X147053560Y-54991000D01*
X147053560Y-56769000D01*
X147097838Y-57004317D01*
X147236910Y-57220441D01*
X147449110Y-57365431D01*
X147701000Y-57416440D01*
X147705000Y-57416440D01*
X147705000Y-60075000D01*
X146277440Y-60075000D01*
X146277440Y-59960000D01*
X146233162Y-59724683D01*
X146094090Y-59508559D01*
X145881890Y-59363569D01*
X145630000Y-59312560D01*
X143930000Y-59312560D01*
X143694683Y-59356838D01*
X143478559Y-59495910D01*
X143333569Y-59708110D01*
X143282560Y-59960000D01*
X143282560Y-61960000D01*
X143326838Y-62195317D01*
X143465910Y-62411441D01*
X143678110Y-62556431D01*
X143930000Y-62607440D01*
X145630000Y-62607440D01*
X145865317Y-62563162D01*
X146081441Y-62424090D01*
X146226431Y-62211890D01*
X146277440Y-61960000D01*
X146277440Y-61845000D01*
X148223420Y-61845000D01*
X149234208Y-62855787D01*
X149234210Y-62855790D01*
X149509901Y-63040000D01*
X149521325Y-63047633D01*
X149860000Y-63115001D01*
X149860005Y-63115000D01*
X150975848Y-63115000D01*
X150952560Y-63230000D01*
X150952560Y-65230000D01*
X150996838Y-65465317D01*
X151135910Y-65681441D01*
X151348110Y-65826431D01*
X151600000Y-65877440D01*
X151758726Y-65877440D01*
X151986154Y-66029403D01*
X152420500Y-66115800D01*
X153442930Y-66115800D01*
X153442930Y-66630550D01*
X153487208Y-66865867D01*
X153626280Y-67081991D01*
X153838480Y-67226981D01*
X154055000Y-67270827D01*
X154055000Y-67695000D01*
X153500854Y-67695000D01*
X153463162Y-67494683D01*
X153324090Y-67278559D01*
X153111890Y-67133569D01*
X152860000Y-67082560D01*
X150860000Y-67082560D01*
X150624683Y-67126838D01*
X150408559Y-67265910D01*
X150263569Y-67478110D01*
X150212560Y-67730000D01*
X150212560Y-69430000D01*
X150256838Y-69665317D01*
X150393584Y-69877826D01*
X150263569Y-70068110D01*
X150212560Y-70320000D01*
X150212560Y-71920000D01*
X150256838Y-72155317D01*
X150395910Y-72371441D01*
X150608110Y-72516431D01*
X150860000Y-72567440D01*
X152860000Y-72567440D01*
X153095317Y-72523162D01*
X153311441Y-72384090D01*
X153456431Y-72171890D01*
X153507440Y-71920000D01*
X153507440Y-70320000D01*
X153463162Y-70084683D01*
X153326416Y-69872174D01*
X153456431Y-69681890D01*
X153500352Y-69465000D01*
X154055000Y-69465000D01*
X154055000Y-71119995D01*
X154054999Y-71120000D01*
X154094346Y-71317804D01*
X154122367Y-71458675D01*
X154205082Y-71582467D01*
X154314210Y-71745790D01*
X155584208Y-73015787D01*
X155584210Y-73015790D01*
X155856209Y-73197533D01*
X155871325Y-73207633D01*
X156210000Y-73275001D01*
X156210005Y-73275000D01*
X157263670Y-73275000D01*
X157350332Y-73404698D01*
X157815879Y-73715767D01*
X158365030Y-73825000D01*
X159134970Y-73825000D01*
X159684121Y-73715767D01*
X160149668Y-73404698D01*
X160460737Y-72939151D01*
X160569970Y-72390000D01*
X160460737Y-71840849D01*
X160149668Y-71375302D01*
X159767582Y-71120000D01*
X160149668Y-70864698D01*
X160236330Y-70735000D01*
X161675000Y-70735000D01*
X161675000Y-73659995D01*
X161674999Y-73660000D01*
X161717852Y-73875431D01*
X161742367Y-73998675D01*
X161934210Y-74285790D01*
X162303209Y-74654788D01*
X162303211Y-74654791D01*
X162590326Y-74846634D01*
X162929001Y-74914002D01*
X162929006Y-74914001D01*
X177430994Y-74914001D01*
X177430999Y-74914002D01*
X177713483Y-74857811D01*
X177769674Y-74846634D01*
X178056789Y-74654791D01*
X178056790Y-74654790D01*
X178425787Y-74285792D01*
X178425790Y-74285790D01*
X178617633Y-73998675D01*
X178632002Y-73926440D01*
X178685001Y-73660000D01*
X178685000Y-73659995D01*
X178685000Y-73462196D01*
X181987409Y-73462196D01*
X182072467Y-73717539D01*
X182641965Y-73925516D01*
X183247700Y-73899723D01*
X183687533Y-73717539D01*
X183772591Y-73462196D01*
X182880000Y-72569605D01*
X181987409Y-73462196D01*
X178685000Y-73462196D01*
X178685000Y-72151965D01*
X181344484Y-72151965D01*
X181370277Y-72757700D01*
X181552461Y-73197533D01*
X181807804Y-73282591D01*
X182700395Y-72390000D01*
X183059605Y-72390000D01*
X183952196Y-73282591D01*
X184207539Y-73197533D01*
X184415516Y-72628035D01*
X184389723Y-72022300D01*
X184207539Y-71582467D01*
X183952196Y-71497409D01*
X183059605Y-72390000D01*
X182700395Y-72390000D01*
X181807804Y-71497409D01*
X181552461Y-71582467D01*
X181344484Y-72151965D01*
X178685000Y-72151965D01*
X178685000Y-71317804D01*
X181987409Y-71317804D01*
X182880000Y-72210395D01*
X183772591Y-71317804D01*
X183687533Y-71062461D01*
X183303450Y-70922196D01*
X189607409Y-70922196D01*
X189692467Y-71177539D01*
X190261965Y-71385516D01*
X190867700Y-71359723D01*
X191307533Y-71177539D01*
X191392591Y-70922196D01*
X190500000Y-70029605D01*
X189607409Y-70922196D01*
X183303450Y-70922196D01*
X183118035Y-70854484D01*
X182512300Y-70880277D01*
X182072467Y-71062461D01*
X181987409Y-71317804D01*
X178685000Y-71317804D01*
X178685000Y-68325750D01*
X178855000Y-68325750D01*
X178855000Y-69166309D01*
X178951673Y-69399698D01*
X179130301Y-69578327D01*
X179363690Y-69675000D01*
X180054250Y-69675000D01*
X180213000Y-69516250D01*
X180213000Y-68167000D01*
X180467000Y-68167000D01*
X180467000Y-69516250D01*
X180625750Y-69675000D01*
X181316310Y-69675000D01*
X181549699Y-69578327D01*
X181635000Y-69493026D01*
X181720301Y-69578327D01*
X181953690Y-69675000D01*
X182594250Y-69675000D01*
X182753000Y-69516250D01*
X182753000Y-68167000D01*
X183007000Y-68167000D01*
X183007000Y-69516250D01*
X183165750Y-69675000D01*
X183806310Y-69675000D01*
X183958489Y-69611965D01*
X188964484Y-69611965D01*
X188990277Y-70217700D01*
X189172461Y-70657533D01*
X189427804Y-70742591D01*
X190320395Y-69850000D01*
X190679605Y-69850000D01*
X191572196Y-70742591D01*
X191827539Y-70657533D01*
X192035516Y-70088035D01*
X192009723Y-69482300D01*
X191827539Y-69042467D01*
X191572196Y-68957409D01*
X190679605Y-69850000D01*
X190320395Y-69850000D01*
X189427804Y-68957409D01*
X189172461Y-69042467D01*
X188964484Y-69611965D01*
X183958489Y-69611965D01*
X184039699Y-69578327D01*
X184218327Y-69399698D01*
X184315000Y-69166309D01*
X184315000Y-68325750D01*
X184156250Y-68167000D01*
X183007000Y-68167000D01*
X182753000Y-68167000D01*
X180467000Y-68167000D01*
X180213000Y-68167000D01*
X179013750Y-68167000D01*
X178855000Y-68325750D01*
X178685000Y-68325750D01*
X178685000Y-67746578D01*
X178855000Y-67576578D01*
X178855000Y-67754250D01*
X179013750Y-67913000D01*
X180213000Y-67913000D01*
X180213000Y-67893000D01*
X180467000Y-67893000D01*
X180467000Y-67913000D01*
X182753000Y-67913000D01*
X182753000Y-67893000D01*
X183007000Y-67893000D01*
X183007000Y-67913000D01*
X184156250Y-67913000D01*
X184315000Y-67754250D01*
X184315000Y-66925000D01*
X184859995Y-66925000D01*
X184860000Y-66925001D01*
X185157280Y-66865867D01*
X185198675Y-66857633D01*
X185201493Y-66855750D01*
X187795000Y-66855750D01*
X187795000Y-67996309D01*
X187891673Y-68229698D01*
X188070301Y-68408327D01*
X188303690Y-68505000D01*
X188944250Y-68505000D01*
X189103000Y-68346250D01*
X189103000Y-66697000D01*
X189357000Y-66697000D01*
X189357000Y-68346250D01*
X189515750Y-68505000D01*
X189734622Y-68505000D01*
X189692467Y-68522461D01*
X189607409Y-68777804D01*
X190500000Y-69670395D01*
X191392591Y-68777804D01*
X191307533Y-68522461D01*
X190738035Y-68314484D01*
X190472223Y-68325803D01*
X190568327Y-68229698D01*
X190665000Y-67996309D01*
X190665000Y-66855750D01*
X190506250Y-66697000D01*
X189357000Y-66697000D01*
X189103000Y-66697000D01*
X187953750Y-66697000D01*
X187795000Y-66855750D01*
X185201493Y-66855750D01*
X185485790Y-66665790D01*
X187798241Y-64353338D01*
X187826838Y-64505317D01*
X187965910Y-64721441D01*
X188034006Y-64767969D01*
X187891673Y-64910302D01*
X187795000Y-65143691D01*
X187795000Y-66284250D01*
X187953750Y-66443000D01*
X189103000Y-66443000D01*
X189103000Y-66423000D01*
X189357000Y-66423000D01*
X189357000Y-66443000D01*
X190506250Y-66443000D01*
X190665000Y-66284250D01*
X190665000Y-65143691D01*
X190568327Y-64910302D01*
X190427090Y-64769064D01*
X190481441Y-64734090D01*
X190626431Y-64521890D01*
X190677440Y-64270000D01*
X190677440Y-62774139D01*
X191125787Y-62325792D01*
X191125790Y-62325790D01*
X191317633Y-62038675D01*
X191349705Y-61877440D01*
X191385001Y-61700000D01*
X191385000Y-61699995D01*
X191385000Y-61226440D01*
X191389000Y-61226440D01*
X191624317Y-61182162D01*
X191840441Y-61043090D01*
X191985431Y-60830890D01*
X192036440Y-60579000D01*
X192036440Y-58801000D01*
X191992162Y-58565683D01*
X191853090Y-58349559D01*
X191640890Y-58204569D01*
X191389000Y-58153560D01*
X191385000Y-58153560D01*
X191385000Y-56980854D01*
X191585317Y-56943162D01*
X191801441Y-56804090D01*
X191946431Y-56591890D01*
X191997440Y-56340000D01*
X191997440Y-54340000D01*
X191953162Y-54104683D01*
X191814090Y-53888559D01*
X191601890Y-53743569D01*
X191350000Y-53692560D01*
X189650000Y-53692560D01*
X189414683Y-53736838D01*
X189198559Y-53875910D01*
X189053569Y-54088110D01*
X189002560Y-54340000D01*
X189002560Y-56340000D01*
X189046838Y-56575317D01*
X189185910Y-56791441D01*
X189398110Y-56936431D01*
X189615000Y-56980352D01*
X189615000Y-58153560D01*
X189611000Y-58153560D01*
X189375683Y-58197838D01*
X189159559Y-58336910D01*
X189014569Y-58549110D01*
X188963560Y-58801000D01*
X188963560Y-60579000D01*
X189007838Y-60814317D01*
X189141839Y-61022560D01*
X188430000Y-61022560D01*
X188194683Y-61066838D01*
X187978559Y-61205910D01*
X187833569Y-61418110D01*
X187782560Y-61670000D01*
X187782560Y-62114327D01*
X187647516Y-62141190D01*
X187591325Y-62152367D01*
X187304210Y-62344210D01*
X187304208Y-62344213D01*
X184493420Y-65155000D01*
X184304152Y-65155000D01*
X184327440Y-65040000D01*
X184327440Y-63065630D01*
X184377070Y-62820550D01*
X184377070Y-62055820D01*
X184458375Y-62055820D01*
X184458380Y-62055821D01*
X184740864Y-61999630D01*
X184797055Y-61988453D01*
X184994328Y-61856640D01*
X186220000Y-61856640D01*
X186455317Y-61812362D01*
X186671441Y-61673290D01*
X186816431Y-61461090D01*
X186867440Y-61209200D01*
X186867440Y-59209200D01*
X186823162Y-58973883D01*
X186684090Y-58757759D01*
X186471890Y-58612769D01*
X186220000Y-58561760D01*
X184620000Y-58561760D01*
X184384683Y-58606038D01*
X184168559Y-58745110D01*
X184025395Y-58954638D01*
X183981520Y-58924659D01*
X183729630Y-58873650D01*
X182030370Y-58873650D01*
X181795053Y-58917928D01*
X181578929Y-59057000D01*
X181433939Y-59269200D01*
X181382930Y-59521090D01*
X181382930Y-59987797D01*
X174211811Y-59987797D01*
X174217440Y-59960000D01*
X174217440Y-57960000D01*
X174173162Y-57724683D01*
X174034090Y-57508559D01*
X173821890Y-57363569D01*
X173605000Y-57319648D01*
X173605000Y-54177058D01*
X173769792Y-54066948D01*
X173990000Y-53737383D01*
X174210208Y-54066948D01*
X174691857Y-54388775D01*
X175260000Y-54501786D01*
X175828143Y-54388775D01*
X176309792Y-54066948D01*
X176535516Y-53729127D01*
X176840011Y-54110024D01*
X177349190Y-54390649D01*
X177443168Y-54411540D01*
X177673000Y-54290214D01*
X177673000Y-52197000D01*
X177927000Y-52197000D01*
X177927000Y-54290214D01*
X178156832Y-54411540D01*
X178250810Y-54390649D01*
X178759989Y-54110024D01*
X179123018Y-53655906D01*
X179284630Y-53097430D01*
X179284630Y-52197000D01*
X177927000Y-52197000D01*
X177673000Y-52197000D01*
X177653000Y-52197000D01*
X177653000Y-51943000D01*
X177673000Y-51943000D01*
X177673000Y-49849786D01*
X177927000Y-49849786D01*
X177927000Y-51943000D01*
X179284630Y-51943000D01*
X179284630Y-51042570D01*
X179123018Y-50484094D01*
X178759989Y-50029976D01*
X178250810Y-49749351D01*
X178156832Y-49728460D01*
X177927000Y-49849786D01*
X177673000Y-49849786D01*
X177443168Y-49728460D01*
X177349190Y-49749351D01*
X176840011Y-50029976D01*
X176535516Y-50410873D01*
X176395000Y-50200575D01*
X176395000Y-46855000D01*
X181745000Y-46855000D01*
X181745000Y-53448496D01*
X181578929Y-53555360D01*
X181433939Y-53767560D01*
X181382930Y-54019450D01*
X181382930Y-57318910D01*
X181427208Y-57554227D01*
X181566280Y-57770351D01*
X181778480Y-57915341D01*
X182030370Y-57966350D01*
X183729630Y-57966350D01*
X183964947Y-57922072D01*
X184181071Y-57783000D01*
X184230058Y-57711304D01*
X184368110Y-57805631D01*
X184620000Y-57856640D01*
X186220000Y-57856640D01*
X186455317Y-57812362D01*
X186671441Y-57673290D01*
X186816431Y-57461090D01*
X186867440Y-57209200D01*
X186867440Y-55209200D01*
X186823162Y-54973883D01*
X186684090Y-54757759D01*
X186471890Y-54612769D01*
X186220000Y-54561760D01*
X184620000Y-54561760D01*
X184384683Y-54606038D01*
X184377070Y-54610937D01*
X184377070Y-54019450D01*
X184332792Y-53784133D01*
X184193720Y-53568009D01*
X184015000Y-53445895D01*
X184015000Y-45720000D01*
X183928603Y-45285654D01*
X183682566Y-44917434D01*
X183314346Y-44671397D01*
X182880000Y-44585000D01*
X167505000Y-44585000D01*
X167505000Y-42598895D01*
X167788155Y-42175123D01*
X167905000Y-41587704D01*
X167905000Y-40925750D01*
X181345000Y-40925750D01*
X181345000Y-42566310D01*
X181441673Y-42799699D01*
X181620302Y-42978327D01*
X181853691Y-43075000D01*
X182594250Y-43075000D01*
X182753000Y-42916250D01*
X182753000Y-40767000D01*
X183007000Y-40767000D01*
X183007000Y-42916250D01*
X183165750Y-43075000D01*
X183906309Y-43075000D01*
X184139698Y-42978327D01*
X184318327Y-42799699D01*
X184415000Y-42566310D01*
X184415000Y-40925750D01*
X184256250Y-40767000D01*
X183007000Y-40767000D01*
X182753000Y-40767000D01*
X181503750Y-40767000D01*
X181345000Y-40925750D01*
X167905000Y-40925750D01*
X167905000Y-39692296D01*
X167788155Y-39104877D01*
X167526773Y-38713690D01*
X181345000Y-38713690D01*
X181345000Y-40354250D01*
X181503750Y-40513000D01*
X182753000Y-40513000D01*
X182753000Y-38363750D01*
X183007000Y-38363750D01*
X183007000Y-40513000D01*
X184256250Y-40513000D01*
X184415000Y-40354250D01*
X184415000Y-38713690D01*
X184318327Y-38480301D01*
X184139698Y-38301673D01*
X183906309Y-38205000D01*
X183165750Y-38205000D01*
X183007000Y-38363750D01*
X182753000Y-38363750D01*
X182594250Y-38205000D01*
X181853691Y-38205000D01*
X181620302Y-38301673D01*
X181441673Y-38480301D01*
X181345000Y-38713690D01*
X167526773Y-38713690D01*
X167455409Y-38606887D01*
X166957419Y-38274141D01*
X166370000Y-38157296D01*
X165782581Y-38274141D01*
X165284591Y-38606887D01*
X164951845Y-39104877D01*
X164835000Y-39692296D01*
X164835000Y-41587704D01*
X164951845Y-42175123D01*
X165235000Y-42598895D01*
X165235000Y-44585000D01*
X164829018Y-44585000D01*
X164754090Y-44468559D01*
X164541890Y-44323569D01*
X164290000Y-44272560D01*
X162290000Y-44272560D01*
X162054683Y-44316838D01*
X161838559Y-44455910D01*
X161693569Y-44668110D01*
X161642560Y-44920000D01*
X161642560Y-46520000D01*
X161686838Y-46755317D01*
X161825910Y-46971441D01*
X162038110Y-47116431D01*
X162290000Y-47167440D01*
X164290000Y-47167440D01*
X164525317Y-47123162D01*
X164741441Y-46984090D01*
X164829644Y-46855000D01*
X174125000Y-46855000D01*
X174125000Y-50200575D01*
X173990000Y-50402617D01*
X173769792Y-50073052D01*
X173288143Y-49751225D01*
X172720000Y-49638214D01*
X172151857Y-49751225D01*
X171670208Y-50073052D01*
X171348381Y-50554701D01*
X171235370Y-51122844D01*
X171235370Y-53017156D01*
X171348381Y-53585299D01*
X171670208Y-54066948D01*
X171835000Y-54177058D01*
X171835000Y-57319146D01*
X171634683Y-57356838D01*
X171418559Y-57495910D01*
X171273569Y-57708110D01*
X171222560Y-57960000D01*
X171222560Y-59960000D01*
X171227790Y-59987797D01*
X169377208Y-59987797D01*
X169377203Y-59987796D01*
X169094719Y-60043987D01*
X169038528Y-60055164D01*
X168751413Y-60247007D01*
X168751411Y-60247010D01*
X167775055Y-61223365D01*
X167769668Y-61215302D01*
X167304121Y-60904233D01*
X166754970Y-60795000D01*
X165985030Y-60795000D01*
X165435879Y-60904233D01*
X164970332Y-61215302D01*
X164659263Y-61680849D01*
X164550030Y-62230000D01*
X164659263Y-62779151D01*
X164970332Y-63244698D01*
X165352418Y-63500000D01*
X164970332Y-63755302D01*
X164883670Y-63885000D01*
X163445000Y-63885000D01*
X163445000Y-59751104D01*
X163471441Y-59734090D01*
X163616431Y-59521890D01*
X163667440Y-59270000D01*
X163667440Y-57570000D01*
X163623162Y-57334683D01*
X163484090Y-57118559D01*
X163271890Y-56973569D01*
X163020000Y-56922560D01*
X161020000Y-56922560D01*
X160784683Y-56966838D01*
X160568559Y-57105910D01*
X160423569Y-57318110D01*
X160372560Y-57570000D01*
X160372560Y-59270000D01*
X160416838Y-59505317D01*
X160555910Y-59721441D01*
X160768110Y-59866431D01*
X161020000Y-59917440D01*
X161675000Y-59917440D01*
X161675000Y-67309995D01*
X161674999Y-67310000D01*
X161675000Y-67310005D01*
X161675000Y-68965000D01*
X160236330Y-68965000D01*
X160149668Y-68835302D01*
X159684121Y-68524233D01*
X159134970Y-68415000D01*
X158365030Y-68415000D01*
X157815879Y-68524233D01*
X157350332Y-68835302D01*
X157039263Y-69300849D01*
X156930030Y-69850000D01*
X157039263Y-70399151D01*
X157350332Y-70864698D01*
X157732418Y-71120000D01*
X157350332Y-71375302D01*
X157263670Y-71505000D01*
X156576579Y-71505000D01*
X155825000Y-70753420D01*
X155825000Y-67271335D01*
X156024947Y-67233712D01*
X156241071Y-67094640D01*
X156386061Y-66882440D01*
X156437070Y-66630550D01*
X156437070Y-63331090D01*
X156396410Y-63115000D01*
X157263670Y-63115000D01*
X157350332Y-63244698D01*
X157732418Y-63500000D01*
X157350332Y-63755302D01*
X157039263Y-64220849D01*
X156930030Y-64770000D01*
X157039263Y-65319151D01*
X157350332Y-65784698D01*
X157815879Y-66095767D01*
X158365030Y-66205000D01*
X159134970Y-66205000D01*
X159684121Y-66095767D01*
X160149668Y-65784698D01*
X160460737Y-65319151D01*
X160569970Y-64770000D01*
X160460737Y-64220849D01*
X160149668Y-63755302D01*
X159767582Y-63500000D01*
X160149668Y-63244698D01*
X160460737Y-62779151D01*
X160569970Y-62230000D01*
X160460737Y-61680849D01*
X160149668Y-61215302D01*
X159684121Y-60904233D01*
X159134970Y-60795000D01*
X158905000Y-60795000D01*
X158905000Y-59917440D01*
X159020000Y-59917440D01*
X159255317Y-59873162D01*
X159471441Y-59734090D01*
X159616431Y-59521890D01*
X159667440Y-59270000D01*
X159667440Y-57570000D01*
X159623162Y-57334683D01*
X159544753Y-57212832D01*
X159557533Y-57207539D01*
X159642591Y-56952196D01*
X158750000Y-56059605D01*
X158735858Y-56073748D01*
X158556253Y-55894143D01*
X158570395Y-55880000D01*
X158929605Y-55880000D01*
X159822196Y-56772591D01*
X160077539Y-56687533D01*
X160285516Y-56118035D01*
X160259723Y-55512300D01*
X160077539Y-55072467D01*
X159822196Y-54987409D01*
X158929605Y-55880000D01*
X158570395Y-55880000D01*
X157677804Y-54987409D01*
X157422461Y-55072467D01*
X157214484Y-55641965D01*
X157240277Y-56247700D01*
X157422461Y-56687533D01*
X157677802Y-56772590D01*
X157563212Y-56887180D01*
X157598592Y-56922560D01*
X157020000Y-56922560D01*
X156784683Y-56966838D01*
X156568559Y-57105910D01*
X156423569Y-57318110D01*
X156373686Y-57564441D01*
X156253720Y-57378009D01*
X156041520Y-57233019D01*
X155789630Y-57182010D01*
X154805000Y-57182010D01*
X154805000Y-55980546D01*
X154852367Y-56218675D01*
X155044210Y-56505790D01*
X155331325Y-56697633D01*
X155670000Y-56765000D01*
X155820000Y-56765000D01*
X156158675Y-56697633D01*
X156445790Y-56505790D01*
X156637633Y-56218675D01*
X156705000Y-55880000D01*
X156637633Y-55541325D01*
X156445790Y-55254210D01*
X156158675Y-55062367D01*
X155820000Y-54995000D01*
X155670000Y-54995000D01*
X155331325Y-55062367D01*
X155044210Y-55254210D01*
X154852367Y-55541325D01*
X154805000Y-55779454D01*
X154805000Y-54807804D01*
X157857409Y-54807804D01*
X158750000Y-55700395D01*
X159642591Y-54807804D01*
X159557533Y-54552461D01*
X158988035Y-54344484D01*
X158382300Y-54370277D01*
X157942467Y-54552461D01*
X157857409Y-54807804D01*
X154805000Y-54807804D01*
X154805000Y-53939425D01*
X154945516Y-53729127D01*
X155250011Y-54110024D01*
X155759190Y-54390649D01*
X155853168Y-54411540D01*
X156083000Y-54290214D01*
X156083000Y-52197000D01*
X156337000Y-52197000D01*
X156337000Y-54290214D01*
X156566832Y-54411540D01*
X156660810Y-54390649D01*
X157169989Y-54110024D01*
X157533018Y-53655906D01*
X157694630Y-53097430D01*
X157694630Y-52197000D01*
X156337000Y-52197000D01*
X156083000Y-52197000D01*
X156063000Y-52197000D01*
X156063000Y-51943000D01*
X156083000Y-51943000D01*
X156083000Y-49849786D01*
X156337000Y-49849786D01*
X156337000Y-51943000D01*
X157694630Y-51943000D01*
X157694630Y-51042570D01*
X157533018Y-50484094D01*
X157169989Y-50029976D01*
X156660810Y-49749351D01*
X156566832Y-49728460D01*
X156337000Y-49849786D01*
X156083000Y-49849786D01*
X155853168Y-49728460D01*
X155759190Y-49749351D01*
X155250011Y-50029976D01*
X154945516Y-50410873D01*
X154805000Y-50200575D01*
X154805000Y-47460132D01*
X155410132Y-46855000D01*
X157750982Y-46855000D01*
X157825910Y-46971441D01*
X158038110Y-47116431D01*
X158290000Y-47167440D01*
X160290000Y-47167440D01*
X160525317Y-47123162D01*
X160741441Y-46984090D01*
X160886431Y-46771890D01*
X160937440Y-46520000D01*
X160937440Y-44920000D01*
X160893162Y-44684683D01*
X160754090Y-44468559D01*
X160541890Y-44323569D01*
X160290000Y-44272560D01*
X158290000Y-44272560D01*
X158054683Y-44316838D01*
X157838559Y-44455910D01*
X157750356Y-44585000D01*
X157345000Y-44585000D01*
X157345000Y-43043222D01*
X157345317Y-43043162D01*
X157561441Y-42904090D01*
X157706431Y-42691890D01*
X157757440Y-42440000D01*
X157757440Y-38840000D01*
X157713162Y-38604683D01*
X157574090Y-38388559D01*
X157361890Y-38243569D01*
X157110000Y-38192560D01*
X155310000Y-38192560D01*
X155074683Y-38236838D01*
X154858559Y-38375910D01*
X154713569Y-38588110D01*
X154662560Y-38840000D01*
X154662560Y-42440000D01*
X154706838Y-42675317D01*
X154845910Y-42891441D01*
X155058110Y-43036431D01*
X155075000Y-43039851D01*
X155075000Y-44585000D01*
X154940000Y-44585000D01*
X154505654Y-44671397D01*
X154137434Y-44917434D01*
X152867434Y-46187434D01*
X152621397Y-46555654D01*
X152535000Y-46990000D01*
X152535000Y-50200575D01*
X152400000Y-50402617D01*
X152179792Y-50073052D01*
X151698143Y-49751225D01*
X151130000Y-49638214D01*
X150561857Y-49751225D01*
X150080208Y-50073052D01*
X149758381Y-50554701D01*
X149682735Y-50935000D01*
X146050000Y-50935000D01*
X145615654Y-51021397D01*
X145370805Y-51185000D01*
X145247434Y-51267434D01*
X143977434Y-52537434D01*
X143731397Y-52905654D01*
X143645000Y-53340000D01*
X143645000Y-55388808D01*
X143478559Y-55495910D01*
X143333569Y-55708110D01*
X143282560Y-55960000D01*
X142950000Y-55960000D01*
X142950000Y-36270000D01*
X161868421Y-36270000D01*
X160664210Y-37474210D01*
M02*
