G04 #@! TF.FileFunction,Other,Fab,Bot*
%FSLAX46Y46*%
G04 Gerber Fmt 4.6, Leading zero omitted, Abs format (unit mm)*
G04 Created by KiCad (PCBNEW 4.0.5+dfsg1-4) date Sat Apr 22 20:53:29 2017*
%MOMM*%
%LPD*%
G01*
G04 APERTURE LIST*
%ADD10C,0.100000*%
%ADD11C,0.150000*%
G04 APERTURE END LIST*
D10*
D11*
X175590000Y-113830000D02*
X175590000Y-112230000D01*
X172390000Y-113830000D02*
X175590000Y-113830000D01*
X172390000Y-112230000D02*
X172390000Y-113830000D01*
X175590000Y-112230000D02*
X172390000Y-112230000D01*
X166840000Y-126060000D02*
X168440000Y-126060000D01*
X166840000Y-122860000D02*
X166840000Y-126060000D01*
X168440000Y-122860000D02*
X166840000Y-122860000D01*
X168440000Y-126060000D02*
X168440000Y-122860000D01*
X168440000Y-129210000D02*
X166840000Y-129210000D01*
X168440000Y-132410000D02*
X168440000Y-129210000D01*
X166840000Y-132410000D02*
X168440000Y-132410000D01*
X166840000Y-129210000D02*
X166840000Y-132410000D01*
D10*
X170980000Y-129210000D02*
X169380000Y-129210000D01*
X170980000Y-132410000D02*
X170980000Y-129210000D01*
X169380000Y-132410000D02*
X170980000Y-132410000D01*
X169380000Y-129210000D02*
X169380000Y-132410000D01*
X175590000Y-116370000D02*
X175590000Y-114770000D01*
X172390000Y-116370000D02*
X175590000Y-116370000D01*
X172390000Y-114770000D02*
X172390000Y-116370000D01*
X175590000Y-114770000D02*
X172390000Y-114770000D01*
D11*
X186220000Y-129210000D02*
X184620000Y-129210000D01*
X186220000Y-132410000D02*
X186220000Y-129210000D01*
X184620000Y-132410000D02*
X186220000Y-132410000D01*
X184620000Y-129210000D02*
X184620000Y-132410000D01*
X184620000Y-126060000D02*
X186220000Y-126060000D01*
X184620000Y-122860000D02*
X184620000Y-126060000D01*
X186220000Y-122860000D02*
X184620000Y-122860000D01*
X186220000Y-126060000D02*
X186220000Y-122860000D01*
D10*
X188760000Y-129210000D02*
X187160000Y-129210000D01*
X188760000Y-132410000D02*
X188760000Y-129210000D01*
X187160000Y-132410000D02*
X188760000Y-132410000D01*
X187160000Y-129210000D02*
X187160000Y-132410000D01*
X183210000Y-113830000D02*
X183210000Y-112230000D01*
X180010000Y-113830000D02*
X183210000Y-113830000D01*
X180010000Y-112230000D02*
X180010000Y-113830000D01*
X183210000Y-112230000D02*
X180010000Y-112230000D01*
X180010000Y-114770000D02*
X180010000Y-116370000D01*
X183210000Y-114770000D02*
X180010000Y-114770000D01*
X183210000Y-116370000D02*
X183210000Y-114770000D01*
X180010000Y-116370000D02*
X183210000Y-116370000D01*
X178600000Y-91110000D02*
X177000000Y-91110000D01*
X178600000Y-94310000D02*
X178600000Y-91110000D01*
X177000000Y-94310000D02*
X178600000Y-94310000D01*
X177000000Y-91110000D02*
X177000000Y-94310000D01*
D11*
X173886666Y-110910714D02*
X173886666Y-111577381D01*
X174124762Y-110529762D02*
X174362857Y-111244048D01*
X173743809Y-111244048D01*
X173458095Y-110577381D02*
X172791428Y-110577381D01*
X173220000Y-111577381D01*
X172410476Y-110910714D02*
X172410476Y-111577381D01*
X172410476Y-111005952D02*
X172362857Y-110958333D01*
X172267619Y-110910714D01*
X172124761Y-110910714D01*
X172029523Y-110958333D01*
X171981904Y-111053571D01*
X171981904Y-111577381D01*
X171172380Y-111053571D02*
X171505714Y-111053571D01*
X171505714Y-111577381D02*
X171505714Y-110577381D01*
X171029523Y-110577381D01*
X165520714Y-123293334D02*
X166187381Y-123293334D01*
X165139762Y-123055238D02*
X165854048Y-122817143D01*
X165854048Y-123436191D01*
X165187381Y-123721905D02*
X165187381Y-124388572D01*
X166187381Y-123960000D01*
X165520714Y-124769524D02*
X166187381Y-124769524D01*
X165615952Y-124769524D02*
X165568333Y-124817143D01*
X165520714Y-124912381D01*
X165520714Y-125055239D01*
X165568333Y-125150477D01*
X165663571Y-125198096D01*
X166187381Y-125198096D01*
X165663571Y-126007620D02*
X165663571Y-125674286D01*
X166187381Y-125674286D02*
X165187381Y-125674286D01*
X165187381Y-126150477D01*
X165520714Y-127103334D02*
X166187381Y-127103334D01*
X165139762Y-126865238D02*
X165854048Y-126627143D01*
X165854048Y-127246191D01*
X165187381Y-127531905D02*
X165187381Y-128198572D01*
X166187381Y-127770000D01*
X165520714Y-128579524D02*
X166187381Y-128579524D01*
X165615952Y-128579524D02*
X165568333Y-128627143D01*
X165520714Y-128722381D01*
X165520714Y-128865239D01*
X165568333Y-128960477D01*
X165663571Y-129008096D01*
X166187381Y-129008096D01*
X165663571Y-129817620D02*
X165663571Y-129484286D01*
X166187381Y-129484286D02*
X165187381Y-129484286D01*
X165187381Y-129960477D01*
X171537381Y-129595714D02*
X171537381Y-130214762D01*
X171918333Y-129881428D01*
X171918333Y-130024286D01*
X171965952Y-130119524D01*
X172013571Y-130167143D01*
X172108810Y-130214762D01*
X172346905Y-130214762D01*
X172442143Y-130167143D01*
X172489762Y-130119524D01*
X172537381Y-130024286D01*
X172537381Y-129738571D01*
X172489762Y-129643333D01*
X172442143Y-129595714D01*
X171537381Y-130548095D02*
X171537381Y-131167143D01*
X171918333Y-130833809D01*
X171918333Y-130976667D01*
X171965952Y-131071905D01*
X172013571Y-131119524D01*
X172108810Y-131167143D01*
X172346905Y-131167143D01*
X172442143Y-131119524D01*
X172489762Y-131071905D01*
X172537381Y-130976667D01*
X172537381Y-130690952D01*
X172489762Y-130595714D01*
X172442143Y-130548095D01*
X172537381Y-131595714D02*
X171537381Y-131595714D01*
X172156429Y-131690952D02*
X172537381Y-131976667D01*
X171870714Y-131976667D02*
X172251667Y-131595714D01*
X172775476Y-117260714D02*
X172775476Y-117927381D01*
X173013572Y-116879762D02*
X173251667Y-117594048D01*
X172632619Y-117594048D01*
X172346905Y-116927381D02*
X171680238Y-116927381D01*
X172108810Y-117927381D01*
X171299286Y-117927381D02*
X171299286Y-116927381D01*
X171204048Y-117546429D02*
X170918333Y-117927381D01*
X170918333Y-117260714D02*
X171299286Y-117641667D01*
X172537381Y-122317143D02*
X172537381Y-121745714D01*
X172537381Y-122031428D02*
X171537381Y-122031428D01*
X171680238Y-121936190D01*
X171775476Y-121840952D01*
X171823095Y-121745714D01*
X172537381Y-122745714D02*
X171537381Y-122745714D01*
X172537381Y-123317143D01*
X171537381Y-123317143D01*
X171870714Y-124221905D02*
X172537381Y-124221905D01*
X171489762Y-123983809D02*
X172204048Y-123745714D01*
X172204048Y-124364762D01*
X172537381Y-125269524D02*
X172537381Y-124698095D01*
X172537381Y-124983809D02*
X171537381Y-124983809D01*
X171680238Y-124888571D01*
X171775476Y-124793333D01*
X171823095Y-124698095D01*
X171870714Y-126126667D02*
X172537381Y-126126667D01*
X171489762Y-125888571D02*
X172204048Y-125650476D01*
X172204048Y-126269524D01*
X171965952Y-126793333D02*
X171918333Y-126698095D01*
X171870714Y-126650476D01*
X171775476Y-126602857D01*
X171727857Y-126602857D01*
X171632619Y-126650476D01*
X171585000Y-126698095D01*
X171537381Y-126793333D01*
X171537381Y-126983810D01*
X171585000Y-127079048D01*
X171632619Y-127126667D01*
X171727857Y-127174286D01*
X171775476Y-127174286D01*
X171870714Y-127126667D01*
X171918333Y-127079048D01*
X171965952Y-126983810D01*
X171965952Y-126793333D01*
X172013571Y-126698095D01*
X172061190Y-126650476D01*
X172156429Y-126602857D01*
X172346905Y-126602857D01*
X172442143Y-126650476D01*
X172489762Y-126698095D01*
X172537381Y-126793333D01*
X172537381Y-126983810D01*
X172489762Y-127079048D01*
X172442143Y-127126667D01*
X172346905Y-127174286D01*
X172156429Y-127174286D01*
X172061190Y-127126667D01*
X172013571Y-127079048D01*
X171965952Y-126983810D01*
X190317381Y-121047143D02*
X190317381Y-120475714D01*
X190317381Y-120761428D02*
X189317381Y-120761428D01*
X189460238Y-120666190D01*
X189555476Y-120570952D01*
X189603095Y-120475714D01*
X190317381Y-121475714D02*
X189317381Y-121475714D01*
X190317381Y-122047143D01*
X189317381Y-122047143D01*
X189650714Y-122951905D02*
X190317381Y-122951905D01*
X189269762Y-122713809D02*
X189984048Y-122475714D01*
X189984048Y-123094762D01*
X190317381Y-123999524D02*
X190317381Y-123428095D01*
X190317381Y-123713809D02*
X189317381Y-123713809D01*
X189460238Y-123618571D01*
X189555476Y-123523333D01*
X189603095Y-123428095D01*
X189650714Y-124856667D02*
X190317381Y-124856667D01*
X189269762Y-124618571D02*
X189984048Y-124380476D01*
X189984048Y-124999524D01*
X189745952Y-125523333D02*
X189698333Y-125428095D01*
X189650714Y-125380476D01*
X189555476Y-125332857D01*
X189507857Y-125332857D01*
X189412619Y-125380476D01*
X189365000Y-125428095D01*
X189317381Y-125523333D01*
X189317381Y-125713810D01*
X189365000Y-125809048D01*
X189412619Y-125856667D01*
X189507857Y-125904286D01*
X189555476Y-125904286D01*
X189650714Y-125856667D01*
X189698333Y-125809048D01*
X189745952Y-125713810D01*
X189745952Y-125523333D01*
X189793571Y-125428095D01*
X189841190Y-125380476D01*
X189936429Y-125332857D01*
X190126905Y-125332857D01*
X190222143Y-125380476D01*
X190269762Y-125428095D01*
X190317381Y-125523333D01*
X190317381Y-125713810D01*
X190269762Y-125809048D01*
X190222143Y-125856667D01*
X190126905Y-125904286D01*
X189936429Y-125904286D01*
X189841190Y-125856667D01*
X189793571Y-125809048D01*
X189745952Y-125713810D01*
X183300714Y-129643334D02*
X183967381Y-129643334D01*
X182919762Y-129405238D02*
X183634048Y-129167143D01*
X183634048Y-129786191D01*
X182967381Y-130071905D02*
X182967381Y-130738572D01*
X183967381Y-130310000D01*
X183300714Y-131119524D02*
X183967381Y-131119524D01*
X183395952Y-131119524D02*
X183348333Y-131167143D01*
X183300714Y-131262381D01*
X183300714Y-131405239D01*
X183348333Y-131500477D01*
X183443571Y-131548096D01*
X183967381Y-131548096D01*
X183443571Y-132357620D02*
X183443571Y-132024286D01*
X183967381Y-132024286D02*
X182967381Y-132024286D01*
X182967381Y-132500477D01*
X183300714Y-123504134D02*
X183967381Y-123504134D01*
X182919762Y-123266038D02*
X183634048Y-123027943D01*
X183634048Y-123646991D01*
X182967381Y-123932705D02*
X182967381Y-124599372D01*
X183967381Y-124170800D01*
X183300714Y-124980324D02*
X183967381Y-124980324D01*
X183395952Y-124980324D02*
X183348333Y-125027943D01*
X183300714Y-125123181D01*
X183300714Y-125266039D01*
X183348333Y-125361277D01*
X183443571Y-125408896D01*
X183967381Y-125408896D01*
X183443571Y-126218420D02*
X183443571Y-125885086D01*
X183967381Y-125885086D02*
X182967381Y-125885086D01*
X182967381Y-126361277D01*
X189317381Y-127690714D02*
X189317381Y-128309762D01*
X189698333Y-127976428D01*
X189698333Y-128119286D01*
X189745952Y-128214524D01*
X189793571Y-128262143D01*
X189888810Y-128309762D01*
X190126905Y-128309762D01*
X190222143Y-128262143D01*
X190269762Y-128214524D01*
X190317381Y-128119286D01*
X190317381Y-127833571D01*
X190269762Y-127738333D01*
X190222143Y-127690714D01*
X189317381Y-128643095D02*
X189317381Y-129262143D01*
X189698333Y-128928809D01*
X189698333Y-129071667D01*
X189745952Y-129166905D01*
X189793571Y-129214524D01*
X189888810Y-129262143D01*
X190126905Y-129262143D01*
X190222143Y-129214524D01*
X190269762Y-129166905D01*
X190317381Y-129071667D01*
X190317381Y-128785952D01*
X190269762Y-128690714D01*
X190222143Y-128643095D01*
X190317381Y-129690714D02*
X189317381Y-129690714D01*
X189936429Y-129785952D02*
X190317381Y-130071667D01*
X189650714Y-130071667D02*
X190031667Y-129690714D01*
X181729047Y-111577381D02*
X182300476Y-111577381D01*
X182014762Y-111577381D02*
X182014762Y-110577381D01*
X182110000Y-110720238D01*
X182205238Y-110815476D01*
X182300476Y-110863095D01*
X181300476Y-111577381D02*
X181300476Y-110577381D01*
X181205238Y-111196429D02*
X180919523Y-111577381D01*
X180919523Y-110910714D02*
X181300476Y-111291667D01*
X181665476Y-117260714D02*
X181665476Y-117927381D01*
X181903572Y-116879762D02*
X182141667Y-117594048D01*
X181522619Y-117594048D01*
X181236905Y-116927381D02*
X180570238Y-116927381D01*
X180998810Y-117927381D01*
X180189286Y-117927381D02*
X180189286Y-116927381D01*
X180094048Y-117546429D02*
X179808333Y-117927381D01*
X179808333Y-117260714D02*
X180189286Y-117641667D01*
X180157381Y-94495953D02*
X180157381Y-93924524D01*
X180157381Y-94210238D02*
X179157381Y-94210238D01*
X179300238Y-94115000D01*
X179395476Y-94019762D01*
X179443095Y-93924524D01*
X180157381Y-94924524D02*
X179157381Y-94924524D01*
X179776429Y-95019762D02*
X180157381Y-95305477D01*
X179490714Y-95305477D02*
X179871667Y-94924524D01*
M02*
