G04 #@! TF.FileFunction,Legend,Bot*
%FSLAX46Y46*%
G04 Gerber Fmt 4.6, Leading zero omitted, Abs format (unit mm)*
G04 Created by KiCad (PCBNEW 4.0.5+dfsg1-4) date Sun Apr 16 21:16:24 2017*
%MOMM*%
%LPD*%
G01*
G04 APERTURE LIST*
%ADD10C,0.100000*%
%ADD11C,0.150000*%
G04 APERTURE END LIST*
D10*
D11*
X160290000Y-44695000D02*
X162290000Y-44695000D01*
X162290000Y-46745000D02*
X160290000Y-46745000D01*
X153425000Y-61230000D02*
X153425000Y-63230000D01*
X151375000Y-63230000D02*
X151375000Y-61230000D01*
X148860000Y-70095000D02*
X150860000Y-70095000D01*
X150860000Y-72145000D02*
X148860000Y-72145000D01*
X181855000Y-67040000D02*
X181855000Y-65040000D01*
X183905000Y-65040000D02*
X183905000Y-67040000D01*
X186445000Y-57209200D02*
X186445000Y-59209200D01*
X184395000Y-59209200D02*
X184395000Y-57209200D01*
X148860000Y-69655000D02*
X150860000Y-69655000D01*
X150860000Y-67505000D02*
X148860000Y-67505000D01*
X143705000Y-57960000D02*
X143705000Y-59960000D01*
X145855000Y-59960000D02*
X145855000Y-57960000D01*
X169105000Y-64405000D02*
X169105000Y-66405000D01*
X171255000Y-66405000D02*
X171255000Y-64405000D01*
X159020000Y-59495000D02*
X161020000Y-59495000D01*
X161020000Y-57345000D02*
X159020000Y-57345000D01*
X181415000Y-67040000D02*
X181415000Y-65040000D01*
X179265000Y-65040000D02*
X179265000Y-67040000D01*
X171645000Y-59960000D02*
X171645000Y-61960000D01*
X173795000Y-61960000D02*
X173795000Y-59960000D01*
X191575000Y-54340000D02*
X191575000Y-52340000D01*
X189425000Y-52340000D02*
X189425000Y-54340000D01*
X190344855Y-63066401D02*
G75*
G02X190347600Y-66471800I-1114855J-1703599D01*
G01*
X188112400Y-66471800D02*
G75*
G02X188112400Y-63068200I1117600J1701800D01*
G01*
X190754000Y-62484000D02*
X190347600Y-62484000D01*
X191516000Y-67056000D02*
X190347600Y-67056000D01*
X186944000Y-67056000D02*
X188112400Y-67056000D01*
X187706000Y-62484000D02*
X188112400Y-62484000D01*
X191516000Y-63246000D02*
X191516000Y-67056000D01*
X191516000Y-63246000D02*
X190754000Y-62484000D01*
X186944000Y-63246000D02*
X186944000Y-67056000D01*
X186944000Y-63246000D02*
X187706000Y-62484000D01*
X154940000Y-61730420D02*
X154940000Y-61580560D01*
X154940000Y-62578780D02*
X154940000Y-62779440D01*
X154940000Y-61730420D02*
X155689300Y-61730420D01*
X154940000Y-61730420D02*
X154238960Y-61730420D01*
X154940000Y-61730420D02*
X154238960Y-62578780D01*
X154238960Y-62578780D02*
X155641040Y-62578780D01*
X155641040Y-62578780D02*
X154940000Y-61730420D01*
X182880000Y-57920420D02*
X182880000Y-57770560D01*
X182880000Y-58768780D02*
X182880000Y-58969440D01*
X182880000Y-57920420D02*
X183629300Y-57920420D01*
X182880000Y-57920420D02*
X182178960Y-57920420D01*
X182880000Y-57920420D02*
X182178960Y-58768780D01*
X182178960Y-58768780D02*
X183581040Y-58768780D01*
X183581040Y-58768780D02*
X182880000Y-57920420D01*
X163361666Y-47982143D02*
X163409285Y-48029762D01*
X163552142Y-48077381D01*
X163647380Y-48077381D01*
X163790238Y-48029762D01*
X163885476Y-47934524D01*
X163933095Y-47839286D01*
X163980714Y-47648810D01*
X163980714Y-47505952D01*
X163933095Y-47315476D01*
X163885476Y-47220238D01*
X163790238Y-47125000D01*
X163647380Y-47077381D01*
X163552142Y-47077381D01*
X163409285Y-47125000D01*
X163361666Y-47172619D01*
X162504523Y-47077381D02*
X162695000Y-47077381D01*
X162790238Y-47125000D01*
X162837857Y-47172619D01*
X162933095Y-47315476D01*
X162980714Y-47505952D01*
X162980714Y-47886905D01*
X162933095Y-47982143D01*
X162885476Y-48029762D01*
X162790238Y-48077381D01*
X162599761Y-48077381D01*
X162504523Y-48029762D01*
X162456904Y-47982143D01*
X162409285Y-47886905D01*
X162409285Y-47648810D01*
X162456904Y-47553571D01*
X162504523Y-47505952D01*
X162599761Y-47458333D01*
X162790238Y-47458333D01*
X162885476Y-47505952D01*
X162933095Y-47553571D01*
X162980714Y-47648810D01*
X150852143Y-58888334D02*
X150899762Y-58840715D01*
X150947381Y-58697858D01*
X150947381Y-58602620D01*
X150899762Y-58459762D01*
X150804524Y-58364524D01*
X150709286Y-58316905D01*
X150518810Y-58269286D01*
X150375952Y-58269286D01*
X150185476Y-58316905D01*
X150090238Y-58364524D01*
X149995000Y-58459762D01*
X149947381Y-58602620D01*
X149947381Y-58697858D01*
X149995000Y-58840715D01*
X150042619Y-58888334D01*
X150947381Y-59840715D02*
X150947381Y-59269286D01*
X150947381Y-59555000D02*
X149947381Y-59555000D01*
X150090238Y-59459762D01*
X150185476Y-59364524D01*
X150233095Y-59269286D01*
X145581666Y-71477143D02*
X145629285Y-71524762D01*
X145772142Y-71572381D01*
X145867380Y-71572381D01*
X146010238Y-71524762D01*
X146105476Y-71429524D01*
X146153095Y-71334286D01*
X146200714Y-71143810D01*
X146200714Y-71000952D01*
X146153095Y-70810476D01*
X146105476Y-70715238D01*
X146010238Y-70620000D01*
X145867380Y-70572381D01*
X145772142Y-70572381D01*
X145629285Y-70620000D01*
X145581666Y-70667619D01*
X145200714Y-70667619D02*
X145153095Y-70620000D01*
X145057857Y-70572381D01*
X144819761Y-70572381D01*
X144724523Y-70620000D01*
X144676904Y-70667619D01*
X144629285Y-70762857D01*
X144629285Y-70858095D01*
X144676904Y-71000952D01*
X145248333Y-71572381D01*
X144629285Y-71572381D01*
X185142143Y-63968334D02*
X185189762Y-63920715D01*
X185237381Y-63777858D01*
X185237381Y-63682620D01*
X185189762Y-63539762D01*
X185094524Y-63444524D01*
X184999286Y-63396905D01*
X184808810Y-63349286D01*
X184665952Y-63349286D01*
X184475476Y-63396905D01*
X184380238Y-63444524D01*
X184285000Y-63539762D01*
X184237381Y-63682620D01*
X184237381Y-63777858D01*
X184285000Y-63920715D01*
X184332619Y-63968334D01*
X184237381Y-64301667D02*
X184237381Y-64920715D01*
X184618333Y-64587381D01*
X184618333Y-64730239D01*
X184665952Y-64825477D01*
X184713571Y-64873096D01*
X184808810Y-64920715D01*
X185046905Y-64920715D01*
X185142143Y-64873096D01*
X185189762Y-64825477D01*
X185237381Y-64730239D01*
X185237381Y-64444524D01*
X185189762Y-64349286D01*
X185142143Y-64301667D01*
X187682143Y-55713334D02*
X187729762Y-55665715D01*
X187777381Y-55522858D01*
X187777381Y-55427620D01*
X187729762Y-55284762D01*
X187634524Y-55189524D01*
X187539286Y-55141905D01*
X187348810Y-55094286D01*
X187205952Y-55094286D01*
X187015476Y-55141905D01*
X186920238Y-55189524D01*
X186825000Y-55284762D01*
X186777381Y-55427620D01*
X186777381Y-55522858D01*
X186825000Y-55665715D01*
X186872619Y-55713334D01*
X187110714Y-56570477D02*
X187777381Y-56570477D01*
X186729762Y-56332381D02*
X187444048Y-56094286D01*
X187444048Y-56713334D01*
X145581666Y-69032381D02*
X145915000Y-68556190D01*
X146153095Y-69032381D02*
X146153095Y-68032381D01*
X145772142Y-68032381D01*
X145676904Y-68080000D01*
X145629285Y-68127619D01*
X145581666Y-68222857D01*
X145581666Y-68365714D01*
X145629285Y-68460952D01*
X145676904Y-68508571D01*
X145772142Y-68556190D01*
X146153095Y-68556190D01*
X144629285Y-69032381D02*
X145200714Y-69032381D01*
X144915000Y-69032381D02*
X144915000Y-68032381D01*
X145010238Y-68175238D01*
X145105476Y-68270476D01*
X145200714Y-68318095D01*
X147532381Y-58793334D02*
X147056190Y-58460000D01*
X147532381Y-58221905D02*
X146532381Y-58221905D01*
X146532381Y-58602858D01*
X146580000Y-58698096D01*
X146627619Y-58745715D01*
X146722857Y-58793334D01*
X146865714Y-58793334D01*
X146960952Y-58745715D01*
X147008571Y-58698096D01*
X147056190Y-58602858D01*
X147056190Y-58221905D01*
X146627619Y-59174286D02*
X146580000Y-59221905D01*
X146532381Y-59317143D01*
X146532381Y-59555239D01*
X146580000Y-59650477D01*
X146627619Y-59698096D01*
X146722857Y-59745715D01*
X146818095Y-59745715D01*
X146960952Y-59698096D01*
X147532381Y-59126667D01*
X147532381Y-59745715D01*
X170632381Y-69683334D02*
X170156190Y-69350000D01*
X170632381Y-69111905D02*
X169632381Y-69111905D01*
X169632381Y-69492858D01*
X169680000Y-69588096D01*
X169727619Y-69635715D01*
X169822857Y-69683334D01*
X169965714Y-69683334D01*
X170060952Y-69635715D01*
X170108571Y-69588096D01*
X170156190Y-69492858D01*
X170156190Y-69111905D01*
X169632381Y-70016667D02*
X169632381Y-70635715D01*
X170013333Y-70302381D01*
X170013333Y-70445239D01*
X170060952Y-70540477D01*
X170108571Y-70588096D01*
X170203810Y-70635715D01*
X170441905Y-70635715D01*
X170537143Y-70588096D01*
X170584762Y-70540477D01*
X170632381Y-70445239D01*
X170632381Y-70159524D01*
X170584762Y-70064286D01*
X170537143Y-70016667D01*
X165266666Y-56967381D02*
X165600000Y-56491190D01*
X165838095Y-56967381D02*
X165838095Y-55967381D01*
X165457142Y-55967381D01*
X165361904Y-56015000D01*
X165314285Y-56062619D01*
X165266666Y-56157857D01*
X165266666Y-56300714D01*
X165314285Y-56395952D01*
X165361904Y-56443571D01*
X165457142Y-56491190D01*
X165838095Y-56491190D01*
X164409523Y-56300714D02*
X164409523Y-56967381D01*
X164647619Y-55919762D02*
X164885714Y-56634048D01*
X164266666Y-56634048D01*
X178887381Y-63968334D02*
X178411190Y-63635000D01*
X178887381Y-63396905D02*
X177887381Y-63396905D01*
X177887381Y-63777858D01*
X177935000Y-63873096D01*
X177982619Y-63920715D01*
X178077857Y-63968334D01*
X178220714Y-63968334D01*
X178315952Y-63920715D01*
X178363571Y-63873096D01*
X178411190Y-63777858D01*
X178411190Y-63396905D01*
X177887381Y-64873096D02*
X177887381Y-64396905D01*
X178363571Y-64349286D01*
X178315952Y-64396905D01*
X178268333Y-64492143D01*
X178268333Y-64730239D01*
X178315952Y-64825477D01*
X178363571Y-64873096D01*
X178458810Y-64920715D01*
X178696905Y-64920715D01*
X178792143Y-64873096D01*
X178839762Y-64825477D01*
X178887381Y-64730239D01*
X178887381Y-64492143D01*
X178839762Y-64396905D01*
X178792143Y-64349286D01*
X175472381Y-60793334D02*
X174996190Y-60460000D01*
X175472381Y-60221905D02*
X174472381Y-60221905D01*
X174472381Y-60602858D01*
X174520000Y-60698096D01*
X174567619Y-60745715D01*
X174662857Y-60793334D01*
X174805714Y-60793334D01*
X174900952Y-60745715D01*
X174948571Y-60698096D01*
X174996190Y-60602858D01*
X174996190Y-60221905D01*
X174472381Y-61650477D02*
X174472381Y-61460000D01*
X174520000Y-61364762D01*
X174567619Y-61317143D01*
X174710476Y-61221905D01*
X174900952Y-61174286D01*
X175281905Y-61174286D01*
X175377143Y-61221905D01*
X175424762Y-61269524D01*
X175472381Y-61364762D01*
X175472381Y-61555239D01*
X175424762Y-61650477D01*
X175377143Y-61698096D01*
X175281905Y-61745715D01*
X175043810Y-61745715D01*
X174948571Y-61698096D01*
X174900952Y-61650477D01*
X174853333Y-61555239D01*
X174853333Y-61364762D01*
X174900952Y-61269524D01*
X174948571Y-61221905D01*
X175043810Y-61174286D01*
X189047381Y-49998334D02*
X188571190Y-49665000D01*
X189047381Y-49426905D02*
X188047381Y-49426905D01*
X188047381Y-49807858D01*
X188095000Y-49903096D01*
X188142619Y-49950715D01*
X188237857Y-49998334D01*
X188380714Y-49998334D01*
X188475952Y-49950715D01*
X188523571Y-49903096D01*
X188571190Y-49807858D01*
X188571190Y-49426905D01*
X188047381Y-50331667D02*
X188047381Y-50998334D01*
X189047381Y-50569762D01*
X193130443Y-64603334D02*
X193178062Y-64555715D01*
X193225681Y-64412858D01*
X193225681Y-64317620D01*
X193178062Y-64174762D01*
X193082824Y-64079524D01*
X192987586Y-64031905D01*
X192797110Y-63984286D01*
X192654252Y-63984286D01*
X192463776Y-64031905D01*
X192368538Y-64079524D01*
X192273300Y-64174762D01*
X192225681Y-64317620D01*
X192225681Y-64412858D01*
X192273300Y-64555715D01*
X192320919Y-64603334D01*
X192225681Y-65508096D02*
X192225681Y-65031905D01*
X192701871Y-64984286D01*
X192654252Y-65031905D01*
X192606633Y-65127143D01*
X192606633Y-65365239D01*
X192654252Y-65460477D01*
X192701871Y-65508096D01*
X192797110Y-65555715D01*
X193035205Y-65555715D01*
X193130443Y-65508096D01*
X193178062Y-65460477D01*
X193225681Y-65365239D01*
X193225681Y-65127143D01*
X193178062Y-65031905D01*
X193130443Y-64984286D01*
X191308029Y-61607748D02*
X191308029Y-62369653D01*
X191688981Y-61988701D02*
X190927076Y-61988701D01*
X156662381Y-67841905D02*
X155662381Y-67841905D01*
X155662381Y-68080000D01*
X155710000Y-68222858D01*
X155805238Y-68318096D01*
X155900476Y-68365715D01*
X156090952Y-68413334D01*
X156233810Y-68413334D01*
X156424286Y-68365715D01*
X156519524Y-68318096D01*
X156614762Y-68222858D01*
X156662381Y-68080000D01*
X156662381Y-67841905D01*
X156662381Y-69365715D02*
X156662381Y-68794286D01*
X156662381Y-69080000D02*
X155662381Y-69080000D01*
X155805238Y-68984762D01*
X155900476Y-68889524D01*
X155948095Y-68794286D01*
X157242381Y-60168095D02*
X156242381Y-60168095D01*
X157242381Y-60739524D02*
X156670952Y-60310952D01*
X156242381Y-60739524D02*
X156813810Y-60168095D01*
X156956667Y-63791905D02*
X156956667Y-64268096D01*
X157242381Y-63696667D02*
X156242381Y-64030000D01*
X157242381Y-64363334D01*
X181427381Y-54506905D02*
X180427381Y-54506905D01*
X180427381Y-54745000D01*
X180475000Y-54887858D01*
X180570238Y-54983096D01*
X180665476Y-55030715D01*
X180855952Y-55078334D01*
X180998810Y-55078334D01*
X181189286Y-55030715D01*
X181284524Y-54983096D01*
X181379762Y-54887858D01*
X181427381Y-54745000D01*
X181427381Y-54506905D01*
X180760714Y-55935477D02*
X181427381Y-55935477D01*
X180379762Y-55697381D02*
X181094048Y-55459286D01*
X181094048Y-56078334D01*
X185182381Y-56358095D02*
X184182381Y-56358095D01*
X185182381Y-56929524D02*
X184610952Y-56500952D01*
X184182381Y-56929524D02*
X184753810Y-56358095D01*
X184896667Y-59981905D02*
X184896667Y-60458096D01*
X185182381Y-59886667D02*
X184182381Y-60220000D01*
X185182381Y-60553334D01*
M02*
