M48
;DRILL file {KiCad 4.0.5+dfsg1-4} date Mon Apr 17 13:32:20 2017
;FORMAT={-:-/ absolute / inch / decimal}
FMAT,2
INCH,TZ
T1C0.031
T2C0.039
T3C0.040
T4C0.047
T5C0.126
T6C0.138
%
G90
G05
M72
T1
X6.85Y-4.85
X6.85Y-5.15
X6.95Y-4.85
X6.95Y-5.15
X7.05Y-4.85
X7.05Y-5.15
X7.15Y-4.85
X7.15Y-5.15
T2
X6.25Y-4.5
X6.35Y-4.5
X6.45Y-4.5
X7.Y-3.7031
X7.Y-4.1031
X7.55Y-4.5
X7.65Y-4.5
X7.75Y-4.5
T3
X6.3Y-4.8
X6.7Y-4.8
X7.Y-4.3
X7.Y-4.7
X7.3Y-4.8
X7.7Y-4.8
T4
X6.6Y-3.1
X6.8Y-3.1
X7.Y-3.1
X7.2Y-3.1
X7.4Y-3.1
T5
X6.35Y-3.84
X7.65Y-3.84
T6
X6.15Y-2.95
X6.15Y-5.25
X7.85Y-2.95
X7.85Y-5.25
T0
M30
