M48
;DRILL file {KiCad 4.0.5+dfsg1-4} date Sun Apr 16 11:46:54 2017
;FORMAT={-:-/ absolute / inch / decimal}
FMAT,2
INCH,TZ
T1C0.039
T2C0.043
T3C0.043
T4C0.047
T5C0.050
T6C0.059
%
G90
G05
M72
T1
X5.0126Y-2.95
X5.4094Y-3.15
X5.7Y-3.5
X5.8Y-2.95
X5.8Y-3.5
X5.9Y-3.5
X6.Y-3.15
X6.08Y-4.0594
X6.08Y-4.65
X6.26Y-4.0594
X6.26Y-4.65
X6.4094Y-3.15
X6.45Y-3.5
X6.5Y-2.95
X6.55Y-3.5
X6.65Y-3.5
X7.Y-3.15
X7.2874Y-2.95
X8.1Y-3.15
X8.1Y-3.7406
T2
X5.75Y-2.5
X5.85Y-2.5
T3
X5.35Y-3.7445
X5.35Y-4.65
X5.8Y-3.7445
X5.8Y-4.65
X6.05Y-2.5
X6.55Y-3.7445
X6.55Y-4.65
X6.9555Y-2.5
X7.Y-3.7445
X7.Y-4.65
X7.75Y-3.75
X7.75Y-4.6555
T4
X6.2047Y-1.9969
X6.3031Y-1.8
X6.4016Y-1.9969
X6.5Y-1.8
X6.5985Y-1.9969
X6.6969Y-1.8
X7.9516Y-1.9969
X8.05Y-1.8
X8.1485Y-1.9969
X8.2469Y-1.8
T5
X4.95Y-3.35
X5.55Y-3.35
X6.2Y-3.3
X6.2Y-3.9
X8.1Y-3.875
X8.1Y-4.475
T6
X5.Y-4.05
X5.Y-4.65
X5.03Y-2.5
X5.25Y-2.5
X5.47Y-2.5
X7.28Y-2.5
X7.35Y-3.75
X7.35Y-4.35
X7.5Y-2.5
X7.72Y-2.5
T0
M30
