G04 #@! TF.FileFunction,Copper,L1,Top,Signal*
%FSLAX46Y46*%
G04 Gerber Fmt 4.6, Leading zero omitted, Abs format (unit mm)*
G04 Created by KiCad (PCBNEW 4.0.5+dfsg1-4) date Sun Apr 16 11:46:51 2017*
%MOMM*%
%LPD*%
G01*
G04 APERTURE LIST*
%ADD10C,0.100000*%
%ADD11R,3.000000X3.000000*%
%ADD12C,3.000000*%
%ADD13C,2.540000*%
%ADD14R,2.540000X2.540000*%
%ADD15O,3.500120X5.501640*%
%ADD16O,1.699260X3.500120*%
%ADD17C,1.998980*%
%ADD18C,2.500000*%
%ADD19O,1.500000X1.500000*%
%ADD20R,1.500000X1.500000*%
%ADD21C,1.000000*%
G04 APERTURE END LIST*
D10*
D11*
X147320000Y-95110000D03*
D12*
X147320000Y-118110000D03*
D11*
X177800000Y-118110000D03*
D12*
X177800000Y-95110000D03*
D11*
X135890000Y-118110000D03*
D12*
X135890000Y-95110000D03*
D11*
X166370000Y-95110000D03*
D12*
X166370000Y-118110000D03*
D13*
X127000000Y-118110000D03*
D14*
X127000000Y-102870000D03*
D11*
X196850000Y-95250000D03*
D12*
X196850000Y-118250000D03*
D11*
X176670000Y-63500000D03*
D12*
X153670000Y-63500000D03*
D13*
X186690000Y-110490000D03*
D14*
X186690000Y-95250000D03*
D15*
X133350000Y-63500000D03*
X127762000Y-63500000D03*
X138938000Y-63500000D03*
D16*
X147320000Y-88900000D03*
X149860000Y-88900000D03*
X144780000Y-88900000D03*
X166370000Y-88900000D03*
X168910000Y-88900000D03*
X163830000Y-88900000D03*
D17*
X154432000Y-103110000D03*
X154432000Y-118110000D03*
D18*
X147320000Y-74930000D03*
X127320000Y-74930000D03*
D17*
X152400000Y-80010000D03*
X137400000Y-80010000D03*
X177800000Y-80010000D03*
X162800000Y-80010000D03*
X159004000Y-103110000D03*
X159004000Y-118110000D03*
D18*
X165100000Y-74930000D03*
X185100000Y-74930000D03*
D17*
X205740000Y-80010000D03*
X205740000Y-95010000D03*
D15*
X190500000Y-63500000D03*
X184912000Y-63500000D03*
X196088000Y-63500000D03*
D12*
X167600640Y-50721260D03*
X170100000Y-45720000D03*
X165100000Y-45720000D03*
X162600640Y-50721260D03*
X157600640Y-50721260D03*
X160100000Y-45720000D03*
X209470000Y-45720000D03*
X206970640Y-50721260D03*
X201970640Y-50721260D03*
X204470000Y-45720000D03*
D19*
X146050000Y-63500000D03*
D20*
X148590000Y-63500000D03*
D13*
X157480000Y-99060000D03*
D14*
X157480000Y-83820000D03*
D13*
X125730000Y-85090000D03*
D14*
X140970000Y-85090000D03*
D13*
X205740000Y-113665000D03*
D14*
X205740000Y-98425000D03*
D21*
X162800000Y-80010000D02*
X161290000Y-80010000D01*
X161290000Y-80010000D02*
X156279947Y-74999947D01*
X156279947Y-74999947D02*
X147389947Y-74999947D01*
X147389947Y-74999947D02*
X147320000Y-74930000D01*
M02*
